<mxfile host="app.diagrams.net" modified="2023-12-26T16:59:30.569Z" agent="Mozilla/5.0 (Macintosh; Intel Mac OS X 10_15_7) AppleWebKit/537.36 (KHTML, like Gecko) Chrome/120.0.0.0 Safari/537.36" etag="1ntWQ4eXh4jtdbZ1Bmvp" version="22.1.11" type="device">
  <diagram name="Page-1" id="b5lwA0PTEpCoF_x-Kq0s">
    <mxGraphModel dx="1647" dy="865" grid="1" gridSize="10" guides="1" tooltips="1" connect="1" arrows="1" fold="1" page="1" pageScale="1" pageWidth="827" pageHeight="1169" math="0" shadow="0">
      <root>
        <mxCell id="0" />
        <mxCell id="1" parent="0" />
        <mxCell id="yeW9yZxDuHKNDsHLT4yy-1" value="&lt;b&gt;&lt;font style=&quot;font-size: 19px;&quot;&gt;Client&lt;/font&gt;&lt;/b&gt;" style="rounded=0;whiteSpace=wrap;html=1;" parent="1" vertex="1">
          <mxGeometry x="353" y="10" width="120" height="60" as="geometry" />
        </mxCell>
        <mxCell id="yeW9yZxDuHKNDsHLT4yy-3" value="&lt;b&gt;&lt;font style=&quot;font-size: 19px;&quot;&gt;API Gateway&lt;/font&gt;&lt;/b&gt;" style="rounded=0;whiteSpace=wrap;html=1;fillColor=#dae8fc;strokeColor=#6c8ebf;" parent="1" vertex="1">
          <mxGeometry x="343.5" y="130" width="139" height="60" as="geometry" />
        </mxCell>
        <mxCell id="yeW9yZxDuHKNDsHLT4yy-6" value="" style="endArrow=classic;html=1;rounded=0;exitX=0.5;exitY=1;exitDx=0;exitDy=0;strokeWidth=3;" parent="1" edge="1">
          <mxGeometry width="50" height="50" relative="1" as="geometry">
            <mxPoint x="412.5" y="70" as="sourcePoint" />
            <mxPoint x="412.5" y="130" as="targetPoint" />
          </mxGeometry>
        </mxCell>
        <mxCell id="lbYwN2UF0Nlyc8jE-Wue-3" value="&lt;b&gt;&lt;font style=&quot;font-size: 18px;&quot;&gt;Authentication Microservice&lt;/font&gt;&lt;/b&gt;" style="rounded=0;whiteSpace=wrap;html=1;fillColor=#d5e8d4;strokeColor=#82b366;" parent="1" vertex="1">
          <mxGeometry x="629" y="115" width="180" height="90" as="geometry" />
        </mxCell>
        <mxCell id="lbYwN2UF0Nlyc8jE-Wue-4" value="" style="endArrow=classic;html=1;rounded=0;exitX=1;exitY=0.25;exitDx=0;exitDy=0;strokeWidth=3;entryX=0.006;entryY=0.337;entryDx=0;entryDy=0;entryPerimeter=0;" parent="1" source="yeW9yZxDuHKNDsHLT4yy-3" target="lbYwN2UF0Nlyc8jE-Wue-3" edge="1">
          <mxGeometry width="50" height="50" relative="1" as="geometry">
            <mxPoint x="559" y="200" as="sourcePoint" />
            <mxPoint x="559" y="260" as="targetPoint" />
          </mxGeometry>
        </mxCell>
        <mxCell id="lbYwN2UF0Nlyc8jE-Wue-5" value="" style="endArrow=classic;html=1;rounded=0;strokeWidth=3;entryX=1;entryY=0.75;entryDx=0;entryDy=0;exitX=-0.003;exitY=0.671;exitDx=0;exitDy=0;exitPerimeter=0;" parent="1" source="lbYwN2UF0Nlyc8jE-Wue-3" target="yeW9yZxDuHKNDsHLT4yy-3" edge="1">
          <mxGeometry width="50" height="50" relative="1" as="geometry">
            <mxPoint x="619" y="175" as="sourcePoint" />
            <mxPoint x="529" y="160" as="targetPoint" />
          </mxGeometry>
        </mxCell>
        <UserObject label="HTTP/1.1 (REST)" placeholders="1" name="Variable" id="lbYwN2UF0Nlyc8jE-Wue-8">
          <mxCell style="text;html=1;strokeColor=none;fillColor=none;align=center;verticalAlign=middle;whiteSpace=wrap;overflow=hidden;" parent="1" vertex="1">
            <mxGeometry x="419" y="80" width="80" height="40" as="geometry" />
          </mxCell>
        </UserObject>
        <UserObject label="HTTP/2 &lt;br&gt;(gRPC - Unary)" placeholders="1" name="Variable" id="lbYwN2UF0Nlyc8jE-Wue-9">
          <mxCell style="text;html=1;strokeColor=none;fillColor=none;align=center;verticalAlign=middle;whiteSpace=wrap;overflow=hidden;" parent="1" vertex="1">
            <mxGeometry x="508" y="100" width="101" height="40" as="geometry" />
          </mxCell>
        </UserObject>
        <mxCell id="lbYwN2UF0Nlyc8jE-Wue-11" value="&lt;b&gt;&lt;font style=&quot;font-size: 18px;&quot;&gt;Inventory Microservice&lt;/font&gt;&lt;/b&gt;" style="rounded=0;whiteSpace=wrap;html=1;fillColor=#fff2cc;strokeColor=#d6b656;" parent="1" vertex="1">
          <mxGeometry x="19" y="290" width="180" height="90" as="geometry" />
        </mxCell>
        <mxCell id="lbYwN2UF0Nlyc8jE-Wue-12" value="&lt;b&gt;&lt;font style=&quot;font-size: 18px;&quot;&gt;Order Management Microservice&lt;/font&gt;&lt;/b&gt;" style="rounded=0;whiteSpace=wrap;html=1;fillColor=#fff2cc;strokeColor=#d6b656;" parent="1" vertex="1">
          <mxGeometry x="229" y="290" width="180" height="90" as="geometry" />
        </mxCell>
        <mxCell id="lbYwN2UF0Nlyc8jE-Wue-13" value="&lt;b&gt;&lt;font style=&quot;font-size: 18px;&quot;&gt;Notification Microservice&lt;/font&gt;&lt;/b&gt;" style="rounded=0;whiteSpace=wrap;html=1;fillColor=#fff2cc;strokeColor=#d6b656;" parent="1" vertex="1">
          <mxGeometry x="429" y="290" width="180" height="90" as="geometry" />
        </mxCell>
        <mxCell id="lbYwN2UF0Nlyc8jE-Wue-14" value="&lt;b&gt;&lt;font style=&quot;font-size: 18px;&quot;&gt;Financial Analytics Microservice&lt;/font&gt;&lt;/b&gt;" style="rounded=0;whiteSpace=wrap;html=1;fillColor=#fff2cc;strokeColor=#d6b656;" parent="1" vertex="1">
          <mxGeometry x="629" y="290" width="180" height="90" as="geometry" />
        </mxCell>
        <mxCell id="lbYwN2UF0Nlyc8jE-Wue-15" value="" style="strokeWidth=2;html=1;shape=mxgraph.flowchart.database;whiteSpace=wrap;fillColor=#dae8fc;strokeColor=#6c8ebf;" parent="1" vertex="1">
          <mxGeometry x="689" y="10" width="60" height="60" as="geometry" />
        </mxCell>
        <UserObject label="PostgreSQL" placeholders="1" name="Variable" id="lbYwN2UF0Nlyc8jE-Wue-17">
          <mxCell style="text;html=1;strokeColor=none;fillColor=none;align=center;verticalAlign=middle;whiteSpace=wrap;overflow=hidden;" parent="1" vertex="1">
            <mxGeometry x="609" y="20" width="80" height="40" as="geometry" />
          </mxCell>
        </UserObject>
        <mxCell id="lbYwN2UF0Nlyc8jE-Wue-18" value="" style="endArrow=classic;startArrow=classic;html=1;rounded=0;exitX=0.5;exitY=0;exitDx=0;exitDy=0;" parent="1" source="lbYwN2UF0Nlyc8jE-Wue-3" edge="1">
          <mxGeometry width="50" height="50" relative="1" as="geometry">
            <mxPoint x="669" y="120" as="sourcePoint" />
            <mxPoint x="719" y="70" as="targetPoint" />
          </mxGeometry>
        </mxCell>
        <mxCell id="lbYwN2UF0Nlyc8jE-Wue-19" value="" style="endArrow=classic;html=1;rounded=0;exitX=0.5;exitY=1;exitDx=0;exitDy=0;entryX=0.5;entryY=0;entryDx=0;entryDy=0;" parent="1" source="yeW9yZxDuHKNDsHLT4yy-3" target="lbYwN2UF0Nlyc8jE-Wue-11" edge="1">
          <mxGeometry width="50" height="50" relative="1" as="geometry">
            <mxPoint x="320" y="430" as="sourcePoint" />
            <mxPoint x="370" y="380" as="targetPoint" />
          </mxGeometry>
        </mxCell>
        <mxCell id="lbYwN2UF0Nlyc8jE-Wue-20" value="" style="endArrow=classic;html=1;rounded=0;exitX=0.5;exitY=1;exitDx=0;exitDy=0;entryX=0.5;entryY=0;entryDx=0;entryDy=0;" parent="1" source="yeW9yZxDuHKNDsHLT4yy-3" target="lbYwN2UF0Nlyc8jE-Wue-12" edge="1">
          <mxGeometry width="50" height="50" relative="1" as="geometry">
            <mxPoint x="320" y="430" as="sourcePoint" />
            <mxPoint x="370" y="380" as="targetPoint" />
          </mxGeometry>
        </mxCell>
        <mxCell id="lbYwN2UF0Nlyc8jE-Wue-21" value="" style="endArrow=classic;html=1;rounded=0;entryX=0.5;entryY=0;entryDx=0;entryDy=0;exitX=0.5;exitY=1;exitDx=0;exitDy=0;" parent="1" source="yeW9yZxDuHKNDsHLT4yy-3" target="lbYwN2UF0Nlyc8jE-Wue-13" edge="1">
          <mxGeometry width="50" height="50" relative="1" as="geometry">
            <mxPoint x="590" y="240" as="sourcePoint" />
            <mxPoint x="370" y="380" as="targetPoint" />
          </mxGeometry>
        </mxCell>
        <mxCell id="lbYwN2UF0Nlyc8jE-Wue-22" value="" style="endArrow=classic;html=1;rounded=0;exitX=0.5;exitY=1;exitDx=0;exitDy=0;entryX=0.5;entryY=0;entryDx=0;entryDy=0;" parent="1" source="yeW9yZxDuHKNDsHLT4yy-3" target="lbYwN2UF0Nlyc8jE-Wue-14" edge="1">
          <mxGeometry width="50" height="50" relative="1" as="geometry">
            <mxPoint x="320" y="430" as="sourcePoint" />
            <mxPoint x="370" y="380" as="targetPoint" />
          </mxGeometry>
        </mxCell>
        <UserObject label="HTTP/2 (gRPC)" placeholders="1" name="Variable" id="lbYwN2UF0Nlyc8jE-Wue-23">
          <mxCell style="text;html=1;strokeColor=none;fillColor=none;align=center;verticalAlign=middle;whiteSpace=wrap;overflow=hidden;" parent="1" vertex="1">
            <mxGeometry x="199" y="200" width="80" height="40" as="geometry" />
          </mxCell>
        </UserObject>
        <UserObject label="HTTP/2 (gRPC)" placeholders="1" name="Variable" id="lbYwN2UF0Nlyc8jE-Wue-24">
          <mxCell style="text;html=1;strokeColor=none;fillColor=none;align=center;verticalAlign=middle;whiteSpace=wrap;overflow=hidden;" parent="1" vertex="1">
            <mxGeometry x="549" y="200" width="80" height="40" as="geometry" />
          </mxCell>
        </UserObject>
        <UserObject label="HTTP/2 (gRPC)" placeholders="1" name="Variable" id="lbYwN2UF0Nlyc8jE-Wue-25">
          <mxCell style="text;html=1;strokeColor=none;fillColor=none;align=center;verticalAlign=middle;whiteSpace=wrap;overflow=hidden;" parent="1" vertex="1">
            <mxGeometry x="473" y="230" width="80" height="40" as="geometry" />
          </mxCell>
        </UserObject>
        <UserObject label="HTTP/2 (gRPC)" placeholders="1" name="Variable" id="lbYwN2UF0Nlyc8jE-Wue-26">
          <mxCell style="text;html=1;strokeColor=none;fillColor=none;align=center;verticalAlign=middle;whiteSpace=wrap;overflow=hidden;" parent="1" vertex="1">
            <mxGeometry x="273" y="230" width="80" height="40" as="geometry" />
          </mxCell>
        </UserObject>
        <mxCell id="lbYwN2UF0Nlyc8jE-Wue-27" value="" style="strokeWidth=2;html=1;shape=mxgraph.flowchart.database;whiteSpace=wrap;fillColor=#dae8fc;strokeColor=#6c8ebf;" parent="1" vertex="1">
          <mxGeometry x="19" y="410" width="60" height="60" as="geometry" />
        </mxCell>
        <mxCell id="lbYwN2UF0Nlyc8jE-Wue-28" value="" style="strokeWidth=2;html=1;shape=mxgraph.flowchart.database;whiteSpace=wrap;fillColor=#dae8fc;strokeColor=#6c8ebf;" parent="1" vertex="1">
          <mxGeometry x="229" y="410" width="60" height="60" as="geometry" />
        </mxCell>
        <mxCell id="lbYwN2UF0Nlyc8jE-Wue-29" value="" style="strokeWidth=2;html=1;shape=mxgraph.flowchart.database;whiteSpace=wrap;fillColor=#dae8fc;strokeColor=#6c8ebf;" parent="1" vertex="1">
          <mxGeometry x="429" y="410" width="60" height="60" as="geometry" />
        </mxCell>
        <mxCell id="lbYwN2UF0Nlyc8jE-Wue-31" value="" style="endArrow=classic;startArrow=classic;html=1;rounded=0;entryX=0.25;entryY=1;entryDx=0;entryDy=0;exitX=0.5;exitY=0;exitDx=0;exitDy=0;exitPerimeter=0;" parent="1" source="lbYwN2UF0Nlyc8jE-Wue-27" target="lbYwN2UF0Nlyc8jE-Wue-11" edge="1">
          <mxGeometry width="50" height="50" relative="1" as="geometry">
            <mxPoint x="320" y="430" as="sourcePoint" />
            <mxPoint x="370" y="380" as="targetPoint" />
          </mxGeometry>
        </mxCell>
        <mxCell id="lbYwN2UF0Nlyc8jE-Wue-32" value="" style="endArrow=classic;startArrow=classic;html=1;rounded=0;entryX=0.25;entryY=1;entryDx=0;entryDy=0;exitX=0.5;exitY=0;exitDx=0;exitDy=0;exitPerimeter=0;" parent="1" source="lbYwN2UF0Nlyc8jE-Wue-28" target="lbYwN2UF0Nlyc8jE-Wue-12" edge="1">
          <mxGeometry width="50" height="50" relative="1" as="geometry">
            <mxPoint x="320" y="430" as="sourcePoint" />
            <mxPoint x="370" y="380" as="targetPoint" />
          </mxGeometry>
        </mxCell>
        <mxCell id="lbYwN2UF0Nlyc8jE-Wue-33" value="" style="endArrow=classic;startArrow=classic;html=1;rounded=0;entryX=0.25;entryY=1;entryDx=0;entryDy=0;exitX=0.5;exitY=0;exitDx=0;exitDy=0;exitPerimeter=0;" parent="1" source="lbYwN2UF0Nlyc8jE-Wue-29" target="lbYwN2UF0Nlyc8jE-Wue-13" edge="1">
          <mxGeometry width="50" height="50" relative="1" as="geometry">
            <mxPoint x="320" y="430" as="sourcePoint" />
            <mxPoint x="460" y="390" as="targetPoint" />
          </mxGeometry>
        </mxCell>
        <UserObject label="PostgreSQL" placeholders="1" name="Variable" id="lbYwN2UF0Nlyc8jE-Wue-34">
          <mxCell style="text;html=1;strokeColor=none;fillColor=none;align=center;verticalAlign=middle;whiteSpace=wrap;overflow=hidden;" parent="1" vertex="1">
            <mxGeometry x="219" y="470" width="81" height="30" as="geometry" />
          </mxCell>
        </UserObject>
        <UserObject label="MySQL" placeholders="1" name="Variable" id="lbYwN2UF0Nlyc8jE-Wue-35">
          <mxCell style="text;html=1;strokeColor=none;fillColor=none;align=center;verticalAlign=middle;whiteSpace=wrap;overflow=hidden;" parent="1" vertex="1">
            <mxGeometry x="8.5" y="470" width="81" height="30" as="geometry" />
          </mxCell>
        </UserObject>
        <UserObject label="MongoDB" placeholders="1" name="Variable" id="lbYwN2UF0Nlyc8jE-Wue-36">
          <mxCell style="text;html=1;strokeColor=none;fillColor=none;align=center;verticalAlign=middle;whiteSpace=wrap;overflow=hidden;" parent="1" vertex="1">
            <mxGeometry x="419" y="470" width="81" height="30" as="geometry" />
          </mxCell>
        </UserObject>
        <mxCell id="lbYwN2UF0Nlyc8jE-Wue-37" value="" style="endArrow=classic;html=1;rounded=0;exitX=0.5;exitY=1;exitDx=0;exitDy=0;entryX=0.105;entryY=-0.022;entryDx=0;entryDy=0;entryPerimeter=0;" parent="1" source="lbYwN2UF0Nlyc8jE-Wue-11" target="lbYwN2UF0Nlyc8jE-Wue-43" edge="1">
          <mxGeometry width="50" height="50" relative="1" as="geometry">
            <mxPoint x="320" y="430" as="sourcePoint" />
            <mxPoint x="110" y="590" as="targetPoint" />
          </mxGeometry>
        </mxCell>
        <mxCell id="lbYwN2UF0Nlyc8jE-Wue-38" value="" style="endArrow=classic;html=1;rounded=0;exitX=0.5;exitY=1;exitDx=0;exitDy=0;entryX=0.377;entryY=-0.005;entryDx=0;entryDy=0;entryPerimeter=0;" parent="1" source="lbYwN2UF0Nlyc8jE-Wue-12" target="lbYwN2UF0Nlyc8jE-Wue-43" edge="1">
          <mxGeometry width="50" height="50" relative="1" as="geometry">
            <mxPoint x="320" y="430" as="sourcePoint" />
            <mxPoint x="320" y="590" as="targetPoint" />
          </mxGeometry>
        </mxCell>
        <mxCell id="lbYwN2UF0Nlyc8jE-Wue-39" value="" style="endArrow=classic;html=1;rounded=0;exitX=0.5;exitY=1;exitDx=0;exitDy=0;entryX=0.638;entryY=-0.022;entryDx=0;entryDy=0;entryPerimeter=0;" parent="1" target="lbYwN2UF0Nlyc8jE-Wue-43" edge="1">
          <mxGeometry width="50" height="50" relative="1" as="geometry">
            <mxPoint x="518.5" y="380" as="sourcePoint" />
            <mxPoint x="520" y="580" as="targetPoint" />
          </mxGeometry>
        </mxCell>
        <mxCell id="lbYwN2UF0Nlyc8jE-Wue-40" value="" style="endArrow=classic;html=1;rounded=0;exitX=0.5;exitY=1;exitDx=0;exitDy=0;entryX=0.899;entryY=-0.039;entryDx=0;entryDy=0;entryPerimeter=0;" parent="1" target="lbYwN2UF0Nlyc8jE-Wue-43" edge="1">
          <mxGeometry width="50" height="50" relative="1" as="geometry">
            <mxPoint x="718.5" y="380" as="sourcePoint" />
            <mxPoint x="719.5" y="590" as="targetPoint" />
          </mxGeometry>
        </mxCell>
        <mxCell id="lbYwN2UF0Nlyc8jE-Wue-43" value="&lt;font style=&quot;font-size: 18px;&quot;&gt;&lt;b&gt;Centralized Logging and Monitoring&lt;/b&gt;&lt;/font&gt;" style="rounded=1;whiteSpace=wrap;html=1;fillColor=#fad9d5;strokeColor=#ae4132;" parent="1" vertex="1">
          <mxGeometry x="29" y="680" width="770" height="60" as="geometry" />
        </mxCell>
        <mxCell id="lbYwN2UF0Nlyc8jE-Wue-44" value="" style="endArrow=classic;html=1;rounded=0;exitX=0.222;exitY=0.991;exitDx=0;exitDy=0;exitPerimeter=0;" parent="1" source="lbYwN2UF0Nlyc8jE-Wue-43" edge="1">
          <mxGeometry width="50" height="50" relative="1" as="geometry">
            <mxPoint x="190" y="840" as="sourcePoint" />
            <mxPoint x="200" y="780" as="targetPoint" />
          </mxGeometry>
        </mxCell>
        <mxCell id="lbYwN2UF0Nlyc8jE-Wue-45" value="&lt;b&gt;&lt;font style=&quot;font-size: 18px;&quot;&gt;Logstash&lt;/font&gt;&lt;/b&gt;" style="rounded=0;whiteSpace=wrap;html=1;fillColor=#b0e3e6;strokeColor=#0e8088;" parent="1" vertex="1">
          <mxGeometry x="140" y="780" width="120" height="50" as="geometry" />
        </mxCell>
        <mxCell id="lbYwN2UF0Nlyc8jE-Wue-47" value="" style="shape=image;verticalLabelPosition=bottom;labelBackgroundColor=default;verticalAlign=top;aspect=fixed;imageAspect=0;image=https://miro.medium.com/v2/resize:fit:700/1*vZDu4Bwj2GxQh8t1IjDq4w.png;" parent="1" vertex="1">
          <mxGeometry x="8.5" y="830" width="112.9" height="40" as="geometry" />
        </mxCell>
        <mxCell id="lbYwN2UF0Nlyc8jE-Wue-48" value="" style="endArrow=classic;html=1;rounded=0;exitX=0.222;exitY=0.991;exitDx=0;exitDy=0;exitPerimeter=0;" parent="1" edge="1">
          <mxGeometry width="50" height="50" relative="1" as="geometry">
            <mxPoint x="199.5" y="830" as="sourcePoint" />
            <mxPoint x="200" y="870" as="targetPoint" />
          </mxGeometry>
        </mxCell>
        <mxCell id="lbYwN2UF0Nlyc8jE-Wue-49" value="&lt;b&gt;&lt;font style=&quot;font-size: 18px;&quot;&gt;Elasticsearch&lt;/font&gt;&lt;/b&gt;" style="rounded=0;whiteSpace=wrap;html=1;fillColor=#b0e3e6;strokeColor=#0e8088;" parent="1" vertex="1">
          <mxGeometry x="130" y="870" width="140" height="50" as="geometry" />
        </mxCell>
        <mxCell id="lbYwN2UF0Nlyc8jE-Wue-50" value="" style="endArrow=classic;html=1;rounded=0;exitX=0.222;exitY=0.991;exitDx=0;exitDy=0;exitPerimeter=0;" parent="1" edge="1">
          <mxGeometry width="50" height="50" relative="1" as="geometry">
            <mxPoint x="199.5" y="920" as="sourcePoint" />
            <mxPoint x="200" y="960" as="targetPoint" />
          </mxGeometry>
        </mxCell>
        <mxCell id="lbYwN2UF0Nlyc8jE-Wue-51" value="&lt;b&gt;&lt;font style=&quot;font-size: 18px;&quot;&gt;Kibana&lt;/font&gt;&lt;/b&gt;" style="rounded=0;whiteSpace=wrap;html=1;fillColor=#b0e3e6;strokeColor=#0e8088;" parent="1" vertex="1">
          <mxGeometry x="140" y="960" width="120" height="50" as="geometry" />
        </mxCell>
        <mxCell id="lbYwN2UF0Nlyc8jE-Wue-53" value="" style="endArrow=classic;html=1;rounded=0;exitX=0.222;exitY=0.991;exitDx=0;exitDy=0;exitPerimeter=0;" parent="1" edge="1">
          <mxGeometry width="50" height="50" relative="1" as="geometry">
            <mxPoint x="645" y="739" as="sourcePoint" />
            <mxPoint x="645" y="780" as="targetPoint" />
          </mxGeometry>
        </mxCell>
        <mxCell id="lbYwN2UF0Nlyc8jE-Wue-54" value="&lt;b&gt;&lt;font style=&quot;font-size: 18px;&quot;&gt;Grafana / Prometheus&lt;/font&gt;&lt;/b&gt;" style="rounded=0;whiteSpace=wrap;html=1;fillColor=#fad7ac;strokeColor=#b46504;" parent="1" vertex="1">
          <mxGeometry x="580" y="780" width="131" height="70" as="geometry" />
        </mxCell>
        <mxCell id="lbYwN2UF0Nlyc8jE-Wue-57" value="" style="shape=image;verticalLabelPosition=bottom;labelBackgroundColor=default;verticalAlign=top;aspect=fixed;imageAspect=0;image=data:image/png,iVBORw0KGgoAAAANSUhEUgAAAdUAAADECAYAAADJRLt9AAABU2lDQ1BJQ0MgUHJvZmlsZQAAKJF1kMFKAmEUhT/LMkokI4ighcsCk9Byb0IRRIgWWbtxnDTQaRgnKmhfy1Y9QdS6ldOuqGWbCAqifQ8QuCmb7milFl24nI/D4f8vB7r6FMMoeYGybpnp+dlQdm095HvBzygBphhR1IqRSKUWJcK3dk7tAY+r95PuWzf2YbZ2t3RQtoLBDyvu/M13TH9eq6ii77IR1TAt8ISFUzuW4fK+8LApRwkfuVxo8onLuSbbjcxyOil8KzyoFpW88LNwONfmF9q4XNpWv25wr/dr+kpGdEh2jAxRpkkTY4Zd5pBf/slPN/JJtjDYw2STAkUsQiTEMSihCS+goxIhLByVVqPE3J5/99fyijrEewWuW552BfYFBOyWN34GwYTEzg3FVH5a9dS8lY1YtMkDVeg5dpzXVfBNQP3Rcd6qjlM/he4nuKx9AknPZKq/f9E4AAAAYmVYSWZNTQAqAAAACAACARIAAwAAAAEAAQAAh2kABAAAAAEAAAAmAAAAAAADkoYABwAAABIAAABQoAIABAAAAAEAAAHVoAMABAAAAAEAAADEAAAAAEFTQ0lJAAAAU2NyZWVuc2hvdGpnvE0AAAI9aVRYdFhNTDpjb20uYWRvYmUueG1wAAAAAAA8eDp4bXBtZXRhIHhtbG5zOng9ImFkb2JlOm5zOm1ldGEvIiB4OnhtcHRrPSJYTVAgQ29yZSA2LjAuMCI+CiAgIDxyZGY6UkRGIHhtbG5zOnJkZj0iaHR0cDovL3d3dy53My5vcmcvMTk5OS8wMi8yMi1yZGYtc3ludGF4LW5zIyI+CiAgICAgIDxyZGY6RGVzY3JpcHRpb24gcmRmOmFib3V0PSIiCiAgICAgICAgICAgIHhtbG5zOmV4aWY9Imh0dHA6Ly9ucy5hZG9iZS5jb20vZXhpZi8xLjAvIgogICAgICAgICAgICB4bWxuczp0aWZmPSJodHRwOi8vbnMuYWRvYmUuY29tL3RpZmYvMS4wLyI+CiAgICAgICAgIDxleGlmOlBpeGVsWURpbWVuc2lvbj4xOTY8L2V4aWY6UGl4ZWxZRGltZW5zaW9uPgogICAgICAgICA8ZXhpZjpVc2VyQ29tbWVudD5TY3JlZW5zaG90PC9leGlmOlVzZXJDb21tZW50PgogICAgICAgICA8ZXhpZjpQaXhlbFhEaW1lbnNpb24+NDY5PC9leGlmOlBpeGVsWERpbWVuc2lvbj4KICAgICAgICAgPHRpZmY6T3JpZW50YXRpb24+MTwvdGlmZjpPcmllbnRhdGlvbj4KICAgICAgPC9yZGY6RGVzY3JpcHRpb24+CiAgIDwvcmRmOlJERj4KPC94OnhtcG1ldGE+Cs47T2sAAEAASURBVHgB7L13kN3Xded5Xn6dA9CNDBAAMyExBwVS0QqWbMuWNBqPZmzPrHe8u1X+Y2e3tmq3ZmunNtTW1m5NqCnvzrhGHlkeK4ytnGVRFCUGkRQJRoBEJjLQ6Ebn1y/v53vu+71+3WiAQKMbbAC/C/z6l++9v/vuud+T7rmJOsniFLdA3AJxC8QtELdA3AKX3QLJy84hziBugbgF4haIWyBugbgFvAViUI07QtwCcQvELRC3QNwCS9QCMaguUUPG2cQtELdA3AJxC8QtEINq3AfiFohbIG6BuAXiFliiFohBdYkaMs4mboG4BeIWiFsgboEYVOM+ELdA3AJxC8QtELfAErVADKpL1JBxNnELxC0Qt0DcAnELxKAa94G4BeIWiFsgboG4BZaoBWJQXaKGjLOJWyBugbgF4haIWyAG1bgPxC0Qt0DcAnELxC2wRC0Qg+oSNWScTdwCcQvELRC3QNwCMajGfSBugbgF4haIWyBugSVqgRhUl6gh42ziFohbIG6BldoCNSqmLU7L3wLp5S8iLmFltkCDxOoNviqhWupazGetzN8rrtXV2QKzUFabR1uXTmk1KHQ2v2QzP3KK1hpLzN4P7XXppVyd7bxyah2D6sr5La5MTUR8TngVCBGCq7EJULmmf4EEY0K8Mj9GXMq13QICuABys0dzaSvZApIXaouQSwXsLDby1Jtp6DUT6Fh03aTtKiepBl0r17ll6kqclq8FYlBdvrZduTk78VE9B9NQTSCWJOKb5X/9UvwnboG4BRbZArNgFh1VTMAo0ouuXADyIi0Szyeh1YjlvWBl9E5CoEpSQY2k9+N0ZVogES9SfmUaekWUIiKLtiS8byJppcYl1U90Jy5rltx1NU5xC8Qt8FYt0KqWbTKmEa1pL1ET4bGYLFjZ4THJaRKayzTZWJdwgki6cHHOBIcHZh9rYYKj8vR2qxq4edxK2a3HCxcXX11cC8SS6uLa7ep9S4Sn5BxtOIz/xi0Qt8DltkAAqVmwC9KlM7G66IBXsxySagZWNkAh79Rga6vaszn46uHWXFrrxTP8d9DWHqZYQB1UvRy7NOoP+DOen24r1ck8uhWuxH+XqQViUF2mhl2x2UpC9QSFQWfZOqqipFOmTVch9lTGEiLuRkokLlNv1JKXZ3mZ2UX1ivdxC6zUFqg0tK9ZyCopINOma+r745OWrE6alcpsGF3OjplNYyednjYrzPCAfB3YLZSUT2cXW4dZd49ZR6dZzyryzwUaTjCcp1RooOcAssoo0LrwO5ldKOP42lK2QKz+XcrWXPF5CVCD9dQVvTotTgVCFHhm2mBo51J0DKor/keNK7gCWkCkJMzzJBKqNGitAH0JJccAz5NHberAG1YeP2vjw0NWHpuw2tS0VacLNgPYlgqT4KDe03ZuqkOiq9etsXouZ/W2Nqvl2i2/asC6122w3m3bzTZsNmvvhp4B2RQAm27sBebalG2zkufmH19ZmhaIQXVp2nEF5RIIMiLLFosLdaxAVwX2cnmAZYVZtiLccZWnu3JWg2oTyTwXZykvBlWaI07XQQvMUsyiP7ZOHjWIKgX9nDlptud1q+3fa2OHDtjosWOWLhZsYviMZURvSrWaFQslSyNdptMpy8ibKMH7TRtoeKz179RMyaop6BTQrCGRTtfqlm1rt66eLssiuXZ29Fv/+s2WuPVWsy1bzTbegDqqjTplbaZcsnxe9H0paW67zD27lHyun2djUL3mfuvQ7aPOL+5UwBjAUVKqOGf0QCX0UTNF2/dv/sxOnjptD37qNy1z//1m+T44XAgvkbI6Nhu9F/IKQDsLtxfZcHMFX/K9yPfix+IWuKIt0KSYc0tt9T/w/tx4ViBaBwQFklLvVlDjvrrThl592Y4BqInREZsETFdDNN08k6rq2aploKs0qloph+QLXGVfRUNUhdISygj7S5WtxvVkg36SPJeC6U1Cl0rBh1gCacZmKhU0x2X2dcsjvWY6Oy3T32/V3j7rvvFm67vjDrO73mnWuw4mWjrghppYNlnKmP3y+f7Fs9R+/jtenfhPSwvEoNrSGFfF4XyQiiodcbe674QSZp1WSkXLoQ5KiHv2JPvNabNfP227/vpL1jMxblOonlI9vdZ1yy02+Ed/jNS6mlFglRXKFcvmsxAdc+F8g4gbuUS7KNfo/Lz2oOgB6hanuAVWZgsIXhqbfA08qccDQgCQ8DMhzU4d5jRLR9bUlWnUum8eNtu1x0Z2v2oHX3ne8kiraaTQLECZrAGiSJNpNqV6w96ZphgBZi1ZdZKpNNAzj5aoUClbFbobhXY7smnAFGmUfNJCWWmRpAdupKqQuZFkualqYwCocL2M5JtCik21t9ngmkHr2Haj2bsfNtt8s9mqQTRV1D+TQ3dVJNcqTlTt/B1XCeSgv9pE/7OzaSPNl+7EaeEWiEF14XZZuVcDbZ5bv3mgKpm0yj8NEtk6XLETCFeHj5ntfMKe/+u/sA3lgrWNTVknqqdqMmOnc3mb3LzRbv0f/yckVogu3wvBo25iUKlaUBtpiGklqNZjr9T56uc3+TM7BkRX4n3cAiuoBUA7SaBuG2lUKyGmEmAFKG0KJyN58k0FG+nEE0/YyTd229SR47Y2AzWMD1tGoNtIsz4K0viwOagmLE0WDL78EY3WAUEYVsAyDa1m8jk7Vp626UrJevIZS4OUGb3N4yl5CV8CERVwiEq5txTV7+60k209tvXBd9mqd7/HTHbYLpyeMnxfAvsrsFo37LqU41TutBo8myJJNQJVPRGnhVsgBtWF22XlXvUOf4HqNcAVJQ9AKKoQJOLGX+fK5Fmzn/7A9rCVTx+z7lLJ2ooVW403Ya2WtsOTBRvrzFr/PXfZpv/+f4XY8DCEwup4FxYgaxUt0msF0tZjbml8uHCKQfXC7RPffVtaQDAapdCndSXawlGyipZn/IzZabafo+l59DHLTU9aFaCtp2oAIMwrKuC0g3LIbT6o1j0KQyhBEmgKeknxvABV09zKuOeOlgHCnqzlcgmrj0+hHaqZJNkaxJWqpcKzUWXfYl8h7ypOUzXKymQBz0zezqKKrmODve2R91ri/vuQXG8yW7MRh+QEcqkovJH4JtdR6zSia9Gv0/A5lN94Kd7FoHq19YGoc5+v3nR4DQXilbXhogANwF0XR3DfP2X7//f/zTrODkE6ZUsCqjPjM9aBE0MOB6UShDeTrdvhbNbq73jA7vlnSKzpdrYuK6JOku2n1SN/PlnNP6fokKI6OzFGF+N93AIrpwVEM0rRXsfIpoAJzGgNMK3h4IenfPGb37D9v3zKCm+etBuxXc6MjFk30mQlVbWJ4rRlkQpbu/ksqJIFNFRvUdemAFEHVYTVNKBawPloFJto34ZB6//gvWbPP29nXnqdZwhOiIpI2t8UfxyAVbeLSAJi1Ui+EdIwl/ClyCMJn0VFPQzAT/X12o4P/ob1f+BjeA8juVbQSGlajj5eoOpMAMdRw+jj/APPS+0XUatr+5EYVK+23zcCqIXqTWcXkEb9X4+UbMI6BaqTI/biP/+fbc2JE9ZXnkENJXUST0r7BFqmKsR3wW5U5voo6uCR/h7rvOch2/LH/4NLrCpWoCoxtTX/+aQ1/5w35ki2Oo9T3AIrsQXUr9V/gVDfg5OWxGPXzhw2e/05O/jTH9rI/kPWhqSXQyWbdbspEXgb9lJpdQRcUp9G4CkJUSnQTzjWuYBR/7IwtAXmq2azOduHqva2z37KOnAaxNPJXvm//hU+D9PWiaRZwUFJoJqW09Qik+yvVcpVPrKSaj/FtRnqkB1YYzfc+25r++Sn8afAWbGvB1/GaSRw/DH4pyjDXnKr09Yi63Gtv+bM2LX+kdfL92lQEEYqwWs6s5kRHeNhUf7616337Fnrxgkiw4N1iKsOgYjm/R2xzJxkie6C0tcqo2N2+sVf25ajB8027YDTTeP6HwA1AtWLIe+LeYbi4hS3wIpogYmZgnXl26wyPeNOsnZoj538/jfs1AtPWW7qrK2GTDIOlFABoFQDQWUPDY5HC/d2XnGkheR4XtZJYEqArQtIgkW20wRe2fjAndbx6U+hDkpa5cVdNoY5ppv8HQTJxJ/nlctLMM/KSxIs39FDfdprM1Y+dsR2D33bsjhd7fj8HxBY4gaAvpuxoQSjHumn+L7LLv/yan81vB2D6tXwK11CHXFQ9ORgitiakBv/q6/Z0Z89aatHcEIAGctwpxoE3FHCvRyDC79AFYuNexl2VSs2MTFqY7/4gfV8dj0jST8vwK9CV9mE5OGLTQsMNK3cdoNIo9ipsSPExbZr/NxSt4DARoBqOPimpzGXvPCEPfe1r1h+bMSy2E171PfxwhUgiYaEiVGqanoKScAXXRfz6YCqG7oIQJZgXgVmuYpUv5wj8Z5FOzQ92G07Pvl+ojvgIAigJ0bLtoZgLFaeArTxHnZQDdng5UCGLYUr/2aKSjz3vlTMGehaq9tUcEx0O63QHWBVZLVeJNPhV1+wZ//tKbv9Ex+2zg9/0FJdqxgR+LYyUKFP1HZu1s3S44MgzMTtsJJaIKIJ1YnOK8JUivZJ53TDNf/bClCNy973lY+8FYnocujnP7Ps2LjlcEqSl69c7UUX4phDccx644KITAQv4pdqq5t4ayeef856HnyYSeQ7AFY8BfWGxGAGlZBU2vxEuQJrz1w1b9ae98THyduQXaOs6G6g2Pl5xedxCyx9C0R9LvTexpnoRfzi6RNW/MHX7NUnHsU7ftjkAy9baRJ6ELPqc77p/5JSZRKpe2cOdYzyfasaB/Vv0qYIyDBJMIc1tzOX9O4HoFfZcDNMhemxydEZ620PkmqUXwDUQD665iTGXvNalaRwOn+S/7GoTB85K0+JmUhDrxoP1mFHHT5xxH791a/Zhv177KbfRh289VYKoqVqSKwNG+scJlhlNhltH33OX4Xr4M5sy14HH/v2fuLC5BauBtL2v9FjDcyS6gd48k23sHpCDuI1xT/yRoND1gPy1tfEF81VszJ/qnL7P2DjB/baOvIp8lBaz3MMowyR8IyXA7jqMiBXTpWcMDUFpx33/enTo2ZMG7CPoBTuZOsZ8NgR/i4Tzy1DF/I8yM+JSxXAKqVQabVpnmVTsAmfZgBRJrqpZPAwrNcqvMo9vifpXodRRlyKU9wCy9QCoqNIoxN6ooiBzjt8nDmnr1vlb/+zvfziS8w3rVoP80Rd3StSgXaieaFOplxbCMTc9yCqe5P51PuAM4SmXp5QEAeOOzIp6+7qsu2f+od4FW4Ib4lmbrnD6lmcBPGHSDam6MhzWOCpMgWESpH6ud4AVXn8z61T40Ge1VENANeRJsk5Sy3GlnNpqHzcQA3dT537JibQUj1luw4ctdv/8B8TPILAMJqbi/exAsNo7JmmFdvZiwkPgwK7Vu9hnV6HKQbVK/ajO4qdU9ocdaf6pvp8IwlQ3zrxklC3wUGmOU4XALXyOMg5ZpXHHrXE0BmrQSyEcuFRudcLxvSOBoVQiBMjxCFvQU9czzI6rIaGTj/9K5t+6SWr9fZb+8bNtvYWONebbiZCi1TCBPhWIHBc9ZWfzRCxqcL50DE789rLNnLymOVRQafdNoPPcdcG2/57vw+wdjM1Ti/otbD3k/hP3ALL2ALq95LTRDJ0bQIMFSwnD1/FwD66x8b/6i9ses8+Ww8l5AnAUCVaUZQcLBv0El2TKljJ6Yn9HED1O3P/iNrCXFM9m7BxAjxs3f5OaGktdMQ1jyjIn+5eK6GKrqL+lUo52GKDt3DIsUGnyo9DBXuYTa3Hs1d1FEm6agEH3wYYR0/JgUlOv1Jz59hOHDxgz/27/9fu//zfN5PGqmsdeZSdFSZ2U/Qae7WmUkzLMaiGnnCF/jY63Cw9zJara6IF7CsRgUY31V3drqHbdGTPRaKl3hGnKUDVMTZQ3BUJ3s08up07bfqpp61w7E1bNUV8UZwfyqiwnFHl0ShFaiM/9zxDHTUfThXKFom2Uh8lZumQZYdP2sze5+3QE2nrGlxrfRs3WXLDDWaPfCBwsASPsF88asV9u2zfvr1Wn5mBbyViDJx2DfVSGdXzyXqHbb+NeXEPfYj8VZa48TjFLbD8LSC6koSqTT1P8z/T0rYwFcZwRNr35b8yO37K2vCKT6P2GZ2Ysq62lnmbvHOxaR72Nl6DfZSK2RPwhimnzFI2HaKHHEMxNIJHA3eh57VrbN1tN9vMy9A09ayIdqF12UVF7AJvbQJGGXMyHhQiDAOzEO8FXdIfZ+TJtwTYisVey/efHj5hv/rzP7e7jh+1/Md/xxKr1iO0YgpSVTxxUKedmufR9etzH4PqFf7dnaTofK6+cVBUBXSVTXZI9g5rjQ7qAmizszIAEKShmaQWYm6b894jp1Bd7bWDj37XCgf2We3EiPVCwKsIT7iqPWdTrPtUhiDrDBghDnAzl5YDFUTpDRFZk9JVp0y5ZoPUqzJWgJhKTEpPWelo0U4fO2aTmZ2WefKXtgnJtTA6aid278J2W0CFBKcPgitkhEK1pRkQZpJly6NCGn/8p9Z95wOou3r9s50Ym9/YUp34MG6BZWgB0ZeC76U1/5QwgfazH9vR7/+t2eEjlmB6Sw1nPs0vzefovezPTy+LqBzgJ78FYNGBK6Hl2wZYvg2J1foiAGdgQCW85b777SViCSuAg5yVRCfSROmgIuZbNEN+qXqK+z5qcEeBJCRvBhvppdTQmXdIPmK0EwxSNWi5h0FIns/Pf+vrdjtjSt/HP22JNTcGjS9DUky/c1u5ZYSeeyM+W4oWEFjKLUA2jIAaoetzWaeKI6og3BCAM6jiYmViFFjqvh7ukJWU6yKqKj+XohzpmRTvaiLd0F7spsdt9Ds/tJOvvWKd9YJ1oupNQxAZgSKGkjIsbQaWNone110VUBWdq1oOzktZbuifGGI9Lck2gXqsU5/iwisWXYpNALZt3BPnXTp11I7g3KF5r51cz+JRKLVYggDf0krJdqPBSTFQOwi/Vjh+0Lon8K6UfVWh3aLEs3GKW2C5WkA9TbAllW86g32fUIO1H33DXvr2Nyxx5ITdQIzcUo7AJyI+9VfZPeepRy+mburrIaKvSBhqgggcnCGqEPBBAUQreBAjpa7FhLIJW2oP4EokJQ8ZqELa0eDcdJMlCYpfQwNVrc5Az/J0CERSQ0crSbVEIP1ppslNpfJ2//13mfW32ZnHnkAzFEA4NUctvEDtmzQXojplG6CtddMhX6b7iG6hZ9phDWadvQS/eKCOevr3/4S60pqMRXWAVfPbRecp/l7v5pwYVBfoZ0t5KQLUGuDjnrXTEwAdxCO0IkpL7fXXrDgxhuZ2yKoTnJ8edw/Dkjo1NL1qwxrLdbZblmAM1gUBbsGeib3FCoDS/tdt+vmnbOePH7WtrDyxlWWjatNThC7FyxeiUhD9pABUHR1QFLDLQUn4eG6S56/DKYSBqz9EJI1SDaD06Tm8oPGFpxyQpXbKck8qtBxgKRBWkrOTY6+ImiRJO7wXHpDUWi7QBmeG+J6N3GRwoxwyjlPcAsvcAur5uMRpeTa84md+8gPbDaBmTp20ftSvjj+NfihKWEzS8m0zeAkXimUrsiDFKuLtzklinClDTksCorImf6cZhkUDIlInBE50bWDANt1+mx156pfWi8NUFQB1BEMLpCQnpTbGhrFCxW645x6zT/2W2Q++DRONdklRkRaTyFNRm3wZSNpAcYcFsCm8e6W5aifbF771Dbsz1Wmp3/hNpgCtdV9JAaqHUVxkuy2mqiv1nRhUl/mXEZCVIaSMJnhW8UQYPsiKFq/YKE48k2fP4MhznI6L3ZLg2SnUrFmkUXVokU2Cd4YA34Q2vGzLbG2b19lGYvMawRn2/fxJuO0p24JkWJ4etxGALE/Hz0LYSd51uwv5yBbj6uboW328mDtouPcgBCU1rZIAtUQ+YlzlSKy4KporJ1BV0nU5T+iKQFicudt3eEZlRQ5QCX1Loyg5QxUoY5h5eBuPHSag9zt42EOFO/gq3zjFLXA5LRDgZjaH0Ftnz6t41qYIK2i//Jnt+tqXLMmyhwLUNCaSMVS/kk7n0Mrsqxd1JOY5Azq3E2c3t4D62AM4OBUFsCqKuW4sxSaXBmmA5F1rCTRUAFbvA/fZK888YWmWaezlulSz2jTbVN86XpqxenePDbznXsIMDlpxbNTKgHpeNlold+mFVsPZBf5qvGC1ZfTLzlxXs4CrKFt1gmlmLBDjLAm4oz7DlJsv2IPMFLBPAKy9G9zTQ3VqSqn+4gWKu4ZvxaC6bD/ubDcOoehLtvtbX7XJv/uuDRTGQSyAFDXtGqlL2RJMyk5BAFqlQiHB1Cclbaoj+7JtcJ6ldMKOvXTS9iHddqKbadecNgiou7ONuKFIjjyT5pIGhah0gaWrogRsZKZ7Pmhw7o4ODAAqR+AokVLlaV+DiASsgSZ5RqOTLjRSBJQ6dY1R47rP4+Om5wOIKt5p9GyFPCuUVWSAmBwZsU65GTI8wFc3oLqRSbyLW2CJWkA9TBbG0JkJVF+E9ljv9PW//IK1jZy1jahZRW0jLP6tcIG5XJu6/4JJTOOFkqijCqjWUS3n+3st09bGolCnUJ+qFnJCohrQV8iHp7GFEt+MCqKtwSbqDCv0ISnW6VGrx6zbhEJnk9mhQ9YOU12B3qVilZlmBtoqE95w3R1orx5+mNCGeNzjXFUnjGIaprrMXuQcUnR0/o/QeCDwTJA3EwWgfb2jMQNVM4gvabSAyaqH70oWJ+21737V7tiABu2+d2OmGrR0hfrqI5X0qorS/jpLs6Pkdfbhy/a5LX1WpFRyZwhspKxhOr3vJesrEouXlS26AdUu1DR5iCQDcmXotGk4UTGukdSoJVBTuiCQQ6WbxOYywBDQQxCHfLlqHaiOOuC65fafBWRTMzgEQRDiNAWcklA9ahLvK7BDtWH3EHEoioqgN3C8qKHIe4KpOArcrbBpej/H1gHh5qEMoJE6lLENCULDu6I5J0TfS6pV5dWl2LOx6AXSrjaclAjhJMm2D8m0TQyBPm5qlOekIFd+JMqLU9wCS9ECoYfK07eIOQS1qbrlJGaH/S/bnn/5f1vyxAlbBSBVoL0q/bGnmrLBdC5oagRqjU0AGG2qV4A+wV/YoroqeyXRzTSA1vfRj1nnH/2X1rFxm41DCGVocYbYvprrmiIASqpKgIdaGxLlKggNYGJBC60nFeav+sQ3ciOzTdtsG6BFHHxoHAYcU4vMLR2yIMHpngGQ1zz0AZz+VkOMOZuZVlBBjDIAakVmpgZRJXFw1EY13L4rG69vNBSY6VtSiK8Y4DDPqkEVx8JakhGCLcpH67sawkAX9JzFeenFr3zJbPeLDBpMSdKAoCL1uH4Aymqm6Adpvda8eW0dRH3h2vqqt/trmh1HPYkkIELF286Wxn0/R2fPAZKKWiR1q+hXxDibdDJv4yERchuDgDa9J9CMCD6EHaRTw/1qE2EkAThXwzrHGXIXYEenvI4DhByZuEdQ7RTz4ia4OQZxjYOWExBIgcCmM+RTTuPAkUclBbdcY2BozmdtVjrkK9WU8g9cr44l9YaP066dfAyJYAo7snXE02mazRcfLGkLRANbToYLtEA2Tn+Doa187auWOHmK+dcADzQoHBEDqH+arqI+GiTJxVVHa5cWyePQoeNMi9lkqz//h9Z5w1ZWeUri+Y7OCiZVzKdcF+XJn81ic/VIZdBXIBOnH+lvnD/Nd1n3TbfZ4Mb1Nl4s+T3VUXPI5SWRW7vebMedfIJos83au7rRJiPRAqqSaMM4En2LzqOWia617Pn+1vEC6uWf9FyhYtE9la/xpw2hoHz0uL359b/xmQeoykJxKkZba1roWuv9a+g4Vv9e4R+zBpcZJdlfRF5L4bIvIEtAhSKlkDh2KgUxkRATlCuAk+SoHp+Gy1VUJimbSxC8q5IYEFzt2yAIBFa0UuFE4JuGiDrlsOBqW+hHLK5uk69vfEuJ4jUo6bIDPuCuAP4+eFHJEqpf2a26BpjsfgZV3BoGAcqNU9wCS9ECogABR4OddaEpjWZHdpHqd//Gdr26C4kUKRFQrTPNDOILZhBoxXHKe+7iayJNbx2Jchp/CWl27YG7beOpI7brr44ybxufCpJoQZGNyphz2nqY7+nMJfWBvuruDS8ul2fYUswvt1tvsV5UwLvf2GdrO1Ou6RGFVWCe3/ngg6iIoSXVm6XoOvv7bfzwIWiT6WvkLxoVA6wVqAJKRy2jEi41KQ+NL7KdavGNGnbeug299oat/953LNNOIJg1WxpMgp7lUW0+RlxqWVfv8zGoLvNvJxXLfDp1sHM7y9IWrsnkLkECXrPmT3hwZ3m1mkbCptNJQJSfHdUxcjJE22GdvatscO06S61iyac1qJFEBFHK4TY/yeR4YgfXUVufPHzAZghhNjU5Dldfxh5MqEE8esV/yzbsy2FBtwJSJTk3abDSpmwRUm0Ny0pN7HrNuj78UVRFRFuSSkkA7QlijFPcAotugdn+o8FtCoe+tNSXj/3AXnz8UevyCEl1+u+0tWH7rAJkDnKNPh+9LYYwgOylVWQGtY80oH0KxTnJkotdTH175GFr++n3rX1k1ArM9U4BRHqmTGHdHUxPkeMUyccKgZbTip6AJgBozVltu/FGSxHVrIhjknyQSngPFlH9tr3rPWTEM+3k0d1tqd5uK8lJqoD9GFBF+e2yJi5O8A+iMaHc4pLPX9XrjCcaU2R37YDmyywluevnj9udvcxK+PzneUCtyHcJyMUf8JyYeb2qL9Xdazmp38XpSrQA4FrCxR5SayZJqA1abl57q4PzSbVV6WTotqLlAmoiOUxk4chlo9FCFJMQWQ7niVOMFF3bt9mabdssv2rQcu97P+/JUUI1o7urQueplC6vE7fdxvNnjlnljVfs7OH9dvb4ITuLF3MHTgyDcK9lBiy54rcBlmUGMQ1Ovsgy76cZ3yqTU1Z44wXLf/HPLPP5P2XsoFxx5C6x8h0Su6PUchhdivdxC5yvBSLWzAEJGugQMJ09bYee/Lllxs+ytjADu/oXEZMEqEqinCgFdXA4W4wauLMzZ0NwjjPSSPUgufX0gyiTtvX977cX/vLLNkC5ORjIEkQ5BrRuXINNFVDS/PMqhWtJRpTQ0KAYZPROGUwkdcD5jjut/tjjNnb0TZiBjE0QJa1zyzoIcjM2WaRdES3gnOjrtlOEDV1P8VXqoHFB3yd/ikh9G33rpeyjmMdyopJPsFTL+tcJg65ZQdOMC09+65v2nvvvRrJGHQ3tj4+XYRrClCKvg76Hb+PrrukUg+oy/7wOgpJKAdBO5pS5dyCd/Xzg2Fod55QvAVTq5DtDWEFYc1S/aRvW4sZw421wr303rbE2bDP3ylNvHcTIHDifI4rzhO8vhocUa8o44XNu17ZbGpvRAAPDwAxq3H2sO/nsUzaCZ3KOsmvMncvhjFTVNCJnV0VWIWWRTst4/558/mnrzHdY36f/gAFhDYOHBjk9dwkf3cgz3sUtELUA1OYJ6yZdacqmWVz8+Ouv2yauytFHWhTRlgDUB/uW7gaZeloMoKrcMn1YJpR2gjagDw19Gnq02261DoI8VPAGbkeCK0Gbbd0dlu8FEAmqr5ok2HscJHHBjTRNMJf2LES3eat1b9psE2dOuGBawcmqcwP2VHkO+7Q08QmohjdstN41A1Y/OWQ1pNxqFmgGCNNSAyNdJqWlamVao4LeYh/aQ60FV0wbydIatZE8/rv45tUIDse/831b3zeIg1UnAjbfxuNKvsxcUMZzdm3Dagyq/pMv3580Hd5Y3gkjjvWgnjlLUbJTeqcUSaufNpJIy4E0utDYR9yz7kUded4jPmFbnb0OsU6iDpqEfZzq6rMN77zbVj/wXrM776NgCFCirObFqVyphVPictn7YOJ/5mft53oc4dPnk46VSsi2WTyPAxdqSVTGd99oa7ffb2unT9jUT35oR5/+tZUIW9jvHzWDpyKTByDsrDhxtizexvWR00R/+Y719dBGv/sn1AGVUdQe56/KgvWLL8YtIFDTGK4u5NKeAuU/87jte+oxS00zPxUJT/QjCWu2o3HYciYfhwulCLAXfAbwKuH8VEFD1LkGO6dAVeEHs+S54zbLbN1ixZNn8PJHsiuyfulAn+VWI6k6qDJHNgUdtBSgQ/k7tCPf2er1tv7W2+3Aay/aNGrlmY4u673lZj5GGiY0Qny5T029Zbut3bzJxk4OQ7AB0QSqnqJ9OLu0v/LL8GxCXhqTNF0OVqCZTxsV3vfzp239HYw1a7fCJDTuUX38jn3Maz58DR/EoLocP26zn0nV0ThJ5y3diSoI9Y98f2RX1ZxNTaUR3+ZgOa/TO5g2Xm8Cqp5xTjPckMOAklyeJJ1i/bQxPHTX3XmndX/sY2bvuBfiwjMw1U7MayRlChOx6odXuRERK5dmGbo+L+me6q3UjhdwFZsOM3iI7wvhE6cMhjistIGHc8fn/tBuef8nWDLuKXuDqDWdeF2malMEphCRowLiGzSNJgcDkB8dsVe/+w3bsR1C3HAbxig4/IbjkrKMvk9DYZziFriYFhAfl1ZfQ2vz2g9/aMVjR21LVztCaxE6W75+JM8CxdeuampcP4wmc17R59J1qRExurs2b7TTz77ghKcpNp099PVuxgTXEilONvy3f6Ao06kTdXUncInfAQCZ37wFgM5boTZpRQJLGJKr8FYpfBXvbL7JOtZtsTOpV5n5gnezvldSqku/OCypPougpSagNsYogemsPC2vYa3BXLV1jG9v/OB7dss73wE938RnwLRTBU3JU1XDV6nG1266Hr7xyv56LTQbGhduLglxpXusF1vDDH1abvdySpBW2ABCudZLetOk60gSjaRTVb4V7EQUnq9Pm0HdI9vFxDQ+ESWbYPL1UZZUHnzg49b9X/13Zu98CPsnc+A6cSBIM6hABQLTJqAqc2XGJp8CcdDaL7TpXpRE/Hm4UHnQK6GJCuOCAL4f1U+O8jbeavaZP7Bb/pf/0zJ3329n6kwZYHm4ZBsRlLCfFuFyNdm+C/f/bsKvHfvm18iDIUVhHElqGkHwDCq8Etu5U3j0VJziFpjbAt6/8V2wiUkb++b3berQEVsDvSl8p5SrZWyMmjfdSl/KIchcApxGEniwySbZukW3o71oM9o0XYZgYda7ap2141iEbpc8AJUy9M+81AHML9PM8RweH7cK0YoG1twAh4rZQ5ZexgCRj+ofUg6yzDkQsaIrNIqWacNm94soUmb/eiThdUi5xACvJ6bRGyGVK/hCdo1ldrzbV5AaJ0JbtYq0XMsHSJOGrIWOo5IuZi8Q1fe5dksaLiGlb1TBgVpnLODRnrTThE8t/+IneImd4aJU8AAudzMtX3cxZV6tz6h14rTMLVCHS6172LH11r92LUQNkWNvTLro15gb1uigrVURkxkRQbSPAjtA6z4wTEDFebjw7MBqqw2us3s/+3nr+6N/SkeWqnc1kmsbkASpNgBQhLvYH13vzd9a6xs+gbJ8zhxIKweKtdtt8J/+qe349O/ZIeao7puZJmg5QSu68pZDHVdGWs3izDSx/zWrf+vLfDCyNoNiVEc5ayhAxSxXPKfE+CRugWYLRH2T+SxMFN1nZ17aad30JZ8Pji1Vcazp/r7pJR0vZdJEkywMbO/GLTCVbOq1Us8CqA6aA/gywLGmWE4tp5VpUOdaDntpVBHq6EmE7xQgpWkjyRbKlJke1MXjfFMFidVWIeUyvU3/9N8heQrG9L4HLLV+k2UHtbZUCPqgOesJHAIvS1L3ejVUvn4sQI0qGPZlvJPXdeXspZ/+lEAbbwD0gKpLD2odbdd+uh6+8W39FdXXm428apUNbL/ZJrCzVqUGVtBsbroXPXQkCdGXMWUvvBVjqIBKngHX5NykeJxZor9I7KyxbFUVcC52dtheVozY+I/+AatH/LbmrEBwvSiNZiApVwyHPChuAexe2vZRUHDVWcSmPSEUrZMB5O//Q7v7v/ljs60bbZjqz8DdClRrqI4VSaoNFfGhF3+BV/Eh1HZjvB8IUCEbtS1/xSkiTtdGC4jj3P28ndn1ogdZEQVoPVIFLYlSKxYIGJobHTdEvNWTjlTRK75vlVp1rCR80SZmeZJVbta84y6fBuMgJ5oTuOqB1YOWybfbGcIjtd+01exeVKRtomU900gNCTk6naOhAVTbmF5Th246NP2Nc2oOdei7Gt8G1mp6Te8nf8fOtHVZmezTOE+lAdS0BpcGGEb5X+p+frvNf39sGhYe5qCdWOYHv/dtph1I86S3tLV+6Pw3r53z2V527XzTivwS9/bFQSi74QYbIxxaBWD1CdnUVo4EUaSjqNNKPRWplfRBOhc9iNMU46d3yowEY4DzCVRDD3weQH3Xu3gAwpHiNEnINRQugdwa8p7PUzt3oFD+S5coMRq8+JjyJH/SSKxSQ73nY7bj839khf4BOzYxYwmcqTJI8VkYgwTLSpVYqcd2PsNLECLLc4mzVYAKKY70Var5ctd+6dohzumKt4DsqDMwZHjIHn7ycRskRGjG7fjqNwFUo6khb123i+tpokmfX0qGRUAVna7ZjTfj2DBFoJPJgCNyDOQ5qU771623kiTOO24LoOgjsMqSVDu3TL2i1LwKXVXJKwOw9ijggyRbNx0hCWv9NWi/qOUgtejq7bcD3DcSE5zxgrFCEdaUfZRnyHlp/8pTIos5SsEv6uMTdnTXbrO9e6DlEgVRp+sk+U96nXzrFf5MNW3gIZsFyy5y171W6OyzOuqbJBKaFgJOIN1J+HQBlNdccmUP1vCM7D8iK55BuiNqoNt4ylwbA12HMGje+cnfMvvAR1Al9SOdElwfECpTNm86MGlFV3JlU8fWXttSpyjPhjjcKCaTo8Kqfgo1V5X1U7H33v6ZP4S5WG+E/qYqZZvExqSE1dee+/GP4W5P8S3MuSNmKwor/xdawB+L/1zPLdDoVws2gWL8iiFjOcTCwYPWx5xpd1hqTFGRxHrxKdBvU4KlXB3PTxGg6voE817zW7ea3Qxg9gzgU9QWHvcXRcxpK7Bm62RXJ6vKPMw5jKbUUSIQqaZgkGW3lHOjWEnttcqVauIJBM8DyIrNPcNUOV/wFF8FVy03VFwVAauybOuwWz7zOWIPszQbASYmmDrXMH02MluenRb1AN6Zv5ogPnEFx6yngvczmqcwECxPuSsp1+bvtZIqdc3WBanMkFTX3noHwJllHiekAwE4aDpwCkAD5YoDjlKQciEuB16eIRvZZCt44W564CGWX/o9nHxWu+0Uf2IIUsCmn1bynZI6tPwKl5NbVIUbmz4hOlU1ol6WylmtjH7qwQ/Z9v/iT2yaSE4j2FTbWHaruw1niumC9ZYIzP3zRwHbKTTcYgbC61EWfiH+E7fAQi3AdBaWhbHXn3iMAZ1gJwzkYSnDBdBwofcXeU2+EVXKauvusoHbdxBmCOdAL5Jeq7nXom3RPuaemd4e23T3nZho1lNal1OmfAbU00Nvv3Alktk2vPjbmIqDd7GA1R0dw2ARprcQpxuCqysiw7attuXuu+wYkmKF8zpjxnK2hEadNB7AUjcrkmk7c/BOvPKS2YG9DEFo1tzB6dqn5Gv/Cy/cR6/sXbnW5/ts08c/adN45vlCwEiqAkvHQXqlCFRapOaG+ibNlmRLyAUX5rfWxgMQST/xQNd87vN42YlUiNTCpilxmgsaKX6jD5S0GiRWXQlEGN1b0r3wW9VREVSzBHUVUxXsTRVAHxUZtt9KFVvQjkdsy9/7I8swIV7rxGp1nS6IMDczZa+/8IzZ0HEGDam1Qn4y1cqEFXdY2uN6T/SthnvO3Jao08MO7bIhAj1IA1pz6U39Rh7z0tqoMy1tEsObhha1JFsvzke9d91D32dBcUfIeeVB6Bvufafd+qEP0Le7bGp62IFUc9YjBanI5/wJu2h7B1sb3r2AspyVNKZENOcvBvm2ouuSGt/3fisB9tOQkq9UtYykL3lAQSYCI4PhRvUaPmGTP8a2CrBnaBetSXWtp3iMupK/sNsa6ey43N/07vfgsENkFaKtuF1mgc4e2VGjKnrsTaayFJnLMk7w6lXv/4h867HjbLYiAR+aGhanTKmN9PMKsbUPm1TCrSqrkLc6OqOQYI85cFZFHVsebWwjEMQwG/bO5qZz3dezeOsyTcAjQyiLFppB4QQRyXNXUrIgtWIFnkm2y5uC6Qbv/aRt+egnrMKcvgnmvXbkif4kjnZk2MZ/jdqohH0M9XCUGn4h0Wm8v25bwP1d6VkNCFKfk5SKc0xx505bC03Jb7aEOtYZMe5H+zkddBHtp2hMrWrgNEii9Y6noO1MH9JjP055pAqmGQmpswn6Q1pdveOdZttv4jIOeh5eUPSpJPp8i6Qxoq0dphrOur+PV6iMpODG2OGgxiN+KhWYAs+s2WQ3PvQumPl2aG9Ohd6isMXdVmANeRon+XjFBW8jdOmRl5FWiRs+NT46p+0WV8LKf0sSe5yuWAtAOCyGbDjq2Ec+Ysf3vGIDZ09aDypQBZ73xYkbel8RhuhCFCJwFclprxBoU7m8ZW69z+zDn+YqBMY7OamXNLjoQb3nScCqn1gX8bQFsBRxSYG1FRJtNukFniEaklUAySNvwmECnMTzHDl60Nd71Rw0LVaspaV83utqHCV6+Y5VG3gVRyTmwVqauiCJIjJ7KLVhIr/09WgRaEnOAkeBLNFY+RCvVxFw/cBvWTtBzwtPP06g/rOWpV5pJu2fwmGp+wMfYCBCxcU3+yRbrzCZ+/f4SfznemsBN5NABw1A9Vi5MhYqetIbb+BB/gYaD/UXmDNAR11HBCFQFf0oOXMaDs8Z5J0x1T0hlFKDHnWo17U8nPpxQeRGXbSc2wjzrau9q23gQx/nIeAcnMtI1eQp7PUaVGo2eGO4zFSboE3iYVLE+uo4elPHc5LyvOEGqytwPdodMan1DMxqnYXVtXgxWWkFKa2GmpZaWDbbvg4bfOiDdvgXv0SiBmQZA1T/5UlqG81I1V9UwABrF34kJ04xxempX1rHhz5G+dQ3Jab62k36ZeJ0JVsAaczKBTwEb7V7fv+zdvDf/5mlADolOVJEBBUNAFHVdC7PRa3LOMSgcfenPgeF4/wTqDXQiXqztjlJFwKAhrzhVkVTKtIvcF5ikjaLqFd3PmfFvW/YxNEjdvzYCepZtl7c86XS8fgp2EtOMh1AEWNqrN04A+BlegZt9YbNNngrtqTN25mQDsgmujH3dNjank6kYgpSFVQmg5ACRshB0a/JKzLVbb2/87s2fmCXnZ0ctQFAtQcHh6mRk3gOvspcvnfzDGDdGERbKs61OF2fLRDoRd8urUtiZgZFCBqVk8esdHaCRRtcH4PJRB08BEtx2qIPtmDkZTSd5pYrM7PR4QmrYSfNb6Tf3/EO+rVYyCC9zi+gzr26QnG2pMiVMaL7llvnHgpUkVRzq2BmpfolibkQuGtamlL4SzWiDxUvu+0W27h1OwtgMBfcPXH90WX4A6G7l6Wsu0SBon3KBUCU3+MsMcH7NDtBjHdUyWWowUrIMgbVK/4r0NOkahXQsEIFq5myQAuOChCcKF6XZQOSlCpAqkNI4rb9LWwyRRwV7n7v+5AWcYaYQk3bCbAKcPx9Di+URLkK7o1XpLRlyeIUr56y6R/8rZ149Tkbe/OwDWLHzFHYVlWHebA2IU5YajQuQrwdHdhEUevM1MYJCs4c2dNnbfrMAXtz95NW0lzZHXdY24MPA4b3AtZ48LbDVTeNxhpwSP6R7EVcgK+19dnmj37Idn75uK1hgFwF2k8TcN8OHjD05NSXbqrJ7/4yFfO9MorT9dUCAtNZQBVX6GvxtiORYZrY++wzaETFsXFHBEQSmLamVtVt6/WLORYN0uU9yV6YQs2ZwVnwJGrVbtk4OwE60WFLirAtujT3bnT1Yve8jRNU7xoAnHEgENC5OSIjOml5VdRcq1bb2vvutRdefZlVcrSWsr5k6ZNyrTVsNPpuV0dD41IFv7l/j/VNYDLqgCG4xlMMqlfyB6aj+XqIWuasCCAe2GM5AFWTzUWsEupA0maNXFrlHa0KI88lAe8YaqOND38Q1zqpXJF6BdBKiqA0d/wI1+f/FQ2ySkxyGnvl1JC98R/+H0ufOGjr6jO2MVP1lWVqgG6JKEda2DzD4JQUEEMhqlqFiCly8+/mWoIRqgSB1oj3W5lGJUb9hl8ct8ldr1jvTTts7Yc/QXzSW6kng42ChQsYyUraOWWp4wm8fbtQodn9D9qWfbttmoGxHxzvUTMMI0FLitfDOldvvZhv5LE4XastICJR14lkPJ1BA0Mn7djevbaePhsBqu4sdZKWVcAcFoYgd0mI2CvX3nYbx7qpjr1MSWVB9+0s2WgZ6B+CcDOKaCMqVh62VEPjSQRqNg7zfOfdENU3rDrBuDOHMVnaulYoNIQtDITaif13CqZj+ixM8hvMW127LWgXGkzP0pa+MnKLfoqVUZtrvBYaDnLOYQIi9Qk7vmsnNhAoAu5OtFDnWHuda35qcNXHAQnPXxz5ULlmbPUtd2CT3QhxrUOA08PKVToedzdkf/5UnkTtjP3H0jz/wvft2X/xX1vHiX02WJm0duynOYmvOB6VmelaT5Ww11RtKk1M4UQJGxLrpOIkVceWI9d8Mbuy0Waoaxvcbxeeyf1sHaiXugDswmvP2P7/+K/MXvwJC7yiSq6iokvmIbgwKEpLJMLXFIEZjQjZPuv/4Mdw3sqwziSuTcWCTcq2q4FEg4Ze0+fGKW4BWkBw0oTVAqCBPTUHYDBpa2naR6JWQ3MkeAgQoQN1xpA0p7TAnaS0Rfc/EKTHhho2euay9yrOi2x8V0cvi1V8mHrItwBNECy51kz2ClJJHWtut55umpBY0cZYNWcDwF8KRubLrtZCGchWrX+tNusCq/TkRLdo1aYUtpC1mM91lFwot6v3WjxMXeHfDjcgEn+TJRs9dZQ9kp6myzhBiChChSTNSe+bwl0/xb4MGE2DZGvueKcDkJ6a4eHgsKG/IqNZgtf9+SmjkIGjR236q1+wXX/zRdtOMO5eAWqtxKNw+6h3iSpKToCrpFCAtOR7AFDL0XTI/UCpUUmOJL3K90GbJNt26tkNOPcREal95JTt/Mv/YGPf+BLZw6lOHOX7yBviU4g3RZHS4MiUdjTSqPAGiRN8xx02yWLL3Tg4jYm7HYOz1qfFPVUNHyfvgQ3tjCMHHQ/P0lPPPYfZIJKSlqeZ1OvFA3v/pdcKoApwu51anxjnwQq9WXbTZUnitmVTlUcv0dIYBCA+qW4a5aly2lQ/kloISgtJ5hdsmd1btqDtmqXd6PZS7qX+1UpYUZKWjaCs1sWYMHH8CPQ8xhiwvHWIyn679i2f/3ZV4fopV2OAw5fWWDwC1zY9CjcJYEKYkkwVfCgjuoFY02zqe20AjBhRdc42Lfp7FxwxnraCPqmiAuLI4+8iOur4SbzwvmOHHv1bFhefQSiddK/cKrbTAhNcJ6DTknoEEmdVG1lq4JhmP4I6eLjAihgAe0IexDgfaNoAOyRbHKioQYk9NIVqDHAlmzbquAbj0yGiqhz81/8H6lzUPzAUciNRveUAlSN8Wo5VNJJ1uOlam8csHSNqzDBr0OJTaXb2FAMFreYTDxuDKW/HKW4BbwEfoOs2cuQwqk36M/1Pg3a0LXUryZaqPi7gUGSjIo51a2/cBqh2QAPMw4RWGkKu7+eXH3p+RLXz7y5wLrKONmjM4xcLuJvXGu/ovCVF5cxeIr72+o3QtAh8+ZKkVN8aFdQ4lWA86MDWffYEGqszZ/y3aSisGkyAanvtJLE6cbqCLSAeM4WNofryy7ZaCFoIEKN5dfIaFLWIKOXpK/WNpr7UAa+O/g7r234jdhHmwWE/LdFR5fGnt7VFfsM6U4pIZ7JQIqY9pU6etPKvf2LHfvZ925avsTLWBNMBVIC8eRMsap5mkEh51JMae12Tl++WGzbbZKFsY4VpmybiUZE1KdvhOuUuLw5UBKOkOkNPDDiordlrUMuJS0XabeMbxk4dtle/+Oe245+xNFXXRl6QgxXdr4GTmuvnC6Z3r7c7PvgbdvrnP7LjZyZtyyTSqib1izv3BqGg5tep5DhdXy0Ah9lMDMb0xdorLxKdcNQ2tmeJ2BX6Y/ORJT1Qx1aGgeEsQx8FTflat4muLMpevuG0FXai44jGm5+oujU+X/ei5/wazGsZyVZMfJQ0VlwUMx69cBF7l+TnPVeDCVfYxTbGAzt7mrssBgLd66qGQCXXjlGbpko/XL4q/y5fL7gqm2PxlW52YLqHdwx17oi+1Y/Z1H/ksydnhslDxyw1XvBIQlKD+lABIDmgog6WxOgEwLQWSW1l1iLdtnW70NZpN8ODmvcmRwUBmMoXkQiag0VFBSUDoGrVl/J+O/Ljv2a6yhjSJhGCWfdQDgUZAHSGwWGslLBxVpMZuPM9tmoLwbi3bgkDBXFDNdN0UN/ASjJWGLX6i8/YsVeetUkIJFeaZh4rAxuq34HeTpuWUwTgp8D/WepVrGJ1AhTz/CsTMH/4S//WVn3uj/FIvI8BEFZACJwCNJU/NltL49m442E79YNvW2d3zkZPH7Le5IO0JS2nKThqUz0bp+uwBRQXCRDz3k6EsCS+AVIrjp6gf6MBkXOdU9lsB1lq0Aj2wpC/qHYGurSN26DLtPsW6Edpwa1zfqNoSIhuzI4b0ZW5+wbm+FfpTuvzOo7utx7rmgb2ZlliXPNMcyMQRCcrWhVQweYIfF8TA3yhyvLapSQH1IYhV8eKFKUxTOWIaMeHx2z0tZ3We8/9+C122wxaL027EWNfdr8QWYnRWjW/6lJKXznPxqC6xL+FINU7OHQXdfhQBHek85AH7NSoJaYmWecxdPtokV89J1ujr1ojACGPkrg6HJSSPUxNYb1UAbLe8h+Og4TsJY2k8pA79UZL2dzP4CT0w2/Zqso4WTIQaV4bZQuAJ1E9jzPntMjct3v+yZ8SjvQWkJ/IMB5XlAIUhUX1lqdUO8f9gOQNt9lGIkLZrhds6JknbOjIIQP/7NjYhDsrabk5AauSJFfFAs0zDScFuE68/op1f+c/W+Zzm5mbzve4HgiJO0G9vNY5S3QO2NZbbrFj+/aC40PkBVAn+H6lkG04jv9ely2g3h1oi35GnyqND8O4EfCAi0QLXPbk/g70b2lzMoqKlJWxQw5CKyedUxd5BqqG7gkZ6ukOQ0tMTwtJqqE0MdqYjBRUZhyv/l7iHlO2tyUPaMxSIkQNf8+pvd+7Wv742Hy1VHYl11PdQN1Bm0BPtK3IRYp2qQgnfhGu2gNijp+wwtSEdXjfAdr0gj8fJDdxd/gnOdHOEAghxZSTdG8fwfg385SI49wUlR/ueuk8JKCiRnCHuwnfthkb0IyXmbB2FlqcASiHAdQb8Cbc+MhvA6aAXEbgBUKK2KIP4tCT1n+VxChvq/abze7ZbAM3P2Crf/1ze/mxH1g/wJhlpRB5+MozsoZjRTTPNkVbpAg5mCXm8fFXX7CBjd+w9o9+lvxYsYdWYiYsmfKMGA2mKHQykX78td3WNnwcCRlCbF/v+LvMJqHwnfHfq6AF6C+im2LVJoZHgukBhjPpzNwsUmhlp+VMnZojy1xVD5hPQSKZpUxvld9b3Q910VOzbbKU9XurvCQJB0mVJuKnOHv6tK0+y3zVriKBYJgN4FVDa9YkbB+g3irbFX0/BtUl/HnUHdSg6iehs+uvAI69JDJUoY5IheNMGZmGU0OZJTWujw9BAtXooHCFviQcdCCptYLhoY2oLTZIaMAWTpPMFkji4yMCwsGnOGp7nvixpfHGlcpXq9vU4OpncEQaY57r5nd/0BIPA6jdmwFB/CeZWpOqqZ4kgShqIk/MXXUvDNmO8gSA0G19cK4cq8u/AABAAElEQVTbEu9bZXfefKud/taX8fDba13Mg5UcLK9m6cJk8XWbMTaVvIAd9/oDT/7IdtxxK990JyZiwj0ApkmkczlkJfSNm260cq7TJieRUlFXxylugagFGrogiIN+whSu0ihRlOhjHgiiQXnRs8u9z+egB2l1SK50EU1cBSkCuitZVVl6pghJauOT8PuEqGjKB9I84NV8jaSrpAtcJa1Np1EQIjmqisxYe4XOgmRXppk1KZMVWGz8kNV/9QsAqWxdTFGR9lZSqabPaKuDVFqNRpJdmk335V2bHxiAajkBFM+XNNiEAUdAzqY4m3uet/rJA9aH8WJkaNQ6sJ/KY7e+rts2fPx9lvrtPyA+6O1UcZUDZSpPfRXwXpsAtVEvpwAFrVDxbA6oqkgOsO/aarbtQzb4x//cyuu32RBxiM8CqGVcMRWrmM/x8S8pthTHpUEaZ+3UiA19+6t8zzi1HidLwTQPClA1sX3zDrLdYSOSjOUyTQjD4MilQuN0vbZA6OPqgvQTueDiTTpy/Di8GzY7vNMFFq3bFWknoSmMak2e8ZQvVXS0RTQZ7a9IfeYXIhrOsxG3O5fDyRHtl1S/KU3RWcYUMfeSVsPGIuZFiHmacZBpfCpd5C6tllZh1RYp9pexWsue9fK26rJXfyUWAIEpsRNnJsceS2LTRDq1X/3I3vzC/0fkl9fczpgApMIi5epcuKJLsgM3JbmmJK0CQjLBSuJL9/STmaTGt/rJBKiNOoBG5b0vE9hh1LrQvazuwgmAPGvMOR3pQG11+10AWB9Pw22TGjKpH8/+0UeIW5i90jzSLSWQv57tBJy328DHPmNH08T8xWZSgQFoCKs8w8NiHvhEqcX7iMxUOLTX7OArTNk9y30hJ+OkENgXb+611e94j6XWbQ/ATWSWOk5Rs9/mj8d/rtcWUBeXpDpVINwmk7lQ+yaaKsQr0CjQp+hiBg0QKEVdImK4AmVfahGAlkgY932bhvHIKoALoJqeFRUvNcdFPa/pTqZYwIrqJKCdl8v883m3r5rThcfRq6b6b0NFW2mHvqpBPkAYXcIlywagOQuG9EVwBasOWe3HX7EjL/0aYCDYApqOHNsMcW4FnuLiKrI/Njq/Jspo3qrGCIUJlN95TpJqhLgX/GwfbcITOAeNHt1nvTUISQ5HCH0TxPstsB5j1013mm2VV62kacpzWxSvXWzPhig9aUcdvSm0+sS2h+yez4zb3p9+zboTU9YGsCrWaAlAlY0Vv341mdtOO1kybuaJn1n+dzciFXeRUZlnwno2qUqXrbn/o7bufb/Ldd4hrGNCjeblecnxn+u1BZy21C3oT6yEVNVAjdkgSEbeE5epZZS3HG5cD+RlTAFSpnnn0ENSDKF30GUq/mKyZQyKiDgaCVwgFc+K6nViasp6oKMqc1oUflQhSUOK2k0EtkByJoLrmp6wyCQpvlaACRkFVKlUVLKycwFEB4vPXm+viHSxQ+iKqOzbXgn1t2jzygRAjTqvyDqIY1wB0KzCFJQzLEf1hX9th1/4hXVWRq03BVeLlKZpL/lOpsQANlWotE4MYNlYXWIlG/cAFuAyzSQp/XCX1L+A1lvaHlSHxoZjVH2G+aiwiGXsnEXsT0OEKUz0d1v/hz4FhnXTiUHaOd90HqLy7z3PnwhgVW73Rks+8FFb/877CG+I7VVEwneJQdAiyb5utCgIdi6HY9PInl1mpw7wUAFILTUZ/gl01EmcQEJtyEQellqNJE5xC0QtoM7B/Ok6U87UcZJLIak2wMO7LSM8rG2jD6rQBm00gEU0XJ2BaZYGRU6I/m4rVEQVvVJ7jTuz1dQoIDW0J0xBVUwo09CQlleUunx+kieuIi7Jq1n/NC1OSdeVSyMnv7bYP3XGIWOOvIaKaI6759VS78XmvVLeU7vH6WJaIPrRo97l9CUCCkQ0S0r0QIzwNoa69/BOe+2L/8byQ/utn/XO8tg1MwBoXrZJev8MHK7i6Ra5XuF+jc3HBW7LHimwFej62oxJSXKAIHCsZ6KNCy1J+QKSrs7lxRPHWLycKEiNiEllJsfnVgGoG25mRY1NZIxHsUBaBBboh/PmAcetKWqAxjV/R+81tuhRSQ3lvHW99/fsbI64TXCkCRgGTfKW9K0wZnWK1AQ1dyYuT1j1pee4oDVXk5ZlToRud/OCTFXN2uiD86iYdSGqiv8GnMfp+moB9QHvGHQQFsHuxHHOBbRZIrzo9nDAIK+wD9GABKMZNDcZ1MsCGAFNCGoCPTrQ8AJ7ueB1a9Xy3c8zDBArW7SgpMpEW7jS/CsKvbgt+EdEttiL2YdCGmU3ylGsM8UZ1+IZSQKp5KGrKea+iwGpEpQh+n4RlchpBnuNoqhlsVdrU0Prk6NNz19KkvYg2qQWrUtj5o6HCBG0mbTm/ttdQ7SsVovToltAVKwtJG/MEufjp8xO77aD3/mPtro6bN14/aZRt7gTg7ou4CKMUKpKUpUEB/CEvHSfIzb1aQdPEatUXeexeiqf2aRe36LVpyzkVS9Hg0MZwO0Y2EwBsqNqWGgkvSYJ0kkrunjpe4Yd8kGiJmrShpvvxAEK+41/K44RSLQuiatOKgtqUsSlN/djWyVko8KspJJw/GorMRjubCUuRrWkgmqMkNmlVyx+45pogWZ/1df4aByu0KWWIM1KZ4JMAYiyjSwjkeQWFaR55yXmmx/W6iv02eq05oHPqWH06BXaq2w26uUkp1I1cRfNmLwnj+x+CYZVdCdiZ3wB4KTKhr9t7HUPGlVjss3K6RyHS/6cv7zoP406ysufQ5m6mkmHLafN61fZQbPtr7J6v33VBQRl2iT47Zw6qCFDY2IzKJ60kZ/+teWP7bZVRHppBxzcaRepLUWHjpx3pILRpqkA2lLckNpXkZFaw4n5PFe5wCbgOi8nAUgpSbHrb4AlpYzWDux5y/CiTr/4lOA73LuK1Wc2Ms2mjI20hjewJ/ckhudWA+iYdkxCXMMjzEMdQrLXNVEvNtiI8Bdfk/jNa7MF5trion4iyStIkYv96gComs6VZNMSZjLHiB6d13RGVWFNxOoJlALF13GSOrbnACaMkzCI9PNI3brYalz2e4EJVZ21VQ3tjjj308fs9N7d+GjwPY1xRwOA5oXneaUdc4vCimZRYyOb8/1E3obBFeMgYTzrm1iNJUguUdCSGkdJrQr2cOXq/htw4Or+hitTe6cjepYkKXmqOpcckVaDM6zjKp4etuFffddSo0dsIMO6FS6BSkpTAHl6+QIpAldNP5FDo6+tSnkiXnnpOfebAKwd+OaC+QLZnfeS8qqK/V69HhUtuTarowNsHb7xjZeTNLCIaJiUb+s3UwzLsAO0bqeBmPVtkpg1WAnASzgr9XZlbejQHqRVoif5dW5FbSWgjVPcAvNboKVbSKUoAFH/XnwKql/vleTtPg0wt3Li06AvgC1Dyy69Upi0S5LyBDY5VND2IipgIjuhU0VQFPRGFYz2i6/ZJb+pdhAZsxOj7sd7X7fa6AihQ/WFXGI8ipIuCQhSiOQ5PjDbEM1d0811ta2+dSmS/0TQvxzLVG6ipR5Lkf9KyENtGaeLaoH5TkmzLxGqmk6J3cIIv/XcN21izzM2M36WKEh5BxSBiFZkyUq92SB812LCqanPt26ZNmTJfNqyeOi15ZjSrg4NvNqZIxxoSok40YtM3e3u3dfOSjda+UbJBx7CHorDL7CwuEhLkrFToO/11CJTk07pVikci/oHbeuO24IKmBZS0HyBq5yVNH1IewFqklVoxoZPMDqpHmSiBolT3AIX2QIalxMt/Vt9PNouMgseCzSgZUrTTDlzSVVsLXM65exTYxUnFlNiD7CCMpLnRIldOD30oFk5+PjjnHFlclYFrJAngV6bhMG5jlvPOb1g0hB9KRtE5ao0dqqgvHtZbODQ3z1qa5h3npctGBpMSnWGA6QY+Rm+Z4xGLPJoqkjg+xkx82HVqTLfJgAuaO4tWauVLjvpt2qMg5ed1wrMoKGXW4E1W2FVmiWF0MH1NxCHJDx5pbKN7LXDzz1qfTgGZDrTTAsreqcVN9vELQ5bkzp4lMQFK4loGSYA4KAq9oW9FS+zItuIMrvIlM1ab0+nVRVxBgIq0pHlNGQnDxPy8BbLapUaT/oaqa7YuWomXF30X9frQIF4FlcZpaqof5M4J9QhJnwj9GkME4FTlQelMw1yqGiu67rokuMXr8MWEICKjBSSUE4xi02y90/JOxW6qMCQjk/MuHZJ0cAUnCQh6UrqHdSpUjVLWdUOXSWLFZs+gfniqafMPvZJSIheXS2iCQa8uN8an3uxdbv498L45M+L22A6XWnnc3b2+AnrGJ/2iGZlvgPs9OAP6aw8gfk6Ta2jvjNTfCvzWKsw91I6lbEZt0O37VzT9KGc1nO9jORMvf9YCmVKRo2fqyFAX0bOK+fVGFQv+rcIMCrmLyLbcEXqWFSzNmbHdj1hhbMnbD1cbQkpc2ymbL30TPWhuqI4kNxmSg+S6VEpwlRXhfCczB+hhEC0GXGUEMEYK8L01BYIfrAQ6xhVEK/IntV9VjxzFK9j5GkGhAwIXz+81xKb389KFeC0ilNiLVP+zFbIL17Mn6gCUaF6B/cDpM0EU4BKLFNXxVlJHswi3oS8IoTeELzU4fr+NKtU1GWj1nSjJhcv9CW5qzD7hrrdr8V/ruMWUL9oEI9aoUFAlx/4Ac0JlD2OTfGmO26y3D0P2anDp+z0m8dxRmJe5STOh4UJlCl4p0OjWh0qha0mBbOYQAM1NnXGzv7qaet7+GEc6iEsr5vq6gQdzv1vS91bri7NIXk7GbLXQEUcbmI42tEXnwNbi5ZjmTpF2U7xAfgqM+MAUzDhUlNtxBbvyKE5amdhjV6WmVxjqzf32ho0bSxFZa/95HEYlrJ1dDCHHF+M+Q5bl1x3SaokB3MOl0q1fMn1WKYXYlBdRMNGMBKIW0RDDx7ba6ffeMHWMfdSazoWQclsDo4V8NCyaKVIpSlAdZEwKjh0sOhMexdUGxcScLopPPhqWmC8MgIXvcFhRxizoFDplSNPvwlxrx6wYY77ANUEA0YHADZ6/KD1JRgoDNsqyYcpf08ErwNdaU3RQHBuXcNTjedFLHJZ5lsldatzRfNvfcksPkw2FJXgAfc5CN5/HMwHzaioxj5SvifFnLjuvLV+8fH11ALeG70T6QidB31Ei2EHe2HUcRbfIlPQb+6+B23NRzfbGtYjtuNHzA7stMqJozZ+csgmRiZs/GzBWJbYZsYInwmw4qJge/bvt9ueet663/cB5lhDeywLh7KY/t4IvieHCVXv8qt4gY/z1glDE0vhTf74J7bz6WdtLe11AlXw6r5+Ym2j3mZcKUCPPau7rWtVD24Wg5bu32R280NMXWPqXjf5JNEefeWLBIwhpGpXm8dtCePDBYq/wC2NCWUxQRqbJCw0knxHHIh8IIquXr37GFQv8rdTF9BvDrz5G5pTqcNapY0jpKxdO63nxDHrobMkcZzIS81KhJU6Ngmpc33dUOWBdBY4s0BZUoFEIKormg/nVMfO/QXakXQnUSWNHDQ7yHxOPGqnAGnwOqhvQzZepzlYrdmemtt6/3ttaNfL1lUmoL5UW4UpmxlikDi60+xGCMl6VarQjXsMIBopmgCniyRUQ/6MylL1lLxcnag9JO9KylSZBHzgsj9GPkkcu1J8cBUJtUqbpOXiT6qgIla7aNjx5GVQnibmNkYe3Ym2CtoA3fHooAtyE55L/OeaboGoN0QDMvv2LsuikZmZHmO+Kv2PVZDOSxJv0Taiw1yxbntfP2AP7j0MsNxgiG1mN2m7FctLzfqJ6t1/EoekwweteOqYTZ06ZKWRIZs5cwo/iqI98c3v2kc7Vlnq7tvNetqgDNUG5x/Xdb5FBebcjr5xzsWLOqmgpk0Tu7v25n77ybd+ZBu6B1mQAzU1ayMnMPus3rjNejZvCDQ/yDKPnWipuOexxbN8K0s4ogM2e/N1e/0XL9paLW+HA0SJcY2rJKfui6pL60POXLRjtM5RloOqxgKoev4P1nremsFVchyD6iJ+KK2c6EBI30pKAk212fHXdlkXhzJ5ppGkhEtS9Yo7c49e9r62aENdJdOMjAoS7maBVSd+o9nRqnCXOSZsJwBFO/S62S1T2HEgBEVwCfzdBb4Ad/rMBtt238M28fSjtpp8MkiqY2MjduSp77EQzM28ezvARUfXhPA29nXstp4EYUoRcatu4crcvxroRBxhrwhKeowdB9iapkdoozLT5WRDQepWw/DBguDoI11aVQQqbZQXzbJTjlEKtWm9Et2J99dbC6gXhF7JX2JCJ1gaUV7lYngvZ0CTCaYTc00Rgj3w3Eu27d5HKIgcNSUMGvdSZZ/ZRNCUTTcwBQWVqqQ5zCtrJc0Oj9vpwxN29OhR23LfDkCIEIr+HtQggliQfpb412NgURS24vSw7XvzoD34yMO2YRX1vXmQOm+kvQDTJCCp+jTDKqpibFybGR+3fE8PnswFq738mpUnptFq4cEv0tS45nS+uDprPEzAAFknTowa9FqZY9VHP6r2V3m6nD54lX/6pVdfv7kA1X/3aHzXRewN6f5VRC05aXU6oyaCy8vX4/qCmmXAROpOTaquYpPxew2jqjBWWUSpdT1IrJIEZ6pi+8RrFmIZevNNG5g6bKk+ymI9VOcsGyDt76tigOZs76Tzpraw7vjDrE2Ks8LImK3Bq3gQ1c/+I3ts5Nt/bv0f+ceAKeCaobMLXBPiRaMazevhc05FiFEjBMhT6yipSsGfitCIBHVoSzG1iGuKNyoeRJ6aaY1gfJ8wVqCak11ajkoQsJiQ2ToE1oHox7pIiuoWzuK/12kLqC9KG9TTRf/Ne5+SI5F3Pg3Yi0pIlNgdNWfzzMs7bRvBEuzud9EBoQnMOk4fze7H0KlVo3R59RY2gVXKBpOofQnyX6gULZ9CU+Qp9PXZrhvRjW42MwyPXu5faKskb0BUz7c98oglP0DdcZoyVsXiI/hPnaFHp9WIgfcyqSOgme8GUBmj7NCLdujZnzHLFeUs7YGbiKeI0sPZpf2VpJom7rj1oR3TbxVG0tlMFvuzzeawIo6W+BddEd+0rJVwWlYJUQegY9bHCjb4oU9YsX3QxlO5MIXEQZSu6wBCv+b5aK5m5P4fVVTdq5XM6NVcYZP6lM6ngBEZgTOeeHZqNw+f4D6E4uJulEu0V04imihB2IQkXL/jXptu62CRNXwPJgu2iggrZ3a/aKcf+xvmh77M1bNsQ2yt7wqgIUYNKD5HljJdKlX9VE6D0nxgELkpTIWWGyePukBywrKs0EP4bs4DoLpgD6CK4XCpldeSfGdOa7jWx8ge1RVZt3ZMP64xWFU1kLXeocg4XUctoN8+/P5uGhGoKj601jSFPurydr2MJLMMvrA+7aR9dNQOf/dbkANzz+v0e/lGMPWrSvxseOiQxD1mkfq0/GEOtWkGsJD01d1lVVaBwrvChwlJdw1PAt67vDq+9ecpDGob8X0xS7VhG+W41tZjxVyflbPUTyvTqAowuA6e3mYRHTfqVoEWCb04tOdVzDUhAIScCrOMN9Gw99b1OPcJrYBZ02/VyZjkRUlECWUGRpp3LqeAc4t8W66k/gXpbSn5KixUv3dzUz/0DoC0pWDvWAe7b9xqQ/t3I43OwBDiOJHjAQhfzjpiauWyn4YQBSx6VzQpGvR949psAeG6ziXZ6rY8ak+fHbKe22+CWNZZaZjA/NhC1C11PySBm5IoH8JBKpVaNYHdpA+10PCRw9aGfTPLXDwmu1iCkIq1469DMIDqagaHJJucjUrYVfAcdCNK/RQFcC6wLDPAwLnWCGKewM3e1TgqXRImJCKvwgyDUMJgAHY/gf/W09bGeQdqNQdU2sC/mSJkPmUsDHPl4OyzqJqSG/m2RDvtl7EpPBY1FUjSuwew0kjKey0fy0mcrpcWUD8XTIn0tGl+uIKxlN941UrHjrBOb9oq2FRnO4moQk5z0hKFTd2nNbUKtdJB6V+Gixk63AT+BwNrWchiMw599McEnuzJGnv1Q1Ug4EE4diKG1ZWqFGhO63keCdNx0FBRV52HYUNHUWo9jq5dzj7kp+9QO4RVS4njS02oFZdoAQ0RIkYRnzY9q/oLYGWCeXOvHfzrv7AunLCymG20ypQiK+mDL5WnlTChNla7T6NGT2/faqvf/37msG/gioImRjZw/T7XBmnHoMpPeymJ3x0PVv1peUsqUy17Brj2bsXbFgKvw87WcAzKyPjKsxU6scAkBOaefVd9WcmJm2PJhjqONp9K6gRM9yOvElJjl2wSuU2YeuCOmRcj+FQ2jaw4Ui7yh1QcT3hv2YTgXLVIcZ65riNw4dMAVjdOUHnAsTBy1oZwuqgPnbA8bvM2g5expNYU++k3cRvcZfte/Jm9/OsnWQ6xbgOb72BgoVQfSATa5E/pGriwEgO4YzACYzb1/I8QgN8EVFGP644oq1HR6DiFJ6LGqCprUo6yekX34Fo4WThssk+1dTrJqS20vrknDQjKI07XXQuIDJw+2GswTkmDQn+uETu6cHCP5SVFahRv6SB+2tJS6oKtyemucSEYdujDELjC+U1jjhhi7c+B++7hCRzrEKeSAKvnr2KizKIi2Uf1CwAdeQcwR5s7wetfsrBeiFLrcXRtkft541KAQbUVtdcfUonvUixw3Yuq3ayOHBnHzljtJ9+3488+bZ34WWRkR+UdrYGsgU80fikpal811SQMcsdtt1rPPQ8ybiGt4gwVahL9DXlfWgmXUpsr86xGwzhdTAtEg/r8Z71n6iaglcLW2fsO2/z7A7iyf80KbxJrk1VYNDdME6vVvcW5qpOGrk4/jTop1wQu3G6miBCia1lUqJ2JGTv49C9s67rfoEiFTgiEPNsRpb7VJskxMNNYipg6B1j15C3zsc3W0/8jO7PrcUDsjPW3VV1C7B5DUt3zLHFMfw0AZyyLZJlkm5mpYlLKYGeqEmklb5NtcO31cRgIwBeuvDmyqN5UQrscQSdsjFijzIddhZQtwpTEPoeSeVbmHdmZszK4kn+lALj/6ls28EnUVD0PWpm1MuuoivQ1KsqnuM5+KFfjdD22QKOreX+TF2nvurU2jNZkZmwSJlagt7ikaV8KtKJJMFUkOFnxzxAsf+rrX7eOv/cHluzu405julizH85SmWgh50RMV6fLC1KryIo6EqUGDNbz4WhxtbzAW2oYcNGTG0FVliyZ7KmvznxxDWoj3lSphYK5ycu7X7WXf/hDG9SyjYRfFCnLwchNOv4GdN9EYb8w50/ULGqnMBrodvjFBMh9gzhMySESwK7zW0lQDtPlomyWqW2i7K/A/ur/givQSHOKUP/QNi8FKJN9ZRPgutk6H/msDdz7YTuTXmVjqQ64tAxzVSMLAlkgdUbSqDpbFEBfzoY10EObHA09GIQogE2SbpbYop0EgTj9xHfonKN0dlSk3NamwUBUpR9Vk9MJduh/pWYpc1zL0qGTN1jHQ5+xLZ/4Q1t71/vsaKnbih2r0bjCOcJmr+tMYm8tWQZbUpWQa3k41BLLuSVAtQ3r1tv9D71blacy4jLFl4tUQ2KFOfykdA3V78EXcG7ApiraEuMg6hE9hsr59+gtH4MgWiIzErmFuo8ft7OPfRs92ilr6+yg/mGQK/G622T0Upyu2xaYS3p0JtSstmqV1Rn9C/Q9zXlcbBITi74l5IAvQxaArY2M2sFnnjJ7/RXcCiboykQoor+yaBkAJW2QKF9IJn8DjtX92aSg0uzUFJ1ealfRY7Pzi36aG5f1UUu5kV1IqkEoVeezlKpjsfeNeumGm3Wm7fUv/yfrY1UbMRTd0J+0Y5JQRadRTHLldf7U+iF6SuchVRjAcoQuldas0cp+I9QyPDM7QjZeugp3+qXjdDEtoN6pFPWZcBb+QiAStkKnhcgzSIVwtXbvRlZquceKu39ph/f/yjqLU/jioL4FINNtZIgNaHKkCN5g35TtEAQqaZWIRlkqquTOAdFAgQoVe2YHNtvi0PNWeezfW/p9/4gIL5t5EmUvTj5JDTJC4AYCaUUKAXWJPAMTS3QjW2vJwfciVd9i2255xCqH99uRva9ZZXKIoWEae1DZCkSFKbKEWxUnjJ51TILffguhDW+DwNaxyYastSzKlAQQSjVUEUvLJyl+bxUnj5efRHZHSndbTCBICevuxc/bqpdzFRCsxiGNZIq6lEald+jAG9Z36qDbsrI0OLIuZeEA5oNU1BZ6KU7XawsEEqGfy1Holtss0dFNuGk5ujEsi3AaaX5vmX/eOgA63+edEQripMTxepyOjh05Yqe+8SUiDEFbt95LztL95GykyLKOOaat0fFDfShYBxoIwFc3cchxQPTYUicuLD7N/4DWnFS2yN+TDDGqzuwXCkalaJV1VZ8Z6swB4VQVWOb0l/8Sc81pHLVgFmAqKjDwKi5YPYNWzMGQi00tGveVQrX4SJ99wA4nklbgHJuasVUbNll2O2MIXtFqjrCovBpLQkGzNpxdqLFCSf7SCv0z2+IrtIIrrlr6TbUt8LuHbqG/AIzUUJrkDFeWe+8Ac8e32vBzhDGsHQfdpnmGYAY4VdSYsK4ppx7vF6eAhDhDVKbNAPjMLY2S22NFrKzski4O2cjhX9ngiVtxMIIo8D5EeQUBeHiE6JWwJ0vlIkWUSJwskCBRscrBamC1pVffZFvv/zCBt0/xbah25ayQwEYsO7GmBWQ1cGjje7Sh26oISCEFcepScnmSx2/hiE0/803LVM8yn5bv4THF/C1jU5ZKTMEwEojosrHqf+NN9452D8uZGVubz9voK7+03kFUzfk1PggEmSDwsbMtEoqN/14/LSDSUwp9QH+hs3SH9W3aYsPHWX4NMDjfalD+4lv8kfYIPq+Z5GvYA2WN7Xrdur/5dWv7b2+z9jzOfDCfPWJY8QjWOw4NojN51eLM5EmdO+KQw5XL/yvkP1+KCEOPBKya9ySjA0yrPg93SbRRHKiqSKmF73/Hnvn+d+0dMPr6hirmGPlkJGkMDUk12WreMvGgQFUN4iONPh+612V8P7pWI6V2M8deEKpYj55U6QUr27h/9e1iUF2y30wdI+ocDP4Qk7jEcrGNjrzBbHCNrfrwA0QyOohk+ArLGyJpEi+0HQ+cJB2xqs4IuubYpXhXHV+plYZkf60CVOrsZaa41EtnbOiXX7WBTwGOtZtYZm4N0pzerGDyhMtUddzuGfhAhh8fjEQknnSvDkgKPPVenic0h033dQ+njGmiLNUB2LYM8wH5HqmtZAeVlcWzdyDHZozK2Kfl7H/cTux/0voJ5C2PQXleKiDEjAyivMdUfabMzA4MEWmF+vAsxJxNF23kzZ3WO/QOs42rKU9+yuqqs+/58/Gf67IFNAxH+OF9gmkj/bfdYUef32lZAEIS2aUmaVGEgZr+HSVhQ505n73MXS2Vq7bv2V32ju/9zOyRDzmtpAj+YD3OHvIKNRINC6R8Cg7nER1FGS7FXhqe+WmBS/MfCedQrGYSwDRnBJLycxhDut/zkh386U/tJj44D/1FgBrekWlq4dxar3qL85wYZiXfcVFOxpoLUEeV3K3gE904Ic5Jen7215xz6yo90UgVpyVugcjwLtBJ5fFgxdaTVGD43BpUmhssPbDV1t+1gw59mG3IaiwgfOz0Yeylkl4ZFNwuuUCl6H+S9uQ9mIb9qyuY98QJm/i7L1vXh/4B02sEm/1AagcDBPNC/VnVQtIk/9yO05IvPd9trcCjJgAkMus87/CErEtcb9deRyJGbQwc1EPKJc0yC0OKFMs4OqXetP3PfM86Uf924iih6Q1JPI/LoLimFOmt+gUpFCsP036mSwUip9E1j+5G5fwQhMm38Lb8JylEGcXpOmwB/frnDlh0RmmFNm+1qXSO2NYSv8Lcbq1acylJQKDZZFGSxJpEsyLakMp0ilVenvzK1+w9Qt+btiAkU+5hmElIu+5h9+jhCgIsklNfVfEOgi2Z6tblpIVANcqeoi+cqBgq3ZBoSTRjtm+vPfutb1j2+HEbkE4X+hStLy5B35FkThZiVKRxY8IAfhuw0/LsV/2bkoLKectKL64qb+Nb5/bRt7EyV1XR5/SFILmFbwhA5sd0eK1ZKPWlGjuZRjLs2kxfwlO4D0mM+F/Jm8/appMv2Z6ffNPaAaMEUt785Esm6X3ykpkyC6cpJ6A63PLI8T126tEv2A33f8LS637TkjMMA3nWUnW9S5gi4JSuAccNTgCT6o/RR+Ao5w5JuALrHPtAo4KwALb+Lk9xm03PCUzJQ1NpijydYmBJ77fhx/6TddkInD1TaNQE3BIky7aUaxKSiE2D1AKJ/LM9mnLA6rRMsTEt+m5TnGPn9TKl2pYLxYJvL5BhfOlaawEJV3QINh1oA9jkNLD1Vtt0xzvt9C9/ic+C+iS9l7VQW7odz4a+5weNP9H6xsITaVTK0sKw14LdoZfRg7mnlVkG8HvITYzYoa980XLdHVhPiAOGulnuCwIQJXn5SxOkU3d8mgeqdac/f3RRfxYKcBGVrXornY9vrSuqUoL55dBkCg/ILFuFCHDrMLnUMlTamZCI/kNe8//Ot6XOv6/G88UzGjeq+IAYoQnraOrsoYdolIh2ue4p2jdOveWi46tzH33h1Vn7FVRrkbejSKNOwaMtIvxA/uIRs66OhQoJFuFJNlNNxemv2+qte62EnVSwcb4kwpGdQvgoGlIHbkOFXJ8asmO//oltuavLEgP3YR9tJ54+NknRClTmDGSoZCNr1SHUWNJmcElQB+dZUFuE5yWIXVdJAlCpt3QcJdlQsX/a+AGrvfY9Kxx+HTk5qN8k1aal+xGo6phXNdg0/JaiHJp7qbZ9MGAZqtFxVtegfTpSnYCx6oknJnAqcg/t2nwtPrieWkBdUZtSSzd08wVB3zfcvsNO/uopTAg40AGqYbpa9EJ47XL+JjHPdCDdVUanrUgQlgL9OtuRdxVnpD/Reqvq5w6s2juozpaqBTUuJ0XMdWseTmZcaIJr683mMXQk+mXgEG2nUXmJccg1ND9iDLxm8+rbfP0iD6JAGz5+kKGWd6sx86F32zbGOGyq54Bq6w95kYWs8MdiUF2iHygM/QE8feAX/rhnDoRFK2eJ/BLuRgVKEuMtqYsEoz2brf/2u2z49E5c9wuATyC+ZkhDAaIADlQVSOlYO3HWGYC5F5vP1NBx2//YF2zjrS9b7v5PcZNKZDb5a67XErJGwNqosDj5LFw/E25CxVSs6uXGIR3//+2dB3yeV3X/r7ZlWZ6x4xVHmZABGYSYbGdAEvYom0II/MsstP1AKW1pUwpputenhQKhaSkdoYNCmCGxCZQREhLikJ3YIcM7tmVJ1tb/9z3Pc17d9/Er6ZUsy7J8j/3qGXefe8a95557n+y1/0XxITCydSOtx2xdG8KD3w/dj9wdjpCHX9MspaVu/DStQBU2kDXTAIPs6qPq/KVZhdD8ezqUZv4yHTBxfmg640rVV17UUrD6TLJ+5K1Hz8oTp+vhiwFoCyLWwfU1p5wS5i9cELqfeEr+BbJ4SEGICjP6V7TRZlmukDhNKaZ5O687xy76Zq6+/tIj61K3DprYq5kw67cZ52TKFAaDe6BRFCr/YsDxZ3/ArE+FDGwwqneuD/05jgYesB7N6pfNR1UgDvW29nlC8ijUl3TVAiIP9GE+trYr6V59MadGn5tbeYYO0GhdmBVabYaHaLykVA9kxzk9Qm3wlvEXLGeSQFdMqHqpz6Vph6icck4Ls5aeENrlyNQsMw2O79kEUSNiJUbRmp5WFoxOsaxwePZsae06MfherfksaO0Oux79Qah5ZmtYcrqU0vw94iTlTV1Y19WHiE1pWl30zsxougIWx0TC8LPHy8NrzSSrPDkAYujJ8Mg3Ph2O1LyyQRvvm5jh6uPstNObbhmRh/0wM2cmOEzOrJTyYwbKXt1erY0tO+FZIZx6njatni5tf7xQpcEISKDhVC2uj2We/hy+GBBB2MwvJ7C5i3S2fVvYtn2HxpCahYkIh/QlbluYEZ3DdRlUJiL0XenkrjxmTMfc79aAl61d7Tr8pE9mzQ6dpYtOB0yFkwcRVR752UDQQrM/roKjV+O6rTRT9QwQMw7FQSvMg4NgE2ykeg0wwMZXQU5L7BkwUzX13i9gPRbwgYwsYMLT7EXy+H3u88TDFDDzVc7Mb6F18kH4gz0IJQAdGc/z4D/dQn4ibPQc9J1FXBZaLvvV0Put60Pn47eHBc09oadO3rCEi2MYRdaJI8xUo+QUMVdfnTEnInnXLpqv7lR4T/+e0LHj52HjrRu0v/RUfe3pJCnsU5SBiHtIZ5nWar1VXMeBE6yOZvNJRvYi+WjUSq0MzDlJDenaLAW9I8jOHPqfvDPs3PywzlttD7PlWFU3hwECFYWtWHcVSPOXmExV65X02SXzWbcaPHvegtDZKzf7Rat0YtmSMGehFD/m6iUnqJ7yEKzRtgUbUUCiypfGGh7JOMFhiwEjLFpvTJPRBETGUaGaEc1//upw9513hmMZaGr/pb62KpbQgE181K8fZxsZTxYQ6LPYWDERxXguuzHzaq+UeN3iBfJdaAv9OrC+u7MznwFjiVLWkTZjCYTl3UpQnLCi6KoBzKkjQaUZaoagLAV+E71mMUOc6IhSOToe0bs7bH9sY1im9eFd+vj6HI4zzbg3L6aE8Px57IriENkoRPaI3/dq4HH8WVKoNdqaN6SlIvi4rAOK+efFHMKXpFQnsfP2IfcyJZCFZkqGQrNnWzK0OhBZikSCYMG5rw7t3dvC1k0PhDnzMaCKQolOYp2eYHxVyigzO9k6q7Igl2ZxbL2ch5o1Et1y/49C98M/C81zl4Vlx5wWGlfJOWrWAk2OWyRsROEcEu77TymET3DocHvbq8rWAHa34h3SrfXTLY+Fng13ht6ODTLrbBZb9upj7BIcFAolGVdTMTFerpxxhaJW6Nt+NXawZU7or28Niy+8LCxecLxM1NovW69212gTv+2F1bObnkkKD2dZ6CbBYY0B6KAEGf8YbfDOPu4gi8/JJ4fFJ50U2u9/ILSI3qRHRUO5IoAIy/IoZVa6ceVaehHdoC97ZFY+4QJZUl7yWo1oNUDFXCRnJQ72N2sKWoMDH2xWxvu4QHgjh+jW3uRVzELztnnc0lWJRlGqpWiZ5hp+zGVNqBM/18sJEn7mq0894u2bvxye2b49PLNH1id5OjvrRYnHeSv5pGzA46D8R+o5lnD1uaq3lHWMinHmeihFT0p1kntrJHaorhil5qPG8gyee9Evhc6bvyB58JSSignwa5JwYO0H/rOv3nCD8tKVETX/HBoQJmIevoe4uElefj1Phq6Ht4UnfqZzPZcuDa1Ll0koLFIcjSAbpdSada9TlHSyvYrTTx639vm2nU+HoAPLdz21KcyW7WjHtt1aI9YarOqj/dxmZuMIwRpxEbyKORtPSepqlmWrrMKlcPnKx46u+eHUF79J5R2ryG1Wd537piXXbpnVdL6wnWuooAQJA5UwMEziWWj8jBPMquPCyedfEH76wEPamtUVmrABS8HZdixo0binUsZjv8NkukPLLCdwpCe80yiLitmLYTZXeCzlaNZsYEyY3+sSL7X4W6uTP/h1JClCGXGDPX7xWkif7WcTr0upNnUosvIZEPPWyru+oSV0arAxT3vVj1g4O/R0yxwc1ykfkMSviqXFz8y44X9+vRpcHI1CXXWM+F0CA3SMAxAnhZbYvCLOohgehx2s+6RUDxbmK5YrhmlipgbB94RlF1wedn73n6VIdeKJXN5ZT8HZAMKFyPkZj/EHPtEQkW+vZpDtrztCtuMezTJxHKiv2xvm6pDdnh0bw+YnHxVDyelCiq5OQqKpZV5oaRZT6Qs2TTolhuMH67WuO6RvuNZruD+/Xl/d6RoIR8zRrLNerlgajKM78T9iV42Zs1CsGu02qi6c9WBgVjFFkCm3Z6glnHr563VW6zkK0glNPTqEcFCuHhze39Ardy0SKeMECQMTwQAHGvRqMHfOBWHJd9eG3T9br1O9tDQhehwajOnKiXN8heAHMLtVA9BaDXzxTZC1J9PRKsAUJiI+FvPTTbzOkpc/Cl/b+xiAaJDcr02k+tCd+LZXH9jo0v5yyZ4JAsrYfCUka7olIHbXN4a2c9ZIGIjX2SLHRziqBGH0kIXp1uuHLCInteK9mGmkXAeYtWptSEQqpz0DvnZlO1vsSQyRK9HS2k1pNIxyzYRHk5RgFl3P8lxsZs1Ds1eOGBziSLJOldf1jCxLOldYUfmAODNPnCpqNP0clAMSSrR2drY3NsuMbTiqC7FUlHSjAfGkf/OiFdDKCFUn0gzquMbFckJacpoCOVUlY2o+AkA5bOIht8xtKXLv4HWChIFqMMBaij4OrpPww1J5m275xeNhR/eeMF88UieFW4uz2zDzVJNjWRyURm8XZl4pB8ynsBdMQLlGvijXjI6zhBn/DWeCqii+Gw4dvlN+FQHviSrSY+Yug+yZATBrynCZbuSaq6P+dVRpo/i1SQ6PrVKCnAfBYHkYyh6yFZ7hwH3uhmQKb9QnG5/e2x9OuvDiEI4Rz2s2nPlb7BN9xBfFFowYcRoGJKU67TpFTCOPwsCpSns6chZAgWXMVKs1VZTsENSvq20byE00xtjeHngBxuFqP9LrxmaOmtHqyY7IdurVNXN0yPwTfUvPsOMSmSiPPBs9GNQya6V8BftpNANsJLc9CnqpGcK27towd8VxYfYFL1W8+aqWBgsa0WcOUmSYQVYVr5C/TdeEgeoxwJdQ6sU/DeedF+bq4+V71t+lzxZCcczIRHEit4zOq88zjmmHmsT8BiMxkNUPdsuod5imMyaMcyDWMJQ/8Z4c9n3rKfhm0+igCpUG1sSM88tqBydbNqwFyzQ+JEdEOymNdjFAMIFBpPFDg0bVXZJLu1rlInbZiyRk9KUb1cFKBi1W+PjzPZRSJKU6rXoLjtessVZrmr07ZKZ9Qv4X2ZFrsxg+ilhrcYBgJinlare89qElROs/G5XrWXHt800aZpvyQ/MZz+q9PIz6JWWIyoH+vlcPlCA86m0BVwUQ38tQHawQpWGWyj2OSqyhkD95IbRgfVT3Xhl1Z686ITRd/EY5JbHnlDUnIN8vRxYCW0qVMCD3BAkDE8UA32Ayl9vjTwpHXXB+eHDDo2Fw5y5RG6Kd5Yr9o7BBvm/IyUQ4/eg4UByUOC2NY0H1IOo2LRtVn+ecyO0t5RsD2hN1ArI3/pS9q/w3M99WDiumL39GTuA3ZQMDMuAEGcmafp333d2gD5KLcTN/iNFwRJjaY+s9usub4hazzu6usE1RnvdmLfOsOl4Rmgxd+6ClcgNmxNukVKdbN5oHnohdn2Lq6tyk75lmI1O2BRhvRvSOXzCKNgvIG+JCAz5WEN9jxRrEvj3MV5xsZBzMdhe9GNDPv5PoI3hG8+hTskJxI0cyrucl5SitIvEvm8lKYesthqV+cRnrKp1as+mumRNmzT8xtMibOfQt1gk0LRI65Ws21Ik8a6gk9+VyQC8SJAyMBwMoMe0h7e4MzRe9KCz+wY/DrjvutG+jskdzUAM3HI6Yt6IXMKqw9WVAyxzQfJ3RoRH5voUyQLVZoPgThZQTLPMwdEtGusN3RtjQNLxLlvxslquYhSJGJXs356pscwbMSyLbcshzKQT42JgyaXM2GGaNRm3ItSKDDdgcnof/K4HLhywMfEkC5HIFvIHX3Rq+NC1dGZrPO1/OSXLoojuolue5T50rlXRov0tK9YD3Xz6UK5VTZB+ntjyCHXQAeT8jj/dtmVI1s0xOjdJyNvMs5RelVxROSDHmQRsCekdKvnzDLLIv9641BoGD9L9eaSgxrhlrtDwPkp8UsM1ymYmaUKAc9zWWYlU8uAaHEE7n7dWxZFu0TaZl6Zlh7nPl6TuwUoU06ssY5IgIykuiYtxyzWrJTYKEgYljgMNCNHRr4LOL+n7xipe8MTxx/+NhQJ81XCiHu1rMKlKBHDrSKKsNnz/je8B7NftEdw0M6KPi7i1bqIUNNDGPZm7usiZpe4q2ikDCjQwW+cKT7QNlPyxULo0C0zFqhddQMMSmCs62fs1GrURQeEFmlOIoLAoydiJ/B6ahUbi9VpnoWFQoMIuyLX9m2/p19OussuYwV598m6XtdH3a0kftHXwG6s8cQ2gguTDIgJ+rJgK1auMujeC3NMwLl73uah06szRrrybWlM38ehjyPIZf7HPnNYhaZ3GKz/sknAYvklKdBp1QVgU7G5g3Mi/ZAb85R+XKDMbM9n4Op0LRwTjwlzGaghAQzG7RifEIk+xt5GrZZmurSpXxe16UxycvK4u88+I4ByKDLLLJCX9l0kIpalt06MTZYdYxWlMJbcpEe1OpiHIZrnueo1e4lEe6SRiYIAZgAKdPnPNq5SR30nPCiWsuCg/e/NXQOqjFCCkCI8ViEXqJedQsJ8Ww/JnD92v4yku3tqXs2ixlqWuj9qoaK2gft7zl9SFhUyboN2NIXOOpl/7bDz4mzCFjo+wJZWfPzm0eya/KxOWAvdJznJcVoIBoZkt4g0a7DeCDvE1QSM2xzKRBB3vS6+S/8Uz7HnntD4Q5OhFtdBwoD0OgZI7yMz8KKdoeVbmnoSlc+PLX6PSk52tcI4cxfTOVAyewChjQLG7L6pwFzaS/SalOt95kFAwDauTbxxYBRtYx4+kevgCcvxhNGq3qj09QCefUpAyUSIxAZ9uAmTzIk18Orkj9eaSrD1RL4VEeVGxAI9balkWh4bhL1Q593m5Q7vSqRvYhcx+zWgNLWaSbhIFJwQDkDpGjVKBLfVVGe2rCwne+Jcx99L6w5yF9aFyE3ygHnb3YOPWfSSSmy1rNUDNhPzJt1mlEuVgLkk/cfHMYuute7axZKG9glDRfw2EQzDnXDcpWykTZYGRuYuIswLwMO/ZKcTrLOHdmMTTgJMAUFm9csZbXh49jmPUoS5S1NZ/ZYk2K8/RyqEmWC+en6U7x8epvHNQ6audefdd5V2gVnuo1wB3S5xoZl1RSrORhp0RRNT3UKn6nHCaRU3xcctmzTwqNF56nk604EY1cpKCzqFlzvEJxJRU+0yAp1enWoxCcKUPt4ZQpmFtMuiU6FGG64dUVnJ0HCq8oKURM7D4CcyJGL/O+9ELPxM3+ZK/jr2nAPKXBbp5HrMBJWgnMJKyvzDTM1cHZtcvCQLtG/tKpxoAlIVEpZXqXMDAJGDCizhnB6Fb3dqBJbTjljW8OP/u7vws927dofRWnnGwdFP4y5yXxGkrNVVml2uA/gKWlv12fI+zeFHp6npa2pCAZTHEuFAyy3Ya8rC5SOMZkCtez8bIYCUuRQ+ZTkDEZ28tMp5YUax7L5EF2T5xMPmTPPhjO1kHxbcAhUfXIy7D3Sm/718lHFaONbNtliIuSxPTbqq/tbN2+K8xuKDfUZqUM/6W+ZD0kAYEcqlNGHB6xS4c7HHfFi3WE+XLNUjWwEF4IzwbT6oesiZQ4nNkMvUtKdbp1rK2LwDgNYZYOZejv3mojR5wLUHYlhx5TmhmlmpJ1WoWYtZ+0QWs/HdorlilLHfyAVtSvT6N0GM7WSvI0GGiget7VqXxbdzJhkcejXMeTSx3yAzLpYbfE6ZXnR1OryEoHSPTpUIds/6wnylS7RU5/EgYOAAZMYShfyBJ+0ehSC4ka5J14ajjtta8P6//xen2it0MrK/2hUcTJfArwgeowoWfv/S8DV3a52WcUFal+D584pASVaGZbttSIk5ComFvFZHu6dIjKLBzzauxAFEaqLIN4maXZYO4slClGLzG6RkrV2gfvR4DPvLVV7wb7pXY1e2xQnBYdtmCeycqYLJjhetmNuWYf1BYYit/T3hPm1OszdsbW+lNU7OStH7sFkBW0iWPdmuXdu0Wy4pRXaLvcRRdqEKP99Tp3mY+VZ+pbUXGI8gpifSs9EFYZPHrl0On9NinVadY/7EetZ+GzcU6ob26xUwPxsmMECmfgDGQ0Tb1LzAUTECzRoJlihxY6hhrmhNkrFoZnnumSS7scEPq69X1SGaZ0bBufn+qXKYv9aXIzMAayQawEB99W9fxrmOJSXgwlJaowwJUrt6plv05oamrVwf14/s5mjxosBIs4m/hVrxIkDEwyBpzSoDujPQ6I75FpVqba8IJLwrMf3RjWf/Pr4bi5raG7fac+7wkd5+t+YoKScq1QLxQOnu2cFtagwSlz3V4pGZRVo5SonS4Gb8ms2iennflLF4at4r1+HfbPjA4m1blk++SceePyOgvjAJQyyM1G5m1rQRnvDeeU86ISMXhukaKs0YEuu9s7woLZDZoZD1g9zQQtmxVrx1mZSqf6ApyRjCc0uPBZLk9loLjZblzhQUqTox93SV8uP+N5Yc7LXyUWF661rmqOHQonbsbtqqmZg8HBzB9YJ6VaRjUH/yHjGXXLrJYwe/ac0LlHBCxFZkpPtIlTks0+c2awGsNTUoD9GgXuRC3K827RUeeF2uVnhiUcGrzlidC36d7Qu3drGNy7R+uee0O3nBR6BrpCS6uInH13Inq+q8oxg3ZAuKOipETzF8OcnL8YZmhm141NR+kYwjMVNqcgGmCmfRLneaRLwsAkYADyyqditbJispyJUB/QpxXrBiXs584ODa96fVj01FNh+333h/n61CAOgUOifUzAfLWpXlNNPt49DPk965DiPT+Ck0EunrBddh6nho1uTtb7Lk39cNxZfvyJYd4Jx4WOhtkaezaJ+uvNcWc47+xueEaX8UdmmI5jlVST8kFCZM8lM3KudDnMpV7ru3N7ukPv+gfDpnvu0yR6QL7QUobicYbQDAJq1T6crlCgKGpECUZflEG2jzduv15GQHwJC6WsCbv1EYPdK5aEk16jWeqSoyWzpFRpgqJkYsOwb6k1tJA6JZBP8WX1t4AZ+Ccp1WnZqZD4QjkvLhAjDI/skBd0mPE8I0UxNeEDnBEohcZBC61tJ4bmI/UlmnnywAsr9JPgWHxMaDjy2bLNblMGykWOCXM6d0ie7NI7/fBa1FdtgkbYoX1XGJDiHdTxbrV6xjnDuCQXViV+cL6Dxww0Ckepzj9es4KTwkBfY2iXia21OSMxm2mLEcthZjNXeVvT05RgIJP5RrKQW7fodpYvE+7Vi3lLwtHv/bXwi+s+GbZvfETfItZSiQl7sYBkfrZ1DDrNaJO/JbMpzj3m7oqiRgGxlMKAV7NT8SPKhoPOdICTeFGqY8XKEK58qTxqcSyQwjHP/hLD6J2g8LgPi2Sxsr8oT1OGerR9slGghelZZ3uH3Tu1Pebrof6+h1SZjHFRpLW5QmVwAGSqEftSdo+Spj3WdkbxReCdwvuFs466xrBFHr4XvenN8rA+sRhTGekVGQuywxWzme2wNMvCZuLfTOLNxJZNmzbllDVifcqJN3vi1KFFoXGJFOGGWzT61Mgyo2cdPJ952nWLSXo0+h5oXBhaFhwbWuYfpwPxpUSPbFNaHfqtL0maQpWiMzPxkPaNNejLGnDxHFE8P9aCbDwfXTkasX57qHvylvDUfbeHeTpsuIVRuh8uLK6Af433lJoh6ZA+f9Xbq5OEm3W0Qxuz1CUSOvryRa5QiTYMY+HDY1InoNr4Wez09zDGAMzjEk33UE6jS3H0CGzVqDW/efPDqqv/X7jn838fdj7+SFilmWTo2iubjmaqJaWSZTQg2ufEoV5pXHQKv4FsVGuTYl8uySeLUrp1oUmz1g6dmHLfw4+EkwloZXAr5aZzt80j2SO7q35JUVJj8WvROqS3BrCEsYX+1OdbeHiBhuerM+TLp6Nmaf/s1ie1bbZLdbeSNVPNzvzloz1MNjP+ZTkJxCgOuMsy58ZmsiwnsSSt2LbWanFkDeuS81fHwuXhpxkoqQAAQABJREFUwlfo1KTnX6IydQik8NOvT0XWa/nHkEQytYs86BT+ATN9lkobnQS5TzAtMIAxCBOJjkCb3SYGOUq12iai7xdb6qO/+qpEw5y5+s7qEWHOnCNl0jpGcRSvST/NbvGU4Ps05YA04QczuZSxx/I/8NcsMX7tFrnFd4S5yzvCwLaH5eDYJWbJuVFRGPvmS1GW3k5jkUPGrCOW6+Q2KW9tJ6+XSY2xKU4UjFTNaqSQjJktWfqTMDC5GEB+mxIYVg+oKYMozJ5PPSWc/IpXhh996V/Dlh07wrPmLwrd23eGgYZsXsW6I842dpgKCXIChp4zE6nlkm2D0a156ItF4K5mldWi357tW2UNkoIL3XI45MswDHAzPrTU5vSjO1euGoiihLK5pcUo+8OR4Fnz1CopSfswuylCPfMBcJQzlqXdO8L2Jx+Tv5DclJQAZchggCaUnKPynN3UzTGldpqU8rPZupXkShEHJ9VLddsjJ6SdTXPD2Ve+MtRcIm9fDUj6aHStlDwD9MxTK8vdCqXGh4MqzZrM36RUh3Fx0O8ydpYpSTXhNJb6xmPCklPfJEJtzzmiSd8b1Sy0XiNr29wuk1JpVoqJCYaHJZU69yjUQ/WAOUufnKvV4Q1h3tkyJc/S6Ujf0THE9+u8UC3uwjxiFCMa7FwwsQQPH4rrnT1PY4BTFEcm6wGZjREges9B3SSbONjQPEpeEpPRu3SbMFCOgZGpRDSLtUZWlfpzV4czNaO888YbwxObt4eletczqO8IS/sMauaVDW4zbcQWHMCMO+SArqgIgzpgQisuWvro2rIl7L7z/8I8mYHrdQCKfSuZNKW0fkOdMkDxjS2UFYkNtlJwYlhdxWFoXFPO3WHgvjvDpq1Phflawa0lDoo3HxTAk5Uq78q2Lm8nTk0U4Sco1WMZk8l3h5wQz3zZq0PN5a9WuRogmNlbuapKVoQ3KW9PhrX84TC5jN1/hwkipkMznQAzNULXiBEXaG2UD4cDIuIhmVcG5GCRdRyrIogIKDlzd0AZ+5oJScYHbKeRwkatN8h8vHieHI/g3UYd7n+/cu6UBYut7Tg/aP1VZqpBrRMNNLWGuoUyVTcco7Q6QJtvNVqdNK7X6DZzrhhfTVLshIHJxwCclR2Aj1PfrHmLw+zzLgyrNQ69+8b/CB1PP63DHWrDLDn3wFVYWgC2sdlB87pnxjYywI0aRGqwyQH+HDTx+I9+EJ573kVi5WPFLyOkZG2nBMqDbEYC8jABwaBV6Rixenx8ImTR2nL33fI97JEzYm+Y3awEaDsbZMflVC4gGyywRszMFAzA43LIUnHbGmeFU1/yitB02cuUnwrW+i0TYxRqLaZnRhwUVTnrw+ZtUqrTqqvZb8Y/Eb8xjrpnSKeTwDjwg35OsJxgAn/xy1gFcyugJ3uRvbVX1f7BViS+NLMSyetkUpp7Qah/zgmhvn192Pv03fq4+X1yudgTmjXCb9CJNd3yapx9xHGh+aiLxWRnKdFcFe8VpmCpfDFlgoSB6YKB7Is1WvuDTpvnh8ZLXhjOmDcnrL3+82HO1m1hjhSSDrQV5coUylm/Il9zSKIBuh95lopygXGVVubU2Rp07nro0RDW3hrCZfpCE/w1W57AimF8TL55nlwyGN5z6m/iq1mMlS7j8fxqmehPjyxa3/xa2PLTu0PPlp1h1RwNcGX7hRtReNmsk1aRQQFolJRvjwYdPdqQOyilWa+tQIN7h8J2zYBrT14RVr/y1aH2AinUei0zWabKQ1eTOyhZfmSj1mUD/UIZh8mjJjXY8BJMFQaM/qPCMkUYveCWSPSKMw9Xf87YUH+zlMPp0YYkhNqH3+qhAKOEkRzbM2Ux3JIJyPLCO1gH/GtvjpwtHgpDzzwUOrY/oZFwd2hsWRLmLTtD5uIXKHyVfkBcRpG84rAsduW/lF0Jqk1fKW16d3hjwAkcLOR0pKUKeebJUUn0/cijYdsXvxgG5WDUpMPy2X6GKReG6JWCNG97KZ6RlCoWogYd6J+xa03o1gx0u+LvXbgonPW6t4W6l71WeUmZS1k5xFTOffzscfxKjf2zbZhmgdKsqFcK9d47wwYdbtH+wP368HhnWCC35wY5KjZgFs5PfBqQpctlR5ZD9Fd17eiTwxbOTvVNoXegKWzvGAgtJxwfTnznG0I4+2xF1t5zfUQAsCqQNwMJKs4Lwxe+/nbj1mGiHzaQlOoUd3WRaXLe2LcWecR+U2zMS7PzW4yATU/l7GQZ8AJHAYAR+Ii5jhHGOlJW8LBrAc9aX9FfzL76qJuYiHUnfUGyW+s3cg9sbF0kJtJBFXKQci8/Rc/BKusPuo5WtyhaXo/4TXZfbfp9U6Y3CQOZ9IeeUS1YdxiE5qbULlH5zi1h+79cH57+odZCu9rDQilJtpX1KFqvSG8khQpmUap2DrC4pFbHFaKId+lM4C7WaqVYz7nqV0I47VwZc3Q4igGKJ5YIOjxFHBS/ySPaxca5+UpQr9gczmrSvlSdmxjC4w/aMYy1j20Mc3olC6REkRiNeP/roIp6eT4wE60dyuRDxTLE03h0dPaJt3vqQ3tDS1gm0/WRb3lbCG3HywdJypJ9R4Y3qiSkKG/zPvbBvNqMPnWuz5dciXzYQFKqU9zVRWIuqgjC7R03Is5+rZFwgigfXzZFBxEDeNnBkxYZEobbWAOauFJFobLiBKAcs7plapYaAOROsQAxc9Wue43gcUoSF5n52mLwx9nLXxRb7O+L1yKmPLza9B4/XRMGyjGQDR0ZqLqpVcqBr8kAPVJIe7V3+1v/G+76+lfD/D06D5fZrHjLDkyQYgLgNDvBLPcZyF+bUuLrUPU6oH9QvFDXWhs27t6t7WbadnLk8nDGG94cGs46R2uscgbMnflkY1Zm+mFuFUdlHGjFlP0xpUpVAB60hSV0bg/h0XvD+n+6IWy+515tD2oI8/iQgI5Iyj7JJjMuyl5yJDtwn4TOwbQhU+uZh7AMw9oGt2l3V2hduDSsOGN1aHrr/9OyjrYhzV0gH2YVK+9oIanE92bSpu6uVPOlHuf6pFSFmgQHFwOQrLE3VGkEnykXe2chubIxQs7iZDXmvafOYmfvx/e38kyVnEfOszwkr1+p2PLQ0ut0kzBwEDEwTOcoGP3gN2ehAamPHpmDt2wM937206H/F4+H+s07w0qZRevlS4DeGNR+cYaxvTqBTK+kuMS3+tleTsvR6R6fft5z+lJ92KGjO591wTmh9cpLtVpyrHbbSIXqSNFQj3ewfBjkyRtzEMrbLKxSjOZnP7BX+0+l+Jkxbn4yhNt/GO76xrdC12OPh2PnKD3rnxQowMGKwyrw3NVhhfYu23dKXWk3ulx7UeVpxD7c3SqjXYq+9Zhjw4lXXh7Cxapj/VxlpB0HnlCOi8O4syzyP97e+B1xy6FyrPI4h/pTmqke6j047ep/OLLRtOuEVKGJYsAUkmi4RoqLdcptT4fOb38rbPr+T0LPk0/qTN320CozaIP2ZTc06vOMOvSEk3Q5oKVcqWZ8wDvbbqI4PVJge3U2906ttdYsOSIcv/qs0HzBxfJHWKKZoJx/eqX4dDRpaSESbcoPk6q2s5gXYbsUacczYeCnd4af3/a9sHfj46G5ozOs1JGBNTpcApMz00/+sQeVX6bwrWGaWGbKlHoxUO7WpHarHLPadfBvX2trOOW8C8LCS14YwglHqS5HyEbGkRjNob47S4epKt91UxHDRaV5OEqDpFQrkkZ6OXEMHI5sNHFspZTTEQPMxbRfm7lor3wI9sqH4OGNYaM8a3f/9PbQpFPHZsuu2ahtOdkiSXaGLi1BuWaQ8UGmyniTbVPZKx+JHn2zdLBPaeplqj3yiLD85GeF+lNP1EFkUq4rT1BcFGgOKMlOlb9rt44Q3REG7r5LXvi/CBs2bAwdu9rDktZZ+t54d34alPQve1ZzyDbc8cA2ONVEM1fWevHS5YiJHp2StlsfJd+sPa7NbW3h9CsuDw0XXqjilWe32s9HCIABmYz7lA6FjFL1JmahZX9dqRalgEfycH+eidekVGdirx7UNhXZ6XBgo4OK8FT4ZGHANKDoV9tP8GQABga7QxOHHEjFht1bwsBN/xUe/N53Q+emraFeX4I5QmuYDWzWNCNvtlkl29PKFhZyyEK4ooya9O3S3r292gtbG1qbZoVNUtB9+lTjnqbasGDlilA7Z5HSRUpV6Xp6e3WKYldo2NsZ+jQzXaiZboMU4qC2/dTqWqdfvZQv23962QrE7BbwhV6rm56lVAd18lK/9pbjeNUuc3TNkYvDsy+6IDSfe6GOOF2qCs5SbK0213DMqWbrpGVqmp95rH10NsNVQEVwbi9KAY/s4f48E69Jqc7EXk1tShhIGBgnBqQG0EV4CeFxb/tT8cbNAGVQi5Ngn0zC+upT5w9/rIMdfhR23HtfWKxZ3xw5BjXJLLxLHvEouDo5C/msNVvjxCCbqZR6KTfmiuxmxJGHL790ycuYg/g5lIKPEMfHibqSrJOzUZOck/BGzpwBfcqonHOPoBrNVPtVT3aK+m7JWuXJd1Z3Y6rWmu5uPs+2dEU44Zxzw4LTT8uUqT5TZ17QbJeh7QCDBc1OVa18iKGgvA3cAXnMUri9HOWPxx8lyiEflJTqId+FqQEJAwkD+48BVIeA4zeZmWFFlaLiG6l5iAWjFOqlAIO+4hSefjIM/vB7YeOdd4TNGx4JrfJYqh3qlVNQdvo2DkyN+tVq5ogiNeWam4fNhIo5VbNiFGyDyuqzQxdUWh5HOrcEzHoHObGoFjXPaigKNVPTnGaEygZqpdj36ojETq3Pdiq/Zq2T8nWcXoV3qV1Ljj0+HL36BSGce76U6XKtm6JEVZDNtmXm1d5U+3oHmWVFWPuHBxfuspipR1eSMY5IOhJ4/JHCZ8L7pFRnQi+mNiQMJAzsFwZYRd1H4EtZmWLBAioFkylFFWPKDjWiLS0cIbpte+h5fEPYcMdtYetdt4UWfQS5Vuum86XMZmsLTGOvvsMqZY01loP3UZB9yhrdmalFtFeWv+0U1WEKVoS99T8cF8h95t1bJ4VMfbJtMhyLKLWah/fo2q7ZZrsOteD7yv0t88Lxpz43tK2WIl16TAhHt8k5Slt6GBjIo5nS2Adv23r4rA2gR2+7PVMh8le9YwXqOIvfWfwR/nj8EYJnxOvDQqkOyhxix43NiC5LjUgYSBiYbAz4NhHyLQl+lGoMkaZjMosiQfdkd3qx+xdyKHpE21x+FB6+a33Y8/SOMKurLzR194VG2XYbOFNYn1JEMWYKEqUoZaifOTwp/wEp1EFNUUtfx7H8UeqmMTPFrhp61UyZSVHb120Up1uab6hldqidNy/0z5kfTjrnglB7os7lbjtO2h3PYs1MtZYa9OEM1l8H9bmpGs2Scbmqp1FMzYFYqdJu15ryV/JboimFQfwuf1Xx4vErBs6Ql9Neqe7dq2OzZsmtOycq1gn6+vQVFK0T1Gmv2GjQqwX+Rrm9D+iEkH6ZbJqacDhIkDCQMJAwMEEMuGKV7slmt7kSQtUMatbKaWP92ueqmaoETwg/vD10b9oUtm94IuzRl2P6dm8KDQofYn1T65z1StKoqLOknpjJMgNlJovTbyUYlNLFZ4itMz14+kqBDjY36rjQ2aGneW5YeNLpYcFxzwqNx7ZpFioFyhadWfpIBkcPMtVEcQqYJbsjlb1Q+b71x57j8r3NBMTvs4QV/46kZJNSrYiug/vSFvdzBdvR0aFviopoBMxGUaIAShiI4xLGc1Kshpr0J2EgYWBCGCiqi6KWIZyfFOqAViJxbuqQmVVevpwvPHj/HaF7146wa8szoWdne+jR6UWzNIFtYraqqHu68bgdCQZDoyYS9VKitS1zbEa6aOVRoX6xjj08apXWSFfKrLtcAlDrqDbhkDbMHZioEV83dhiudbmay9ZqPdbwTHT4TXV3wyWVxy8vrTxspjxN+5mqK8Zf/OIX4bbbbgtr164NTzzxRHjqqacCs9g67bHCtNsg1/Z6mTVWr14dVp+9Orz4JS8OS5cuLVOszFhr5I6eTMEzhXxTOxIGphoDRXUxrJ6ymhDOT0oVc685Pkm5skqKo5Ed86f3nIiPu+8zUrhEZ+oIsB+1IhBJ0Cj7K5MGJhPMQnu0rtug52b96jQzLU0lh6eXQ6zRakLBzNQtfpaX/SlXc0mpDmNmonfTXql+6UtfCv/xH/8Rvvvd74Y9e/aIhnpstgmRMPtEkQL98niLYcWKFeEFL3hBeN973xfWXLymAjHFsdN9wkDCQMJANRjIlVspaqxUCfNwrlKe8gXOIAvrlNJjN6sMtvrnPrt5FC69UpLD+nA4AIUMcLEic2XIF280UZCAU3FKyHYg26eqsokymC2RsQaL3kapFs2+ZOuQlKpjYuLXg65UUZKse/oIymeTP9IesA9/+MPhBz/4QcXWkYZZKum6urpCS0tL6OzsLClZT8Ss9KyzzgrXXHNNuFCnhbj5F6XM2iz5HE5AuwHHN/f/93//F9avXx+wBmABiAFTOmZ24G//9m/DwoX5KStxpHSfMHDYYCBXbqX2mobTk7/3q0fIvi7KzlI4r8+UqptVOelI9+JJvHcB1lUrQ6YcS2FebCl+Xi787WFELoXrPn9fvp66nzNVzz8uU0UVsUBVgPLSsncz7e9BV6og1M24KLhdu3aFD3zgA+ELX/hCSVFWQjozVBSmr6PyzGzVZ66ehjj+7vWvf3249tprzSycPIJDuO6668LnP//58PDDD9tggwGO48rx5xaAk08+Odx7771lytjjpGvCwOGDgaK6cG3i7/0KRhSmr0mh55gdosxcB/nV8KYHHJPMUaksYBirtjRKmIe7duLZZrFZuUO5GbmknAmPqyTdnJTqMF4PxF1mOz0QOVeZJzOnZn0WCbjzzjtNod5zzz32jJB3cGE/0noowp9Z6IA2PBeBmSzwr//6rzYb+/M///Nw3HHHlZycivFn+vOGDRvC29/+djOpgzN+jmtXoo4DBjoMQD7ykY/YAMZn+h6ergkDCQOVMCCth+lV4gidZ4JWijObmipI936aoKV2ZZlnVVKKnnWsGPN3vMp2wLDTNJN7A9K+fCQSa7B/0NwUMZodkKm43PybvU5/Jw8DB32misAe0lrAV276SnjXu94Vtm3bVjIHI9BZRy3CEUccYbPNRYsWheXLl9tM96GHHrIrTkwxxEqC/FDOpPvoRz8a3vOe98RRD4v7n//854EZO1fAzeatOnmlEq7B2bHHHhvuv/9+U6o8J0gYOHwxUNRuaEqHOAylqjB0Ha9tRqkrM0x+CuJVUcGxrQXYR6nGxRCB7HXJXKC0zQbHKAP2nPKLlKrVQRmbplUayi9B2YNSlhdUHlpKNHyT17eQrGxyPBw5a3r8PBPvp1ypsmba26/9o/VaE833mX75y18Or3rVq/bBr89OXTG+8pWvDJdffnm48sorTRmgXB2Y8aJQyes73/lO+OpXv2pBzIIxLwM+yyLuggULTFFwneng69SsIb/kJS8JrFez/gy4Uh0NB3/6p38aPvShD9l+X++z0eKnsISBww8DsULNW+8nNFRSPJHuknOu73yZMNqYq2aQXUvK0DyU8iDK1I+alsLzoHSZPAxMuVJFofFzR5kHHnggnHPOOeY0hJnWlSAKEKWK8H/Na15jXrwXX3JxqeWuKDAHM9t186WbkvEW/qd/+qfwj//4j6U03Lii/v73vx+e//znz/jtNb52DH7+7d/+Lbz//e8vKVTHB4MW8MYWpGXLlhmOiN/e3m6zeta329raiJ4gYSBhoCIGikq1erUVy8OKWY/rZaEerthRqAIPrb52Wbr0t3oMTLlSpWou6LnHI/fHP/6xCXKIy2eVhC1evNgcll74wheWKT9Pj2Jl5tStL0OQ1hUqzyhl3t18883h4x//eMmLGKXKzOuDH/xgSbFT1kwHcMHgBVzHAM7mzp0b/viP/zi84hWvCPPnzzdnMXceW6JvPOIMxglWHNbtg6E4j3SfMJAwMF0w4GrT65PUp2Niqq5TrlRjhfih3/xQ+Ku/+quSWZZZpyvVk046KfzP//xPOOqoo8Ls2TpmS4BicKHu+fDO33sYcZlpubmXZ9YRb7zxRnPQweO1GE6cmQq09cEHHwyXXnpp2L59e1kzjzzySDOZn3nmmbaWjQL1dVO/dw9r8Bzj1PFelmF6SBhIGDiIGEhK9SAi34qe8mGMe+8+tempMtNsrFBxjPn2t78dTjzxxJJCpbax0vR8eMd9HEZcF/7MZgEOkMAcjEIFPNwexviD8nBwBePPKPfiOw+r5hrnHccnX35xOObx+NnjozR572ni99zT1rvvvtvMuR7m17e97W12ChVpAVeo8T3vPH+u/iMO+PW0PBcBqwHgcUgbgw+iPI6XE8fxe8/Ln4vXkcK9vvG1mHYynumHGLzN/s5psfjevdN5H9eR+wQJA+PDACI9/o0vdYq9/xg4aFtqPvaxj4Xdu4eP5PKtMJh8We/EDFlUlBNpbuxY84Y3vGEiWVg93NSMgkF4UjeORkShuyIyoShPZo5CBIjDD+E4qCPJBvTNQszPPiAgDmHeTpRCQ12DxfM8iePAjN0FsqehLj5A8HcujP096cFvJeWP8xfpOOTB6+848zaTnrxiBcg7B28P5frHDjyMfOM68j5uM+ZnyqUOng/3cZw4L7+Pr8Tl52c+kx9t9b4hzPOO003GfVxP7zN/R5mOU8pyuvBDR7xeTXw0OkHCQMLAjMDAlCtVhN19990Xvv71r9s+UQQMwgeBzbaO6/7oOnOWAbsunCYD0+TlQm88+VFflKcrGtK6skLp8PUbVwq8r23Yd/JfVHZx+S54uaIUKA8HoQXzFoTde3bbMyZaVzSkRUH7+iZlorTqa+tNGVNXL8/i5jNQH7TEZXOPonY8u7D3OJRBG1EGhKEAiRuD48XzAMcMDuhPrpTLO9ZmwVOsYL2etD0GzytW6oSDm0p9SD6OH66OS8qK86BOvu4el7c/915X2rZ161bLn3bTLwwMrW1584hDfZx+qKu3iTDiFvG7P3VLaRMGEgamHgNTrlQRsv/wD/9QWttDwCCwAc7qvertV5UJ3v1FiQsrBCxCq5JQHq0MDqTAFM3WG+pJ/d/0pjeFlStXmqJ95MFHwk9+8pOwSZ93YlBQnM3hvcx65fnnn28OQZXKQrByVOC3vvUtO5AB4Qxe2LNLOSjbU045xfDz0pe+NDsRKles69auC2vXrQ1LFi8Je/WFC+rI+jGHWwAm1HV1r2d7Gf2hL3Bg2rFjhw0esB6gmAHy4gxlTMTgDVyiCCrBxo0b7YMH//mf/2mOTqzdMjhgyw7HSeJZjFMazlCsl9MmFAj4YYDFPuP58+aHzq5OU8AcToFSR0H5YIO9sjfddFNZ8fTFMcccY+9wwvrKV75ipu7Nmzdb2a7Un/e854UXvehFtiWrLIP9fGAL17p168Idd9xh+3ypL+Zc6ozV5bnPfa6tZdNu3vleBupJfdlnvWXLFhtIvuMd7yjhfj+rNWXJfVAxZQWmghIGpjsGxBRTDieccALTnbKfhPbQ7bffPtTf2z8k4T1pddrfvP7yL/+yrJ5SnEPa5zn09NNPD0nBDUnZDmn2Y3GkuIb40RYpRbsSX97H1i4aJSFvP2+n1niHLrnkEosLTorpyYsf7wl/9rOfPaTjBYekvA1H2m5USkM45V7/uev3wR/lFHFezTN9RV0Bx6WXzTsphKFf+ZVfGZLyHdJn+MYsg/rJYWpIgxVrw86dOy0NbfT6SNEM8V4Kt4QvygKPHsev2jo19Oijjw6BB955H4x01eBmSHuYLV9vj1+9nZQVgw7FsEePx8NnPvMZ64uRyvH33i4NJIa0vcvyoRz60dvg9EMgZcQ/S3AI/KHOcX85nRevGtwOaeBRoqlDoGkzqooa8Bnu6Rf6AnC6512C/ccAs4UphUceeWRIs5chlA0CFsHCVbMlq0csuKa0YiMUVlSqCMs3v/nNQzLJWjtcMNIGmVJNwbogJQyl9MwzzwxBzK6MaOPjjz8+9Eu/9EvWfoQqP/BCPpTh+Y501axvSGfxDv3RH/1RCYfEJX2sVF1A826kvEZ7/6xnPavEdOTljIhgvOGGG4bkVGb5VlNnygFHKF/qec011xjWUTC850ectrY2U6rO7N41n/jEJ2yAAX79d8XlVwxpb63l57hzhVbpOm/ePCvjV3/1V60/imV4WfGVdrvAYeDHoMDbW6mM+B3t4Rl6p39f/OIXD8kCMfTLv/zLpf6gLdQd8P7ya1yP6Xof42c8dXRaGk+aFHf/MAC9ayfAkCxjQz/84Q+Hfvaznw0hk5FPCSYHA1Nu/v3a175m5l0/JUlCx0yTHPCgJo1oXiTedABMo1/84hetKlICZmKk3v6T8LV1Mq8rRy/6qU3EATD7cbKRlK09F03G9nKEP1K+ZoblVKRXv/rVQUq7ZHaW8B4h1cRfr1q1yszcEpxl5vPf+73fC3/yJ39Sypj+xNSLOXc0wBztX72RUrXTr8AZJlPaBtAOzKjsn6VcgHRF3PL+m9/6JhcDKa59zO8e5ldM7eR//fXXWxmf+rtPjbncwBo2a8f//M//bF9OwjwPSBFanTzvSlcpTKMHPwISU/d5551X8hvwNLSdurnp3d9P56vzK0sCIy0LVKq/pwM3CaYWAzhLslUR+cGJdHzAhLX/P/uzPyvx39TWaOaVNvlSeAwcsS6GAEYAuqCByVhvGw9jjlHMAQuOFSCKAMFK/RH+8UDBK/DGN77Rb619KFQGEK5QCUS40HaN3EtxR7ohHkqBsliH5Ed61i2ph9WFc88E3O8vcEYw9TIFIiebPZ17wq//+q8HzVJL5bL2qtmnMehY5blC9XisR6MsAfIBXNj6erC91B/aGA8civiGnuJwT+dXV8yk457BEQOeaz9xbZlDk8f3KwoVZcjaMsBgin5gADFaecRFUYI7cEi7UJ702UatQfMM3dAu8jzUABxAY1w36CMNrCvT1tHA+5Ztc2yZSzC1GEDuQJPILtby6Tv4wXlvamszM0ubcqXqB967kKFT8W7FscbfxagmvAgQA8rZHD8UiFBGuHFFQHGFuZ1QRgtnZkA84kNcMLpMhMUiy54pywU6dWaGxlWmUqsHYQhctvDgiOJAnZldaj3WBCrEDfjVhS+esmeffbYJfoQvBzc4bmgL94ALdJ9F2svCH8dfDd+WqgA47yDgGCwg2ItKj5kwgtCEp7yAUUQoVAcfZDiuyQOFhYMV+WptNDz22GPmCIVC8YEUedJubwv5OU7Jy9vm5fjV4/gzV/KlHt4v0NNFF11ktPDkk0+G733vexbdw4kPIFj++q//OqxZs8bOk7aXhT/gloEQzl8A7fNZtStF6kTeOGChpMEVNErZ0KO3kfbyIy75AoRz73nYy0Poj9PX2lvXhq/e9FVrD/0HT+CoRvticP6E73Awe93rXmfHhYIDPqzh3uRxmnQ/Ogaclph1QkfwHzTGDHQswCKEQx1pEkwOBqZcqRarjQDCw5SPX7PdYCyAgL5209fCe977HiMalBdpUdYQB0KcK964CDgYnHA+wI2ygvAwe6DYeI8SQcji9cps6+///u/Dm97wphJzU78YIFZXwP6eA/4RDhyniMmS0SCCF8UCkAcmxF/7tV8rKVRXKoQjqGEGPHu1XmveuNQVQseLld+///u/mzJDWANx+lhIE+Z15upCj/eVgOMJTz/99BFnavQJ+VCXH+iD8Zwd7ICCcCVDP6DMfuu3fsvMm7Sdc4TpLzyB//u//9vOHr7tttuM4alX3AbPcyJXBDV9SH/jNSzHKTuJy9tOmXxgHc9kAAVMH3rdf/M3f3NEpUq73/rWt5qp2OPHedBvWCMo94wzzjDaIhyFyuyNQ0coF+EFjdFXRfD+Kr4/lJ590AZNoDAZ/JmiLPAP7/r7+LZKsMEW/QLfaI255Bl9KLX7YNeVARu0zMD1U5/6lNE2Mg05hGc8OyoSTC0G9uXwqS3fRu6YggG2UIwFCLnaulojJF/bcqHEyBghh+IEUGwwtx/Nh1CD6VG8AIoAgewKFWJEgcWjZRfMlkB/yJ8fI3GAb7MiUFEQAEoI5Yzi5n5vz14r49Zbb7UZE/E8rl9pP8c1Mov1d6Tt6euxrSiLF2lrxrXPtU/jycHGDsegzkAlIW0BVf7xfMB9JSXMF4WaG7KZ3TXXXFPKlTrD0OAYXDAzZEBy9NFHmzAFb+Ca9jDIQdG9+93vNjPq1VdfbTM5hMH+AvnTbyh0vpd7/rnnW/952eTP0gJbmjjzGaXvytFnrHx8ne1MfAGpCKw1yZGjLA1KmXJZb+aDDeeee64N3ijTgUEFP8pFuGEyl5OTB8/IKwoTfgIPXZ1dYU7rnBKfeIOJA99Ba1ia4FUGHViHXv7yl3u0dK0SA/AQfIjcktORDaLB65bNW2wAX2U2KdokYuCgKVUbsUo5AcwmEVQIOVeQI7WRdDAthER80qHkABRofCUOgCIG/Nnj+bMLZhQUzI1C6xvoM6YnrSsu7mPBee2115qyoP4OKGR+KBtOyqGOlPMXf/EXFoX0/CgTAcSIklkcgjkGlFxTTaZ0XMkzo/+Xf/mX8Ja3vCXg8EXecdlx+mrvwR+AEgT3tD0GygD46s867cd0JqZN1B9gpkEbSM+PvPjRRsDey7THHk15v1pc9m36YMciRX9I630Wva54Cy7pH46fRLE7UDa0AjBLRNCg2DDl4qgBeNu5Z0ZZSal+8pOfJNj6kyu0Aw5QqHxiEMVJ/o4np2vqRBtoO31LuS972cvCN7857FhFfjMF6DMH7lcetdJm//HyB+Hg75577jFagkegIX4oVvZi+/5qz2umXZ0/Jqtd5Ac9trW12WCeQTJ01z/Qv48z3GSVORX5wEdOU7SxWnkw3rpNdn9Q/pQrVZQAAscVIQQBcyGUYkSOhByQyw9h6oKMe8Dz9GfPwzuHZ9LEwhThS3xmWz6C5pQkjgtEcYB0z9eVK/mceuqpgVkjebvy4L0DsyEHnH1QSkCcB2l9pkMY9fC84jpTBwCzGuskHIBA+eQbKw+LtJ9/XIF7Nl4nDolwJUoYeISBMR27korr7Om5GkNERgiUDEJ0zZo1cbRSW8hnpLxi/JEYnKAMr7jiCsvLcUV6Z0TvC3DF4IZjMOlr+pX2kSeHbwD0OTQJ3KC1Y2bBcZmE8WNtGcUKOB163/mVMK8D93zjFxM19Ec5cb6EzwQAn/QByrNNgp6DT4qA9zNtZ4ABz/MDzywvoFR5pm+I47zOu+IRnpTDjziEUzb30AQ49n738olDOAPHIp3HcbgnnvWRTipDHtDnpC/SJeUj05xmPJ/ilbS0ibrF4PTGlbzBm9MTeQMsHVEHnimnUttYFiJvrx802L2329I7D/NAHp4vV3iawS11I1/K9kGo48mvltkYfzzvYjSvV/F9/AwOaAO4pz58GQvAY5n2gEPHF3HidsX5VHNPm8i32B/VpB0rzpQrVcx0IMwBIkI4swbKqTvVAKZVBBoI5h5iwBzpI193koCpYEzMvRALZWNuOv7440tes+QB0GHE56s4EABMx7+4rtzTuXQm66jVEAqd941vfMPSUA5lUE/yYWblyoCw8QhZPg4wFesl4AXTEgfyO66oJ4wHfPrTn7breP9ccMEFto7GN14BcAteiziASR3PlRgWgcas13E6FpOwzovgZksBfeBlU672Dpv52l7qz9q1a/22dIXWGEydefq+yqIUaZSbP/iDP7DPDkKjtAfhwJXy/X6U5NM2yPuomgpCO2wpw1wJ39Pujj0dtgZNGM+c8HXLLbfYMgGCn/xxqqPv8Bj/8Y9+HAYGB8y8zmlZODlhjYAOyBPnPugWXwuWYxjMICPgGWjAaalY77vuussGWG4BwtkOSwy0gsPb+nvWlzXx0ssuNQc1VzwoKMz8nIbGPWWTB3XEh6MIroypB2UwUIYOWZOnLdAzcXCCZM2egYUrXfiF0942btgYNm/ZbArZaWpwYDDc9LWbwkMPPxQa6hvCJZdeEto0yKEcb7PfszyDHAXv//u//2t4o2xoFDkLzlpbtNyj5ajiQIXBEO9IizWGXwzgnTwYfFdyAIUP+aEHyAMcQBtHrTjKBhLkxRGs4ITJBHICGiEvTisrWvjQJeAM3IPLhx9+OK6OOaLifAkdId8PBEy5UqUxDggSEIATEQwA0bmg8ziVrghROon0xIfoIAKYCqJC+EN4XAlDMUCAdD5XOnD16tVG+E5gMNGiRYvMBBULZu4pB6DTSe9EXqluxXcoZ22ytnqS1oF7HJe8fN7H9x5vpCtMevHFF5dmwCPF29/34BTC5IdQwnsXIQdu+cj7WWeeVSqCNlXTfySgrZixMRvDKPwArvQXfQQwSufsYeLz3uNZYP4HukEAuCCMw4r39J2bJL2+XBGCsbckQrIoIMiL8j/wgQ+MONMplld8Ji0exziWAOCLdlF3yqzGr6CY53R5dkU1Vn2gKYQ4/IYzF3yJgsTBjwEwSg98gH/wRN/Dz7ynn8AfdAiN4ND3nOc8p0R3OKUxGIJe6Sv3m6ir1feA5YvB2rkOGwk6eKXkSBjXF1lEemZ5OtvKLEIc44llBXO/+2t4mp/f9/Nw1VVXmTyh/p/4xCdMkUNTyA7qQD3J453vfGfFiQOyix+WDGbr4MC95KENfig+ZCdLCD6YJn8GAShx4oBHZBVl1tXXhfXr14cHHnjAcHeMPK1RVJ4ffcW9yzaUFm0E5/A2P/BOOJYdHDErbYFi0MAAAEdKlJg7Ujp+4DfyoM7gHJ+LGNgRwaQDIB4yButGGwOAwRp7j9zFsZRBDfVyRQ4dFZUqeEOm0G76sigTsBhCM8hOPiZSrbyyilT5Z8qVqgs0EIhwZuTPaIbRJyOxahiTNCAdBIMUH7lAyORLJxDmQpI8CaODEVybtmwKTz31lBEfzEoehCOY6XQIHAKF6GprMnMz+ITIAJiEeJRLx44GlM2+RC+fvCkPJmHbjNeZvD3/0fLzMOqGA46blf39ZF/BNYINRnVGp00w02tf+1pTAsRxPFZbPm1lYERf8ZsogEvSV4s76g7uHMA/gJBHSPFMntBIUYASD8cjLB70I22utlzSOkDn0B80OlOgWjyAf+Ji2oP/oSv6g3coWQAehY+JC46hO3h548aNZjLmmffMSlCQzr/wAhacXTt3hZY5LcanjQ2iDylTpxEEPzNZFNf73ve+sGjBotIAifKgAeoyu2W2lcuMGUWJgCasSKvMEvG6RSmxT5ePhVA3+pZ20UZkBJYelh7iA1O871ESLK8w+CY+cgr547KCMuEx8qbNDC6QP4ZHxQfAF2VSlpeLvwZ5ON8yYANXtIMf9ww6oHPKZ62b/Oe2zrU2oJAoA8WNrPvwhz+8j7xDeeHnQfsol3rEwDusEPQNjqTXXHON5elxkKX8aC+0QNsdx34lLveEUV/qTlxXmE5TxKP/cQoFD7SPsBioH/KMSRztxoFysmHi0myCNcGUgkAGKS5UIPAvfelLliOdOBo4oxEHJBMfIgZAoncEYQ7E8WdmPayHOUCsCFLyYITk+ccd5XG5kg915+edRlz/xXG5p/NoH+DEQ3mnnXaamVS8zqO1mzD/kQ/paSfmcoj2QAJ4gaEYcDjA+AgCRs6OO8LAQTXg8RgxMuOmD8DDRAC8eJ/7Gsxo+Xj8mPm5h+ERQNzTNkbfjLq9r/2KEKf+CAEE0HiBtPQ9tA9uvT7Wv6LNQx2cF8En9A5Ao06ntBNo72g3Ey10BS4YvEIDDFiw7oBfftAegABkFkW+yA+uKA3na2Z4eJ/7jgDDp8padfQqm2HRr9QBxzL6AJMjJ2TFa6u8hxahJ/qbvOljFCaCnNkeCo0wgPo1z2622TPLGJizMUtCI5hr4RNwgPCnHeTDISLwjAN1QvYxG6Rcfl53ZuDwOPUiL/LZqIGFjk4t0R7lnXzyybYtkXSkJz7lEsbeaczPs5pnWb7kw8/LAocM8Bhs8J4ZHDgjnGf6hD5FeaL0YwDX1P2nP/2p4cra2ttnliDKZSAE3hngkM/tP77dlHecB/1O/uB3aHBkOQqe6HPy8zZwD2DNIpyBAcqdfgMXxKOPkFOGAylacA/N0T6sFnzYAqB/wNtkQPmwYjJyHCOPtrbMecHNDCAAhGNaYTSI/R2ETFYDi9UBmRxRx0gG4Un5TmB4phYBExAdBhCPuo0HvH2e3tMacUh4TAS8Pj4Tn0ge1aaJGZo09BWCh/pDsLQP8P7iOhaO4nDPwwdYlpn+0EbywpmgbkB40n8vw+NwhZFdyJmD2VC5I4jHjcv0d1ypP8zHTJV86GPaNlJ83nsY+C/WycPiMor3CGbA2+hX1gVr6sdHX8W8D/Yz/UifYJLHGkPbXIlAO+CXZxSaWwIw+YF71rqKQHwEP/nyg29ZuuEdeSMvALZTAfQJfM2VE7BwiiIPZpxsW2OWQh7UEcXKoRUXX3KxpaUO3p9c+VEmCgKrDIIZ2mDdEYFMO8iHPqcthGPiRaGijNetW2drnihDfsRnrffyF15u+UJ71IEvYTFQAMgfnw/qTttQJKwt33jjjUanxEE56yMSNglgjzSDQQaBbO+DN6kPdceBj0kM5TJYAbinLuwVBi+0mX4Bpyyr0We8p+541BOfcPJDsWKGxdoI7qk3gwF4mHDKvuyyy8xUzOCFGfJnP/tZayOKE1lKmo0aGLRJD1DvsYB8x+Ipdmq072y3vmUmS1mkQXm+5z3vsX6hbgwcMFMzWAbfKFJwy+CFARPP0Mb+wpQrVTqDY/ow9wIQJe+A3//93zeFR6ceKKCTUd4OMA3EDZP6qTkeNhlXOgmic6C9QHHtwcOruTp+2ne3VxN9v+IwCoSpYC4ApuceZnz6qaftHYQfQzWMQHxwj7BzoB94B9BGGIPZp6+pVmIu4jk+CC/GKT57WX718hitUz5AnyGEUH6YCmOA8QBMlBP1HvS+p97QvreVds4EgEagDwbO0A5KAMBkyVIIA2gEHIINZQQNIISZwReBAQ/5IYBZJmIdHhO8KyHis9bGeiZ4hPYQpue84Bw7TMXxy6ztt3/7t+3wEoQ96Sn31rW3hovWXGRpjdZEQ4DTEmWy9obSIW/KuOqqq8wUSxvgbWZZ0A7vWTsFqMOrXvWqwB7o+35+n60ZUweUH7N0pzVMqzhTMbBwWuUAGF+/hBZZJiIeSo18UYo333yzKVUGDwxgoGPqN9A/YDNDeBQaRsEQh3Av0yqY/yEvlCSDAQaW0DWzd9qB4qavaDM/BgTUkbxQXqzl0j/0NQMZlnMwp4Iz6gL/0BbWdqkP9UD2YmZuk1KN5WJcp/HeUzf6GVqiPpRF/zLr9vVnwqkPa7ju4wJt0nfwI9sVcQKbDJhypQoCIFL2eAKuVCG4G264wQ4IgIDpPDpmIkA6J9Bi+r/5m7+xfEE8BOpMx8Zz7icb2KtK5wFOkBD3Ro3WIAIIbTxAvcmPuuLZt78Arhxffo3ztNmfCM8BBnJYf+96S+vpUMBjOdo4vkkDYzJzcMUGLSBAoRGYAyA/70veEx4DYbwHYqEYxxntnvxgLAQTAgbhjSCC4embolLFxEfdETz84348AI5QNghRpzeutMPbOZ78pltcaBOcYBpkmYUZpPcZtEM4/Q3OeSYMPGMlQrEWAZqATqB7zHjuLR/zDsKdmQiAcEchXXHlFVYPaAP8UiamVBQ3Cop30Bheoih6TLaVgH6CFiif/jHeUx9SFxQEdaO9yK94pg2P82OJA0He3JQtozDz5EddGGygdIkH7VEGSoC1ZeoFUH/okVkwpk3qQFtx2PJwrgwUnBZpF3gjHkoZnKBkUJhFIL94LdvN4byjjrSdunk+5El9KR9lCRCHmS++AuCHJS9kK8qKuqPcwRV9BsBT1BVe2F+gH6ElJkWUBQ6pH4Ms8MvMmsEC9eLHQT3oH9LQFtpPHxM2WVAuoSYr11HyoWPZtnLJJZfYsXU0hsbxAzBBQDx0KA0uQqV3cRyEIorMiQNmAskgHxMOoz0AZibMGfu9731v2ejX8yw6KrkA5zpWXciDemBewMkAQqe9XKknJp3xLpR751M+Xm5eH68vV6+XX+N3cbxK986YHgbxse6JWQiTFngEn5TLegTrO14OClika0k9Hw/z/GBQ0vOe9RjWm13oepzxXI05VSfATMVVuMlTdow3aI/+oK0wJuEIQ4QBApH6+WACr1Lo053qiOttHanePvpnlgsOGSm78wjlzSQAF+DKBXvcNqd73nEPMEuCLy+9+NISz/IeOqc/yIcfgOB08MEoPIyQJg5lozwYIJEvApZ86GvHMwoXpUr59B3Kiz4hbWwRIQ3vyMNkhLZ1wMvel5Tn7YQ++LkVw+vI1etPOLxDvrFMIg/Koa3UB0WEsw2DEuLyDsUNn6CoeOYHDwFeH/LmvS9XsaWGvAFwAlSyhHg74EvaZ3hQPuCN8mg/QHjcPurpYdByQ2ODmXbhjRjIh3DqhmL29vNMeZy65fKAdNQHXDgQDwB/hDlYej2TH4BiR6dQLywQtBlrKDhg6w07FSifH4M3yiDM8e76h/AYvPz43Vj3U65UqRAd97u/+7tmj/cD9kEKgg2kcBD9LTffUsZkYzXEw1GogBOHEx+mZV+U9rhcGWFiUmKx/0ABo09OQIII+VEnOvEGzczHq1SdMVmUZ0S4vwCeHFeV1vRgJkbgrBOx/uOMCjEjzKgHbYD4qiFA7w8Ei+9R3Z82gA9+AO0YL7jQZTRL39Be3gEMhtatW2fPtJv39BtHFzILq6a91A3hAcCwH/3oR02QkxflkYcLBu4n0gbLfJr8AX8uFBFszJIQiA6Eg2vWC7my35tBNjjyfgQf3hfE5z34d9rzvCpdiUO5yBJkShEo0wHed/r3dwf7ypGYbDMCqBtbgThXmUEAzy70me06vrzOrnRGoiGnM48/GVdw7Appo6xvmJ8dqDc0TZ9QV8qnjihnBgMMgrl3Pujty07K83AGAaSFV3iHzAB8QMQzaZ1fsWKAF/buMgiBdu74yR1mbsZigjLFzIusx6TOwMx5mEGXt8PrP9HrMLVPNIdxpvPREA1jdvgJuavTMCcQRke4X1/6wkttJkbDx0MMnj+mBToNhCMEcWcnHy/Hq015nAdLPIjRkezhk3HFmeC6664zAUN+ThzMWJjpfeD9Hwh2xm4VsxaIiFHsxz/+8VI++1NH2uttrjSSdSXIYf8+8nPhBoMwOMKcwszOcThafZy52FqAkj7YgPAFWOuirZiQvY4M7jjw3eOAewAGZd8eVpWxwGmXPmcUj4cq4Hm5sIT2KNf7Yqx8p3M4bUKxseULC4cLe96jYLEAYD51Bedtd1zRNuL57IQruPF8DlTbwT114BfzxYEqr1K+yCNMrz5LdJlEnWg/vAceGRBQRw2JK2Uz4jtvFwovxveICaoIoF7UyevtSegz6k+4x8EsS91Z1oHXkBk+W6Sfubd+zweihAO898Gat4FnygAYvGFiZw0XRy9M03glo2QJw/QMz2GGxrmKdfj4C0ngwq0ZluF+/JlypUrDIAxGXCgzNlqjXFxw0QkgkmPjOHWHNVAWnMdDACAdhUo5nM5B/tzTsd4JjjM2XPtaDukmG2gvQoTZMALVR0M+M+cLKXgXclpMNcCIDWLAxEF7GI3FMBKewOtEgBElALGy6d7XGMEngGmHDwHg0FANUYJjPD85U3eidbKCJ+mPj1ARCEYjYmZwDH1iYbji8ivCd275joV5kfQdh+SzPSI+b9jD46ub51g7w8wJ/UHfCA5oHhy48KlkKYjzOhTuaRc0j1JlFgpvOU3S1ko8xjt+PtjkBB2fmfT2ZB620LmHj4YHykeI0kfUw4Wyp/G1SsrD7BvPVohDX5T6Q/WlzvyqXVrwciZ6xUwJP7mson4oLGiTetE+APzSBreCeHnUFfCvBvn7ybx6GeRJPzEYpW+Q15deemlZUdSXvqANKDbkFuZY6g5w9Xt/dnqxCPmfOB73xOGKcxF4AR/Ui3dM2Fg7py7IK6yfLL/hjMi+YrZB4SyFReBd73qXeUjHZe3v/YFzsx2hZowuEGQ0HiSwfgDS6RhGZ65cISqQgIs2btG2DiIBT+eBRAfyQHB5R8NILE4zA2ZxnxNWWJOgXBgT4vTfH/7hH5pC87wOxJVyqdOHPvQhyx4io/3eTurCTI/60gbiOtAubyv3jK4Y/UMQEJUraI/P1QhOe7/83m724w8jSlzWEY5XXXVVWU60jf5gjyBnEeMuT/mA92+cAALnFCm2C1QjIOO0B+oeHLog9jLcxAaOP/JbHykpQegTIe3KEAsE2zS8ze54QZ95vyH0WPvGEc4HJIR5P1t/5QKikqXA63SoXGkbdAxe4cNYQDqeRmoLMgCaAmf0CTKAk4HsqnveFYE0KB7ikD8/yseawxW+AfyKRcIHf/Ql67TueTtW/bxsFAlmWeQJZfDzdvtzpStxSMPVFT91oe7eNp6RWyy3MNjGYxXea2trs/eYzflBizFQHnnTBmiLK3lRV34Ojlf6pfgjToyDODzuA+gcJeYDFi+TPqcvjtH2FNrA1c38TCxYz8armLSOL3APUHcUL/1JmAPtAogX49TTI5+QoZh7kUNMoPCDoP8x9Z511lk2SMHz+3d+53fCaadne8TBHxMCeBNnycmEfal0MnOvIi8cktjzhfL0USREQYdBDBDBZz7zGfux5wp3euLSQcSnE4nDWgRCHTd3HGBAGJ3geSHEQT4dCkF/7GMfCx/5yEfKiKiK6o47CgSHoKCenPvKzBQCjYG6oeDZQ8Vshv1lMBLCHcGEmRQcMTMiLQTledCmGPy9v3OiZGP1RID6Q+gAHtvs0duotRMUS1wWAyAUPjNuBgnM8rztmFw45QTHLHcUIz9vC/cHC6Az6AdTZBGX1GnNmjU2K71B698MzlyY+cibL9+wXo6w4Ag5Zry0i1Ew9Mih8T6LJ3/Kcojv/d2hfnV6m8p2IENQAC7ckQWY/5g5oaBRqFxRqITRDy4bUKosXfggZ6x6M/Dh+DxfLyQ+5Xr53MfAs/+IA72h7FwpYQqFlpAB0A0WOixzlT5EgNIiLbzHRMSVD/nSJspB1hC2e9fu0mSF9+RPGGlcIYGD+BfXm3sPK91LhiCTUGSsg4M7ZDTygXox8WGW7Vt8sDiAdwfiUhfLQ3WmTs2zskEFcVCcmGuZWRKXeFzJm7JIC3CN8Y0ZGQ9w1lLBDXyKMmeiAvCONPQzMgoaAKg3s2cmKQxeKM/LsAgT/DPM4RPMYDKSYQ748pe/bO7OjOZReq4MXdBBKJiK2Z+FcIcYUVQAnYMpBwQhqFx4cUUIEs49nUPev/Ebv2Frkt5xk9GG0fKgo+gwzn1lO8V//dd/WXTqynvqBOBZylopP19vgglRrDAh8SF0mM/xYgn34w91c0KK78mSsgDecw8eOaeT/YYAwsCBMADCpi8ZmTrAJBAwbYnBZ4nxu6m+h874xftUi3VgbzODAdZiYFiAtlB/AKXJj4ER/Qa+wA2jbwZ3xI1xZYnSn0nBAHSHFQCLFOt10Bk45+tPONjRH8gOwhjgwEvwD/2BDGEwhBJASAOuSEZSPJjoLY4UjPMH1zh+3DDPz+NQX6cF6IKZFPtBdz6zM9Q01ZgSYXkEudCm2anvZEAx4JhIO8nrKlmNqLMrWhQm+UHLhHOWMtu/zj7r7NJXdnhPOHTps1quvKNenpZ8mI16XMdLX39m6eMZnOLsw4CStNQXHuLIQixRKClPR14/ufMnNrDGNMukCHlGXy1fsbzUZ+CQIyYZEGH5YraLzGYw5Id7WKaFPyhu8mILDX1PXTD3gse3vvWt9gyuUNgofuJQf9I43hrrG0tysJD9uB+nhVJFCHHyCWXcNlwAAAw7SURBVILpHe94h83MXLF6i2g8ncxoBoUCk/CDQZxJiOvKxq90OPd0Dh2J4OMrIwDEc6ABQqZ9tAel+IUvfMGIzz1pXaFSRzrZ6+2zdq8nbecXA/kBniYO4x4ipeyxwOs4WlzCIFZGqDASa9UwNHUGx36F+QHMMeDX28c7VzD0lwsDmPpgAjikPgjWIn7jejHLZhbOnkbie70RzAzOXMAxsKPd4Mv7hXzBD4w8Whlxeem+OgzQD8xAoEe+iUtfwOfQF85wOErB+xtlXXGTMGnYcsLgEAFPP7ks4Or38AX39B0/AAHOTI0tJB4PevB4RR7iPT/kFzRC/WIaYE0eRYlSRdkSFyXCxAETsNFNs2ae7dlxiewP5R2erigulAFAm5nNoTgoA/M08pQBLe2/+uqrjf6oAz/qGV9pgw3aOdWLMLXR4uZLSZ4O3BFOG9hbjFMpsorykc3fXffdsFG4Rk4woQGHDGRoE3VDJq2R9ceBNjI5YlLE+jnrnSg+5AgDIuqFOZcBhfMTePI6YIXAesDB+vjHMDGBz0jPJynhV6xH1Jf+Z5ZKPcmD/Kg3ZvZ4Ru11m+g1G55NNPUE0oGM+BdnwZSdmSgmNZ+peThIBwkgB8Ljno42QlDHgSRXMiANwuOZeNwzImSGyCwVAndF4vmPdHVBCDF4/uRHvnE7/L6YD+8BOg+lBIFj92c050B+tMnbwz0/L4828yMP4gLkw5oem5ljQMFBmLSPUTWjROrAoeKVgPjErQRed8uL/PTjHcyEIMAETz3BN/mAK6839XXFQ11hDoD3CDwHHJYY8RIH/IADcM0VQEA4eH7+zJV+aJ2Trbc4buLwSvcmVFUGQH2pO8pwJDwQDwF290/vNmFG/akfaaFL0sdtoo3UizaDE4A4MDrvOZgcBU19ee+4qtQ+SzyN/zht0AZog76DFwHwUwSP79diODhCUIJP8gNH8EHM33EaeIIyOQ0NHgfoG/CMgGW2tm7durDhsQ1Gj/QJdV28ZLHNcDn9x+UBdSKMPgF4Ji/6xd/xnnrxA8gPGiVuTAMWqD8MKqkLP8L9QAUPB0dYsJYtz2Z2tJc6oIDwtsesecutt9hSAgNV6sNkAv8K4rkygBfxqKYclBNn/VJnDvlH8TGIhxZRYJTJ/nuXL7Tfgfxc8Vs8yY34gwTebsKQ1/i7wP8MmAHO+WXGikUOOceyDzNxLDzUlxmkLwHxDHDCHgqYPau0j3ozW6XO1J1tl76uTF8jJ4x3uvUlHSlU0lAfvPWpCzj3NpHPOvX/D7Teytop/UUetJ2fHQe5cpXVY7L+VJa0k5X7BPKhwZg/MbW9+93vtpEm2cA8sSkXhNApdBYMBxIhKID3dAzPa9assb2Ua29Za2ssFmEcf2BygE6kLMolb8rjOlHgXE2+RRp/ZQPmNaZQ/WkD95TrQDspEwHPerCbiagTgGICSGuML4KDSUjDD8IrAkQGUVYL9A/AehXECkO4MAFXhHs/eJm8czySljZhdoPhcOBiBAlTwgzU3XFNXNrkTiYILvKOf8TZ05FtLue+Gohnz9XE9zjgkhkrXyUpDvqIQ72pG7QBrumvuN3MmtjXy0CCdkFPCDruaX/c117moXCF1mgLtMQ+RegRHLgAHk8bSAuesQAwK4OGwE1MV3F+0AaDR4DZGAM0ZmyuhFEQNojSubPQD/1CnA9+8IO2vhbnxT1xKAsvVWiRWRjv6BsPIx5mSuJRN8oaiYfAATRBPABlCb+QF0D/M2NmaxrH/AGkIT5th3740QbSEMaWERQoa4kOhGEGZ+bHoNrTEZ+6g0vaQ9nk3dHZYX1GG+AH6s+PZ/IiDf1ZhLjuhLFGCQ9jajc8Kz2nK3ndwbfzBEtCyA0GFpTh8og8Lrv0MnvmPfjs6+2zupKWgzzY8cC+cSwM0BplzV8wv1QmdcFz+v3vf7/F45n6U1//kQ4c8J7BFIMZPl0JvU0mTAvzb9wgJ06Igy0obLvBQ5hRC6MOOgvkoGBBDs8gCmakk7hnBMXpGuyt5OcAg41XcPUPZIqaMimD/MnDidXzrvZqRCshQEfizo1zy+c+9zlbA8JM4kAZ4AKCABhU0D7O6GREhlICYBAID3yQN1faCTguqSs/wovAO34etxhefPZ4CDOUO2tXmNM5zBtzEwoyBsqFSVAc1J81FWYVCDWA0TcCDKDN9CezRkajtJ104MoVqzOiJdAf8qdvCMdkxfNoQP7QjePM28M7+ncsoI4M9pit02+sIeGURD2pr/cDdEK7AXwGcDzBUW3FshVWR/qa8hB+tKnYrrHqMV3CwTdtxcSGtyX0iEJlRlTsCwTmWAB+AfJB8PFMX5EXfVXMg/3dxKH/EdY4IOLs41sm6G/SEwcewkyIUl0wb4FZcaCZGOgT6JoBEH1CGhQf+UOHpfYesciEvS9zsHxAu4tAftSLepAXP2jbFRBbQsiX9UOcGPEb2SS/EpzcoEnaDH1Tn5NPOjmccuopdg5xsRzwwgAd5YzDI7ISvqYNDDKQidyTF/1EeeRNncEN99TR78mfMEzrfu/yE+sXdaZM2oGFABMqs0pwT9+Rl/MT7Yf+4YNj5BEMDou08far3x6OO/44W1oiPTRF+8kbXkOx8n7JkUusP+hT71fq5zKMI27BA/VgtlyURwxIqCvLjdDXgYAaIWZsSj8QJY+RJ9XyzvOoLERDcCALwQuBEI8OgBFAJkjlHoAIIGAHJwp/5lrs3DiMezoFxxsIE8IjPoTHiIvRNO8mAoxYyZP6ex1w8oEZMFshqBHQ1B8GQBgwkoW4nPgpFxPR+nvWhxUrV5hQxxzJoQTuxEUcCI41CTx3HTe8B/A0Zl1mNIUUk4jX1Yk4yyXbsrBl2xYzN7Emwr5MmBhGgKk46hDGYjQJ0AYAD8Fvf+fb1of0I/UnLscAAq4sYV7wAn5ioC9YT0MAeN3i8OI9bfHvXiIwqB+KDUGDd/lYUGw38aFHTutiNkC/kh8MS7/RXtrDM2VTX68Dm9NdGCOAaEcRqmlTMc1UPjttUE8OXEf4Azwz0Ij5z+PG9Su2DxqAbsAzs0QEJ8+8h2ba2tri5NnyRm4CJA504HIDWUH+lItihF+hJwClUEkekHbn7mx9k7TUA/p1IC+vM+t1KEn6jvypJ78YaAN5APQ999ACV2SHXwmnbn4IDGuhlEUcV8RWH9XPBwJeD9LSdnBFPcgTuoaXkDHIAnDndfNZK/l6+bG8ID8HH+jTRgaN7qQY48Hj+tV5gGfqg0mWupLG+4aw4jPvAGbO/EhD/aEjH9Qgj6kLCpf+dHrxvjccqf1ckRnUJQYsTKPVPY470ftpq1S9QSBgfwDkHo4wHsJxxpoKPBX7s/g8Un/BjC5MRqvnSOlHSzORMK93pfI8rFK+xbBK6eN0Y4XHcQ/GPbQT1zG+n6z6FHE2Wr5jlT+evCinmB/pi+9Gq08xrFh+Ma9qw4vp4nL2t45xXgfjvoiDuA6jtTuO5/ee13jTefqJXMe2d00k15TmoGNgPEQ00dn2ZDSy2npWo1Anoz7jzcOZttp01ba32vwOdryZ1p6x8Hmg23ug8x+rfdM9vMhvY+FrrPAD0d6J2S4PRE1SngkDCQMJAwkDCQOHOAaSUj3EOzBVP2EgYSBhIGFg+mBg2q+pTh9UpZokDCQMJAwkDCQMjI6BNFMdHT8pNGEgYSBhIGEgYaBqDCSlWjWqUsSEgYSBhIGEgYSB0TGQlOro+EmhCQMJAwkDCQMJA1VjICnVqlGVIiYMJAwkDCQMJAyMjoGkVEfHTwpNGEgYSBhIGEgYqBoDSalWjaoUMWEgYSBhIGEgYWB0DCSlOjp+UmjCQMJAwkDCQMJA1RhISrVqVKWICQMJAwkDCQMJA6NjICnV0fGTQhMGEgYSBhIGEgaqxkBSqlWjKkVMGEgYSBhIGEgYGB0DSamOjp8UmjCQMJAwkDCQMFA1BpJSrRpVKWLCQMJAwkDCQMLA6BhISnV0/KTQhIGEgYSBhIGEgaoxkJRq1ahKERMGEgYSBhIGEgZGx0BSqqPjJ4UmDCQMJAwkDCQMVI2BpFSrRlWKmDCQMJAwkDCQMDA6BpJSHR0/KTRhIGEgYSBhIGGgagwkpVo1qlLEhIGEgYSBhIGEgdExkJTq6PhJoQkDCQMJAwkDCQNVYyAp1apRlSImDCQMJAwkDCQMjI6B/w/j8hVFutzaIwAAAABJRU5ErkJggg==;" parent="1" vertex="1">
          <mxGeometry x="561.75" y="860" width="167.5" height="70" as="geometry" />
        </mxCell>
        <mxCell id="lbYwN2UF0Nlyc8jE-Wue-58" value="" style="shape=image;verticalLabelPosition=bottom;labelBackgroundColor=default;verticalAlign=top;aspect=fixed;imageAspect=0;image=data:image/png,iVBORw0KGgoAAAANSUhEUgAAAgAAAAIACAYAAAD0eNT6AAAAAXNSR0IArs4c6QAAAERlWElmTU0AKgAAAAgAAYdpAAQAAAABAAAAGgAAAAAAA6ABAAMAAAABAAEAAKACAAQAAAABAAACAKADAAQAAAABAAACAAAAAAAL+LWFAABAAElEQVR4AeydCYBkVXnvz62q3qaX6dkXZt96YGQTo6JPBQUUUZQooKwqBBVNniYx6ktMfC7RaF6ixmhQAWWNgAJConGDuBvFEWSYfWGYfenp6elleql73/9/e25PdVdVd92qW1X33vofqKnqW/eee87v3DrnO9/5zvcZoyQCIiACIiACIiACIiACIiACIiACIiACIiACIiACIiACIiACIiACIiACIiACIiACIiACIiACIiACIiACIiACIiACIiACIiACIiACIiACIiACIiACIiACIiACIiACIiACIiACIiACIiACIiACIiACIiACIiACIiACIiACIiACIiACIiACIiACIiACIiACIiACIiACIiACIiACIiACIiACIiACIiACIiACIiACIiACIiACIiACIiACIiACIiACIiACIiACIiACIiACIiACIiACIiACIiACIiACIiACIiACIiACIiACIiACIiACIiACIiACIiACIiACIiACIiACIiACIiACIiACIiACIiACIiACIiACIiACIiACIiACIiACIiACIiACIiACIiACIiACIiACIiACIiACIiACIiACIiACIiACIiACIiACIiACIiACIiACIiACIiACIiACIiACIiACIiACIiACIiACIiACIiACIiACIiACIiACIiACIiACIiACIiACIiACIiACIiACIiACIiACIiACIiACIiACIiACIiACIiACIiACIiACIiACIiACIiACIiACIiACIiACIiACIiACIiACIiACIiACIiACIiACIiACIiACIiACIhAlAlaUCquyioAIVI7Ac+cuaDrSM63Ru2NTf3/fyi1bBry/9S4CIhBtAhIAot1+Kr0IFEXgqdNPn1aXGjrDOKYjYewljm0tdoxZ7CTMXMs2Uy3jTDWWVZedudNrjNWJczsdy+yxHGsbrt9mLLMtMWz/YcXTW7ahU8HXSiIgAmEnIAEg7C2k8olAiQQ2dHS0Oo3WuRikX2LZzh/h/XRkubDEbHNf7pgujP9rLcv8Dvf5mX088dNTN2w4nPtkHRUBEagmAQkA1aSve4tAGQisW7OmJZFKn4dZ/IWYi78c0/HTMSAny3CrSbPEvaEosNdZxnrcspzvdSfbHnvBE0/0TXqhThABESg7AQkAZUesG4hA+QlsPnPF2WmTfB3uhEHfeXFu9X35yzHZHRzH9EMz8N8Jy3kUwslDHU9u2j3ZNfpeBESgPAQkAJSHq3IVgbIScC43yU2bVp3rGOty3OgyvMqj0i9jLaAdsCEE/BKd0P3pdOqba9at21fG2ylrERCBcQQkAIwDoj9FIKwEMgd9zKSvglp/ZljL6rdcmcJAygzfu+KprQf85qHzRUAE/BGQAOCPl84WgYoS4KC/cWPHK7B+fiUG/TdBtT+jogWoxs0cZ8hxEt9PJOxvOseth1Zv3HisGsXQPUUg7gQkAMS9hVW/SBJYf/rqc6yEc52xIQIkrHmRrEQAhYZm4Dg6qUcSCecrK9du+hE+45CSCIhAEAQkAARBUXmIQAAEnjnj1Odj1vtWrIxfAUO5RQFkGassMPJvTzjON9LJ5NdPW7v+2VhVTpURgSoQkABQBei6pQh4BJ4559R5iSH7Cseyrse2vbO943rPT8CzF4Bm5I5Bu/7uM596Cs6JlERABPwSkADgl5jOF4ESCWxesaJheErqIqzrX4ste28M65a9EqtZkcsd23RbCfMwlgju0BJBRZDrJjEiIAEgRo2pqoSbgLeuHzcL/vBQdzY6VuLfoU25XUsE4WkVlSS8BCQAhLdtVLIYEFh3zppFyeHh62C7di186K+KQZVCXwUIWGn4H/yeSZjbelPNj8Dz4FDoC60CikAVCEgAqAJ03TLeBBhFr7e/+XWW41xnO9bF1XLDG2/KhdbOOYJO7n4nbf3r6qc3PlXoVTpPBGqBgASAWmhl1bHsBGCYlth4JvbrO871cH7/Jsz2W8p+U93AFwFoBn4OYezWAafhPhkO+kKnk2NKQAJATBtW1aoMgY1nrjoF7nivsS3zJwnHLK/MXXWX0gg4cCxkPUTDwVVrN/2wtLx0tQhEl4AEgOi2nUpeJQK04k+3JC+Vir9KDRDgbaG52YBO8OvJRPq2lWu3HAwwa2UlAqEnIAEg9E2kAoaFwLozT1uTNOlroUq+IU5++MPCt7rlcAbRGX4fOwju6Fi58dvW/TAkVBKBmBOQABDzBlb1SiPw1OmnT6tLDl0OB7TvkqOe0lhG5WoIeLsh4N2FNr9l9VMbt0el3CqnCPglIAHALzGdH3sCNOjbfPaqV9q2dRO2770B68X1sa+0KphFAM8BwhVbP04Y+84pzX33L/zlrv6sk3RABCJMQAJAhBtPRQ+WwPozV6+CD/6rLNt+G7zzLQ42d+UWbQIj2wnhW+BLHWs3PRntuqj0IjBCQAKAnoSaJrCho6PVNJgrMNt7O9S+L61pGKp8gQScX0ArxO2E39R2wgKR6bRQEpAAEMpmUaHKTYBueRF57yYM/FehM9ee/XIDj2X+2k4Yy2atoUpJAKihxq71qm44u2M+VnURgMe+wViJlbXOQ/UPjoDtmPUJy3zDSjm3djyx6VBwOSsnESgfAQkA5WOrnENAYN2aNfXJ5PCl8M53A6y6L4SaPxmCYqkIMSWAHQT9eMYecBLWravXbvgJOlgomZREIJwEJACEs11UqhIJbDx91Wp0wm9z1/aNmV1idrpcBPwTcOzN0DTdOpSu+/rpTz+9338GukIEyktAAkB5+Sr3ChLwgvA43L5nOa/Cwx2557t+4SIzuHs3NqDJD00FH52y3gpaATSm9ZiVcL6yt33eg+c//vhwWW+ozEWgQAKR6yALrJdOqyECcTLom/KCF5p5n/pH0/3ow6brW/eZoV3P1VBL1kBVHWcPtpjeKSdDNdDWEaiiBIAINJKKmE1g1EOfcd5jOeaM7DOie2TBv91mml/8EmgBbNP3m1+Zo49+xxz7/veMM3A8upVSyccQwNKU62SIWoH0UOrhNevWDY45QX+IQAUISACoAGTdIhgC6DRPeuhznDdiJlUXTM7hyqVh9WlmyT0PoLaJ0YKlj3SOaAW+/YAZ3L519HicP9SdssAkmlvMwKYNca4m6jbiZMi2E1889Q8b/hDzyqp6ISIgASBEjaGi5Caw5XnLFw4nU1cZx3l3rXjom/f3nzVtr319TiDHn1lnjn7rm6b7u48au68v5zlRPVg3/xTTcv6rTOuFrzFNZ55tdlz5RggAG6NaHf/ltpwnHJP4yqBdf7ecDPnHpyv8EZAA4I+Xzq4QAS/kbpQN+kpBxYFw6UPfRRSC/GEI7N4e0/PYj8zRRx42fb+Gc7qIproFC03LK84fGfTPev5oLfp/91uz8x3XjP5dSx9gOHg0YTnfTDvJW057av3vaqnuqmvlCEgAqBxr3akAAgq5exLS7A982Ey7+vqTByb4NLhtiysIHH3wAZPuOjLBmeH4qmH5CnfAb73oNaZ+2Yqchdrzob8wx773Hzm/q6mD0AoY27oznU7dCVuBzpqquypbVgISAMqKV5kXQmDrOcumDqbrr7SMfROir51TyDW1cE6yrc0sffSHhu+FJmdw0PT8949N1wP3mb7/+SWWl2E5EZI0Oui/+rWmfumyCUs1fOiQ2Xbx+cYZGprwvFr6Ei15HB32IwkYDq5cu+lH+Byexq2lhohRXSUAxKgxo1aVjO17V2OfdHPUyl+J8s648Z1m5nvfX9StBnc+a4795yOm66FvmeF9e4vKo9SLRgf9i19n6hcvKTi7w1/5kjn0pS8UfH7tnejAMMK6PZlI37Zy7ZaDtVd/1TgIAhIAgqCoPAom8Mw5p85LDNvX2Zb5k4Rjlhd8YY2eaDU0mmUPf9ek5s4rngCcCvX95teuVqDnxz8wTrqMToawc4HGey0vP8+0XvBqUwfHRn4Ty7ftta8yw/v3+b20Bs93sH3QethxrDtXd2z4T+t+Oh1SEoHCCEgAKIyTziqBgHO5SW7esup8mx76HOcyWPKnSsiu5i6d+seXm7l/+/FA6j186KDpfuShYJ0MnRj0abnfeuGrTWpWaZ6Xj/3oB2bPX/xpIPWtpUywHrALHfrddiLx5dPWrn+2luquuhZHQAJAcdx0VQEENpzR0QFnvG+3jAOf/NacAi7RKbkIJJJmyf0PG6rTA0twMtT/1O9dYYCOhnw7GUKZms4864Qh38UmNXNmYEV77qa3wX7hV4HlV2sZQRAYdTLUk2x56AVPPCFDilp7CAqsrwSAAkHptMIIbF+ypHGgveH1tbp9rzBK/s9qOe9V5pTP/av/Cwu4wj7WbbrhabDrm/dM7HQnc9CHIV9qxowCcvd3yuD2bWb7H18SKuNFfzUI2dm2s9ckrDuS6fRXVz69pTY8SIWsCcJcHAkAYW6dCJUtw6DvrViTbI1Q0SNT1EW3322azi7vJonxToashgbXLXHzy7FP/5UXmOS06WXldeAfPmGO3HtXWe9Ri5lDK+Dgv19QGOhNNt8FrUC8PEjVYqMGUGcJAAFArNUsRv3xO87NeJDOrFUOlao3jesWfePeityOTob6n/y9a9CXaK7MBg16Ndx60SuM3XOsInWs2Zs4psuynPtMwnypY+2mJ2uWgyoevXCparPqEsBMwvPHfx22mL/ZskxTdUtUW3c/5Z+/CFe5F8Sy0l33/7vZ/8mPxrJuoa3UCdfD9lDyHjgZ6gltOVWwshCQBqAsWOOX6eYzVixIW8mrIQC8Ew/N0vjVMBo1ql+y1Cz51qPGSiajUWAfpdxxxRtqy++/DzblP9WB2sV6CE6G7li1dtMPy38/3SEMBCQAhKEVQloGzx+/5TjX2Y51MWb78Rt1Qsp+omLN+cjHTPubrpjolMh9V8t+/8PWWDDgfQZhiu+wUs6tHU9sOhS28qk8wRGQABAcy9jktPHsVWeiE3gH7IYQicUqr9VXbKhVriKpmbPM0ke+bxJN8Vl9kd//yj0/hd4JS3z9EPofSNj211b+YfNPMVhAAagUJwISAOLUmiXUZfOLVrQND6TeYmznOvzoX1pCVrq0AgRmvvd9ZsaN76rAncp/C/n9Lz/jku/g2JuNlbh1KF339dOffnp/yfkpg1AQkAAQimaoXiEytu/JH3/1msH3nWmZv/Q73y/LXnzfhSnxAvn9LxFgBS+HVgCuhq3HsETwlb3t8x48//HHhyt4e90qYAISAAIGGoXs1q1ZMzeZHL7SWPaNMOp/XhTKrDKOJdB0xplm9gf+j2k8Pdq7L12//5dcULVgRWOp6i9fBBxnD9x634mFgVtWP7Vxu69rdXIoCEgACEUzlL8Qj513Xmpe195L8GO9Af74L5Y//vIzD/oOdQgI1IqoelPf+CZfkfWCLkeQ+cnvf5A0q5MXDANgI2z+y3Ksr/Wmmh+R6+HqtEMxd5UAUAy1CF2z5XnLFw4nU1dh4L8ZXh/8h2aLUF3jWNRkW5tpfsUrzdTXXWqmvPBcaF/j9ZOV3/+4PbXOETyh99t24oun/mHDH+JWu7jVJ169Sdxap8j6eNv35I+/SIBVvsyqrzfN577UtL3uDYYxAKy6uiqXqDy3l9//8nANTa4nnAwN2vV3n/nUU72hKZcKMkpAAsAoiuh/2PT8lafa6cT1MNS5ARPF4MKzRR9N+GuQEVK37bWvM8n2aeEvc4kldAYHTc9//9h0P/qw6f3ZTwztAZTiRwD90dGE5Xwz7SRvOe2p9b+LXw2jWyMJANFtO7fkGzo6Wq0G5zLbJK6Ff+94+oiNeBtNVPz6pctN26svdmf7dQsWTnRqrL8bPnjAHPvBf5mjDz0gb4BxbmloBYxt3ZlOp+6E6+HOOFc1CnWTABCFVspRxozte1dhYbglxyk6FFICdOTTikG/9cLXmKaznh/SUlavWIxI2P0fD+P1iEl3HaleQXTnshGA4eBxDD6PwPXwV1au3fQjfJaTobLRzp+xBID8bEL3zfazlrQfN41XwIpf0fdC1zoTF8hqaDQtLz/PtL3+jab5pS+LpS//iQn4/5ZLBL2/+oXpfuQh0/PjH2iJwD/CiFzhbMQk5vZkIn3byrVbDkak0LEopgSAkDcjxGJF3wt5G+Ut3ol1fRrztWH7XmLKlLyn6ouJCQwfOmiOff97WCL4FpYINkx8sr6NKAFnEILAw45j3bm6Y8N/WvfT6ZBSOQlIACgn3RLy3nB2x3xjm2shANyERlpWQla6tMIEGpavcNf0215/mUnNlC1m0Pi1RBA00fDlh35vF/q9u+1E4sunrV3/bPhKGI8SSQAIUTs6l5vk5i2rzrdt6yao+S+Ts54QNc4kRUnNmWtaL7jITL30MtPQceokZ+vrIAhoiSAIiuHOA4KAbRzrx3Q93JNseUhOhoJtLwkAwfIsKrdnzjp1ZcKxb7CM8zbHWHOKykQXVZxAorUN+/Tj66Sn4kBLuKGWCEqAF5VLbWevSVh3JNPpr658esvWqBQ7zOWUAFCl1pGzniqBL/G2npMeWvC3XPBqk2hsLDFHXR40gcFtW8zRRx42Rx98QLsIgoYbgvxGtALmlxQGWpp67lz4y139IShWJIsgAaDCzbb57BWnpe3kdVDx3wgV/4wK3163K4YAvCpxu17bJZe6W/eSU6cWk4uuqTABZ2DAdTR09DsPmd5f/AzKZNmUVbgJyn87x3TB/8l9JmG+1LF205Plv2G87iABoALtuflFK9qGB1JvQciM6zCWvLQCt9QtykCAfvlTs2abRNtUGPfNMqnZs00SywBJHOPx0WPTpmubXxn4l5Ll6BLBw982AxvXl5KVrg0rgROuh+2h5D1wMtQT1mKGqVwSAMrYGhnOeq7G9pbmMt5KWYeMwGTCgvs9hQhE+LNSqZCVPt7FGV0iwJbC9BE5o4tfazvH0N8+BCdDd6xau+mH8atfcDWSABAcSzenp04/fVpdcuhyy7Hfi4fw9ICzV3ZxIwCVUBIag9T06SY5fYarRXD/njHDJCkg8PgMvPNvahZiGhio0s3KuAPDe/eYrvvuMV3fus/YvYpVU+k2qMT9EBDtGewguMMZsL526oYNhytxzyjdQwJAAK0FoxTPWc9N8Gj5Bgz89QFkqyxEIIsAPQqmZkEgwJLDqBbBW5bIPI5tiYnm2vQQzbV/xhag2p/vQ7ueG/l84OQxDv4KPpT1eMX2AProAQx235Hr4bFNLAFgLA9ff208c9Up2LZ3DR6udwLkUl8X62QRKDOBREur64jI1SxAg5CaMdO0XnSxaXr+C8p85/Jk7wwcN0MYxNMc1PfvM2kM8EP79pnhw4fMMP52B318RwFASQTyEnDszcZK3DqUrvv66U8/vT/veTXwhQQAn428bs2a+mRy+FLHMjfg0osAMOEzC50uAlUjUAebgyUP/qdJNDVVrQy5bpzu7saAjhk6Z+4Hx83cvWMY8LF7JtflOiYC/gk4zhB2Yn0HYYi+1vHUxu+jL7f9ZxLtKyQAFNh+G87o6DCWeTu6n7cD2uwCL9NpIhA6AjNuutnMvPnPKlKu8er4nIO71PEVaQvdZAICjrMHwsCdCdv5yqo/bNo2wZmx+koCwATNuX3JksaB9obXw5DkJmM5rwIs8ZqAl76KBgE6M1ryrUdN/cJFZSlw3//8yuz/xN9BTb8f6vjjZbmHMhWBchDABA+uh0ecDPUmm++C6+G+ctwnLHlqQMvREuvOPG1N0qSvhb7xTzDmT89xig6JQKQJNJ/7UrPgy7eWpQ67/+xdpucnj5clb2UqAhUjcMLJEBwNfXnV7zf/vmL3reCNJACcgL31nGVTB9P1V1qO804cen4F20C3EoGqEDjln/7FtLzywkDvPQR1/rZLkKe87gXKtZDMjqUd0znsmK3Y0rhqSoOZ31APb7mFXKlzJiUAJ0PGtu5Mp1N3wslQbJxH1PzjIWc9kz76OiGmBOiEaGnABoEHP///TOftX40psfBVawg666MY9DnwD8FAEm4lzG+OdLkFbUomzIqmBrOqudG04LNS6QSA+zgQPxKX7YQ1KQDAkn8uLPmvNJZ9I4z4n1f6Y6EcRCCaBGbc+C4z873vC6TwDM+79TXnm3Sn/K0EAjRPJtwI0Qt79SNp23DWn7kxIlMA8C5nJz+voc6snNJoFjXWQStQk92+hyPAd2cTlohvi/J2wpp5EvCbOemsx3HeCFG5LsAnQVmJQCQJ0LPgkvu/Y+qXLC25/N2PPGT2fuRDJeejDHITGLQdDPp4DRuTzhz1M05nh/6brhENQMbh0Y+NiYRZ2lQPrUCDaZcL6lEupXxAUyDKlPUYPA5+ZW/7vAfPf/xxtFA0UuwFgM1nrFiQtpJXQ0x+Fwb9JdFoFpVSBCpHoPnFLzEL/u22km+487orTf9TCshWMsiMDDBxMceg3udsvwfDzGRpMgEg8/oZdSnXVmAZNAOp2I8EmTUv42fb2cswxcl0+qsrn96ytYx3CiTrWDb75hUrGuzmxBtB6AbbWNy+pwWwQB4XZRJXAvP/8Qum9YKLiq4eI+ztuPKyoq/XhWMJDGDk7xq28XIM/i84+REAvEzrYSm4BLYCq2ErMC2V9A7rvQQCaDIbbfGYY1m3NXYd//bSHTtCuR82VgLAxtNXrXYS1tugknkHlrlmldB+urRAAlZDg0m2tBiraQq8ayZMAp+95B5LcaXFMfaxbu+wsfuPG2do0HDN2O45Zuy+WG+1Ha13mD+UahC47//+jTn64ANhrmLoy4ZlfdPjY7afq0LFCACZ+ZzUCjRAKxCr4SGzmhX9jPHoKFAyDkHoohNGvoXlrCf4Z5mR5+pOWYDodDNNCkFl+Lf3Tr/yidY2d9Cnr/lAotPZtkn39Bi7+6grEKSPHh1xCUsf75kBXPbtdX2/a4tZ8G3OHGfc+E4YBL7fd+YU7rZe9AoIdv2+r9UFiFKDkb8LKv4jMOkvQMs/KbLfTmADMOnFJ06og1ZgKXcQYHlgRp20AoVym+w8aAY2YND9eno49Q1sJ9w32fnl/j6yAgC378Ho4jrMLq+FAca0coOKW/6cuTcsX2kaVnWYuoWLTf2iRa5nOH5ONDeHtrrO0JAb3W3wuZ1maOcOM7hzp2F89+MbN4zRMoS2AiEumGsQeN/Dpn7pMl+lPHLn7ebA//sHX9fU+smw58OafuFr+354BSEAZN7P0woshW+BOmkFMtEU/TnTcDA9lHoYwsBg0ZmVcGGkBADPWQ80yu+yjHN2CfWuqUsTjY2m8fQzTeOa001Dx2rTiFfd4qXGSsZLsh/as9sMbNpgBiAMHF//jOn//e9MuutITbV1qZWd8qKXmIW3+DAIRE+2/Y0Xm8Fnd5R665q4/jhG/k7YiB/F+j5V/uVIQQsAXhlpKLigsd7dTjgf2wqVgiLgHAHa+xPG/reVT25ZG1SuheQTCQFg1FmPY10Db/xTCqlYLZ+TnNpums4+x0w55wWm6aznm4ZT1xirFrf8YHAa3LHN9K99wvSt/Z3pf+I3hkKC0sQE5n/286b1wldPfNKJb3t/8TOz62a401DKSwATfdMNFT8HfgoA5U7lEgAyy92OZYFl7hIBNImw/VEKhgDizjwDzfYdVsq5teOJTYeCyTV/LqEVADac3THfSVvXOwnnhoRjluevgr4hgYblK0zzy883zS8+1zSd88LaHPALeBSGdj1nen/9S9P7k8dM7y9/7hoiFnBZTZ1Cew/XQ+CUyWXt3e97j+l5/Ec1xafQylZitp+rLJUQALz7Uoe4EH4F6GSIzoZCO6B4BY7IO8RE7BqwHuIuglN/v/5H4FoWhVGo2uux885Lze3cd7GVSN+ITRSvxb79VETaq/LFxFpc05lnm7bXvs71556aqU0PfhvBhs/03l/81HT/56Om9+c/kTCQAXD6O24ys/7szzOOZH8cglHmttdeIL//GWhOzvYdzPYzvqjgx0oKAJnVasMWwhWwE6Aw0KggBJloSvvsOM86icTXIQzcftra9c+WltnYq0MhAGx53vKFw8nUVXDW824M+ovHFlF/ZRKoX7rctF1yqTvw180/JfMrfS6BQLq72/T88L8gDDxi+rBUMMa/agn5RvXSEYPAh2AQmF/5duiL/2wOf+2WqFYx0HJ7s/0uSAAOlp6qmaolAHh1llbAIxHsO54qhCq2foxcv7D6qQ2PYvAu+UGrmgDA7XvH2xovM5bDBcTzUZCqlSXYZipDblhjm/JHLzbTrr7OtLzsFSAlVGWgPJrl4M5n3T3tXQ98s6Z3Fkx50bkwCLx9lEvmB+7G2Paa88zw4dr1+29joD+KAf8w1vYHKrC2n8l/os/VFgAyy9YKrcByLBGsgFagWQGJMtGU9Bkj/5MYBT7fk2q56wVPPDFUbGYVH0k2PX/lqXY6cT1+O3LWM0mr0Xq//cqrTPtbrjF18+ZPcra+DpoAnRQdffjbpvPrt7p+CYLOPwr5zf/MP5vWiy7OKio1JXv/zweyjsf9AKdcvdis7wbigdMe/h229Dv4AajS6kNeFFwRmFvvBSRSmOK8oPx+4ZidcH73yX3tc28rJgZBRQSADR0drVaT8xbbSdyA7Xsv8lvHWjuf6tepl15mZrzrvSY1a3atVT909eVs9+h3HjSHv/wFM3yo7Ia5oao/bUuWPvxd+IY46eGRBdx5/VtN/5MV3bFUVS50x0u3vEewfW8wjKN+Bp0wCgAZxTNToAlYjh0EHQhI1ByzrciZ9azkZ/gd3oq9GB9e/fuN9/u5b1kFgPVnrz7Xsp0bsFRxJfTWY3sQP6WsoXM525r1539l6hCrXSlcBGg0yFj3nd+4Fa6Mi9a6hatSBZRm+ttuNLPe95ejZ9LXwo4rGGoj3ikKs/1cLRB2AcArMwcfhSn2aAT1bv9XOln/3jW/W7elkBwDFwDWrVnTkkilr8ag/25kfmYhhdA5xp3pz/7QR0zrqy4UjpATGNiy2ez/2EcQ+e73IS9pMMWjw6jF//6gaVi5ys1w/8f/1nR9675gMg9hLvDIC0c9dNhjG36OWoqKAJDJtQlagRXQCqxEQKJW2QpkovH9GY8stxC+79QnN0xqoRuYAMC1fezbv9m2reushGnzXeoavoDq/tkf/JtQu+Ct4ebJXXXEL+i86xvm0Of/0TjpIDy4575NWI42nfNHZtHX7jB2b4/ZeuHLY+f3n4b7vVg459p+N/X9EU5PwAYgqjWQViDQB+/2hqMDN08UibBkAWDzmSvOTpvk+/EDugrG6dwBolQgAc6sZr73fWb62/+kwCt0WtgI9P/ut2bPB/53TVjDz//0/3PreeCzfx+2Zii6PFGf7eeqeJQFgMz61GP30xLsIDgVtgLttejJNBNGkZ9hc/fonmnzL8tnIFi0ALD+rNXnYcPrR5DBK4ssW01floCXtVM+9yUz5YUvrmkOcag83QvvevcNsfeHT4NUPrdR9/vP2fExGvRhtt8TQ+VNXASAzL7BC0i0HI6GktoGnYmmkM+3rn5yY05/3b4FgA1ndHRgx/7HcdfLC7mzzskmQCv/Uz7/ZdP8kv+V/aWORJLA8P59Zufbr1asgRC33iDUlEcw8NOaP+Ja/gkprz3aZeiRMI6pHvsJl3AHAfwKTFeY4oKb2HKcCzqe2pTls7tgAYCR+IaG6z6NWf+NctFbMPfsE6HWOuWf/9W0vOL87O90JNIE6ECI2+PSRzojXY84FT7us/1cbRVnASCzvp5WYBm0AilpBTLR5Pr8U2gBXj7+i4IEgGfOOvXChGPfiosXjs9Af/sjMO2at5nZf/khfxfp7MgQYGAcBshRqi6BAYz8XbDi54w/rrPhfIRrRQDw6l8HrcBSVyvQAK2Awsd4XDLf8XOwU43paSt/vaU78/iERnvO5Sb51lTHP2FL3xchKUzNvFCf/ROoO2WBmf/ZzxkuASjFk0D9kmVmcNtWM7i1oG248YRQpVrR+x3X9vcN2WYfvPX04QA1ALWW9g0cr6l60wvz4aFhs6lvwOw6PmRo1jE1lZCtQMaDj/HbOtrv3P3Vg50HMw6bvOLSb885Z8rGzd33Yr3/0oLUBJm56nNOAjPf/aeuEVXOL3UwNgQYRe8YAgsZbBVUKj8B+uFnEJ4jMOln51/rycE+bOPU5rNHQeDw0WHzxNHe0TDF8xGmuNYTt7nuHrKyQOBJyU5w5lPfMtzzPeMkLs3+VkeKIZBobTMtF7y6mEt1TcQI1C1Y6AZvilixI1VcqvXplncrYu5uweuQBv/R9tOEzbiC4I7+QfP4kWNmYx/84tR4OgYhuS+d7h2PIacGIJka/jxOfNn4k/V38QRaL3y1YXAfpdogMPV1l5q+X/+iNipbwVp6YXePYvCvzTnu5LBrcdljPBUZCI4lsn8gt24sSwA4sb//XWMv11+lEmhcc3qpWej6CBFofJ7aO6jm4my/G3v2O7G+j8m+kgjkJKAtgjmxuG6t6do610aJLAEAAS7/Siqk3CBLOZqaMaOUy3VtxAgkZ8yKWInDWVwO/jTqYwemmW1hbVRr/bc325eToOzng5Ert/cPZ39x4sgYAYCBfCx7+CIY/ikFTMDBDEaphgik8//oaohCyVVNoi86pT5h5sJ8ydUCIAjjcVo0KdU0AbkJnrz5sUpmtmDwh+ycN40RAOwGa2ESjv3znq0viiZAT3FKtUNA7R1sW1MQmIatXdPQY8kOIFi2UcmN81KGD6bjn8WNdP4TlZJXvpwc9Df2DZt+7pE8kTAlySI2ZhfA3t7+6d7Jeg+WQP/aJ4LNULmFmkDf2t+FunxRLlwjHL/Mr7fMqqak+940pheLcs0CKvvJPj+gDKubDUMFn97SZC6bM81cOKPNLIfTHw3++duEAvKG3rGDP8+G7Jz1ZIzRABwaSB+eU580DfiBKQVLgB7i6CI2OU0yVrBkw5nb0Ye/Hc6CxahU0grEqDHHVcWb7a+Ez/9FjXUmkcuCbdw1+hNbY7Eddsfx4YK9X44RAAhw34BtFkOyVgqWgDM0ZLoffdhMu/btwWas3EJH4Pi6P5iBDc+ErlxxLtCIVsCYuZjAdMNykNsE4xjpL85tyLpNwWyfM/xVzY2mBZ+VCiNAC7M92OrH8dtPyhIADsHidm4DtQB+stG5hRA4dMuXTOurX2tSs+cUcrrOiSIBeP878NlPRbHksSgzu612qAbak0l3y+BRGN/KQ2C4m5YK57n1dYaz/cWY7Vua7ftqsD6o/Lf3pces9xeaQZYAwEWCrbAcXD0lBbVLodnovEII2D3HzP5P/J055Qv/VsjpOieCBDrvuM30/17r/2FoukZIA42IvjkLOwh6YBV1BMJALWgFELgtEi6RW1NJzPbrzQoM/M2a7fv+yXCuvw+z/r2Y9Wct7heYW5YAwOv6oELb0Z82S6cks80GC8xYp+Um0POTx03nbV8x099xU+4TdDSyBOj579CXvhDZ8se14NQKtMFqrA0DTi1HCQxD+3JxeSEGfc72adGvOWZxrUK/GDuPpw3jYJSScgoAzLCTmwj7jISAUujmufbgF/7JWPX1hqGBleJB4PgfnjS73/9e4wwOxqNCMa1FA0acOXUJMxtaAUYOrBWtQLWbk8LXCmzf48BPew2l4gjQsc8eGPkx9kUQKa8AwMwpBKT7HLOcywFB3E15jBI48E+fwa5My0y7+vrRY/oQTQJ9//Mrs/sv/szYfZCYlSJBgEOQpxUYxCzqCLSeXRAI8L9SQAQ02w8IJLJxPWJC3b8fNnolTvrHFGpCAYBnUtXwTM+wWdaUgoXmmGv1RykEThiLHX/6D2bO331CgYJKYVnFa7u+dZ858KmPGWdYnv+q2Awl3Zo+5OfgNRu9YS8Un9QKHEOPG1WHg9WWYdrrkhgvYMmPGX8DbDCUiifAtjw8aJvdGPwDmvSPKcykAgDPHnEsMGQWNCbNbLjlVAqOQPd3HzWDz+4w8z75D6Z+6fLgMlZOZSWQ7uoy+z/9cXPse/9R1vso88oRoPF5CyY53H7GzpaTHwYgGoqqJFA5dK5jngWNI2v787G2r1QaAT5y1MDvgYFfqev8Xklsy8qSDQsSAJgBLQ5pdHAEKgj6CdA6joe19Pfjzzxtdlz+BtdHwMx3/6lrH1B6rsqhXASO/eB7Zv+nPm7SnYfLdQvlW2UCdRAGZuKfGXj1IpIqtQLdWh/IahUvEM9SzPbrtH0vi4/fAxyhuzDG7sbAz4l3uVPBAoBXEKrGuCRAXwFz4SxA+gCPTGnvVCF33v5V0/Pfj5nZ7/9L0/yy80rLUFcHTmBg8yZz8HOfNb0//2ngeSvDcBKgrYCnFRjGxJZ2AkcwM6MxVliTa2NXxvLV4QZLXRV/IwQkrQsH8RywuTox8HNLXyUGfq/MvgUAXkhtAL0OscALsdl2KoJ0KAVDYHDbFrPrT99lms4408x8z/vMlBedG0zGyqVoAkN7dpvOW28xXQ9+Cw8/poNKNUmA/udHtALJUa0AdxKUcawNFWdvts9gPCnN9gNpGz47h7DGvw+voFT9fgpWlADg3YCSymZ4IGpOQRCARqCFzrmVAiHQ/9ST5rl3vt1MecELsV3wetPy8vOMSUjaDgRugZnQpe+Re+501/mdtAb+ArHF/rSxWgHuHuASgWO4myBuiQaSSzDbXw3XvNOwlU8pGAKcRLsDPybS1dQmlSQAeCh6IQVvgAp7OjQB86ERkH2AR6b0977f/o/hKzVrtml/0xWm/S3XmGR7e+kZK4ecBBizgYGbuh64z9Cxj5IITESAM+GZWBqgZoATok4IA3Q/HHVZ4ORsv1GR9yZ6AHx+Nwzrvn3wRnVoKB2KLadjpuz3LFmy2rYS633WaczpzLAdjjZOgX2ABIExaAL5gw6Ems99qWm98DWm5YJXa/tgIFSx0+WZdab7Px52Z/vDh2XcFxDWmsyGe7a7IQR0DuG5qsIOgiePHi1q50ITtuyNOOtpMHTTqxQcAar3D0DNfxDL5tUSDp2EtfLarVu3ZNYqcAHAy5xLRNOgEZiH6FwKLuhRCfY90dJqWl91oWl51UVmygtfLGHAD16s5XOZpefxH7uD/tC+vX6u1rkiUBCBUa0ADAep9q1E8iMAcACgS16F3S1Py/RCGuT6fhfavwqy4JhK5RIAAlkCGHOXE3+4+xgh7dBQkLYB86ARkLFgLlLFH2NwIcad58tqaDBTzvkjd/dA8/96ualfuKj4jGN6ZfpIp+n9xc9M78/+231PY6akJALlJEAt6Px6uh9mmGJEJsRyaX+lJIEJKqawuxPAKfErWoLQOHQ/Bn6GpQ5zKpsAkFnpHkhBNBZsSthmDhwJTcdL+wYyCZX+2RkYGBncMMCZfzAmNXOWaVzzPNN01vNN09nnmMbnnWGsVEWau/TKBJTD8KGDpn/tE250Pr4f34DVLXhgVBKBShOgfTQ1otPwE6yGVoD1zZztK+xu8E8Aexb6yeGMv5/rQBFIFR0R+rH4sQPOhHZhryM9Cs6GrYB2EJbnKeHgR58CfDFxuaDxtDWmYdVq09ix2jR0nGrqly2Ph1AAddPQ7l3uAD+wcb0Z2LTBXdMfPnigPHCVqwiUQMDTCszF8mg3BgrOEoMMU2xx/TVD38xQu3TN24Hte81a2y+h5XJfSk+RB2HKf2AwHIZ9uUuZ+2hFBQCvCLSEpB+BvXjR09Yc106A8qlSuQhwuYBBa/jyklVXByFghalftMjULVzsLhvULRp5T82e450Wmneq7Ieee9YMPrfTDO3EO178e2DrVmP39oSmnCqICBRCgFrQdqgG2pNJaAVGdg8cgQ/iIDacJiAE0CXvcgz8i+CiFysRSgET6IPwdoDL3JjxR1WvWBUBwGsHKkkY1vDw0DCsTikIyE7AY1OJd255c2fMmDWPTxQOkjNmmjoIAu77nJH35PQZJtna6moUqFVItra4n62GRpOAHQJtESZL3FNv9/YaMzxk0j09hsKJfazbpLvxjs/p7m4zfGC/GT58yH1PQ5vBv+3jxyfLWt+LQCQJYPc0dk1BK5qCRsB1PewYDjB+E8Mdn9Xa5O7db9Ko7xffpOezRaKyvj9pZXBCVQUAr4CESj/b3cNpRBxMuxqB6VgekNDqEar8O4WDYVjG81VUgtOiZEvz6KU2bBRop6AkAiKQnwDV9+3oldsxIcJ2cdd6fLIwxdQktOD8aVD1022xMdrCl59wcd+cXN/H7qEgVDTFFSPwq0IhAGTWCraCZjsI74atwGwsDcyqt0ySa1pK0SKAbXacySuJQDEE6O+CO1m4RFW3YKFpWI6lKnw+/NUvm57HflhMlpG7hrP5OZgIzYajIc46GZAo01aAWoOpGPSnYfCXE9byNO+Qu38fa/whcdwTdC1DJwB4FaR7xF2wEdiNSSPtBCgMTNFT7uHRuwjEggA9XLp2KAsWmPrlKzHQLzd1pyzEawHM1scK/vTQWCuDf2bjkkIbBvk2GPANwn6qG94GOdOXo7VMSsF+jsP6fiFEQisAeIXn8gDtBA7BTmAK1rTmwJ+Algc8OnoXgfAToK2Ia2jKgT1jNl+/dJlJNDUVVAH6cNj/8b8t6Nw4n1QPoYiuh5XKQ4BL0VHYvx9U7UMvAGRWtA/qGG95YBYMBmdCKwDlgJIIiEAICPiZzfst7v5PfhRGoXLR7Jebzp+cAF3zHoY1Pwd++miIa6qzrKzKRUoA8BqGywO74UtgD16MO8DdA4pE6NHRuwiUj0De2Tx8SiQaG8ty4+5HHjLHfvj9suStTGuXANf3D0K7HMX9+0G1WiQFAK/yFGfoeYkvLg/QuZC8DHp09C4CxRMo52zeT6m4/fPAZ//ezyU6VwQmJEBN8gHYlx3G4J81JZ7wyvh9GWkBILM52Kiel8GZ2DlAo0G8KYmACOQhkGhtg6U9De5OWNnD0p6f6SGyXLP5PEXJfRgGb/s+9hHtJslNR0d9EOBA34WJ4j68GL5eaYRAbAQAr0G9eMv7TywPzMISAS1olUSgFglY8DKXmjd/ZGAvwNI+TIy67r8XgZt+EqYiqSwRI8Dx4BDd9GIbH5b4lcYRiJ0A4NVvzPIAtg8y7sB0WAzSRaaSCMSNQL7ZPLfV0Utj1BJjOxz83D9Grdgqb0gI1Mo2vlJxx1YAyATDh2EH3M/ucn0KjBgN1stNZiYifY4AgczZfMOKEcc49ZjVu/vmsb0uNgkRG/f+7YeN3dcXmyqpIuUngMm+G3KZ1vzczqc0OYGaEAA8DHwm+HDwxdCcc2Ak0KJwhB4evYeEQLKtzd0vP35tPqqzeb9YO++4zfQ/8Ru/l+n8GiXAfp2e+g6iX8f/Sj4I1JQAkMnlCEJwHoFHrcaEDccaCbkczoSjz2UnkG82T294qZmzyn7/sN5gcPtWc+jL/xLW4qlcISIwquaHNb/N6b+SbwI1KwB4pOj4gS6H92J5YBq2EdKngKJoeXT0XiqB/LP5FQVFTiz1/lG6nlEi9/7NhxQ0KkqNVuGycpjvxuRNav5gwNe8AOBhZICnQ9Af8SWXwx4VvRdCwEqlTGruvJHtdBlr87U+my+EXeY5h2/5V3N83R8yD+mzCLgEGBmZ3vr2uWp+zfaDeiwkAOQg6bkc3nXcNjPoUwBLBDIazAGqxg55s3k3aA32ytOvvbdObzU01BiNYKt7fP0zpvO2rwSbqXKLPIEBOu3BoE+PfVLzB9+cEgAmYDpERyQIyk11UxvCbnJ5QD4FJgAWg6/yz+ZXYW1+ZgxqGL4qOIODZt9HPmicYRjlKNU8Ac7vGf6Y/e5RqPuVykdAAkABbGlfwgeRL4bglNFgAdBCfkqu2TxjztctXmpooKdUOQIH/+WfzcCWzZW7oe4USgJchj2CQX8/LPr7+YdS2QlIAPCJWEaDPoFV+fT6JUtNw4qVpn7xElO/ZJlhCFp+puMcpeoT4Ha/I3d/o/oFUQmqRgBKVmzh4zY+x6RlzV/RdpAAUCRuGQ0WCa7Cl9nHuk3dwsVm6pvfYurgElcpPATs/n6z76N/bQwc/yjVHoEeWPZRzd8FzarG/eq0f6I6t43XXT2jwaeODbtbCgdhuKIUDgKMId95+1fNtksuMM+98x2m5yePG/U24Wibg//4KTP43M5wFEalqAgBinq05l/XM2w29A67kVw1+FcEfc6bSAOQE0txB2U0WBy3ilyFWWbfr3/hvuoXLjJT//hyM/Wyy02yvb0it9dNxhLo/dUvTNe37x97UH/FlsAQJkW05D8AVb+89Fa+mTEldXqTyQPj7zwmMs49S5astq3E+vEn6e/iCchosHh25b7Sqq83La94pZl2zfWm6cyzy3075X+CAJdltl/+BjO8b6+YxJwAtaMH4GjtEAZ/pSoSsJ1d1zy7feH4EkgDMJ5IwH/LaDBgoAFmx+1nx37wPffVeNoaM/VNV5q2Sy41icboRc8LEEvZs9r/9x/T4F92ytW7AdX8R6Hm5/o+1/mVQkAgad2TqxTSAOSiUuZj8jRYZsAlZM/dAVMvfaOZ9tZrXUc/JWSlS3MQ6Hnsh2b3+9+b4xsdijoBLoEehiX/fgz+VPkrhYOA4ziDTsJaed22bVkGNxIAqthGdZYlT4NV5D/hrRMJM+WPXmza33yFaXnlhfINMCGswr5MH+k029/0epPuPFzYBTorEgQ8Nf9hqPk17IevySzjfODq7dv/MVfJtASQi0qFjslosEKgi7lNhtFgavYc0w6jwfYrrzLJadOLyU3XgMD+T/ydBv+YPAkc6Luk5o9Ca35/8/bt/5SvoNIA5CNTpeMyGqwS+AJu6xkNUisw5UUvKeAKneIROPqdB82+v/2w96feI0qAtnyHsbZPa35o+5VCTcD6lUlar75my5bufMUcIwDcuXRph2WsDflO1vHKEaAzWoUnrhxvv3dqPPU017lQ22tfbxJNTX4vr6nzhw/sNzveDNV/d95+qKZ4RLGyffB8dgAuejsx69fyfgRa0DG/QeiaC6/Ytu3oRKUdIwDcs3TpHNtY+ya6QN9VnoCMBivPvNA7JppbTNtrXmvar7rOMJaA0jgCMAzb9d6bTO/PfzruC/0ZdgKc4HfDSx+t+bu1eT/szXWyfJZ5sL6p6bor1q3rOXkw96cxAgBPgRZgK7QAy3KfrqPVJFCHQESz6vhKGH5WCheBprPPMdOuulZGgxnNcuTf7zYHPv3xjCP6GHYC9MdPv/wHMNuXV9Owt9bJ8kFgcyzHfPTqHds+jtGhoAWarFEEAsB7IQD8y8ls9SlsBLB5QOGJw9YoGeVJzZxl2l6PrYQwGkzNnZfxTW19HNr1nNlxxRuM3ddXWxWPaG3ps+QgZvv02GfLP2/UWnGv41jvuHbH1u/5KXiWAHD7kiWNdSPeAJf4yUjnVoeAjAarw72Qu1p1dablvFe5WwmnvPBcYyi51UrCLoqdN15n+n/321qpcSTryWniMaj3qeZnuHOlKBKw7ksP1t18/e4NvvfX5uyR7ly84vkmYf8MX8q6KSLPg4wGw91QDEs89Q1/7HobTLbFPxRx521fMQe/kHf3UbgbqwZKRwd9DMrDgX9AVn2RbHEoafabhHn/tdu23VtsBXIKAMzsriXLr8SCwt04gWOLUoQIyGgwvI2VaG6G0eAl8ClwtWlY1RHegpZQssFtW8yOt77JOAMDJeSiS8tBgIP9Aan5y4G2YnlCdktjXP63Icf+m7fv2NFVyo3zCgDM9O4lK95gW/a9OEmagFIoV+laeRqsEvgCb8v4A9Owe6AVAoGViodPLiedNjuvvdIcf+bpAinotHITkJq/3IQrlz98LT6RMOZmePb7nyDuOqEAwBvcuWTFeY5lfws3lQu0IIhXIQ8ZDVYBuo9bpmbMMG2X/rFpv+Ktpm7efB9Xhu/UQ1/8nDn8tX8LX8FqsETYum+OYLZP3/z9CsoT9Sdgu2OZv75m27Z/x6BNmS6QNKkAwLvcu3z5wnTaudtY5mWB3FWZVI1AExZ0ZtUlzQxsJUwW1PpVK2rt3fhE/IFpV19nWl72isgZDR5f/wxm/1cYZ3i49touRDWmNT/V/PTYRyFAKboEYJbZmXTMZwaN/Xmo+48HXZOCh4DHzjsvtfvZZ//OMdaHcZHsAoJuiQrn5xkNzoYgMEWSQIXpT367+kWLzdTL3ozX5SbZ3j75BVU+g+v9z171JjOwdUuVS1K7t6ezHlnzx6P9HdvpsSzrX4aM/ZlS1/knIlKwAOBlAj8BZ8JPwC34+0XeMb1Hm4CMBsPbflZDg2m96GIzHVqBhtWnhbagBz77KXPk7m+EtnxxLdhJNX8aav641rJ26uUO/AlzGwLFfQoDf9m98voWANgUHzUmsXLp8hsdx/4s9jbHf09TjTx/KRgLzKy3DLUC9fI0GLpWp9Hg1DddadouudQkGhtDU77+tU+YnTdcawz2/itVhsAAVoEPIiAPPfbRc59StAlYjjOYTCa+nhgY+PAVu3Z1Vqo2RQkAXuHuXLx4npNI/V/EG34HMtKygAcm4u98KFpTlpmDaBJTUzD/VAoVgURrm5l6KTwNYgdB3SkLqlo2u7/f9fY39NzOqpajVm7eA2M+qvm74LRH4370Wx3drJldn3T7Wncl1nKecEziK1a/c+/qjRuPlbuGJQkAXuHuWbJktW0lPwbjxMu9Y3qPB4EGN/5AwsyCZiDJ7QRK4SFwwmiQ4YlbX3Uh9HKVl8H3fewj5ui37w8PkxiWhHqVI7Dk3zcAa3457YlFC1PDygkWY7skcvarsAEw5gFU9taOJzf9rFyVDrRHhyDwirSVpEYAJsxKcSJAPcAMPLCz8WrS8kDomjY1e45p/+PL4WDoKpOcVpkdu72//LnZdfONkPulgi7HA4Hx3lXzH8Lgr2B85SBc+TzZd85tSJjpWGYtfPB1NjlW4l47mbxtzRPrAlW1FV4GH6zuWbbsfw2nzQcxQXmdj8t0akQI0GiQggAfYskC4Wo0q77etLzilSPxB170krIVzj7Wbba/+VIzvL/sdkplq0NYM/bU/Jz1K8WDQAv0+/Mw8JeypAox204Y5z+thPn8qrWbfhgEmbIIAF7BqBHAesZfw4EB9JNKcSMA7dWIVkBGg6Fs2sZTTzNT3/wW0/ba15tEU7DOPPd86C/Mse/9RyjrHcVCUYfShQGf6/sUAJSiT4CDazs6ybnwu9LMxf4AE7bj/zrh2J9b1bHpfuv+4t09BFuqPBW8Z+nSM7BD5T3wbHItbhhsT5TnnjpcOQJ8iGQ0WDnefu+UaGk1ba++2LTDaLBh+Qq/l2ed3/PjH5jdf/6nWcd1wD+BYSyfHIIl/4GhtMHYrxQDAlwunQ4N6Vy8GK21nAmi4nbsxPv06pUbbi1GEChv6U7UfDtCDA+0N7zpeNq5GRGozkXMaUtrWuV8LKqXt2c0OBNaAW0gqF475Ltz09nnYPfAtabllRcaK+nfaDDdedhV/fNdqXgCfZgRcdDvxKivcb94jmG6krFXaCw9GzP+Svd9jm09g8iAHzz1yQ2P+mFSVgFg49mrzsTTfSOklKsx+5/mFYwPfOcQt7MMy3mFByVm764UDPXX7PoUPA3GrHIxqE5q1mzT9ro3mGlvudqk5swtuEac+VMDoOSfABX73di+RzU/vfYpxYMAPanSdwpn/ez3qpweSqdS/7tQY8HABQDO9gfb6q+AieO7sU7x4olg8CdwTO4rJ0IUi+9kNBjeZrTq6kzLea8aMRp84bkTxh84+tC3zL6P/nV4KxPSknFJH5pPsw8D/6C28YW0lfwViwNneJc9nV7LMTd3PLXpjslqFZgAsOn0Vctsy3oXnvW3QxMyc7Ibj/++74SDi078UCQbj6cTj79pB8MgRNz/Kk+D4WvT+iVLzdQ3ICrhm680dDaUmWjtT6t/Wv8rFUZg4ERQnoPQdtraKlkYtJCfxQGTu5+4vt8U9hgqjvlSOp16/5p16wbzYS1ZAFh/+urTrYTzAewFz+OLwQAAQABJREFUfiuMEVL5blTocfhAxt5Xqsnk4rJQZlE7jw8dpedZ+CG1Y7EMAqNSiAgkmptN22sugU+Bq03Dqg53n/+u9/yJ6f1F2fyRhKj2pReFVvx7sYn/KNT9SvEgQDfps6u0vl8KQcigD++fPu/N5z/+eM4QnUV3vZvOWPkix7L+xjbWJcik6HzyVY4/nUMQBBjWkuEtleJJoAFPziy4wpTRYDjbd8oLXmioGeh64JvhLGBISsX+ivv2OfCrvwpJowRQDNovzUH/5M9xTwA3DjILaAJWP7URu/Cyk++Be905axYlh4c/gSH5mnIM/NlFpOEMtAL4ccn/dS468TjGB7H9xPIAnWYoiUAUCAxhckIV/wEE5pFdXxRarLAytkFDGadYKPDO+7JcLoUL7mmfPOOM5kbr+P/FwI8NwFZ9YRiDPUsRsILlGdbcThoN5vOTHdaSq1y1QqCP6/sDaXMIg79SPAhwMBxZ309ifT8edRqtheM8tvqpTa8c/fvEh4IEgA1ndbwUKq5vJByzfHwG1fib6rbDrp2A1G3V4F+pe3pGg3Q7TP8CSiJQTQIc6umtbx9evZruV7MpAr13HV2bY8vyrCrs3w+0IhNkBtO6tJ1OtcMgsCfztAmN9vDAWxvP6Pi4Y5sPgVFoZCLutZyFQYEv+c3ObM54fWYfyz3TtANpg7EgBQGq5iQKxKudw14bPoc0TOZzSCNlpXgQGNU0ol8Jwf79skKFDWNywAwswk2eybxRXgFg84oVDRubk9/AyVeGucPlenEL9DVDCLRAOwH+SCWcZzZx9D+zy6VFNV+jRoP40VJDoCQC5SLAJUeq+bWNr1yEK58vdxy1JUe2InMyUSuJfehzA6ZhfH1zCgCPnXdeyj6y5xGcHJkgPlTjzG9IItRi0vUySKMc+hZQihcBdsq70CnvxktGg/Fq27DUxtMqyug4LC1Sejk41s/EpGE2LPqxm6/mUi8mTz22PUb9Twg5BYC5R/Z9Bl78IjP4Z7YmVTkzsZ4zsy5laKizH9ty5Fwok1A8PlO047YrvkZVeWj3BEV8JRHwSYCa/e60bfZAwuzFu1I8CIy66a3xvmEv/OrkSlkCwPqzVr/Ecpz35zo5asc4MCzF8sCCxgSMBhVxK2rtV2h5KejtOJ6mistM41ZCvELvpavQyum8shKQm96y4q1K5pwC0GaI2/hqSc2fDza30TMGRS7jqSwBwDLpD5qYmUQwStNcLB7PgZ2AYm7ne0yif5ydOZ1HcYeI52mQAoGSCIwnQDe9tBni8yKbofF0ovk33YfQ1Tjd9MrV+EgbMtz0dkyOOP/PpRsdIwBwr79jD1wSVy0qAXBA4ItqProbpgo5t3Ikmj8ClRqeawFhROpNmwYsAdHlsDwN6skgAW7fY1CeLvz+ZdAfj2eCe/YZgndGjav5x7cmBdvNiDtNZ1X50hgBoLHOWegMh2e7X75CB3G8GZagy5qMGWpMujPGAxAEFKkrCLLhyoMzvUyjwbmwAGLbK9UOgRGBcMRNLw38lKJPgJO58Ebjqz7fNKRbDv69Gc87ggFkKQHGCADP9gzOWNRY/cJXsgQQGrE8gPUivBSauJLkK3svdvsjRoMGRoO2296R9u9dWXyRvBtN+Tox2+eMX/75I9mEWYWmM5ppUPHLzicLzegBKD3NFgz+/eNm/hjss6TfMQLAoYGBw3PqG+B1bTSvmvlA0YgGI22ppBmwR3wKaH0wns1Po8Ht/Wmz67htZjDCV41uDYpn60Krh9nPQSzv0YkUZ0JK0Sfg+f+Yhd9rMq5r1AE001Ho/behbyv0uR8jAPD++7F/fhHU4rWc6HZ2AfwJ0K9ApxvoYxg+BWqZSDzrzoFiH7Z9cauou3tAywORbmj6/eBsX3Y9kW7GMYWnozda8yts+BgsWX9QzN0L3yiMRulH5M0SADjrlRXlCN+TPgXqXJ8C9DJInwLjNCtZjaED0SLAHwzbtXMIywNJGwZFCQQFkU+BqLQi1/XZ8dFTpFL0CbDfpUDOpdkmTMaUJiZAVT81msU4vssSAPgT2tpvm47mZMw2A04McbJv6VNgCTQj1AwcxmBB9aKMBiejFr3v+SPakcbyAHwKcEsRZx/aUhS+dqTQxr3NctwTvrYptkT05joLgjct+rGNX2kSAvwNUGO/G0uZfmb9mdlmCQD8klvknj1uzNIaXwrIBOV9pktJDgoMTEOjQe4llstQj0583rmFJjMQkZyKhKNt2dFRW0NVf3+GhXM4SqdSFEPA9eSJiRU9uCoVRoBjz7PY31+qcWtOAYBFoDMVihX0pKeUTUBGg9lM4niEA44XiKgRMxQKfvQprglKZVubmkkuT+7DOmcer6aVLZDuVhIB9p+K5eEfIff0Mw7KIdimBZHyCgDMnKpu+hBa1piCj/UgbhfPPDKNBo9ydoKX4oXHr60pbe+E1M0foGs0iCUCuRwubztz4D+A9f29GPwLtWwub4mUeykE6JWVlvzceVNDwfhKQeZea9NgGZIvBWD+JoJKEwoAvEkXJI319jCc5iRlkDEJdc94hYMDt5rJaHASYBH9mppnzkapJXN9jsNYqY1+SJUCI8AlGP5+tJUvMKRVzchT89Nbn34p/pqCfc1uvCby6Ocvx5NnTyoA8FSuta3v5fbAEZeqJy/Xp3wEZDSYj0x8jmcuD4xGHdPyQEkNzN22BzXjL4lhWC6Wmr+0ljgCI1ca+JW6zu+VwrasrHWDggQAZkAVxA5sNeAe28UwDpRltId14ncZDU7MJy7fersHKKnPhopzFhxKyZK58Nalep+z/ZEZf+HX6czwEaAt3wwIwnKwVVzb0OaIAz+1yOVOBQsAXkHoaehpaAPmo4FpGS2nTB6Zid8pDcvT4MSM4vCta6Rz3DF7sFJHdeec+hTsBOJQs/LUQTP+8nCtRq5T8JxzCx9dbMtmzF8LcKjntlbaF1XS6ZxvAYDVojaAAVY6UWDui1fMZX+NLaNBf7yieDZ/0LTUPTQ05P4+KCxPlUpgtCk18I+iiPSHkYnNyGRQ40BxTUljezqyCkrV76cURQkA3g2o9tzUN+x2cBQEuA6qVDgBGQ0WzirKZ3qhiV0vg7B+rmVDKGj5zYGhNHz106o/yq1a22VnV09HWfIaW9xzQEt+LqdXa+D3Sl2SAOBlwg5ufXrYzMAMZx4sojnDVfJHQEaD/nhF8WzXTqB/GGo+Lg3Q61miZgKbwHwI6/tpd2uxxv0oPr0jZaYvjFnQZtFjX0Lrv74bcsTWhTvE0oY7XaqdAhEAWAmsCkDdia1ReHGGMw8aAQkC/ptXRoP+mUXtCtoJ7KKdAAx96FQorrMo9m+cHBxEZ9cVht4uag9KSMrL6VwrOiYtYxXfICcjVDJSX/H5BH1lYAKAVzDWjWufh4eG4doRnRt2DDCUo5I/AkQmo0F/zKJ2tuvkBqpw7nen4RRnVq0xWEbjWM+9yxz4EWxRKaIEaLs67YSAypm/kn8CDNSzH/ZyhzEmhvGnELgA4CFiZeknn1oB11kKHiQZiXh0/L2PGg2CYSd6Vw4YVCcrxYfASDRC290xMOuEJXWUPKVRA3gMMUQo/Cscb7SfS7m8Lr39ohKhsmwCgIeQw5TnS51GglQj0XhEyT8BrrkxYAY1K/I06J9fFK7gWvlONxqhbdrxe5kBWwEK0GGdf/VCEB0RXhxDNadSdAlwgiY1f/Htx6ffDVQFi37O/KOQyi4AZELgrJVxi3cBEA2gaAiVlCFJJqKCP483GqRWYCAiD13BlazhE7nVltqezmGD34iN2AOWmQZBgEsE1dTGctmiB9t/uaZPwR4/ZaUIE/DU/HOgdZK/iuIa0lvy4u4WdMORShUVADwyNILag3WR/Yi5TiMoSp3yLOjR8fcuo0F/vKJ4Ni2HDyEQCNfVOfhTCJiKhm+FQNAIAbqcMjTnMZzl80UVfzcEEgonStEmQLusWdiSysA8moQV15accHHidRDLXlH9TVRFAPBw0xlIZsx1biFsQeem5J8Aqclo0D+3qF1BJQ+9cfKFodhwBjcFwkALJANGJqS9CEJ2FNWpM8vjGOSxOcFVYVJj14vPUe3cota2lSgv+1dOuNq5rKSutijkUVnfL6RyVRUAvAKyKxu1E0AHNgeCgOwEPDr+30eNBrEVU+GJ/fOL0hUUoo9h5D42zsaYmqEUenisHJjkCYFgTH+PHx0H/CFcN4yBHpOYQMOMRolh3MvqORybi361iSokJd8EOEZ1waB9H2b81IbFJYVCAMiESeM22gnsQdz1ORjAKAhIKZBJqPDP3g9f4YkLZxaXMzm4D0NVf5wVopQwTkDgEaV4E8B4D1srqflLaWX+jui1kqr+OBq5hk4A8BqL+4d3QgjYjZf2onpUin/PNBrk9kw+1IPUJyuJgAjEikAbZkyMxDcV6h/N94tr2jis7xdS89AKAF7hOXmh8RNfWr/yqBT/TtXwPKwB0vscVccUBrpgzS27ruKZ6koRqDYBDvR0JiU1f2ktwfV92qXVSp8YegEgsznZOD1YHmhIpF3VFvfDw5ZFqQgC7DBGjQadpOu1jUIWVV5KIiAC0SBQhzV9+uVnGF71hcW1Gbu8OK7vj6dRZ1lZvXukBACvQtx7zHDE3Eo4HQ8/bQVk3OLR8f/OLUGM5jj/hNEgJWAKW0oiIALhJMAlvdn4vdIxmFJxBGj4ehh9HQPzYJdtTaZICgBeS9HnwkjM9eHR5QEavCkVRyC30WB097gWR0FXiUA4CXhqfm7jU+j14tuoD+vKdNpDr321bgYVaQEg8xHwlgfqTngZnI0fCde7lYojcNJoEFIyfiiUkuX1rTiWukoESiEwquaHYZ/6tOJIcoLfDVsnajcZoVJphEBsBACvQT0vg3uxPNBOoxh4umrmRmilogiww+GMgwIVnc8wwht/QPoJFYVTF4lAwQQ8o2dpNQtGlnUiVzI5geH+fe16ysJjYicAeFXkAMWoZEeG4CktYbvOhWglK6WAR8jfO7m1QxpoT6VcTcBBqNBkNOiPoc4WgckIuL8zTlzwatZ0fzJceb8/Dt0+tzpH2U1v3soF+EVsBYBMRp5zoV3wccroarSYxYRWqUgCdDCSaTTIrYRSqxUJU5eJAAjQlm+Gq2lD36RZSlHPBCd93NpMNT89yypNTqAmBAAPAz057YOHof1YzKY2gGrtZrkZ9PD4fpfRoG9kukAExhCgMd9s9EXsj+Sldwyagv+gmn/EuZnslAqGduLEmhIAPDiUFLkuxJe7nQaCALcTJhQdw0Pk+90zGlzYMLL0sh9s+7WV0DdHXRB/Apzgt2HTPm1r6ItDqTgC9NbHgV9LkcXx41U1KQBk4uLywA64G34OoYlpbDMHL0ZVUyqOANExxDPVmZ6nQdpiKIlArRNg5Ea5NS/9KeByozyYls6ROdS8AOBh5GSVkiQdQ7RCKp8FQUDWtx4d/+8jsxwLM5ykGYTDkkMwGmRADfx2lUSgpgjQ0dYsbOGjYKwJf3FNzylEJ/oPWvPTwE8pGAISAMZx5KNFCbN7OG3qsZVwJgwG5VNgHCSff6Lfc70Mzj3haVBGgz4B6vRIEvC28bVD3a/VxeKakL5HuOPoIFz1pRWwpDiIE1wlAWACOBA2XXfDnk8BagW0ZjcBsEm+GmM0CJXLASwNdMIfp60f9iTk9HVUCFDzpaA8pbeWF5RHy4els5woBwkAE9E58R21AiM+BWA0OGq1K6PBAtDlPYUclyST5qTRYBpGg3lP1xciEGoCCLQCNT8s+uWtr+h2opqf/ew+TPv7peYvmqOfCyUA+KGFc/swc92RltGgT2x5T/eMBrk+6hn3SOrPi0tfhIyAF5RnBnYRcfav5J8AvbfSYQ/djctGyD+/Uq6QAFAkPRkNFglugsu88MRD8DQ0sq/XNozYpSQCYSLA9fw2uBefh+eU6/xKxRHgDqwDsLM6jB+5fubFMSz1KgkAJRKU0WCJAHNczuAnDE08Dy/G6ZbRYA5IOlRxAhzrZ8AOaC60VfXy2lMUf/aX/E3vw6tX0/2iGAZ5kQSAAGnKaDBAmMiKcytuxeSLITwZiOgwOg0ZDQbLWblNTKARgz0HfXnrm5jTRN8Ow9D3ECz5GYaX/aRS5QkMowsdf1cJAOOJBPA3pVwZDQYAMiOLKfCisrgpaRYArmsopP3AGXT0sRwEtI2vdKq0mXJ3++D3qnG/dJ7F5uAYa8+1W7Z0j79eAsB4IgH/LaPBYIFmGg1qq1CwbJXbiNaJYcTpplfr+8U9EdzV25223aA8ChJWHMOgr0oY599z5SkBIBeVMhyT0WDwUNlBt0ArQKNBGhLRihhaRiUR8E1gdH0fdieKxucbn3sBl/Q7ub6P2f6gtvEVB7EMVzm2g9iI9hdzZS0BIBeVMh7j+CRPg8ECptHgXPhbnQNBQEaDwbKNe24NeHbo4GsWZvwUApT8ExhV80MIl32Of37lvsJKmI9eu/3Z7bnuIwEgF5UKHaMxzB5sg5GnwWCAZxoN0l84Yw8wvoPWHoPhG6dcvP37M7F/X8k/gZGJjNT8/slV+grn8frt2z+d764SAPKRqeBx/phkNBgscFpuL2pMmlOg0j3ErYQQBBREJFjGUcuN+/fpl1/r+8W3HJcyGUZdav7iGVbqSjTV7xuGht50hTF5fayOEQDSluVIHq5U8+S+T7bRYBLhiXOfq6OTE6Balx0+X56nwS6siCn8wOTs4nIGY1BMR/tzKx8FQyX/BAZOaNTosU9qfv/8qnDFk/Zg/QVX7N7WOdG9xwgA2Kt5lD6tlapPQEaDwbeB52lwwE66Eca4PCBfJMFzDkuOtA2ZBRU/hb+k+jXfzULN5DH8QPbjd3IUQrNSNAhgFv/dYdu+6u27N3RNVuKs0f7Opct24ODiyS7U95Un4BksKa54MOzZpTEa4X7YYSj4SDBMw5ALfUbMrk/Ba5/88xfTHp6anwM/Z/5K0SCAlsJ2f/OZhm3b/noitX9mbcZoAPgFhObPQz36T5kn6XM4CPDHuAuD1W68uFdZ4YlLaxeqhmkENrMu5c50aDR4RDOd0qBW8Wp3fR87QVplzl9UKwxgBKG3zYPYS5vWGllRDKt1Ebb6HUJ82puueXbrg37KkKUBuG/BgqbBZN0mSAIL/GSkc6tDQOGJg+XOyGSuTwG5LA0WbJlyYwdGF70MzKP1/eIgew61ZBtTHL9qX2Xb5tFUwrnxqu3b9/stS5YAwAzuWrLkxdAlPG5ZVoPfDHV+dQhw0kOf+XPqZDQYRAtQ8UmfAlSDsoNUCheBBNb0qb1RYJ7i2sVd/sKzTWt+7Y4pjmG1r0KvdAQe/j5w9fbttxZblpwCADO7a8ny6x3LuR0n5D2n2JvquvIRYGO1pkacm1AgUCqdgBu2FB0lvZxpSbR0nqXkgEcb6/sJMxuCLnb0KfkkMICR/yC0W1Lz+wQXotMx8DsJx/56XSr1wSu2bMkK8OOnqBMO7nctW3YVeryvG8uq85Opzg0HAfSTmCUl3Q6THadSaQQY0YwdJztQyANKFSTA8Luc7XPWz9m/kj8CUvP74xXis5/ED+A912zd+vMgyjjpL+nOJctfYxn7PggBrUHcUHlUngAbWUaDwXGnfZSCnQTHc6KcOPBzGx9d9WrCPxGp7O8oo7qRMzHt1y6XbD5ROsJofglj/23d9u1fL9TCv5D6TSoAMJN7lyxZkraS90Lz8OJCMtU54SUw4gIVsc2hP0XfqlQigT742NoPy2kuD8hSoESYGZdzy+tcGPbNxDKWHtMMMAV8ZCAehuCVmr8AWCE/Bdb9PXBi8a+DdXWfvGHjxmNBF7fg39Z9a9bUD/T2fxq/xvfhooKvC7rAyi8YAjIaDIajlwuXB7iNkC85F/Ko+H/XjN8/M+8KT83PWb9StAk4jjOAla5b6pPJT5S6zj8RCd8D+Z3Ll7/EGrZvwfTxeRNlrO+iQ4Ae8uhTQEaDpbcZ3aQepvc0qF1lXV04T0z2sZUvCec9mvEXTs24ga6k5vdDLNznckCegeWuefWJQWjBHoTq/7bVT274IY6XRarzLQAQ32PnnZfatWPneyChfBJ/NvOYUvQJjLhOHVlvha2VUgkEuBwgN6qTA9SMf3JGuc6gvwr65T+A5SdpnHIRitYxb1srBn7DfnhMcsxOJ2Hd7ljW7aetXf/smO9K/GPcnfzldvfSpYttY30SmbwVV8pGxx++0J7Nh0JGg8E1j+wEsllqxp/NpJAj7pZUeAI9hMFfKfoEGOdtFn4Mc+uxrXWS0RgtDkMj68e45Aurn9rwKE4v+SGY5JaFAb57+fJzTDr9GcdKvLKwK3RWVAg0wViAywPaflV6i8lOwBjXcyU6Oz5PSoURoO73KNb192ELam+6LJrgwgqiswIjwMefO1uKDVSFkf9JZPH5nlTLXS944omhYgsW6K/wrsXLL7Yt56PQYLyw2ALpunASoHTKtSkKA3K5Wlob0U6AMzgGIaL/9VpIbdh1MrfeMnxXKowAfU0cdK35peYvjFj4z3J3t6AfZV8ayC9hZHngk/va5952/uOPD/slEKgA4N387mXLLkAf9wn8/SLvmN7jQ6AFWgFKrjIaLK1NOfbT//o+SAFxnNlxXXM6JEd67uPMX6kwAp6anzEpakQ+LAxMhM8qt+bLtsxWCBQfXv37jff7wVTWX+V/rFrx531p568QxW6On0Lp3GgQoLEKQ67OhkoXkzulEghwC9cB7BxgNMKod/reshGD9Ey2rlkCslhdigmTnEvFqkVHKjOi+UpA81WpDtL+r3Sy/r1rfrduSyE4Ay/VujVrWhJ16auM49yMzM9kISAEuEFVDmt/aiFtErlz+BDJaDCYZqNF9yHofulumH7bo5JcvxJQ73Ntv0Vq/oKbjXGm2C8yKA8d+ChFnwD7Qwq/dGTVNN6ivwLVw1N0HK563nfqkxtumex2gQkAG09ftRqLGu+xHetaaP6m5rqxPFTlohKvY7QPoMp3ZlBrXPHCU3BtOBRQK0APg9znHcatXiOCH9T86OymYtAPZE2zYELRPpE+Ig66gp6DcCsa+KPdmiOl5ySf/R4DVeEtDOn2hqMDNy/dsQMCQe5UsgCw6ayVZ9lO4s/xDF+FgZ+7GiZN8J7qznIYalVS76S4InmCOyPEwEBbgWpIwZGElqfQHB6OQgKgJfhRWIHjZ1O1VEfpHj3dVMz0qd4s6AdftdKG68ZsR/mGCFebBFEaGvZx0jMLv4mwBaqyjPPonmnzL8tnIFi0ALD+rNXnWY7zNwD4qmIh8gfRjTXPvdB1crajFE8CntEglwmKfuDiiaaoWnFJ7ShePfjt9ECaTpdxBpnCgN+agrevZMK0QqqjMZPa0F+zUV7rhNS2H8s6/Zz9KMWCwGi/BkEYP5Mwp1tXP7nxxlwF9F3sDWd0dKAH+DgyuzxXhsUeo+Ur3afKTqBYguG/TkaD5WkjqpMpCBy3bdgNOOY4PvPdj6KAGhs65+ESTmOCWz056Fs45ruLKE8lI5gr22BkG59TViEtgmgiW2T+GjiRYWhq/j6ikjBZv6DjqU0/Gl/egmuw9ZxlUwfSdZ9K2M6fQNzBnKA8iYZPjK7GfdJaGysP42rn6v2I6FOgctax1a515e9PuwFOOIcxEOVSsNFWjzN8rl2GY8my8ozKcUcF5SkH1ermybGecSrmIl5FRHc8/RRagJePp1iQALDp7FUX2GnrVsz8F43PoFx/U63JcJYMayk7gXJRrn6+nHEy5CuNZyq2U6b61VYJYkaAC5hd6Kto16TlzPg0Lvsn2jFxu3PY1vf9UMbzaaca09NW/npLd+Z1EwoAzuUmuWHT6s/C5XDVQgDzhyXDmcwmi+dnGpNNww9NRoPxbN+41orunQ+5E5V0VY0z48q3WvWK0Pp+wYi6h9LPe+EzW9ZlXpBXlf/bc86Zsn5jzz0Jy3lD5gWV/kwJhWritlQSa5wJN966lgcq3Qrlvx9V1dz/ztcUSt1YkOb2sgkl1PIXS3cQgZwEGODpAIz6aNznx9YiZ2Y6GAoC7Gu4vs9JCAWAOCXaCe8esurG1ymnAIDBv6453ftdLA9mrRmMz6CSf1Mds6gxaeY30HlG2hUGouQspZKsonwvGoRuh7n0ruM2fGbL02CU2zJOZac2kruWqObvDqNjhjjBrmBdkhjoaI80B31NVijeCpajnLc6hj61L53uHX+PnALAlHTP5y0nXIN/ZsG5VjwH7mfpglbLA5lk4vV5CGIr/eRzdwjjDsyWl7l4NXBEakMDykOYcOyHql/2SBFptAKKyQklI/KFcf9+AcX3dQoDj+VKWQLA+rNXv8KynXfnOjlsx6ik8ZYHBrA8oC03YWuhYMrDmRc94nUi6GVjwnaNBmdBWqfkriQC5SIw5G7jG3FjXk5fC+Uqv/LNJsAeoxUzSKr56b2yFpLrRAwaq1zdZZYA4DjOB6PYrXK/8gJs0ZiH5YEjUNHRtzb3RyvFiwDbdBek2b0DMhqMV8uGpzZ0tHTgxFbk8JRKJSmFgGdkzP37nPnXSoLSCsup+aMEjxEAGMjHsocvirLlFRuaW8r44jodtQIMuUojCKX4EJDRYHzaMgw1Yfeg9f0wtESwZeDEkOv7tbjNGMOe2YLBfyJzlTECgN1gLUym4+Pe++TyQNKNrka/AlLlBfsDC0NuWUaD+MHX15CUH4Y2iGoZaMFPS35pDKPagrnLHcdtfLlrmvsoB/2NfcOmP0MLDj1AlupjjACwt7d/+qLGMYdy5x6xo3RxyuUB7h7ohIdBGkRkgolYdVTcPAQyjQYZqIbrfPI0mAdWjR/ms+I6GoOqf6IZUo1jilT1uaI/Hb/5WlPzj28kLpNuwT7V8UvgGNmz9OBjRvtDA+nDtK6Pq/9vPiCMVz6zLmW6sc53ED/+IxAIlOJFgC16FPovvpqwn5cqwBnoGLg8pFTbBLh/n67GaVSqX348ngWOV7NhFDwDYXhr3Zsox7Mdx4dzuv7O1dpjBACesA9brhY3xb+rbMPA0NaUMkMNDnwKjBj90GBCKV4E+iHo7UynzW5EyKGnwVqfHcSrdQuvDe2BuH+fQqFSPAh4an5uEa71xKd6DzTbHL/9pCwB4BAkYwY8oNq8FhIdP8xtGPE8R1/eNBqUk4/4tXym0aA6jvi1b64asSs8gt8zw42PV4fmOl/Hwk+Ai9j0EDoXA1ST7HzcBnNtoKDaKmZZO0sA4CR4KywHV09JIfhB+B+IoErIqlKS5IudxQHMFuiW1p88FVRplE85CTBYSw88DTZAYp4FtSGDEdXIluByYg1N3lzVO4zf7n4M/tzLrxR9Apyo0WEPnb/Vuprfa02OTfvcLdHFL2dlCQDMnPtgd6CDXDolmW026N09xu+ey+FToAnhDIKqw2KkqxgjikXVqC2jT4E9aF9G+6KtwJSY+QCPRUMVWAl0We76/mH8ZjXsFwgt5KcxLshs9MP8fdbQfHTSVqFzn51Y1hwoUcDNKQDw7p1cK+szNSsEkAHHAs+ngGJ8k0g8k33CIvwgBAEFIopeG3uOew6jU5S/j+i13/gSc6BnUJ65eDVruj8GD+3U9sDIjwHxgkh5BQBmTiEg3eeY5VwOCOJuEc6D68YtMI4cwtqTjAYj3JCTFD3bp0ASPgUmuUhfV4UAhXKu78uwryr4A79pCr5qZyr4V06ueNRddT+XtUqc9I/Jf0IBgGdS1fBMz7BZBot5rAjUfJLRYG08Apk+BTgb4fKAfApUv+0576HHvj0Y+HvZKypFngCX3Wbj98U9/JK1xzYnn3Das+zGUmVAk/4xN5hUAODZNIrb0DtkFiAU72xNh1yAMhoc8xzF9g/+AGkHwpe7Honnn1bItWQgG4bGpcET24ADf6nrnmGoT62XgYFp2pJy1pXvOeBSFjXwQT7vtoUYv+NSQQIAr+EPkEYH/BHST0AtBVQYxyzrTxkNZiGJ5QEuD+zAb4DSOB0LcdYil8PlbWraZ3C9cy9mQbLoLy/rSuTOJX13Gx9+P/rtZBPnCM3t6Lsh6FZi62rBAoBX1GNQu3FJgL4CuBdTKhuPTG6jQTZmlth18hJ9iiABquLocIMvdmZzsG7ZjNmMUnAEOOE4QMZy1Rsc1CrmxEnSLAz63MqXyBWXtoplC8OtOUbQO2WlfVb4FgAIiz9Oeh1igRc21k5cZda90CSjwUJJRfs8/gY6hwyWB2wzBwLxDAgESsUTGJ3xY/CnHYZSdAlwmVQxOSZuP46lDEbFrciDQVr3TXzb0W+LEgC8q6mi2AwPRM0pCALQCHDQUxpLQEaDY3nE9S9v9wDX7Lg0wO2j+jkU3trsCOlvg4G6YHesFGECfO4pCNPtttT8uRuSzzsdzdGRTzVd0JckAHhV68UvdsPwsJkOd2rzoRGQfYBH5uQ7RSN5GjzJI66faKD2HH7U1JBRCGBEQnWC+VtbM/78bKL2zUhQHqn5J2o3arW4tHUAmsMwbGIJRADwKkyrxSM9tuvE4RSoQyUIeGTGvstocCyPOP7F2AOc0dKlNNWg8/B7kIbsZEtr4D/JIsqfOLFphWUfBd2p8qedtykx5qMvSLuxZqqg6c9brkAFAN6F2jvuFOiCMDCNHR98N9dAcMG8gCf6gqqy8Z4GZTQ4EbHofcffgxeamAIA7QTaYTBYq3ZQVO+zI6RgJFV/9J5nr8R0CcPomnMQS0P9u0cl+52+KmgszPEwjCtbgQsAHgJ3H6NrIGW7Mx/OgCQhenSy32U0mM0kbkfcIESwmWmAwSD9adAqulZMBgfQ+3F9n9FGwzQDitszVu76oBuHJX8Sz64FGxfO/5XGE+BAT2dV1ACGPbJs2QSATCjs+Ggs2ERLaXR68viUSWfsZxkNjuURx79cOwH4ExgxGGSEs4Rhu8cx9bAjxL5JdwYUxilQHKGXoU6u9grPaTu0uhr3cwP2LPr3YeCvxB7+3KXwd7QiAoBXJEbUoyOVXbSUxsNEa2ktG3l0xr5zOJDR4FgmcfsrDTXZXpgAs8OgUMzfQ3MMtg7QuOnwENX8TmQ6wrg9W0HUh32Q67QH0/6mmAqoQXCiYd9BPOtc2oraslZFBQAP9jCA0Up6L14M8zjHtROI5wzIq3Mp75lGgwx1yvXTqEiYpdS7Vq7lxJj+vvmiAEC7kBkwrIqawxQ6CeOeZkblo5GfUjQJcNcKhVGp+SduPzcKJZe58cxz9h/FVBUBwAPFLoJuPg8PDcuS1IMywTsnh67mBAOEF55YRoMTAIvgVzQa6kVg+11oaxrRUjPQig45rGpXCqKHMPvhDqBqODKJYBOHtshurAv4c5mJSZlSbgIcs45BwOX6fhyiUFZVAPAQEyqNJbqH04g4mHY1AlQ96TH0CGW/y2gwm0mcjlCNToM5vmgfMB2dMncPcMtVNRMn9j0Y9N2dDRDeuaynFF0CfJpG3Fkn0PdW99kKM0XO8Lm7jct1/fxxxiSFQgDIZAlbQbMdM6DdsBWYjaUBqaEy6WR/ltFgNpO4HWEQnP0wo98PRSP7aEZRmwqBoBV/0PlKORO7Os7yeyCgc+ZzFJ0fbReUok2A/Qb98rOPrbJMGWqQ7m8PGq6DGPzj+NyHTgDwngYwh7EgI6/RreTIgyoJ1aOT/c5hQEaD2VzidoSTjyNQtx8ZHqkZO29qg6ZAKKChFiJ2u0JBMdsL6bzoOG7AAR/yt+mzbcMlCYz7SjEh4Kn52aeWV3SMNrA4rO8X0gKhFQC8wrPvoZ3AIdgJ8OGlIxUtD3h0cr9nGg1SbcX1Kqlqc7OK+lEOzl34pwvLZ15ix84ZHvp4d682f+SQD7IckWB8N0M4CnkCgXcMBnqN9B7DOL3zeWjHkupcRa2ctFm5FB2X9f1JK4sTQi8AZFbCC7jC5QE6UZkJ9RU7OaXcBKgulqfB3GzifJTDOA3yBt1KalCPc1tPVLc6WI7OwKA/G4570F0q5SHAHSuHIQFz4I/z7io8D1mdQaQEAK/9uDywG74E6EiFki2dC1ENqpSfgGc0OAgd8UHsV6XltsKt5uelb0QgqgSasS5EF73TpOafsAm5vn8QA38U9+9PWDEfX0ZSAPDqR3GGKm6+3LUtCALyMujRyf2OCYE5BVt95jdAdQxuNG4Ju7vK3DXRUREQAY8Apz+aDHk0Jn6nJvmA65Y6a0I88YUx/DbSAkBme7BRPS+DM6n2wvIABzul3ASIJtNo0N1yBhWYDL5y89JREQgjgRTU/OrvJm8ZDvWc8OyD5rM3HVW3PZPX0+8ZsREAvIrTkGkft0ydWB6YhSWCNu1z8fDkfKfR4AJoBebhdQRCgIwGc2LSQREIDQFpPAtrCo4HXO48ANfU6NqUxhGInQDg1W/M8gDsA+jaks5UouZe1atPJd4Z4tMzGqRGhUJUJ6RmKcoqQV/3EIGJCXhqfk1qJubEb101P0b8KLvpnbyWpZ8RWwEgEw33dO5IMwgRfQqMGA3S37VSfgKcYSxFoO8FjQn4qKcELVev+WnpGxEoHwHudJoB+yYta07MmLtYu6HepwZTdk0Ts/K+rQkBwKss17f5cPBFP+tzYCTQonCEHp6c79xKNLdhxP8C19AoCNAjnJIIiEB5CdDx2RxMWKZh8Ncuvvys2R1xZ9MBWPTTsl+pcAI1JQBkYvG8qTUmbAS/UOSrTDa5PucyGmQIzDi6x8xVfx0TgUoQ4O+szZ2cyHZpMt6j3vow8Cv65GS0cn9fswKAh4OOH+hyeC+WByhp06eAYl97dHK/nzQaxDbMExoVeRrMzUpHRaAQAnRjwuXJueh/tDyZnxjn991wXSk1f35Gfr6peQHAg0VHqocwmPEll8MelYnfZTQ4MR99KwKTEWAwJ4b4pmdTqfnz02IMjMNYfmQ0PoWdzs/J7zcSAHIQowUpIxLuOm6fcKUpqTwHpjGHPKPBhTAaHNl2ox/qGED6QwQyCNAzJ7WN7VD3w8xGKQ+BAfTFBzDo02Of1Px5IJVwWALABPDoKtf1KYAHkCFY+YOVT4EJgOErOibxjAZpLEhVHWPHK4lArRPgOM9AZnMR0EzLjPmfBqr51Xfk5xPkNxIACqDJ7SUcxPji+reMBieHNmLMZEFgSpoBO+G6HJbR4OTcdEb8CDAy4yzs5WNQHm06yt++XIZ1bYqg6u+nzl+p7AQkAPhELKNBn8BwOtc56WmQ8Qc6TwTfoAWvkgjEmYDrrQ/P/QwF5ZmwmeG41d3GpwnChJjK8qUEgCKxymjQPzgaOc1EZzizLiVPXf7x6YoIEKDmS0F5CmuoHkwCuETYBc0qtaxKlScgASAA5jIa9A+Rs6MlCE28AOuhMhr0z09XhIsAw43Qjba89U3cLrQGYvTWfXAzrq3DE7OqxLcSAAKkLKNB/zBlNOifma4IDwHaBHELH9f4FWckf7vQQx8t+Q/AY58ciebnVK5voGBxepPJA+PzlwAwnkgAf8to0D/EXEaD9MmgzsI/S11RXgJ8Vlsx5eeuoKmy6psQthuUB47WDmHwV6oeAct2dt+wceOx8SWQADCeSMB/y2jQP9CTRoNJGQ36x6crykSAjq/oLZTe+jjzV8pNwFPzc31fxr65GVX8aNK6J9c9JQDkolKGYzIa9A8102iQBkN0CML1Q80l/LPUFcUToGteBuWZCXsVCgFKuQlwCZSW/FLz5+ZTraOO4wymEokv5rq/BIBcVMp8TEaD/gHTc1oLwhMPwXDwMAQBhSf2z1BX+CPAaHw06uPOFaX8BDw1/2Go+SWc5+dUrW/gm+3/vHXr1udy3V8CQC4qFTomo0H/oNkX05PaHLzoLewgNALaRuSfo67ITYBDvaLx5WaTeZQDPcODU81P7ZxSWAlY/7Vl+7Z/zlc6CQD5yFTwuIwG/cMe6ajHehqU0aB/jrpihACXm6ZrfX/Sx4G2fK4GDtb80PYrhZqA9SuTtK74qDF5fbGPEQDSluVI2VXdFpXRoH/+mUaDRzUr8Q+whq+og350Vv2IRX8Sn5VyE+iDEdOBoTSMcm0E5cl9jo6GiIBjflOfcF5zxZat3ROVaowA4CQSR7BdYKLz9V2FCMho0D9ozuKmwViLL3ddEupJuh5WFDH/LON+hbu+j+eEs34+N0rZBDgSdMNLH9X83dqPmw0orEcs82D9lKbrrli3rmeyImaJvHcuWbLFshLLJ7tQ31eegBdUZBY6Ln5WmpwA+y3aCRxEJ6Y44pPzivMZ/MW46/uwH2mDgZ9SbgIY881B/HMQ+/el5s/NKIxH0dU5lmM+evWObR/H013QTD7rV3DX0qXvMcbKuWUgjJWuxTJRU6nwxP5anr8GhRj1xywuZ7OTYxjeeRj4tX8/f6ty+ZGCMj32SWuWn1NIv9nrONY7rt2x9Xt+ypclAHxhxYqG6Wl7PTJZ6icjnVsdAgpP7J87Ozr6FKDRYF7rGP/Z6oqQEeCOkRlQ8XMPvzRmuRuHgrHU/LnZROeodV96sO7m63dvOOy3zFkCADO4d/GKs9MJ+2f4OMVvhjq/OgQ8L2V0T9qk5YGCGoG7l+hYaD+Mm/ppdKEUCwI0Cp2N3wGXyvRTyN2kfPYP49nfp6Wx3IAicBS7x/bDgOX9127bdm+xxc0pADCz/9/e+QfXUV13/N59+mVjjH/K1OBav3B/uDOQ8AdpSVMobacMbRKYRmBJNoWATbH54UxnMp10psq0HVJD4kiGgu0MDv5JnIaGNtCZFlJ3UtJOZhRoEjsOI70nO8a2LOPfki09vb39HtlrJEuynvTeavfe/e7Y85727d4953N2955777nnbquursdQwE4cwORXk6Ub0Xmy0p7Mk5duzzENHJFscbzsxVbQxQxmEuwkf3Ozj8DMwfz8KeTn510/lvXYzT8WGXv24/2Uwx3+Utb4f/1QZ+epQiS/6pMCJ+DTcAJexUHTCrkIz42GgExxmospTpVwBCSdKbfxCfTh6erGHGfmFBifVRyOkLtaAvtkfF+yRXIbSUAcWsa/jORi4x40T9owa+XxxkzmR8WQf9wnZltV3R1G+9/BRecU44IsY+oJMGhw4swlNkCmEHYhEprrlk+cX9hnyIuLgX1XpxwMcUk3v7T8uVlNIIMkPV9qSqelQV40Y47rAAiyXbW1i3I5swP9yb9rNUIKr5BOH2OjKTUXvQJsMOV3Q0hOga4+ySnAhYjyIxbeUTIeKYF91yNHPz64jUKAQa6jQLF0FxoiJ1JGretXfgu6+y8UW428HAC56H/ecUfJBwcO/I1R+q9wEuMCim2JKS5PDChLm8rwgCRF4TY+AZkT3Q1HoBtBg8yLMj6vYh5Rgm4siWuR+5W360iy7OYfycTmPcY357TWG7LKX1foOP/VOEz4zY+4gJu10htR6G1XK5i/2UOAQYMTs5W8bLkQysSYTfZoieeT1n4lYlk8GcviNoyATF45iS5+zmQZhsXaPwYrfk+9jIXinkHFfzRsRSb1RDUr5d1UXfuIMf6zSuuZYQvJ8qeGgLSy5jFocEKwe9AVcBRDA1yRcELYxj1Y5u1fz6l8Y3IKglW70S2Vk9XEuNlNwJizxtP/WN7fv67+0KETU6XMpByAQLgtVVXXo9L4MrKpPKw9PWxdgeAYftpHQG6KawenVHmYUsWB1nwsKGmGj8ER4As5H1pjHyPJexYMtvg5h380SrL0ruTmp8M5Gh0b95kPjfJayrVprU+nT0+1BgU5AIGwGBb4NXTQ/S2CEz8X7OOnGwQkqYokVJEV07ha2vg2lchrWXtAMg1y7YHxeQVHSECftPjnofKnyxlQufg5OCMF9xOj+YdzsfkvvCYOIJZ/vTnf840VXV09UelSFAcgEH5HdfWnoNiXkTvgjmAfP90gIC9lib6WDGvMNDi+TaVTVlKsHkHQoLTauI1OgC3+0bnIXtw6cCSRkwIOJW+hsTnZ9AtGa36qtVnXM2fOt1a1tWWjlr2oDkCgzM6amk8O5NQXPU/9SbCPn+4QkKBBcQRkHjbzC41v12AaoaRe5XaRACv+se+EoJtf0lRzc4MAEvi8g5lX/7Ask/keKt3YtAhCcQACk13sEdBfgrZ/iAuFeq3gmvycOgLyEh/sFYAjwEyD43NnnIBS5bhnKstTzNN/xe0iVb1U+EfR7GfiqSvg2Punj1rvdS/nPdtwoP1/4qjGlFTKr9TULEkZsxo5BB7FBZlWOI53QgEyyU3EoMH8AUp37nHkEpDkQklZb13S9Mp0vuvgNU7JSyd/c0R65AD6hI/jJuhC5Z9ltr5IbVGsi8tUPgSy7ESdt76hs3N/scoNo5wpfRa31tZWamMex4DWaswamBeGQiwzWgJB0OA89ApwAsHVbSH9gJJdUKK6ex0c5JWXy2zcBLJC5TVcoGfYzSD2llkjJ2B7dvQPQ2PzH0eRrnej31e2YTJL80ah+JQ6AIGCrXV15bNz5n4EQ3wRoyG/GeznpzsEJGhwDlp7lWUlyDTojl5haSKrEEqGwZNYf8D2TZzAeaj0xQmUYSJuFwmIZSUwVBw+sTc3NwjAku9h3dUX+01uaxjpesOkFOnj2SwJhWpqfj+XU08xYDBMM0dbNoMG8+ePumFweEAiv+W7LZtk6ZuFbn6JCZFleSN9scQMmnTuSACoTOPj1NCYGWfy4kjXzfc9z7Q2ZDL/Ovlioj0zNs/pjqqqW4xOfUEZ/wFkFyyNFguvHgYB6QWWRYikS5hBg1cnLMndzuZ89SFaipJ2OI4jBJKZ99qUB5tqNRt25fz94Tbtk+RQqPS70avjM1vfcDiW/mWM6dPa2+37A8+sOHDg55aqcVns2DgAgUSD2QU97zE8L0/ghcIliAMwDn3KTSdBg5JgaBbGiJni/erGldiw03AGZHhAupCj7D2WZFDXIeen2G0mKn/GeYy0nXTvSzf/adiKmxsEUB91wcN9yabx/XzIx84BCITevXTpjP7eCw8haHANAiuWBPv56RYBmRY2H9HhDBrMz67wBVQPugPEETiDlWB68RlmNSMr70kE/wxU9jPgtF0rO7iNICA2kGl8kvhJluPl5gYBzN9/Fw3R9aXTp3+rfu/efje0+kiL2D/NeJQ0EgvdZYxeCWPcB4EZUvaR/Zz5JjfirEvDA1LhcMuPgPQsy7xxiSrvRS3U56MCwnd5U02k11mIS/DeNDxdFWjlV+D7dFT48klrjG0LmbonXfzS4ueiPGNzsukXPFJG++ptGd+PW+KeYnO06tl+ta6uNuv7j+LF9iiHB4p9K8SnvI+CBrkE7GStIm3QAVROslysTCyQymm4Q6AV/C0lcRmyCqR8csufgGR3PNYnaXqFNDcXCATj+yqnv9J0sH2fCzqNp4OVj/3g8EDP+Sal/DVKe0vHU5K/20lAKiUJGpS0w9I65UYCURKQql4CMo8icU8PYjK4OUPgCBr9L+T6y1+yZf5+schb/1aVdQd8o580vn8vlyQu1m0Rr3LkJp2JaDNxBDjFLF62SYI0EnQ5GM2Pbv7s8G6UJKjvrI7oE2vD3JVNNs7fL5ZRrHcAAhC7Fi1aOFBaupJZBgMibn5eDhqEM8BuazdtHBet+qTiRzc/p/HFxSKFywGT5oyv/i2VUi2N6fRbhZdodwnOOACBGYIsg+jSWQvlbgn289MtAnLjMmjQLZvGRZtgNb5TmGHBBn9crFKYHBjf78bSpS8j3uWFZR0dvyysNHfOds4BGGqaHbW1t8Lbe4rJhYZSce87gwbds+lUaxSM70s0vzgA3NwgAEsOpuk913d++6rDh3vd0Kp4WjjtAASYJLlQmfIeNJ56AmsP3BDs56dbBGT2oGSkW4D/0ziV0C3jhqSN1PVM0xsS3OiK9TEb9k3p5m9Ip9/Ga4Ee3Ri2SIQDEOiO2QNl2d7ez6A76GnMHvidYD8/3SIgN3WQaVAcAm4kcCUBSdPbjYj+42jxR5lZ8Uq5+HcBBIw5g6QV35RleJd1dnYWUFJiTk2UAzDUqturqj5htLcGg3x/prUuH/obv7tDgMsTu2PLYmgyOL6PbH2nMI2P4/vFIBqDMrTaZ3zdas6f276iq6snBhJZI0JiHYDAQltraytTOfMQ0g0/hn1VwX5+ukVAbnQJGry+TKtrkNaWW3IISP+vpE6WNL0c33fG7pdX43M9W1+YFku8AxDAbR6yNLH21D0AQzYBHMc+JWhwQbmn5sAhoJEdM+4QdSRVzwl08csyvMzPPwSMzV+NOYvG2i7kffm6C6vxRW0Kvv9GscC22to69A8+goWIHoEfMHeUQ7jLAQKlSIE7Fz0ClViMCB/cHCEgyXq6ka2P+fkdMSjUMMbvQNKezcof2NR48OBJdzSLVhO+9q7CH7MHKkp0qh4ph5/Gkigfu8qh/MliAvIQBLMHrmF2IWstKfn5j17Asskyf99aLSj4UALI1vcOBuxaSjOZ1/AilqUtuBWRAB2APGFKTgHMLVmJHoHlgDYtz9N4mGUEpmP6YCWGBuaUciEiW0wn4/oyvn8aFT83JwhcwHv2276n1q3o6PiZExrFVAk6ABM0DHoFZpUgpwB6j5/GqVUTPJ2HW0IgWIhoAVIOl3EhothZjYF9sTNJwQIZpQ8rbTb7fWUbkrYoT8HwJlkAHYBJgmu+FDRojF6Jbqr7ABIrqXNzjYA8IJJTQByB67AgEbdoCUjFfwLz96XFz8C+aG1RrKvLojx4nbbeuHjRzjv37BkoVrksZ3wCdADGZzTuEQwaHBeREwdUyOwBOAJz8Z+uwNSaVDL2dSOavwuVfxZj/dzsJoBkbH1ae7uN8r+6PJP5P7u1sVd6OgBFtJ0EDZZp/ad4Pa3FGNZvF7FoFhUjAh+lHE4h5XCMBHNQFIn66kZr/wgq/xwz97hg4aOYxrex3PNeqG9v73ZBIZt1oAMQkvUYNBgS2BgVKw/PdRgeqCxPqZlce6ColpH0vMdQ6R/rzzFVb1HJRlNY0M3fO2fWrlVtbdlopOBVryRAB+BKIkX+m0GDRQYa0+KmXRoekORCjBmcvJHY4p88u7idiW7+fnTzv45F2L6+vKPjh3GTj/Kgn5oQpoZAM4MGpwZ0xFcpRe1fiSmE85FciCkF8jeGdO9L4p6LyXvyP49HxpCAMceMp7doz3u+qb39UAwlpEiXCNABiOBWYNBgBNCn+JLyYM2FI3A9hgckeJDb6ASCFv9RdvWPDsiivejmfxf9Xy+VZvu21R86dN4i0RMrKt9MEZq+ta6ufG4u92kGDUZohCm49ExOIxxBmRX/CCS27kB+NPVmKqVaGtPpt2xVIqly0wGIieUZNBgTQ4QohmQZXCBZBjGNMKkPHnr5B7v5j2dziOoPETaLDpUARmxOa21ewX38tcZM5kCoF2PhoRFI6nsoNKCFFsygwUIJxv/8wTgBWYQIzkAKKSWTsEnSHpnKJ6vzsd632uK/QOX/Ym//hc2rDh/utVoTCp/YhkjsTd/MoMHY26hQAT1U/vMQJyDJhcodjBOQiv4M5vPJVL7TMq+Pm60EfOWr73ueaV2WyXwPLiuNaaslr5A7Gc2PK5S27U8GDdpmsYnLK9MH58MRuNaBfAJS1x9HS78b3fzI4cPNVgLGnEHSnldTxqxv6Ozcb6salHtsAnQAxmYTu182Llw4fUZ5+TKj9ePwwT8eOwEpUMEEJLPg/NIUViP0rJpGKEn6zuZ8dTxr1Emk62UTseBbIbIC4LPtR4fUhrJp07bW7917LjJBeOHQCdABCB1xOBdg0GA4XONSqgwPzEJvwFzECszEIkRxfVB7EMkni/OcQMWfFS+Am60E2M1vq+UKkDuu75UCVErWqUOCBp+C5tXJ0j4Z2kqg4GzECsyGIyBDBFGGC0iP/rkBX51CP/9pfLKL3/J70Jiz6ObfpXOplqaD7fss14biT5AAHYAJAovr4c0MGoyraYoql1T+4gTIGgTXwiGogHOAf6Ft0qaXVr78ly7+M1is1WdLPzTeU1WwMX4HktEcpb4AAAu3SURBVPZsVv7ApsaDB09O1XV5nXgRCPHVES9FkyQNgwaTY21ZjHA6nIEZ8AymwTGQ2QQVWKt4MtMLJXjvAir5C2jmn8e0vV6p+PGdFb479xOy9b2D26OlNJN5rV4pycfELcEE6AA4bHxmGnTYuOOoJusQlKBrACMHKnXJIRj2sKOylwo/i3C9AVT0GMLHTC9uLhIwvjmnPLUzlUq1NrS373VRR+o0OQLD3gmTK4Jn2UCAQYM2WIkykkDxCKC1n/aM3lQ60L8ZuflPFK9kluQKAToArlgyTz1219XN7/f9z6PhtwqnVOV5Gg8jARKwgAA6coz21dvGMxs6kLSnmR07FlgtOhHpAETHPtIrNzNoMFL+vDgJFJnABazu/m2lzbNN6fRPi1w2i3OUAB0ARw07EbVeraurzfr+o1id5fPa0/Mmci6PJQESiI6AUfowKv3Nfl/Zhgc/2P9hdJLwyjYSoANgo9VCkjkIGkQw2FOYXHZ7SJdhsSRAAgUSCKL5Fy5e/M937tmDyZncSGDiBOgATJxZIs4IggbhCDRB4emJUJpKkkCMCRhj+rT2dnvKf64hk/lJjEWlaJYQoANgiaGiEjPINIhuxifhDNREJQevSwIJJnAE2fo2pUpKnm94//3jCeZA1YtMgA5AkYG6WlwzggZra2ruVr7/OFohfww9MbucGwmQQGgEjPoBHO/WGxYv/i67+UOjnOiC6QAk2vyTU/6VG5fc4JUNSNDgagYNTo4hzyKB0Qigm78fDvbryuS+1tTZ+b+jHcN9JFAsAnQAikUygeUEQYPG1yvRH/AHCURAlUmgOASMOWY8vUV73vNN7e2HilMoSyGBqxOgA3B1Pvw1TwIMGswTFA8jgSEEkLjnPSz2/GJptm8bsvWdH/ITv5JA6AToAISOOFkX2F1Tc13W6PvxYnsaScl+I1naU1sSyIuA7/vqzVRKtTSm02/ldQYPIoEQCNABCAEqi1SqeWimQd+/F7ECJeRCAokmYMwZpdU3U8asX9bZ2ZloFlQ+FgToAMTCDG4LcTlo0DeYQaDnu60ttSOB4QSM8Ts85W3uV/7Ghzo7Tw3/lX+RQHQE6ABExz5xV969dGlZtrf3MwwaTJzpE6lwkK2vNJN5rV6pXCIhUOlYE6ADEGvzuCvctsV1H1debhWSCzVCy2vc1ZSaJYlAkK3P99S6FR0dP0uS7tTVPgJ0AOyzmVMSXw4aNLknlfaWOqUclUkSgaPI1reR2fqSZHL7daUDYL8NndAAswb0zpqau4zRKw2DBp2waRKUQDd/G+JdW3vnzNq1qq0tmwSdqaM7BOgAuGNLZzTZtWjRQj9Vutx46gll1A3OKEZF3CBgTBa9Vd9F8quWpo6Od9xQilokkQAdgCRa3RKdGTRoiaGSIyYi+M3WlOc9t6yj45fJUZuaukqADoCrlnVMrx1VVbfkdOpxT5kGqMagQcfsG2919M+V8tdnjdmGaXwX4i0rpSOB/AnQAcifFY+MAYHtdXUzdc48gDiBJ5SnfysGIlEERwlwGp+jhqValwnQAbiMgl9sI4CgwU/6Rj/JoEHbLBdfeYPV+LTyn2vMZH4UX0kpGQkUToAOQOEMWULEBLYtXvwrnk6twMt7DXoFboxYHF7eRgJBml6O79toPco8SQJ0ACYJjqfFj8DQoEHMILgLNzfv7/iZKVYSoZs/rYxuNed7vrGiq6snVsJRGBIImQBfkCEDZvHRENhZVfXrvtZ/YXz1MBYimhGNFLxqXAkE8/dvXLxo55179gzEVU7KRQJhEqADECZdlh05gcFMg75+ENO3ViNT25LIBaIAkREwvhlAz9B3Ukp9jeP7kZmBF44RAToAMTIGRQmXwOWgQWXuw42PeoBbIggYcxaDQVtgc6n4DyRCZypJAnkQoAOQByQe4haBHb+6pMYvGVipjXkEYQJz3dKO2gwhcAS9Ppu8gYGWxoMHTw7Zz68kQAIgQAeAt0FiCbTW1ZXPzpn7tTJfAISbEwvCNcW1+jHWlGjh+L5rhqU+xSZAB6DYRFmelQQQNPh7vvHWIDjsswgaLLFSiWQLjZhP9S94oX21IZ3+72SjoPYkkB8BOgD5ceJRCSFwOacAFyKyw+IXF+Z5VeX0V5oOtu+zQ2hKSQLxIEAHIB52oBQxIxDkFPCVekorfXvMxEu8OIjoP6c99TIX5kn8rUAABRCgA1AAPJ6aDAI7amtv9X1/JUJmluOBmZYMreOpJSr+4yqlX/D7yjY8+MH+D+MpJaUiATsI0AGww06UMgYEttbWVqZ8tdJo85gy6oYYiJQYEYxSB5DL4bnevr6XVx0+3JsYxakoCYRIgA5AiHBZtJsEmpXyllRX3+P7WIiIKYdDNfJgxW/U+pMl3ktPtrf3hXoxFk4CCSNAByBhBqe6xSWwo6rqFqX1Wt+oB7TWZcUtPbmlSY5+8Pz7ntmzt61qa8smlwQ1J4HwCNABCI8tS04QgZ3V1QtyWHtA5cxqTCOclyDVi61qJ4Iunzk3Z9YWVvzFRsvySGA4AToAw3nwLxIoiMDGhQunX1NWsQIP1lquPZA/SmP8Dk+l/m5h1aLtXJwnf248kgQKIUAHoBB6PJcExiCAsWuNtQfuyuUwjdBT9+BB47M2OqvBFv/CxYteZsU/OiDuJYGwCPClFBZZlksClwjsWlz3sZxn1qKVez/jBC5CYYufjwcJRE+ADkD0NqAECSEQxAlgEaI16BBI5CJE6Bl5D7qvZ57+hNz0VDPWBOgAxNo8FM5FAoNxAhUVf46AwbXK03Uu6jhUJ1T6CIfQ/660ebYpnX576G/8TgIkEB0BOgDRseeVE06gGfkEamtq7tVG/yXqyE84iKPHRyhEifKfb8hkfuKgflSJBKwmQAfAavNReFcIbK+tvV3lcquN0vchTqDcar202meMebFc62316fRpq3Wh8CTgMAE6AA4bl6rZR2B3Xd387ID/sK/NSnSb11ikwSnt63/yPX/r8kzmBxbJTVFJILEE6AAk1vRUPM4EmmV4oLr6dvQGNChjPhfHoEG08vu0Mm9oz9vxoee9wVS9cb6jKBsJjCRAB2AkE+4hgVgR2HjrraXTT578Iy+nP2tS5u6IFyI6gpb+Gwjse7NsRsV/1O/dey5WsCgMCZBA3gToAOSNigeSQDwIbKuuvhk9A3ejEv6UMeo2T6k5IUp2BC+JHyKN0Tt+zvuvpgPt7+JvXJobCZCA7QToANhuQcqfaAKoifX26uolGDG4TWuzFDBuwvTCmy5NL6zIFw4cidPIWNihfP8XWqf2GeXv17nSHzcefD+dbxk8jgRIwC4CdADsshelJYG8CWypqpo1raRkbr/vz04pNWvEiVqfNFp3ZQcGjj/U2XlhxO/cQQIkQAIkQAIkQAIkQAIkQAIkQAIkQAIkQAIkQAIkQAIkQAIkQAIkQAIkQAIkQAIkQAIkQAIkQAIkQAIkQAIkQAIkQAIkQAIkQAIkQAIkQAIkQAIkQAIkQAIkQAIkQAIkQAIkQAIkQAIkQAIkQAIkQAIkQAIkQAIkQAIkQAIkQAIkQAIkQAIkQAIkQAIkQAIkQAIkQAIkQAIkQAIkQAIkQAIkQAIkQAIkQAIkQAIkQAIkQAIkQAIkQAIkQAIkQAIkQAIkQAIkQAIkQAIkQAIkQAIkQAIkQAIkQAIkQAIkQAIkQAIkQAIkQAIkQAIkQAIkQAIkQAIkQAIkQAIkQAIkQAIkQAIkQAIkQAIkQAIkQAIkQAIkQAIkQAIkQAIkQAIkQAIkQAIkQAIkQAIkQAIkQAIkQAIkQAIkQAIkQAIkQAIkQAIkQAIkQAIkQAIkQAIkQAIkQAIkQAIkQAIkQAIkQAIkQAIkQAIkQAIkQAIkQAIkQAIkQAIkQAIkQAIkQAIkQAIkQAIkQAIkQAIkQAIkQAIkQAIkQAIkQAIkQAIkQAIkQAIkQAIkQAIkQAIkQAIkQAIkQAIkQAIkQAIkQAIkQAIkQAIkQAIkQAIkQAIkQAIkQAIkEFcC/w+w3gp5uJoz6gAAAABJRU5ErkJggg==;" parent="1" vertex="1">
          <mxGeometry x="170" y="120" width="80" height="80" as="geometry" />
        </mxCell>
        <mxCell id="lbYwN2UF0Nlyc8jE-Wue-59" value="" style="endArrow=classic;startArrow=classic;html=1;rounded=0;exitX=1;exitY=0.5;exitDx=0;exitDy=0;entryX=0;entryY=0.5;entryDx=0;entryDy=0;" parent="1" source="lbYwN2UF0Nlyc8jE-Wue-58" target="yeW9yZxDuHKNDsHLT4yy-3" edge="1">
          <mxGeometry width="50" height="50" relative="1" as="geometry">
            <mxPoint x="320" y="350" as="sourcePoint" />
            <mxPoint x="370" y="300" as="targetPoint" />
          </mxGeometry>
        </mxCell>
        <mxCell id="lbYwN2UF0Nlyc8jE-Wue-60" value="" style="shape=image;verticalLabelPosition=bottom;labelBackgroundColor=default;verticalAlign=top;aspect=fixed;imageAspect=0;image=data:image/png,iVBORw0KGgoAAAANSUhEUgAAAgAAAAIACAYAAAD0eNT6AAAAAXNSR0IArs4c6QAAAERlWElmTU0AKgAAAAgAAYdpAAQAAAABAAAAGgAAAAAAA6ABAAMAAAABAAEAAKACAAQAAAABAAACAKADAAQAAAABAAACAAAAAAAL+LWFAABAAElEQVR4AeydCYBkVXnvz62q3qaX6dkXZt96YGQTo6JPBQUUUZQooKwqBBVNniYx6ktMfC7RaF6ixmhQAWWNgAJConGDuBvFEWSYfWGYfenp6elleql73/9/e25PdVdVd92qW1X33vofqKnqW/eee87v3DrnO9/5zvcZoyQCIiACIiACIiACIiACIiACIiACIiACIiACIiACIiACIiACIiACIiACIiACIiACIiACIiACIiACIiACIiACIiACIiACIiACIiACIiACIiACIiACIiACIiACIiACIiACIiACIiACIiACIiACIiACIiACIiACIiACIiACIiACIiACIiACIiACIiACIiACIiACIiACIiACIiACIiACIiACIiACIiACIiACIiACIiACIiACIiACIiACIiACIiACIiACIiACIiACIiACIiACIiACIiACIiACIiACIiACIiACIiACIiACIiACIiACIiACIiACIiACIiACIiACIiACIiACIiACIiACIiACIiACIiACIiACIiACIiACIiACIiACIiACIiACIiACIiACIiACIiACIiACIiACIiACIiACIiACIiACIiACIiACIiACIiACIiACIiACIiACIiACIiACIiACIiACIiACIiACIiACIiACIiACIiACIiACIiACIiACIiACIiACIiACIiACIiACIiACIiACIiACIiACIiACIiACIiACIiACIiACIiACIiACIiACIiACIiACIiACIiACIiACIiACIiACIiACIiACIiACIiACIiACIiACIiACIhAlAlaUCquyioAIVI7Ac+cuaDrSM63Ru2NTf3/fyi1bBry/9S4CIhBtAhIAot1+Kr0IFEXgqdNPn1aXGjrDOKYjYewljm0tdoxZ7CTMXMs2Uy3jTDWWVZedudNrjNWJczsdy+yxHGsbrt9mLLMtMWz/YcXTW7ahU8HXSiIgAmEnIAEg7C2k8olAiQQ2dHS0Oo3WuRikX2LZzh/h/XRkubDEbHNf7pgujP9rLcv8Dvf5mX088dNTN2w4nPtkHRUBEagmAQkA1aSve4tAGQisW7OmJZFKn4dZ/IWYi78c0/HTMSAny3CrSbPEvaEosNdZxnrcspzvdSfbHnvBE0/0TXqhThABESg7AQkAZUesG4hA+QlsPnPF2WmTfB3uhEHfeXFu9X35yzHZHRzH9EMz8N8Jy3kUwslDHU9u2j3ZNfpeBESgPAQkAJSHq3IVgbIScC43yU2bVp3rGOty3OgyvMqj0i9jLaAdsCEE/BKd0P3pdOqba9at21fG2ylrERCBcQQkAIwDoj9FIKwEMgd9zKSvglp/ZljL6rdcmcJAygzfu+KprQf85qHzRUAE/BGQAOCPl84WgYoS4KC/cWPHK7B+fiUG/TdBtT+jogWoxs0cZ8hxEt9PJOxvOseth1Zv3HisGsXQPUUg7gQkAMS9hVW/SBJYf/rqc6yEc52xIQIkrHmRrEQAhYZm4Dg6qUcSCecrK9du+hE+45CSCIhAEAQkAARBUXmIQAAEnjnj1Odj1vtWrIxfAUO5RQFkGassMPJvTzjON9LJ5NdPW7v+2VhVTpURgSoQkABQBei6pQh4BJ4559R5iSH7Cseyrse2vbO943rPT8CzF4Bm5I5Bu/7uM596Cs6JlERABPwSkADgl5jOF4ESCWxesaJheErqIqzrX4ste28M65a9EqtZkcsd23RbCfMwlgju0BJBRZDrJjEiIAEgRo2pqoSbgLeuHzcL/vBQdzY6VuLfoU25XUsE4WkVlSS8BCQAhLdtVLIYEFh3zppFyeHh62C7di186K+KQZVCXwUIWGn4H/yeSZjbelPNj8Dz4FDoC60CikAVCEgAqAJ03TLeBBhFr7e/+XWW41xnO9bF1XLDG2/KhdbOOYJO7n4nbf3r6qc3PlXoVTpPBGqBgASAWmhl1bHsBGCYlth4JvbrO871cH7/Jsz2W8p+U93AFwFoBn4OYezWAafhPhkO+kKnk2NKQAJATBtW1aoMgY1nrjoF7nivsS3zJwnHLK/MXXWX0gg4cCxkPUTDwVVrN/2wtLx0tQhEl4AEgOi2nUpeJQK04k+3JC+Vir9KDRDgbaG52YBO8OvJRPq2lWu3HAwwa2UlAqEnIAEg9E2kAoaFwLozT1uTNOlroUq+IU5++MPCt7rlcAbRGX4fOwju6Fi58dvW/TAkVBKBmBOQABDzBlb1SiPw1OmnT6tLDl0OB7TvkqOe0lhG5WoIeLsh4N2FNr9l9VMbt0el3CqnCPglIAHALzGdH3sCNOjbfPaqV9q2dRO2770B68X1sa+0KphFAM8BwhVbP04Y+84pzX33L/zlrv6sk3RABCJMQAJAhBtPRQ+WwPozV6+CD/6rLNt+G7zzLQ42d+UWbQIj2wnhW+BLHWs3PRntuqj0IjBCQAKAnoSaJrCho6PVNJgrMNt7O9S+L61pGKp8gQScX0ArxO2E39R2wgKR6bRQEpAAEMpmUaHKTYBueRF57yYM/FehM9ee/XIDj2X+2k4Yy2atoUpJAKihxq71qm44u2M+VnURgMe+wViJlbXOQ/UPjoDtmPUJy3zDSjm3djyx6VBwOSsnESgfAQkA5WOrnENAYN2aNfXJ5PCl8M53A6y6L4SaPxmCYqkIMSWAHQT9eMYecBLWravXbvgJOlgomZREIJwEJACEs11UqhIJbDx91Wp0wm9z1/aNmV1idrpcBPwTcOzN0DTdOpSu+/rpTz+9338GukIEyktAAkB5+Sr3ChLwgvA43L5nOa/Cwx2557t+4SIzuHs3NqDJD00FH52y3gpaATSm9ZiVcL6yt33eg+c//vhwWW+ozEWgQAKR6yALrJdOqyECcTLom/KCF5p5n/pH0/3ow6brW/eZoV3P1VBL1kBVHWcPtpjeKSdDNdDWEaiiBIAINJKKmE1g1EOfcd5jOeaM7DOie2TBv91mml/8EmgBbNP3m1+Zo49+xxz7/veMM3A8upVSyccQwNKU62SIWoH0UOrhNevWDY45QX+IQAUISACoAGTdIhgC6DRPeuhznDdiJlUXTM7hyqVh9WlmyT0PoLaJ0YKlj3SOaAW+/YAZ3L519HicP9SdssAkmlvMwKYNca4m6jbiZMi2E1889Q8b/hDzyqp6ISIgASBEjaGi5Caw5XnLFw4nU1cZx3l3rXjom/f3nzVtr319TiDHn1lnjn7rm6b7u48au68v5zlRPVg3/xTTcv6rTOuFrzFNZ55tdlz5RggAG6NaHf/ltpwnHJP4yqBdf7ecDPnHpyv8EZAA4I+Xzq4QAS/kbpQN+kpBxYFw6UPfRRSC/GEI7N4e0/PYj8zRRx42fb+Gc7qIproFC03LK84fGfTPev5oLfp/91uz8x3XjP5dSx9gOHg0YTnfTDvJW057av3vaqnuqmvlCEgAqBxr3akAAgq5exLS7A982Ey7+vqTByb4NLhtiysIHH3wAZPuOjLBmeH4qmH5CnfAb73oNaZ+2Yqchdrzob8wx773Hzm/q6mD0AoY27oznU7dCVuBzpqquypbVgISAMqKV5kXQmDrOcumDqbrr7SMfROir51TyDW1cE6yrc0sffSHhu+FJmdw0PT8949N1wP3mb7/+SWWl2E5EZI0Oui/+rWmfumyCUs1fOiQ2Xbx+cYZGprwvFr6Ei15HB32IwkYDq5cu+lH+Byexq2lhohRXSUAxKgxo1aVjO17V2OfdHPUyl+J8s648Z1m5nvfX9StBnc+a4795yOm66FvmeF9e4vKo9SLRgf9i19n6hcvKTi7w1/5kjn0pS8UfH7tnejAMMK6PZlI37Zy7ZaDtVd/1TgIAhIAgqCoPAom8Mw5p85LDNvX2Zb5k4Rjlhd8YY2eaDU0mmUPf9ek5s4rngCcCvX95teuVqDnxz8wTrqMToawc4HGey0vP8+0XvBqUwfHRn4Ty7ftta8yw/v3+b20Bs93sH3QethxrDtXd2z4T+t+Oh1SEoHCCEgAKIyTziqBgHO5SW7esup8mx76HOcyWPKnSsiu5i6d+seXm7l/+/FA6j186KDpfuShYJ0MnRj0abnfeuGrTWpWaZ6Xj/3oB2bPX/xpIPWtpUywHrALHfrddiLx5dPWrn+2luquuhZHQAJAcdx0VQEENpzR0QFnvG+3jAOf/NacAi7RKbkIJJJmyf0PG6rTA0twMtT/1O9dYYCOhnw7GUKZms4864Qh38UmNXNmYEV77qa3wX7hV4HlV2sZQRAYdTLUk2x56AVPPCFDilp7CAqsrwSAAkHptMIIbF+ypHGgveH1tbp9rzBK/s9qOe9V5pTP/av/Cwu4wj7WbbrhabDrm/dM7HQnc9CHIV9qxowCcvd3yuD2bWb7H18SKuNFfzUI2dm2s9ckrDuS6fRXVz69pTY8SIWsCcJcHAkAYW6dCJUtw6DvrViTbI1Q0SNT1EW3322azi7vJonxToashgbXLXHzy7FP/5UXmOS06WXldeAfPmGO3HtXWe9Ri5lDK+Dgv19QGOhNNt8FrUC8PEjVYqMGUGcJAAFArNUsRv3xO87NeJDOrFUOlao3jesWfePeityOTob6n/y9a9CXaK7MBg16Ndx60SuM3XOsInWs2Zs4psuynPtMwnypY+2mJ2uWgyoevXCparPqEsBMwvPHfx22mL/ZskxTdUtUW3c/5Z+/CFe5F8Sy0l33/7vZ/8mPxrJuoa3UCdfD9lDyHjgZ6gltOVWwshCQBqAsWOOX6eYzVixIW8mrIQC8Ew/N0vjVMBo1ql+y1Cz51qPGSiajUWAfpdxxxRtqy++/DzblP9WB2sV6CE6G7li1dtMPy38/3SEMBCQAhKEVQloGzx+/5TjX2Y51MWb78Rt1Qsp+omLN+cjHTPubrpjolMh9V8t+/8PWWDDgfQZhiu+wUs6tHU9sOhS28qk8wRGQABAcy9jktPHsVWeiE3gH7IYQicUqr9VXbKhVriKpmbPM0ke+bxJN8Vl9kd//yj0/hd4JS3z9EPofSNj211b+YfNPMVhAAagUJwISAOLUmiXUZfOLVrQND6TeYmznOvzoX1pCVrq0AgRmvvd9ZsaN76rAncp/C/n9Lz/jku/g2JuNlbh1KF339dOffnp/yfkpg1AQkAAQimaoXiEytu/JH3/1msH3nWmZv/Q73y/LXnzfhSnxAvn9LxFgBS+HVgCuhq3HsETwlb3t8x48//HHhyt4e90qYAISAAIGGoXs1q1ZMzeZHL7SWPaNMOp/XhTKrDKOJdB0xplm9gf+j2k8Pdq7L12//5dcULVgRWOp6i9fBBxnD9x634mFgVtWP7Vxu69rdXIoCEgACEUzlL8Qj513Xmpe195L8GO9Af74L5Y//vIzD/oOdQgI1IqoelPf+CZfkfWCLkeQ+cnvf5A0q5MXDANgI2z+y3Ksr/Wmmh+R6+HqtEMxd5UAUAy1CF2z5XnLFw4nU1dh4L8ZXh/8h2aLUF3jWNRkW5tpfsUrzdTXXWqmvPBcaF/j9ZOV3/+4PbXOETyh99t24oun/mHDH+JWu7jVJ169Sdxap8j6eNv35I+/SIBVvsyqrzfN577UtL3uDYYxAKy6uiqXqDy3l9//8nANTa4nnAwN2vV3n/nUU72hKZcKMkpAAsAoiuh/2PT8lafa6cT1MNS5ARPF4MKzRR9N+GuQEVK37bWvM8n2aeEvc4kldAYHTc9//9h0P/qw6f3ZTwztAZTiRwD90dGE5Xwz7SRvOe2p9b+LXw2jWyMJANFtO7fkGzo6Wq0G5zLbJK6Ff+94+oiNeBtNVPz6pctN26svdmf7dQsWTnRqrL8bPnjAHPvBf5mjDz0gb4BxbmloBYxt3ZlOp+6E6+HOOFc1CnWTABCFVspRxozte1dhYbglxyk6FFICdOTTikG/9cLXmKaznh/SUlavWIxI2P0fD+P1iEl3HaleQXTnshGA4eBxDD6PwPXwV1au3fQjfJaTobLRzp+xBID8bEL3zfazlrQfN41XwIpf0fdC1zoTF8hqaDQtLz/PtL3+jab5pS+LpS//iQn4/5ZLBL2/+oXpfuQh0/PjH2iJwD/CiFzhbMQk5vZkIn3byrVbDkak0LEopgSAkDcjxGJF3wt5G+Ut3ol1fRrztWH7XmLKlLyn6ouJCQwfOmiOff97WCL4FpYINkx8sr6NKAFnEILAw45j3bm6Y8N/WvfT6ZBSOQlIACgn3RLy3nB2x3xjm2shANyERlpWQla6tMIEGpavcNf0215/mUnNlC1m0Pi1RBA00fDlh35vF/q9u+1E4sunrV3/bPhKGI8SSQAIUTs6l5vk5i2rzrdt6yao+S+Ts54QNc4kRUnNmWtaL7jITL30MtPQceokZ+vrIAhoiSAIiuHOA4KAbRzrx3Q93JNseUhOhoJtLwkAwfIsKrdnzjp1ZcKxb7CM8zbHWHOKykQXVZxAorUN+/Tj66Sn4kBLuKGWCEqAF5VLbWevSVh3JNPpr658esvWqBQ7zOWUAFCl1pGzniqBL/G2npMeWvC3XPBqk2hsLDFHXR40gcFtW8zRRx42Rx98QLsIgoYbgvxGtALmlxQGWpp67lz4y139IShWJIsgAaDCzbb57BWnpe3kdVDx3wgV/4wK3163K4YAvCpxu17bJZe6W/eSU6cWk4uuqTABZ2DAdTR09DsPmd5f/AzKZNmUVbgJyn87x3TB/8l9JmG+1LF205Plv2G87iABoALtuflFK9qGB1JvQciM6zCWvLQCt9QtykCAfvlTs2abRNtUGPfNMqnZs00SywBJHOPx0WPTpmubXxn4l5Ll6BLBw982AxvXl5KVrg0rgROuh+2h5D1wMtQT1mKGqVwSAMrYGhnOeq7G9pbmMt5KWYeMwGTCgvs9hQhE+LNSqZCVPt7FGV0iwJbC9BE5o4tfazvH0N8+BCdDd6xau+mH8atfcDWSABAcSzenp04/fVpdcuhyy7Hfi4fw9ICzV3ZxIwCVUBIag9T06SY5fYarRXD/njHDJCkg8PgMvPNvahZiGhio0s3KuAPDe/eYrvvuMV3fus/YvYpVU+k2qMT9EBDtGewguMMZsL526oYNhytxzyjdQwJAAK0FoxTPWc9N8Gj5Bgz89QFkqyxEIIsAPQqmZkEgwJLDqBbBW5bIPI5tiYnm2vQQzbV/xhag2p/vQ7ueG/l84OQxDv4KPpT1eMX2AProAQx235Hr4bFNLAFgLA9ff208c9Up2LZ3DR6udwLkUl8X62QRKDOBREur64jI1SxAg5CaMdO0XnSxaXr+C8p85/Jk7wwcN0MYxNMc1PfvM2kM8EP79pnhw4fMMP52B318RwFASQTyEnDszcZK3DqUrvv66U8/vT/veTXwhQQAn428bs2a+mRy+FLHMjfg0osAMOEzC50uAlUjUAebgyUP/qdJNDVVrQy5bpzu7saAjhk6Z+4Hx83cvWMY8LF7JtflOiYC/gk4zhB2Yn0HYYi+1vHUxu+jL7f9ZxLtKyQAFNh+G87o6DCWeTu6n7cD2uwCL9NpIhA6AjNuutnMvPnPKlKu8er4nIO71PEVaQvdZAICjrMHwsCdCdv5yqo/bNo2wZmx+koCwATNuX3JksaB9obXw5DkJmM5rwIs8ZqAl76KBgE6M1ryrUdN/cJFZSlw3//8yuz/xN9BTb8f6vjjZbmHMhWBchDABA+uh0ecDPUmm++C6+G+ctwnLHlqQMvREuvOPG1N0qSvhb7xTzDmT89xig6JQKQJNJ/7UrPgy7eWpQ67/+xdpucnj5clb2UqAhUjcMLJEBwNfXnV7zf/vmL3reCNJACcgL31nGVTB9P1V1qO804cen4F20C3EoGqEDjln/7FtLzywkDvPQR1/rZLkKe87gXKtZDMjqUd0znsmK3Y0rhqSoOZ31APb7mFXKlzJiUAJ0PGtu5Mp1N3wslQbJxH1PzjIWc9kz76OiGmBOiEaGnABoEHP///TOftX40psfBVawg666MY9DnwD8FAEm4lzG+OdLkFbUomzIqmBrOqudG04LNS6QSA+zgQPxKX7YQ1KQDAkn8uLPmvNJZ9I4z4n1f6Y6EcRCCaBGbc+C4z873vC6TwDM+79TXnm3Sn/K0EAjRPJtwI0Qt79SNp23DWn7kxIlMA8C5nJz+voc6snNJoFjXWQStQk92+hyPAd2cTlohvi/J2wpp5EvCbOemsx3HeCFG5LsAnQVmJQCQJ0LPgkvu/Y+qXLC25/N2PPGT2fuRDJeejDHITGLQdDPp4DRuTzhz1M05nh/6brhENQMbh0Y+NiYRZ2lQPrUCDaZcL6lEupXxAUyDKlPUYPA5+ZW/7vAfPf/xxtFA0UuwFgM1nrFiQtpJXQ0x+Fwb9JdFoFpVSBCpHoPnFLzEL/u22km+487orTf9TCshWMsiMDDBxMceg3udsvwfDzGRpMgEg8/oZdSnXVmAZNAOp2I8EmTUv42fb2cswxcl0+qsrn96ytYx3CiTrWDb75hUrGuzmxBtB6AbbWNy+pwWwQB4XZRJXAvP/8Qum9YKLiq4eI+ztuPKyoq/XhWMJDGDk7xq28XIM/i84+REAvEzrYSm4BLYCq2ErMC2V9A7rvQQCaDIbbfGYY1m3NXYd//bSHTtCuR82VgLAxtNXrXYS1tugknkHlrlmldB+urRAAlZDg0m2tBiraQq8ayZMAp+95B5LcaXFMfaxbu+wsfuPG2do0HDN2O45Zuy+WG+1Ha13mD+UahC47//+jTn64ANhrmLoy4ZlfdPjY7afq0LFCACZ+ZzUCjRAKxCr4SGzmhX9jPHoKFAyDkHoohNGvoXlrCf4Z5mR5+pOWYDodDNNCkFl+Lf3Tr/yidY2d9Cnr/lAotPZtkn39Bi7+6grEKSPHh1xCUsf75kBXPbtdX2/a4tZ8G3OHGfc+E4YBL7fd+YU7rZe9AoIdv2+r9UFiFKDkb8LKv4jMOkvQMs/KbLfTmADMOnFJ06og1ZgKXcQYHlgRp20AoVym+w8aAY2YND9eno49Q1sJ9w32fnl/j6yAgC378Ho4jrMLq+FAca0coOKW/6cuTcsX2kaVnWYuoWLTf2iRa5nOH5ONDeHtrrO0JAb3W3wuZ1maOcOM7hzp2F89+MbN4zRMoS2AiEumGsQeN/Dpn7pMl+lPHLn7ebA//sHX9fU+smw58OafuFr+354BSEAZN7P0woshW+BOmkFMtEU/TnTcDA9lHoYwsBg0ZmVcGGkBADPWQ80yu+yjHN2CfWuqUsTjY2m8fQzTeOa001Dx2rTiFfd4qXGSsZLsh/as9sMbNpgBiAMHF//jOn//e9MuutITbV1qZWd8qKXmIW3+DAIRE+2/Y0Xm8Fnd5R665q4/jhG/k7YiB/F+j5V/uVIQQsAXhlpKLigsd7dTjgf2wqVgiLgHAHa+xPG/reVT25ZG1SuheQTCQFg1FmPY10Db/xTCqlYLZ+TnNpums4+x0w55wWm6aznm4ZT1xirFrf8YHAa3LHN9K99wvSt/Z3pf+I3hkKC0sQE5n/286b1wldPfNKJb3t/8TOz62a401DKSwATfdMNFT8HfgoA5U7lEgAyy92OZYFl7hIBNImw/VEKhgDizjwDzfYdVsq5teOJTYeCyTV/LqEVADac3THfSVvXOwnnhoRjluevgr4hgYblK0zzy883zS8+1zSd88LaHPALeBSGdj1nen/9S9P7k8dM7y9/7hoiFnBZTZ1Cew/XQ+CUyWXt3e97j+l5/Ec1xafQylZitp+rLJUQALz7Uoe4EH4F6GSIzoZCO6B4BY7IO8RE7BqwHuIuglN/v/5H4FoWhVGo2uux885Lze3cd7GVSN+ITRSvxb79VETaq/LFxFpc05lnm7bXvs71556aqU0PfhvBhs/03l/81HT/56Om9+c/kTCQAXD6O24ys/7szzOOZH8cglHmttdeIL//GWhOzvYdzPYzvqjgx0oKAJnVasMWwhWwE6Aw0KggBJloSvvsOM86icTXIQzcftra9c+WltnYq0MhAGx53vKFw8nUVXDW824M+ovHFlF/ZRKoX7rctF1yqTvw180/JfMrfS6BQLq72/T88L8gDDxi+rBUMMa/agn5RvXSEYPAh2AQmF/5duiL/2wOf+2WqFYx0HJ7s/0uSAAOlp6qmaolAHh1llbAIxHsO54qhCq2foxcv7D6qQ2PYvAu+UGrmgDA7XvH2xovM5bDBcTzUZCqlSXYZipDblhjm/JHLzbTrr7OtLzsFSAlVGWgPJrl4M5n3T3tXQ98s6Z3Fkx50bkwCLx9lEvmB+7G2Paa88zw4dr1+29joD+KAf8w1vYHKrC2n8l/os/VFgAyy9YKrcByLBGsgFagWQGJMtGU9Bkj/5MYBT7fk2q56wVPPDFUbGYVH0k2PX/lqXY6cT1+O3LWM0mr0Xq//cqrTPtbrjF18+ZPcra+DpoAnRQdffjbpvPrt7p+CYLOPwr5zf/MP5vWiy7OKio1JXv/zweyjsf9AKdcvdis7wbigdMe/h229Dv4AajS6kNeFFwRmFvvBSRSmOK8oPx+4ZidcH73yX3tc28rJgZBRQSADR0drVaT8xbbSdyA7Xsv8lvHWjuf6tepl15mZrzrvSY1a3atVT909eVs9+h3HjSHv/wFM3yo7Ia5oao/bUuWPvxd+IY46eGRBdx5/VtN/5MV3bFUVS50x0u3vEewfW8wjKN+Bp0wCgAZxTNToAlYjh0EHQhI1ByzrciZ9azkZ/gd3oq9GB9e/fuN9/u5b1kFgPVnrz7Xsp0bsFRxJfTWY3sQP6WsoXM525r1539l6hCrXSlcBGg0yFj3nd+4Fa6Mi9a6hatSBZRm+ttuNLPe95ejZ9LXwo4rGGoj3ikKs/1cLRB2AcArMwcfhSn2aAT1bv9XOln/3jW/W7elkBwDFwDWrVnTkkilr8ag/25kfmYhhdA5xp3pz/7QR0zrqy4UjpATGNiy2ez/2EcQ+e73IS9pMMWjw6jF//6gaVi5ys1w/8f/1nR9675gMg9hLvDIC0c9dNhjG36OWoqKAJDJtQlagRXQCqxEQKJW2QpkovH9GY8stxC+79QnN0xqoRuYAMC1fezbv9m2reushGnzXeoavoDq/tkf/JtQu+Ct4ebJXXXEL+i86xvm0Of/0TjpIDy4575NWI42nfNHZtHX7jB2b4/ZeuHLY+f3n4b7vVg459p+N/X9EU5PwAYgqjWQViDQB+/2hqMDN08UibBkAWDzmSvOTpvk+/EDugrG6dwBolQgAc6sZr73fWb62/+kwCt0WtgI9P/ut2bPB/53TVjDz//0/3PreeCzfx+2Zii6PFGf7eeqeJQFgMz61GP30xLsIDgVtgLttejJNBNGkZ9hc/fonmnzL8tnIFi0ALD+rNXnYcPrR5DBK4ssW01floCXtVM+9yUz5YUvrmkOcag83QvvevcNsfeHT4NUPrdR9/vP2fExGvRhtt8TQ+VNXASAzL7BC0i0HI6GktoGnYmmkM+3rn5yY05/3b4FgA1ndHRgx/7HcdfLC7mzzskmQCv/Uz7/ZdP8kv+V/aWORJLA8P59Zufbr1asgRC33iDUlEcw8NOaP+Ja/gkprz3aZeiRMI6pHvsJl3AHAfwKTFeY4oKb2HKcCzqe2pTls7tgAYCR+IaG6z6NWf+NctFbMPfsE6HWOuWf/9W0vOL87O90JNIE6ECI2+PSRzojXY84FT7us/1cbRVnASCzvp5WYBm0AilpBTLR5Pr8U2gBXj7+i4IEgGfOOvXChGPfiosXjs9Af/sjMO2at5nZf/khfxfp7MgQYGAcBshRqi6BAYz8XbDi54w/rrPhfIRrRQDw6l8HrcBSVyvQAK2Awsd4XDLf8XOwU43paSt/vaU78/iERnvO5Sb51lTHP2FL3xchKUzNvFCf/ROoO2WBmf/ZzxkuASjFk0D9kmVmcNtWM7i1oG248YRQpVrR+x3X9vcN2WYfvPX04QA1ALWW9g0cr6l60wvz4aFhs6lvwOw6PmRo1jE1lZCtQMaDj/HbOtrv3P3Vg50HMw6bvOLSb885Z8rGzd33Yr3/0oLUBJm56nNOAjPf/aeuEVXOL3UwNgQYRe8YAgsZbBVUKj8B+uFnEJ4jMOln51/rycE+bOPU5rNHQeDw0WHzxNHe0TDF8xGmuNYTt7nuHrKyQOBJyU5w5lPfMtzzPeMkLs3+VkeKIZBobTMtF7y6mEt1TcQI1C1Y6AZvilixI1VcqvXplncrYu5uweuQBv/R9tOEzbiC4I7+QfP4kWNmYx/84tR4OgYhuS+d7h2PIacGIJka/jxOfNn4k/V38QRaL3y1YXAfpdogMPV1l5q+X/+iNipbwVp6YXePYvCvzTnu5LBrcdljPBUZCI4lsn8gt24sSwA4sb//XWMv11+lEmhcc3qpWej6CBFofJ7aO6jm4my/G3v2O7G+j8m+kgjkJKAtgjmxuG6t6do610aJLAEAAS7/Siqk3CBLOZqaMaOUy3VtxAgkZ8yKWInDWVwO/jTqYwemmW1hbVRr/bc325eToOzng5Ert/cPZ39x4sgYAYCBfCx7+CIY/ikFTMDBDEaphgik8//oaohCyVVNoi86pT5h5sJ8ydUCIAjjcVo0KdU0AbkJnrz5sUpmtmDwh+ycN40RAOwGa2ESjv3znq0viiZAT3FKtUNA7R1sW1MQmIatXdPQY8kOIFi2UcmN81KGD6bjn8WNdP4TlZJXvpwc9Df2DZt+7pE8kTAlySI2ZhfA3t7+6d7Jeg+WQP/aJ4LNULmFmkDf2t+FunxRLlwjHL/Mr7fMqqak+940pheLcs0CKvvJPj+gDKubDUMFn97SZC6bM81cOKPNLIfTHw3++duEAvKG3rGDP8+G7Jz1ZIzRABwaSB+eU580DfiBKQVLgB7i6CI2OU0yVrBkw5nb0Ye/Hc6CxahU0grEqDHHVcWb7a+Ez/9FjXUmkcuCbdw1+hNbY7Eddsfx4YK9X44RAAhw34BtFkOyVgqWgDM0ZLoffdhMu/btwWas3EJH4Pi6P5iBDc+ErlxxLtCIVsCYuZjAdMNykNsE4xjpL85tyLpNwWyfM/xVzY2mBZ+VCiNAC7M92OrH8dtPyhIADsHidm4DtQB+stG5hRA4dMuXTOurX2tSs+cUcrrOiSIBeP878NlPRbHksSgzu612qAbak0l3y+BRGN/KQ2C4m5YK57n1dYaz/cWY7Vua7ftqsD6o/Lf3pces9xeaQZYAwEWCrbAcXD0lBbVLodnovEII2D3HzP5P/J055Qv/VsjpOieCBDrvuM30/17r/2FoukZIA42IvjkLOwh6YBV1BMJALWgFELgtEi6RW1NJzPbrzQoM/M2a7fv+yXCuvw+z/r2Y9Wct7heYW5YAwOv6oELb0Z82S6cks80GC8xYp+Um0POTx03nbV8x099xU+4TdDSyBOj579CXvhDZ8se14NQKtMFqrA0DTi1HCQxD+3JxeSEGfc72adGvOWZxrUK/GDuPpw3jYJSScgoAzLCTmwj7jISAUujmufbgF/7JWPX1hqGBleJB4PgfnjS73/9e4wwOxqNCMa1FA0acOXUJMxtaAUYOrBWtQLWbk8LXCmzf48BPew2l4gjQsc8eGPkx9kUQKa8AwMwpBKT7HLOcywFB3E15jBI48E+fwa5My0y7+vrRY/oQTQJ9//Mrs/sv/szYfZCYlSJBgEOQpxUYxCzqCLSeXRAI8L9SQAQ02w8IJLJxPWJC3b8fNnolTvrHFGpCAYBnUtXwTM+wWdaUgoXmmGv1RykEThiLHX/6D2bO331CgYJKYVnFa7u+dZ858KmPGWdYnv+q2Awl3Zo+5OfgNRu9YS8Un9QKHEOPG1WHg9WWYdrrkhgvYMmPGX8DbDCUiifAtjw8aJvdGPwDmvSPKcykAgDPHnEsMGQWNCbNbLjlVAqOQPd3HzWDz+4w8z75D6Z+6fLgMlZOZSWQ7uoy+z/9cXPse/9R1vso88oRoPF5CyY53H7GzpaTHwYgGoqqJFA5dK5jngWNI2v787G2r1QaAT5y1MDvgYFfqev8Xklsy8qSDQsSAJgBLQ5pdHAEKgj6CdA6joe19Pfjzzxtdlz+BtdHwMx3/6lrH1B6rsqhXASO/eB7Zv+nPm7SnYfLdQvlW2UCdRAGZuKfGXj1IpIqtQLdWh/IahUvEM9SzPbrtH0vi4/fAxyhuzDG7sbAz4l3uVPBAoBXEKrGuCRAXwFz4SxA+gCPTGnvVCF33v5V0/Pfj5nZ7/9L0/yy80rLUFcHTmBg8yZz8HOfNb0//2ngeSvDcBKgrYCnFRjGxJZ2AkcwM6MxVliTa2NXxvLV4QZLXRV/IwQkrQsH8RywuTox8HNLXyUGfq/MvgUAXkhtAL0OscALsdl2KoJ0KAVDYHDbFrPrT99lms4408x8z/vMlBedG0zGyqVoAkN7dpvOW28xXQ9+Cw8/poNKNUmA/udHtALJUa0AdxKUcawNFWdvts9gPCnN9gNpGz47h7DGvw+voFT9fgpWlADg3YCSymZ4IGpOQRCARqCFzrmVAiHQ/9ST5rl3vt1MecELsV3wetPy8vOMSUjaDgRugZnQpe+Re+501/mdtAb+ArHF/rSxWgHuHuASgWO4myBuiQaSSzDbXw3XvNOwlU8pGAKcRLsDPybS1dQmlSQAeCh6IQVvgAp7OjQB86ERkH2AR6b0977f/o/hKzVrtml/0xWm/S3XmGR7e+kZK4ecBBizgYGbuh64z9Cxj5IITESAM+GZWBqgZoATok4IA3Q/HHVZ4ORsv1GR9yZ6AHx+Nwzrvn3wRnVoKB2KLadjpuz3LFmy2rYS633WaczpzLAdjjZOgX2ABIExaAL5gw6Ems99qWm98DWm5YJXa/tgIFSx0+WZdab7Px52Z/vDh2XcFxDWmsyGe7a7IQR0DuG5qsIOgiePHi1q50ITtuyNOOtpMHTTqxQcAar3D0DNfxDL5tUSDp2EtfLarVu3ZNYqcAHAy5xLRNOgEZiH6FwKLuhRCfY90dJqWl91oWl51UVmygtfLGHAD16s5XOZpefxH7uD/tC+vX6u1rkiUBCBUa0ADAep9q1E8iMAcACgS16F3S1Py/RCGuT6fhfavwqy4JhK5RIAAlkCGHOXE3+4+xgh7dBQkLYB86ARkLFgLlLFH2NwIcad58tqaDBTzvkjd/dA8/96ualfuKj4jGN6ZfpIp+n9xc9M78/+231PY6akJALlJEAt6Px6uh9mmGJEJsRyaX+lJIEJKqawuxPAKfErWoLQOHQ/Bn6GpQ5zKpsAkFnpHkhBNBZsSthmDhwJTcdL+wYyCZX+2RkYGBncMMCZfzAmNXOWaVzzPNN01vNN09nnmMbnnWGsVEWau/TKBJTD8KGDpn/tE250Pr4f34DVLXhgVBKBShOgfTQ1otPwE6yGVoD1zZztK+xu8E8Aexb6yeGMv5/rQBFIFR0R+rH4sQPOhHZhryM9Cs6GrYB2EJbnKeHgR58CfDFxuaDxtDWmYdVq09ix2jR0nGrqly2Ph1AAddPQ7l3uAD+wcb0Z2LTBXdMfPnigPHCVqwiUQMDTCszF8mg3BgrOEoMMU2xx/TVD38xQu3TN24Hte81a2y+h5XJfSk+RB2HKf2AwHIZ9uUuZ+2hFBQCvCLSEpB+BvXjR09Yc106A8qlSuQhwuYBBa/jyklVXByFghalftMjULVzsLhvULRp5T82e450Wmneq7Ieee9YMPrfTDO3EO178e2DrVmP39oSmnCqICBRCgFrQdqgG2pNJaAVGdg8cgQ/iIDacJiAE0CXvcgz8i+CiFysRSgET6IPwdoDL3JjxR1WvWBUBwGsHKkkY1vDw0DCsTikIyE7AY1OJd255c2fMmDWPTxQOkjNmmjoIAu77nJH35PQZJtna6moUqFVItra4n62GRpOAHQJtESZL3FNv9/YaMzxk0j09hsKJfazbpLvxjs/p7m4zfGC/GT58yH1PQ5vBv+3jxyfLWt+LQCQJYPc0dk1BK5qCRsB1PewYDjB+E8Mdn9Xa5O7db9Ko7xffpOezRaKyvj9pZXBCVQUAr4CESj/b3cNpRBxMuxqB6VgekNDqEar8O4WDYVjG81VUgtOiZEvz6KU2bBRop6AkAiKQnwDV9+3oldsxIcJ2cdd6fLIwxdQktOD8aVD1022xMdrCl59wcd+cXN/H7qEgVDTFFSPwq0IhAGTWCraCZjsI74atwGwsDcyqt0ySa1pK0SKAbXacySuJQDEE6O+CO1m4RFW3YKFpWI6lKnw+/NUvm57HflhMlpG7hrP5OZgIzYajIc46GZAo01aAWoOpGPSnYfCXE9byNO+Qu38fa/whcdwTdC1DJwB4FaR7xF2wEdiNSSPtBCgMTNFT7uHRuwjEggA9XLp2KAsWmPrlKzHQLzd1pyzEawHM1scK/vTQWCuDf2bjkkIbBvk2GPANwn6qG94GOdOXo7VMSsF+jsP6fiFEQisAeIXn8gDtBA7BTmAK1rTmwJ+Algc8OnoXgfAToK2Ia2jKgT1jNl+/dJlJNDUVVAH6cNj/8b8t6Nw4n1QPoYiuh5XKQ4BL0VHYvx9U7UMvAGRWtA/qGG95YBYMBmdCKwDlgJIIiEAICPiZzfst7v5PfhRGoXLR7Jebzp+cAF3zHoY1Pwd++miIa6qzrKzKRUoA8BqGywO74UtgD16MO8DdA4pE6NHRuwiUj0De2Tx8SiQaG8ty4+5HHjLHfvj9suStTGuXANf3D0K7HMX9+0G1WiQFAK/yFGfoeYkvLg/QuZC8DHp09C4CxRMo52zeT6m4/fPAZ//ezyU6VwQmJEBN8gHYlx3G4J81JZ7wyvh9GWkBILM52Kiel8GZ2DlAo0G8KYmACOQhkGhtg6U9De5OWNnD0p6f6SGyXLP5PEXJfRgGb/s+9hHtJslNR0d9EOBA34WJ4j68GL5eaYRAbAQAr0G9eMv7TywPzMISAS1olUSgFglY8DKXmjd/ZGAvwNI+TIy67r8XgZt+EqYiqSwRI8Dx4BDd9GIbH5b4lcYRiJ0A4NVvzPIAtg8y7sB0WAzSRaaSCMSNQL7ZPLfV0Utj1BJjOxz83D9Grdgqb0gI1Mo2vlJxx1YAyATDh2EH3M/ucn0KjBgN1stNZiYifY4AgczZfMOKEcc49ZjVu/vmsb0uNgkRG/f+7YeN3dcXmyqpIuUngMm+G3KZ1vzczqc0OYGaEAA8DHwm+HDwxdCcc2Ak0KJwhB4evYeEQLKtzd0vP35tPqqzeb9YO++4zfQ/8Ru/l+n8GiXAfp2e+g6iX8f/Sj4I1JQAkMnlCEJwHoFHrcaEDccaCbkczoSjz2UnkG82T294qZmzyn7/sN5gcPtWc+jL/xLW4qlcISIwquaHNb/N6b+SbwI1KwB4pOj4gS6H92J5YBq2EdKngKJoeXT0XiqB/LP5FQVFTiz1/lG6nlEi9/7NhxQ0KkqNVuGycpjvxuRNav5gwNe8AOBhZICnQ9Af8SWXwx4VvRdCwEqlTGruvJHtdBlr87U+my+EXeY5h2/5V3N83R8yD+mzCLgEGBmZ3vr2uWp+zfaDeiwkAOQg6bkc3nXcNjPoUwBLBDIazAGqxg55s3k3aA32ytOvvbdObzU01BiNYKt7fP0zpvO2rwSbqXKLPIEBOu3BoE+PfVLzB9+cEgAmYDpERyQIyk11UxvCbnJ5QD4FJgAWg6/yz+ZXYW1+ZgxqGL4qOIODZt9HPmicYRjlKNU8Ac7vGf6Y/e5RqPuVykdAAkABbGlfwgeRL4bglNFgAdBCfkqu2TxjztctXmpooKdUOQIH/+WfzcCWzZW7oe4USgJchj2CQX8/LPr7+YdS2QlIAPCJWEaDPoFV+fT6JUtNw4qVpn7xElO/ZJlhCFp+puMcpeoT4Ha/I3d/o/oFUQmqRgBKVmzh4zY+x6RlzV/RdpAAUCRuGQ0WCa7Cl9nHuk3dwsVm6pvfYurgElcpPATs/n6z76N/bQwc/yjVHoEeWPZRzd8FzarG/eq0f6I6t43XXT2jwaeODbtbCgdhuKIUDgKMId95+1fNtksuMM+98x2m5yePG/U24Wibg//4KTP43M5wFEalqAgBinq05l/XM2w29A67kVw1+FcEfc6bSAOQE0txB2U0WBy3ilyFWWbfr3/hvuoXLjJT//hyM/Wyy02yvb0it9dNxhLo/dUvTNe37x97UH/FlsAQJkW05D8AVb+89Fa+mTEldXqTyQPj7zwmMs49S5astq3E+vEn6e/iCchosHh25b7Sqq83La94pZl2zfWm6cyzy3075X+CAJdltl/+BjO8b6+YxJwAtaMH4GjtEAZ/pSoSsJ1d1zy7feH4EkgDMJ5IwH/LaDBgoAFmx+1nx37wPffVeNoaM/VNV5q2Sy41icboRc8LEEvZs9r/9x/T4F92ytW7AdX8R6Hm5/o+1/mVQkAgad2TqxTSAOSiUuZj8jRYZsAlZM/dAVMvfaOZ9tZrXUc/JWSlS3MQ6Hnsh2b3+9+b4xsdijoBLoEehiX/fgz+VPkrhYOA4ziDTsJaed22bVkGNxIAqthGdZYlT4NV5D/hrRMJM+WPXmza33yFaXnlhfINMCGswr5MH+k029/0epPuPFzYBTorEgQ8Nf9hqPk17IevySzjfODq7dv/MVfJtASQi0qFjslosEKgi7lNhtFgavYc0w6jwfYrrzLJadOLyU3XgMD+T/ydBv+YPAkc6Luk5o9Ca35/8/bt/5SvoNIA5CNTpeMyGqwS+AJu6xkNUisw5UUvKeAKneIROPqdB82+v/2w96feI0qAtnyHsbZPa35o+5VCTcD6lUlar75my5bufMUcIwDcuXRph2WsDflO1vHKEaAzWoUnrhxvv3dqPPU017lQ22tfbxJNTX4vr6nzhw/sNzveDNV/d95+qKZ4RLGyffB8dgAuejsx69fyfgRa0DG/QeiaC6/Ytu3oRKUdIwDcs3TpHNtY+ya6QN9VnoCMBivPvNA7JppbTNtrXmvar7rOMJaA0jgCMAzb9d6bTO/PfzruC/0ZdgKc4HfDSx+t+bu1eT/szXWyfJZ5sL6p6bor1q3rOXkw96cxAgBPgRZgK7QAy3KfrqPVJFCHQESz6vhKGH5WCheBprPPMdOuulZGgxnNcuTf7zYHPv3xjCP6GHYC9MdPv/wHMNuXV9Owt9bJ8kFgcyzHfPTqHds+jtGhoAWarFEEAsB7IQD8y8ls9SlsBLB5QOGJw9YoGeVJzZxl2l6PrYQwGkzNnZfxTW19HNr1nNlxxRuM3ddXWxWPaG3ps+QgZvv02GfLP2/UWnGv41jvuHbH1u/5KXiWAHD7kiWNdSPeAJf4yUjnVoeAjAarw72Qu1p1dablvFe5WwmnvPBcYyi51UrCLoqdN15n+n/321qpcSTryWniMaj3qeZnuHOlKBKw7ksP1t18/e4NvvfX5uyR7ly84vkmYf8MX8q6KSLPg4wGw91QDEs89Q1/7HobTLbFPxRx521fMQe/kHf3UbgbqwZKRwd9DMrDgX9AVn2RbHEoafabhHn/tdu23VtsBXIKAMzsriXLr8SCwt04gWOLUoQIyGgwvI2VaG6G0eAl8ClwtWlY1RHegpZQssFtW8yOt77JOAMDJeSiS8tBgIP9Aan5y4G2YnlCdktjXP63Icf+m7fv2NFVyo3zCgDM9O4lK95gW/a9OEmagFIoV+laeRqsEvgCb8v4A9Owe6AVAoGViodPLiedNjuvvdIcf+bpAinotHITkJq/3IQrlz98LT6RMOZmePb7nyDuOqEAwBvcuWTFeY5lfws3lQu0IIhXIQ8ZDVYBuo9bpmbMMG2X/rFpv+Ktpm7efB9Xhu/UQ1/8nDn8tX8LX8FqsETYum+OYLZP3/z9CsoT9Sdgu2OZv75m27Z/x6BNmS6QNKkAwLvcu3z5wnTaudtY5mWB3FWZVI1AExZ0ZtUlzQxsJUwW1PpVK2rt3fhE/IFpV19nWl72isgZDR5f/wxm/1cYZ3i49touRDWmNT/V/PTYRyFAKboEYJbZmXTMZwaN/Xmo+48HXZOCh4DHzjsvtfvZZ//OMdaHcZHsAoJuiQrn5xkNzoYgMEWSQIXpT367+kWLzdTL3ozX5SbZ3j75BVU+g+v9z171JjOwdUuVS1K7t6ezHlnzx6P9HdvpsSzrX4aM/ZlS1/knIlKwAOBlAj8BZ8JPwC34+0XeMb1Hm4CMBsPbflZDg2m96GIzHVqBhtWnhbagBz77KXPk7m+EtnxxLdhJNX8aav641rJ26uUO/AlzGwLFfQoDf9m98voWANgUHzUmsXLp8hsdx/4s9jbHf09TjTx/KRgLzKy3DLUC9fI0GLpWp9Hg1DddadouudQkGhtDU77+tU+YnTdcawz2/itVhsAAVoEPIiAPPfbRc59StAlYjjOYTCa+nhgY+PAVu3Z1Vqo2RQkAXuHuXLx4npNI/V/EG34HMtKygAcm4u98KFpTlpmDaBJTUzD/VAoVgURrm5l6KTwNYgdB3SkLqlo2u7/f9fY39NzOqpajVm7eA2M+qvm74LRH4370Wx3drJldn3T7Wncl1nKecEziK1a/c+/qjRuPlbuGJQkAXuHuWbJktW0lPwbjxMu9Y3qPB4EGN/5AwsyCZiDJ7QRK4SFwwmiQ4YlbX3Uh9HKVl8H3fewj5ui37w8PkxiWhHqVI7Dk3zcAa3457YlFC1PDygkWY7skcvarsAEw5gFU9taOJzf9rFyVDrRHhyDwirSVpEYAJsxKcSJAPcAMPLCz8WrS8kDomjY1e45p/+PL4WDoKpOcVpkdu72//LnZdfONkPulgi7HA4Hx3lXzH8Lgr2B85SBc+TzZd85tSJjpWGYtfPB1NjlW4l47mbxtzRPrAlW1FV4GH6zuWbbsfw2nzQcxQXmdj8t0akQI0GiQggAfYskC4Wo0q77etLzilSPxB170krIVzj7Wbba/+VIzvL/sdkplq0NYM/bU/Jz1K8WDQAv0+/Mw8JeypAox204Y5z+thPn8qrWbfhgEmbIIAF7BqBHAesZfw4EB9JNKcSMA7dWIVkBGg6Fs2sZTTzNT3/wW0/ba15tEU7DOPPd86C/Mse/9RyjrHcVCUYfShQGf6/sUAJSiT4CDazs6ybnwu9LMxf4AE7bj/zrh2J9b1bHpfuv+4t09BFuqPBW8Z+nSM7BD5T3wbHItbhhsT5TnnjpcOQJ8iGQ0WDnefu+UaGk1ba++2LTDaLBh+Qq/l2ed3/PjH5jdf/6nWcd1wD+BYSyfHIIl/4GhtMHYrxQDAlwunQ4N6Vy8GK21nAmi4nbsxPv06pUbbi1GEChv6U7UfDtCDA+0N7zpeNq5GRGozkXMaUtrWuV8LKqXt2c0OBNaAW0gqF475Ltz09nnYPfAtabllRcaK+nfaDDdedhV/fNdqXgCfZgRcdDvxKivcb94jmG6krFXaCw9GzP+Svd9jm09g8iAHzz1yQ2P+mFSVgFg49mrzsTTfSOklKsx+5/mFYwPfOcQt7MMy3mFByVm764UDPXX7PoUPA3GrHIxqE5q1mzT9ro3mGlvudqk5swtuEac+VMDoOSfABX73di+RzU/vfYpxYMAPanSdwpn/ez3qpweSqdS/7tQY8HABQDO9gfb6q+AieO7sU7x4olg8CdwTO4rJ0IUi+9kNBjeZrTq6kzLea8aMRp84bkTxh84+tC3zL6P/nV4KxPSknFJH5pPsw8D/6C28YW0lfwViwNneJc9nV7LMTd3PLXpjslqFZgAsOn0Vctsy3oXnvW3QxMyc7Ibj/++74SDi078UCQbj6cTj79pB8MgRNz/Kk+D4WvT+iVLzdQ3ICrhm680dDaUmWjtT6t/Wv8rFUZg4ERQnoPQdtraKlkYtJCfxQGTu5+4vt8U9hgqjvlSOp16/5p16wbzYS1ZAFh/+urTrYTzAewFz+OLwQAAQABJREFUfiuMEVL5blTocfhAxt5Xqsnk4rJQZlE7jw8dpedZ+CG1Y7EMAqNSiAgkmptN22sugU+Bq03Dqg53n/+u9/yJ6f1F2fyRhKj2pReFVvx7sYn/KNT9SvEgQDfps6u0vl8KQcigD++fPu/N5z/+eM4QnUV3vZvOWPkix7L+xjbWJcik6HzyVY4/nUMQBBjWkuEtleJJoAFPziy4wpTRYDjbd8oLXmioGeh64JvhLGBISsX+ivv2OfCrvwpJowRQDNovzUH/5M9xTwA3DjILaAJWP7URu/Cyk++Be905axYlh4c/gSH5mnIM/NlFpOEMtAL4ccn/dS468TjGB7H9xPIAnWYoiUAUCAxhckIV/wEE5pFdXxRarLAytkFDGadYKPDO+7JcLoUL7mmfPOOM5kbr+P/FwI8NwFZ9YRiDPUsRsILlGdbcThoN5vOTHdaSq1y1QqCP6/sDaXMIg79SPAhwMBxZ309ifT8edRqtheM8tvqpTa8c/fvEh4IEgA1ndbwUKq5vJByzfHwG1fib6rbDrp2A1G3V4F+pe3pGg3Q7TP8CSiJQTQIc6umtbx9evZruV7MpAr13HV2bY8vyrCrs3w+0IhNkBtO6tJ1OtcMgsCfztAmN9vDAWxvP6Pi4Y5sPgVFoZCLutZyFQYEv+c3ObM54fWYfyz3TtANpg7EgBQGq5iQKxKudw14bPoc0TOZzSCNlpXgQGNU0ol8Jwf79skKFDWNywAwswk2eybxRXgFg84oVDRubk9/AyVeGucPlenEL9DVDCLRAOwH+SCWcZzZx9D+zy6VFNV+jRoP40VJDoCQC5SLAJUeq+bWNr1yEK58vdxy1JUe2InMyUSuJfehzA6ZhfH1zCgCPnXdeyj6y5xGcHJkgPlTjzG9IItRi0vUySKMc+hZQihcBdsq70CnvxktGg/Fq27DUxtMqyug4LC1Sejk41s/EpGE2LPqxm6/mUi8mTz22PUb9Twg5BYC5R/Z9Bl78IjP4Z7YmVTkzsZ4zsy5laKizH9ty5Fwok1A8PlO047YrvkZVeWj3BEV8JRHwSYCa/e60bfZAwuzFu1I8CIy66a3xvmEv/OrkSlkCwPqzVr/Ecpz35zo5asc4MCzF8sCCxgSMBhVxK2rtV2h5KejtOJ6mistM41ZCvELvpavQyum8shKQm96y4q1K5pwC0GaI2/hqSc2fDza30TMGRS7jqSwBwDLpD5qYmUQwStNcLB7PgZ2AYm7ne0yif5ydOZ1HcYeI52mQAoGSCIwnQDe9tBni8yKbofF0ovk33YfQ1Tjd9MrV+EgbMtz0dkyOOP/PpRsdIwBwr79jD1wSVy0qAXBA4ItqProbpgo5t3Ikmj8ClRqeawFhROpNmwYsAdHlsDwN6skgAW7fY1CeLvz+ZdAfj2eCe/YZgndGjav5x7cmBdvNiDtNZ1X50hgBoLHOWegMh2e7X75CB3G8GZagy5qMGWpMujPGAxAEFKkrCLLhyoMzvUyjwbmwAGLbK9UOgRGBcMRNLw38lKJPgJO58Ebjqz7fNKRbDv69Gc87ggFkKQHGCADP9gzOWNRY/cJXsgQQGrE8gPUivBSauJLkK3svdvsjRoMGRoO2296R9u9dWXyRvBtN+Tox2+eMX/75I9mEWYWmM5ppUPHLzicLzegBKD3NFgz+/eNm/hjss6TfMQLAoYGBw3PqG+B1bTSvmvlA0YgGI22ppBmwR3wKaH0wns1Po8Ht/Wmz67htZjDCV41uDYpn60Krh9nPQSzv0YkUZ0JK0Sfg+f+Yhd9rMq5r1AE001Ho/behbyv0uR8jAPD++7F/fhHU4rWc6HZ2AfwJ0K9ApxvoYxg+BWqZSDzrzoFiH7Z9cauou3tAywORbmj6/eBsX3Y9kW7GMYWnozda8yts+BgsWX9QzN0L3yiMRulH5M0SADjrlRXlCN+TPgXqXJ8C9DJInwLjNCtZjaED0SLAHwzbtXMIywNJGwZFCQQFkU+BqLQi1/XZ8dFTpFL0CbDfpUDOpdkmTMaUJiZAVT81msU4vssSAPgT2tpvm47mZMw2A04McbJv6VNgCTQj1AwcxmBB9aKMBiejFr3v+SPakcbyAHwKcEsRZx/aUhS+dqTQxr3NctwTvrYptkT05joLgjct+rGNX2kSAvwNUGO/G0uZfmb9mdlmCQD8klvknj1uzNIaXwrIBOV9pktJDgoMTEOjQe4llstQj0583rmFJjMQkZyKhKNt2dFRW0NVf3+GhXM4SqdSFEPA9eSJiRU9uCoVRoBjz7PY31+qcWtOAYBFoDMVihX0pKeUTUBGg9lM4niEA44XiKgRMxQKfvQprglKZVubmkkuT+7DOmcer6aVLZDuVhIB9p+K5eEfIff0Mw7KIdimBZHyCgDMnKpu+hBa1piCj/UgbhfPPDKNBo9ydoKX4oXHr60pbe+E1M0foGs0iCUCuRwubztz4D+A9f29GPwLtWwub4mUeykE6JWVlvzceVNDwfhKQeZea9NgGZIvBWD+JoJKEwoAvEkXJI319jCc5iRlkDEJdc94hYMDt5rJaHASYBH9mppnzkapJXN9jsNYqY1+SJUCI8AlGP5+tJUvMKRVzchT89Nbn34p/pqCfc1uvCby6Ocvx5NnTyoA8FSuta3v5fbAEZeqJy/Xp3wEZDSYj0x8jmcuD4xGHdPyQEkNzN22BzXjL4lhWC6Wmr+0ljgCI1ca+JW6zu+VwrasrHWDggQAZkAVxA5sNeAe28UwDpRltId14ncZDU7MJy7fersHKKnPhopzFhxKyZK58Nalep+z/ZEZf+HX6czwEaAt3wwIwnKwVVzb0OaIAz+1yOVOBQsAXkHoaehpaAPmo4FpGS2nTB6Zid8pDcvT4MSM4vCta6Rz3DF7sFJHdeec+hTsBOJQs/LUQTP+8nCtRq5T8JxzCx9dbMtmzF8LcKjntlbaF1XS6ZxvAYDVojaAAVY6UWDui1fMZX+NLaNBf7yieDZ/0LTUPTQ05P4+KCxPlUpgtCk18I+iiPSHkYnNyGRQ40BxTUljezqyCkrV76cURQkA3g2o9tzUN+x2cBQEuA6qVDgBGQ0WzirKZ3qhiV0vg7B+rmVDKGj5zYGhNHz106o/yq1a22VnV09HWfIaW9xzQEt+LqdXa+D3Sl2SAOBlwg5ufXrYzMAMZx4sojnDVfJHQEaD/nhF8WzXTqB/GGo+Lg3Q61miZgKbwHwI6/tpd2uxxv0oPr0jZaYvjFnQZtFjX0Lrv74bcsTWhTvE0oY7XaqdAhEAWAmsCkDdia1ReHGGMw8aAQkC/ptXRoP+mUXtCtoJ7KKdAAx96FQorrMo9m+cHBxEZ9cVht4uag9KSMrL6VwrOiYtYxXfICcjVDJSX/H5BH1lYAKAVzDWjWufh4eG4doRnRt2DDCUo5I/AkQmo0F/zKJ2tuvkBqpw7nen4RRnVq0xWEbjWM+9yxz4EWxRKaIEaLs67YSAypm/kn8CDNSzH/ZyhzEmhvGnELgA4CFiZeknn1oB11kKHiQZiXh0/L2PGg2CYSd6Vw4YVCcrxYfASDRC290xMOuEJXWUPKVRA3gMMUQo/Cscb7SfS7m8Lr39ohKhsmwCgIeQw5TnS51GglQj0XhEyT8BrrkxYAY1K/I06J9fFK7gWvlONxqhbdrxe5kBWwEK0GGdf/VCEB0RXhxDNadSdAlwgiY1f/Htx6ffDVQFi37O/KOQyi4AZELgrJVxi3cBEA2gaAiVlCFJJqKCP483GqRWYCAiD13BlazhE7nVltqezmGD34iN2AOWmQZBgEsE1dTGctmiB9t/uaZPwR4/ZaUIE/DU/HOgdZK/iuIa0lvy4u4WdMORShUVADwyNILag3WR/Yi5TiMoSp3yLOjR8fcuo0F/vKJ4Ni2HDyEQCNfVOfhTCJiKhm+FQNAIAbqcMjTnMZzl80UVfzcEEgonStEmQLusWdiSysA8moQV15accHHidRDLXlH9TVRFAPBw0xlIZsx1biFsQeem5J8Aqclo0D+3qF1BJQ+9cfKFodhwBjcFwkALJANGJqS9CEJ2FNWpM8vjGOSxOcFVYVJj14vPUe3cota2lSgv+1dOuNq5rKSutijkUVnfL6RyVRUAvAKyKxu1E0AHNgeCgOwEPDr+30eNBrEVU+GJ/fOL0hUUoo9h5D42zsaYmqEUenisHJjkCYFgTH+PHx0H/CFcN4yBHpOYQMOMRolh3MvqORybi361iSokJd8EOEZ1waB9H2b81IbFJYVCAMiESeM22gnsQdz1ORjAKAhIKZBJqPDP3g9f4YkLZxaXMzm4D0NVf5wVopQwTkDgEaV4E8B4D1srqflLaWX+jui1kqr+OBq5hk4A8BqL+4d3QgjYjZf2onpUin/PNBrk9kw+1IPUJyuJgAjEikAbZkyMxDcV6h/N94tr2jis7xdS89AKAF7hOXmh8RNfWr/yqBT/TtXwPKwB0vscVccUBrpgzS27ruKZ6koRqDYBDvR0JiU1f2ktwfV92qXVSp8YegEgsznZOD1YHmhIpF3VFvfDw5ZFqQgC7DBGjQadpOu1jUIWVV5KIiAC0SBQhzV9+uVnGF71hcW1Gbu8OK7vj6dRZ1lZvXukBACvQtx7zHDE3Eo4HQ8/bQVk3OLR8f/OLUGM5jj/hNEgJWAKW0oiIALhJMAlvdn4vdIxmFJxBGj4ehh9HQPzYJdtTaZICgBeS9HnwkjM9eHR5QEavCkVRyC30WB097gWR0FXiUA4CXhqfm7jU+j14tuoD+vKdNpDr321bgYVaQEg8xHwlgfqTngZnI0fCde7lYojcNJoEFIyfiiUkuX1rTiWukoESiEwquaHYZ/6tOJIcoLfDVsnajcZoVJphEBsBACvQT0vg3uxPNBOoxh4umrmRmilogiww+GMgwIVnc8wwht/QPoJFYVTF4lAwQQ8o2dpNQtGlnUiVzI5geH+fe16ysJjYicAeFXkAMWoZEeG4CktYbvOhWglK6WAR8jfO7m1QxpoT6VcTcBBqNBkNOiPoc4WgckIuL8zTlzwatZ0fzJceb8/Dt0+tzpH2U1v3soF+EVsBYBMRp5zoV3wccroarSYxYRWqUgCdDCSaTTIrYRSqxUJU5eJAAjQlm+Gq2lD36RZSlHPBCd93NpMNT89yypNTqAmBAAPAz057YOHof1YzKY2gGrtZrkZ9PD4fpfRoG9kukAExhCgMd9s9EXsj+Sldwyagv+gmn/EuZnslAqGduLEmhIAPDiUFLkuxJe7nQaCALcTJhQdw0Pk+90zGlzYMLL0sh9s+7WV0DdHXRB/Apzgt2HTPm1r6ItDqTgC9NbHgV9LkcXx41U1KQBk4uLywA64G34OoYlpbDMHL0ZVUyqOANExxDPVmZ6nQdpiKIlArRNg5Ea5NS/9KeByozyYls6ROdS8AOBh5GSVkiQdQ7RCKp8FQUDWtx4d/+8jsxwLM5ykGYTDkkMwGmRADfx2lUSgpgjQ0dYsbOGjYKwJf3FNzylEJ/oPWvPTwE8pGAISAMZx5KNFCbN7OG3qsZVwJgwG5VNgHCSff6Lfc70Mzj3haVBGgz4B6vRIEvC28bVD3a/VxeKakL5HuOPoIFz1pRWwpDiIE1wlAWACOBA2XXfDnk8BagW0ZjcBsEm+GmM0CJXLASwNdMIfp60f9iTk9HVUCFDzpaA8pbeWF5RHy4els5woBwkAE9E58R21AiM+BWA0OGq1K6PBAtDlPYUclyST5qTRYBpGg3lP1xciEGoCCLQCNT8s+uWtr+h2opqf/ew+TPv7peYvmqOfCyUA+KGFc/swc92RltGgT2x5T/eMBrk+6hn3SOrPi0tfhIyAF5RnBnYRcfav5J8AvbfSYQ/djctGyD+/Uq6QAFAkPRkNFglugsu88MRD8DQ0sq/XNozYpSQCYSLA9fw2uBefh+eU6/xKxRHgDqwDsLM6jB+5fubFMSz1KgkAJRKU0WCJAHNczuAnDE08Dy/G6ZbRYA5IOlRxAhzrZ8AOaC60VfXy2lMUf/aX/E3vw6tX0/2iGAZ5kQSAAGnKaDBAmMiKcytuxeSLITwZiOgwOg0ZDQbLWblNTKARgz0HfXnrm5jTRN8Ow9D3ECz5GYaX/aRS5QkMowsdf1cJAOOJBPA3pVwZDQYAMiOLKfCisrgpaRYArmsopP3AGXT0sRwEtI2vdKq0mXJ3++D3qnG/dJ7F5uAYa8+1W7Z0j79eAsB4IgH/LaPBYIFmGg1qq1CwbJXbiNaJYcTpplfr+8U9EdzV25223aA8ChJWHMOgr0oY599z5SkBIBeVMhyT0WDwUNlBt0ArQKNBGhLRihhaRiUR8E1gdH0fdieKxucbn3sBl/Q7ub6P2f6gtvEVB7EMVzm2g9iI9hdzZS0BIBeVMh7j+CRPg8ECptHgXPhbnQNBQEaDwbKNe24NeHbo4GsWZvwUApT8ExhV80MIl32Of37lvsJKmI9eu/3Z7bnuIwEgF5UKHaMxzB5sg5GnwWCAZxoN0l84Yw8wvoPWHoPhG6dcvP37M7F/X8k/gZGJjNT8/slV+grn8frt2z+d764SAPKRqeBx/phkNBgscFpuL2pMmlOg0j3ErYQQBBREJFjGUcuN+/fpl1/r+8W3HJcyGUZdav7iGVbqSjTV7xuGht50hTF5fayOEQDSluVIHq5U8+S+T7bRYBLhiXOfq6OTE6Balx0+X56nwS6siCn8wOTs4nIGY1BMR/tzKx8FQyX/BAZOaNTosU9qfv/8qnDFk/Zg/QVX7N7WOdG9xwgA2Kt5lD6tlapPQEaDwbeB52lwwE66Eca4PCBfJMFzDkuOtA2ZBRU/hb+k+jXfzULN5DH8QPbjd3IUQrNSNAhgFv/dYdu+6u27N3RNVuKs0f7Opct24ODiyS7U95Un4BksKa54MOzZpTEa4X7YYSj4SDBMw5ALfUbMrk/Ba5/88xfTHp6anwM/Z/5K0SCAlsJ2f/OZhm3b/noitX9mbcZoAPgFhObPQz36T5kn6XM4CPDHuAuD1W68uFdZ4YlLaxeqhmkENrMu5c50aDR4RDOd0qBW8Wp3fR87QVplzl9UKwxgBKG3zYPYS5vWGllRDKt1Ebb6HUJ82puueXbrg37KkKUBuG/BgqbBZN0mSAIL/GSkc6tDQOGJg+XOyGSuTwG5LA0WbJlyYwdGF70MzKP1/eIgew61ZBtTHL9qX2Xb5tFUwrnxqu3b9/stS5YAwAzuWrLkxdAlPG5ZVoPfDHV+dQhw0kOf+XPqZDQYRAtQ8UmfAlSDsoNUCheBBNb0qb1RYJ7i2sVd/sKzTWt+7Y4pjmG1r0KvdAQe/j5w9fbttxZblpwCADO7a8ny6x3LuR0n5D2n2JvquvIRYGO1pkacm1AgUCqdgBu2FB0lvZxpSbR0nqXkgEcb6/sJMxuCLnb0KfkkMICR/yC0W1Lz+wQXotMx8DsJx/56XSr1wSu2bMkK8OOnqBMO7nctW3YVeryvG8uq85Opzg0HAfSTmCUl3Q6THadSaQQY0YwdJztQyANKFSTA8Luc7XPWz9m/kj8CUvP74xXis5/ED+A912zd+vMgyjjpL+nOJctfYxn7PggBrUHcUHlUngAbWUaDwXGnfZSCnQTHc6KcOPBzGx9d9WrCPxGp7O8oo7qRMzHt1y6XbD5ROsJofglj/23d9u1fL9TCv5D6TSoAMJN7lyxZkraS90Lz8OJCMtU54SUw4gIVsc2hP0XfqlQigT742NoPy2kuD8hSoESYGZdzy+tcGPbNxDKWHtMMMAV8ZCAehuCVmr8AWCE/Bdb9PXBi8a+DdXWfvGHjxmNBF7fg39Z9a9bUD/T2fxq/xvfhooKvC7rAyi8YAjIaDIajlwuXB7iNkC85F/Ko+H/XjN8/M+8KT83PWb9StAk4jjOAla5b6pPJT5S6zj8RCd8D+Z3Ll7/EGrZvwfTxeRNlrO+iQ4Ae8uhTQEaDpbcZ3aQepvc0qF1lXV04T0z2sZUvCec9mvEXTs24ga6k5vdDLNznckCegeWuefWJQWjBHoTq/7bVT274IY6XRarzLQAQ32PnnZfatWPneyChfBJ/NvOYUvQJjLhOHVlvha2VUgkEuBwgN6qTA9SMf3JGuc6gvwr65T+A5SdpnHIRitYxb1srBn7DfnhMcsxOJ2Hd7ljW7aetXf/smO9K/GPcnfzldvfSpYttY30SmbwVV8pGxx++0J7Nh0JGg8E1j+wEsllqxp/NpJAj7pZUeAI9hMFfKfoEGOdtFn4Mc+uxrXWS0RgtDkMj68e45Aurn9rwKE4v+SGY5JaFAb57+fJzTDr9GcdKvLKwK3RWVAg0wViAywPaflV6i8lOwBjXcyU6Oz5PSoURoO73KNb192ELam+6LJrgwgqiswIjwMefO1uKDVSFkf9JZPH5nlTLXS944omhYgsW6K/wrsXLL7Yt56PQYLyw2ALpunASoHTKtSkKA3K5Wlob0U6AMzgGIaL/9VpIbdh1MrfeMnxXKowAfU0cdK35peYvjFj4z3J3t6AfZV8ayC9hZHngk/va5952/uOPD/slEKgA4N387mXLLkAf9wn8/SLvmN7jQ6AFWgFKrjIaLK1NOfbT//o+SAFxnNlxXXM6JEd67uPMX6kwAp6anzEpakQ+LAxMhM8qt+bLtsxWCBQfXv37jff7wVTWX+V/rFrx531p568QxW6On0Lp3GgQoLEKQ67OhkoXkzulEghwC9cB7BxgNMKod/reshGD9Ey2rlkCslhdigmTnEvFqkVHKjOi+UpA81WpDtL+r3Sy/r1rfrduSyE4Ay/VujVrWhJ16auM49yMzM9kISAEuEFVDmt/aiFtErlz+BDJaDCYZqNF9yHofulumH7bo5JcvxJQ73Ntv0Vq/oKbjXGm2C8yKA8d+ChFnwD7Qwq/dGTVNN6ivwLVw1N0HK563nfqkxtumex2gQkAG09ftRqLGu+xHetaaP6m5rqxPFTlohKvY7QPoMp3ZlBrXPHCU3BtOBRQK0APg9znHcatXiOCH9T86OymYtAPZE2zYELRPpE+Ig66gp6DcCsa+KPdmiOl5ySf/R4DVeEtDOn2hqMDNy/dsQMCQe5UsgCw6ayVZ9lO4s/xDF+FgZ+7GiZN8J7qznIYalVS76S4InmCOyPEwEBbgWpIwZGElqfQHB6OQgKgJfhRWIHjZ1O1VEfpHj3dVMz0qd4s6AdftdKG68ZsR/mGCFebBFEaGvZx0jMLv4mwBaqyjPPonmnzL8tnIFi0ALD+rNXnWY7zNwD4qmIh8gfRjTXPvdB1crajFE8CntEglwmKfuDiiaaoWnFJ7ShePfjt9ECaTpdxBpnCgN+agrevZMK0QqqjMZPa0F+zUV7rhNS2H8s6/Zz9KMWCwGi/BkEYP5Mwp1tXP7nxxlwF9F3sDWd0dKAH+DgyuzxXhsUeo+Ur3afKTqBYguG/TkaD5WkjqpMpCBy3bdgNOOY4PvPdj6KAGhs65+ESTmOCWz056Fs45ruLKE8lI5gr22BkG59TViEtgmgiW2T+GjiRYWhq/j6ikjBZv6DjqU0/Gl/egmuw9ZxlUwfSdZ9K2M6fQNzBnKA8iYZPjK7GfdJaGysP42rn6v2I6FOgctax1a515e9PuwFOOIcxEOVSsNFWjzN8rl2GY8my8ozKcUcF5SkH1ermybGecSrmIl5FRHc8/RRagJePp1iQALDp7FUX2GnrVsz8F43PoFx/U63JcJYMayk7gXJRrn6+nHEy5CuNZyq2U6b61VYJYkaAC5hd6Kto16TlzPg0Lvsn2jFxu3PY1vf9UMbzaaca09NW/npLd+Z1EwoAzuUmuWHT6s/C5XDVQgDzhyXDmcwmi+dnGpNNww9NRoPxbN+41orunQ+5E5V0VY0z48q3WvWK0Pp+wYi6h9LPe+EzW9ZlXpBXlf/bc86Zsn5jzz0Jy3lD5gWV/kwJhWritlQSa5wJN966lgcq3Qrlvx9V1dz/ztcUSt1YkOb2sgkl1PIXS3cQgZwEGODpAIz6aNznx9YiZ2Y6GAoC7Gu4vs9JCAWAOCXaCe8esurG1ymnAIDBv6453ftdLA9mrRmMz6CSf1Mds6gxaeY30HlG2hUGouQspZKsonwvGoRuh7n0ruM2fGbL02CU2zJOZac2kruWqObvDqNjhjjBrmBdkhjoaI80B31NVijeCpajnLc6hj61L53uHX+PnALAlHTP5y0nXIN/ZsG5VjwH7mfpglbLA5lk4vV5CGIr/eRzdwjjDsyWl7l4NXBEakMDykOYcOyHql/2SBFptAKKyQklI/KFcf9+AcX3dQoDj+VKWQLA+rNXv8KynXfnOjlsx6ik8ZYHBrA8oC03YWuhYMrDmRc94nUi6GVjwnaNBmdBWqfkriQC5SIw5G7jG3FjXk5fC+Uqv/LNJsAeoxUzSKr56b2yFpLrRAwaq1zdZZYA4DjOB6PYrXK/8gJs0ZiH5YEjUNHRtzb3RyvFiwDbdBek2b0DMhqMV8uGpzZ0tHTgxFbk8JRKJSmFgGdkzP37nPnXSoLSCsup+aMEjxEAGMjHsocvirLlFRuaW8r44jodtQIMuUojCKX4EJDRYHzaMgw1Yfeg9f0wtESwZeDEkOv7tbjNGMOe2YLBfyJzlTECgN1gLUym4+Pe++TyQNKNrka/AlLlBfsDC0NuWUaD+MHX15CUH4Y2iGoZaMFPS35pDKPagrnLHcdtfLlrmvsoB/2NfcOmP0MLDj1AlupjjACwt7d/+qLGMYdy5x6xo3RxyuUB7h7ohIdBGkRkgolYdVTcPAQyjQYZqIbrfPI0mAdWjR/ms+I6GoOqf6IZUo1jilT1uaI/Hb/5WlPzj28kLpNuwT7V8UvgGNmz9OBjRvtDA+nDtK6Pq/9vPiCMVz6zLmW6sc53ED/+IxAIlOJFgC16FPovvpqwn5cqwBnoGLg8pFTbBLh/n67GaVSqX348ngWOV7NhFDwDYXhr3Zsox7Mdx4dzuv7O1dpjBACesA9brhY3xb+rbMPA0NaUMkMNDnwKjBj90GBCKV4E+iHo7UynzW5EyKGnwVqfHcSrdQuvDe2BuH+fQqFSPAh4an5uEa71xKd6DzTbHL/9pCwB4BAkYwY8oNq8FhIdP8xtGPE8R1/eNBqUk4/4tXym0aA6jvi1b64asSs8gt8zw42PV4fmOl/Hwk+Ai9j0EDoXA1ST7HzcBnNtoKDaKmZZO0sA4CR4KywHV09JIfhB+B+IoErIqlKS5IudxQHMFuiW1p88FVRplE85CTBYSw88DTZAYp4FtSGDEdXIluByYg1N3lzVO4zf7n4M/tzLrxR9Apyo0WEPnb/Vuprfa02OTfvcLdHFL2dlCQDMnPtgd6CDXDolmW026N09xu+ey+FToAnhDIKqw2KkqxgjikXVqC2jT4E9aF9G+6KtwJSY+QCPRUMVWAl0We76/mH8ZjXsFwgt5KcxLshs9MP8fdbQfHTSVqFzn51Y1hwoUcDNKQDw7p1cK+szNSsEkAHHAs+ngGJ8k0g8k33CIvwgBAEFIopeG3uOew6jU5S/j+i13/gSc6BnUJ65eDVruj8GD+3U9sDIjwHxgkh5BQBmTiEg3eeY5VwOCOJuEc6D68YtMI4cwtqTjAYj3JCTFD3bp0ASPgUmuUhfV4UAhXKu78uwryr4A79pCr5qZyr4V06ueNRddT+XtUqc9I/Jf0IBgGdS1fBMz7BZBot5rAjUfJLRYG08Apk+BTgb4fKAfApUv+0576HHvj0Y+HvZKypFngCX3Wbj98U9/JK1xzYnn3Das+zGUmVAk/4xN5hUAODZNIrb0DtkFiAU72xNh1yAMhoc8xzF9g/+AGkHwpe7Honnn1bItWQgG4bGpcET24ADf6nrnmGoT62XgYFp2pJy1pXvOeBSFjXwQT7vtoUYv+NSQQIAr+EPkEYH/BHST0AtBVQYxyzrTxkNZiGJ5QEuD+zAb4DSOB0LcdYil8PlbWraZ3C9cy9mQbLoLy/rSuTOJX13Gx9+P/rtZBPnCM3t6Lsh6FZi62rBAoBX1GNQu3FJgL4CuBdTKhuPTG6jQTZmlth18hJ9iiABquLocIMvdmZzsG7ZjNmMUnAEOOE4QMZy1Rsc1CrmxEnSLAz63MqXyBWXtoplC8OtOUbQO2WlfVb4FgAIiz9Oeh1igRc21k5cZda90CSjwUJJRfs8/gY6hwyWB2wzBwLxDAgESsUTGJ3xY/CnHYZSdAlwmVQxOSZuP46lDEbFrciDQVr3TXzb0W+LEgC8q6mi2AwPRM0pCALQCHDQUxpLQEaDY3nE9S9v9wDX7Lg0wO2j+jkU3trsCOlvg4G6YHesFGECfO4pCNPtttT8uRuSzzsdzdGRTzVd0JckAHhV68UvdsPwsJkOd2rzoRGQfYBH5uQ7RSN5GjzJI66faKD2HH7U1JBRCGBEQnWC+VtbM/78bKL2zUhQHqn5J2o3arW4tHUAmsMwbGIJRADwKkyrxSM9tuvE4RSoQyUIeGTGvstocCyPOP7F2AOc0dKlNNWg8/B7kIbsZEtr4D/JIsqfOLFphWUfBd2p8qedtykx5qMvSLuxZqqg6c9brkAFAN6F2jvuFOiCMDCNHR98N9dAcMG8gCf6gqqy8Z4GZTQ4EbHofcffgxeamAIA7QTaYTBYq3ZQVO+zI6RgJFV/9J5nr8R0CcPomnMQS0P9u0cl+52+KmgszPEwjCtbgQsAHgJ3H6NrIGW7Mx/OgCQhenSy32U0mM0kbkfcIESwmWmAwSD9adAqulZMBgfQ+3F9n9FGwzQDitszVu76oBuHJX8Sz64FGxfO/5XGE+BAT2dV1ACGPbJs2QSATCjs+Ggs2ERLaXR68viUSWfsZxkNjuURx79cOwH4ExgxGGSEs4Rhu8cx9bAjxL5JdwYUxilQHKGXoU6u9grPaTu0uhr3cwP2LPr3YeCvxB7+3KXwd7QiAoBXJEbUoyOVXbSUxsNEa2ktG3l0xr5zOJDR4FgmcfsrDTXZXpgAs8OgUMzfQ3MMtg7QuOnwENX8TmQ6wrg9W0HUh32Q67QH0/6mmAqoQXCiYd9BPOtc2oraslZFBQAP9jCA0Up6L14M8zjHtROI5wzIq3Mp75lGgwx1yvXTqEiYpdS7Vq7lxJj+vvmiAEC7kBkwrIqawxQ6CeOeZkblo5GfUjQJcNcKhVGp+SduPzcKJZe58cxz9h/FVBUBwAPFLoJuPg8PDcuS1IMywTsnh67mBAOEF55YRoMTAIvgVzQa6kVg+11oaxrRUjPQig45rGpXCqKHMPvhDqBqODKJYBOHtshurAv4c5mJSZlSbgIcs45BwOX6fhyiUFZVAPAQEyqNJbqH04g4mHY1AlQ96TH0CGW/y2gwm0mcjlCNToM5vmgfMB2dMncPcMtVNRMn9j0Y9N2dDRDeuaynFF0CfJpG3Fkn0PdW99kKM0XO8Lm7jct1/fxxxiSFQgDIZAlbQbMdM6DdsBWYjaUBqaEy6WR/ltFgNpO4HWEQnP0wo98PRSP7aEZRmwqBoBV/0PlKORO7Os7yeyCgc+ZzFJ0fbReUok2A/Qb98rOPrbJMGWqQ7m8PGq6DGPzj+NyHTgDwngYwh7EgI6/RreTIgyoJ1aOT/c5hQEaD2VzidoSTjyNQtx8ZHqkZO29qg6ZAKKChFiJ2u0JBMdsL6bzoOG7AAR/yt+mzbcMlCYz7SjEh4Kn52aeWV3SMNrA4rO8X0gKhFQC8wrPvoZ3AIdgJ8OGlIxUtD3h0cr9nGg1SbcX1Kqlqc7OK+lEOzl34pwvLZ15ix84ZHvp4d682f+SQD7IckWB8N0M4CnkCgXcMBnqN9B7DOL3zeWjHkupcRa2ctFm5FB2X9f1JK4sTQi8AZFbCC7jC5QE6UZkJ9RU7OaXcBKgulqfB3GzifJTDOA3yBt1KalCPc1tPVLc6WI7OwKA/G4570F0q5SHAHSuHIQFz4I/z7io8D1mdQaQEAK/9uDywG74E6EiFki2dC1ENqpSfgGc0OAgd8UHsV6XltsKt5uelb0QgqgSasS5EF73TpOafsAm5vn8QA38U9+9PWDEfX0ZSAPDqR3GGKm6+3LUtCALyMujRyf2OCYE5BVt95jdAdQxuNG4Ju7vK3DXRUREQAY8Apz+aDHk0Jn6nJvmA65Y6a0I88YUx/DbSAkBme7BRPS+DM6n2wvIABzul3ASIJtNo0N1yBhWYDL5y89JREQgjgRTU/OrvJm8ZDvWc8OyD5rM3HVW3PZPX0+8ZsREAvIrTkGkft0ydWB6YhSWCNu1z8fDkfKfR4AJoBebhdQRCgIwGc2LSQREIDQFpPAtrCo4HXO48ANfU6NqUxhGInQDg1W/M8gDsA+jaks5UouZe1atPJd4Z4tMzGqRGhUJUJ6RmKcoqQV/3EIGJCXhqfk1qJubEb101P0b8KLvpnbyWpZ8RWwEgEw33dO5IMwgRfQqMGA3S37VSfgKcYSxFoO8FjQn4qKcELVev+WnpGxEoHwHudJoB+yYta07MmLtYu6HepwZTdk0Ts/K+rQkBwKss17f5cPBFP+tzYCTQonCEHp6c79xKNLdhxP8C19AoCNAjnJIIiEB5CdDx2RxMWKZh8Ncuvvys2R1xZ9MBWPTTsl+pcAI1JQBkYvG8qTUmbAS/UOSrTDa5PucyGmQIzDi6x8xVfx0TgUoQ4O+szZ2cyHZpMt6j3vow8Cv65GS0cn9fswKAh4OOH+hyeC+WByhp06eAYl97dHK/nzQaxDbMExoVeRrMzUpHRaAQAnRjwuXJueh/tDyZnxjn991wXSk1f35Gfr6peQHAg0VHqocwmPEll8MelYnfZTQ4MR99KwKTEWAwJ4b4pmdTqfnz02IMjMNYfmQ0PoWdzs/J7zcSAHIQowUpIxLuOm6fcKUpqTwHpjGHPKPBhTAaHNl2ox/qGED6QwQyCNAzJ7WN7VD3w8xGKQ+BAfTFBzDo02Of1Px5IJVwWALABPDoKtf1KYAHkCFY+YOVT4EJgOErOibxjAZpLEhVHWPHK4lArRPgOM9AZnMR0EzLjPmfBqr51Xfk5xPkNxIACqDJ7SUcxPji+reMBieHNmLMZEFgSpoBO+G6HJbR4OTcdEb8CDAy4yzs5WNQHm06yt++XIZ1bYqg6u+nzl+p7AQkAPhELKNBn8BwOtc56WmQ8Qc6TwTfoAWvkgjEmYDrrQ/P/QwF5ZmwmeG41d3GpwnChJjK8qUEgCKxymjQPzgaOc1EZzizLiVPXf7x6YoIEKDmS0F5CmuoHkwCuETYBc0qtaxKlScgASAA5jIa9A+Rs6MlCE28AOuhMhr0z09XhIsAw43Qjba89U3cLrQGYvTWfXAzrq3DE7OqxLcSAAKkLKNB/zBlNOifma4IDwHaBHELH9f4FWckf7vQQx8t+Q/AY58ciebnVK5voGBxepPJA+PzlwAwnkgAf8to0D/EXEaD9MmgzsI/S11RXgJ8Vlsx5eeuoKmy6psQthuUB47WDmHwV6oeAct2dt+wceOx8SWQADCeSMB/y2jQP9CTRoNJGQ36x6crykSAjq/oLZTe+jjzV8pNwFPzc31fxr65GVX8aNK6J9c9JQDkolKGYzIa9A8102iQBkN0CML1Q80l/LPUFcUToGteBuWZCXsVCgFKuQlwCZSW/FLz5+ZTraOO4wymEokv5rq/BIBcVMp8TEaD/gHTc1oLwhMPwXDwMAQBhSf2z1BX+CPAaHw06uPOFaX8BDw1/2Go+SWc5+dUrW/gm+3/vHXr1udy3V8CQC4qFTomo0H/oNkX05PaHLzoLewgNALaRuSfo67ITYBDvaLx5WaTeZQDPcODU81P7ZxSWAlY/7Vl+7Z/zlc6CQD5yFTwuIwG/cMe6ajHehqU0aB/jrpihACXm6ZrfX/Sx4G2fK4GDtb80PYrhZqA9SuTtK74qDF5fbGPEQDSluVI2VXdFpXRoH/+mUaDRzUr8Q+whq+og350Vv2IRX8Sn5VyE+iDEdOBoTSMcm0E5cl9jo6GiIBjflOfcF5zxZat3ROVaowA4CQSR7BdYKLz9V2FCMho0D9ozuKmwViLL3ddEupJuh5WFDH/LON+hbu+j+eEs34+N0rZBDgSdMNLH9X83dqPmw0orEcs82D9lKbrrli3rmeyImaJvHcuWbLFshLLJ7tQ31eegBdUZBY6Ln5WmpwA+y3aCRxEJ6Y44pPzivMZ/MW46/uwH2mDgZ9SbgIY881B/HMQ+/el5s/NKIxH0dU5lmM+evWObR/H013QTD7rV3DX0qXvMcbKuWUgjJWuxTJRU6nwxP5anr8GhRj1xywuZ7OTYxjeeRj4tX8/f6ty+ZGCMj32SWuWn1NIv9nrONY7rt2x9Xt+ypclAHxhxYqG6Wl7PTJZ6icjnVsdAgpP7J87Ozr6FKDRYF7rGP/Z6oqQEeCOkRlQ8XMPvzRmuRuHgrHU/LnZROeodV96sO7m63dvOOy3zFkCADO4d/GKs9MJ+2f4OMVvhjq/OgQ8L2V0T9qk5YGCGoG7l+hYaD+Mm/ppdKEUCwI0Cp2N3wGXyvRTyN2kfPYP49nfp6Wx3IAicBS7x/bDgOX9127bdm+xxc0pADCz/9/e+QfXUV13/N59+mVjjH/K1OBav3B/uDOQ8AdpSVMobacMbRKYRmBJNoWATbH54UxnMp10psq0HVJD4kiGgu0MDv5JnIaGNtCZFlJ3UtJOZhRoEjsOI70nO8a2LOPfki09vb39HtlrJEuynvTeavfe/e7Y85727d4953N2955777nnbquursdQwE4cwORXk6Ub0Xmy0p7Mk5duzzENHJFscbzsxVbQxQxmEuwkf3Ozj8DMwfz8KeTn510/lvXYzT8WGXv24/2Uwx3+Utb4f/1QZ+epQiS/6pMCJ+DTcAJexUHTCrkIz42GgExxmospTpVwBCSdKbfxCfTh6erGHGfmFBifVRyOkLtaAvtkfF+yRXIbSUAcWsa/jORi4x40T9owa+XxxkzmR8WQf9wnZltV3R1G+9/BRecU44IsY+oJMGhw4swlNkCmEHYhEprrlk+cX9hnyIuLgX1XpxwMcUk3v7T8uVlNIIMkPV9qSqelQV40Y47rAAiyXbW1i3I5swP9yb9rNUIKr5BOH2OjKTUXvQJsMOV3Q0hOga4+ySnAhYjyIxbeUTIeKYF91yNHPz64jUKAQa6jQLF0FxoiJ1JGretXfgu6+y8UW428HAC56H/ecUfJBwcO/I1R+q9wEuMCim2JKS5PDChLm8rwgCRF4TY+AZkT3Q1HoBtBg8yLMj6vYh5Rgm4siWuR+5W360iy7OYfycTmPcY357TWG7LKX1foOP/VOEz4zY+4gJu10htR6G1XK5i/2UOAQYMTs5W8bLkQysSYTfZoieeT1n4lYlk8GcviNoyATF45iS5+zmQZhsXaPwYrfk+9jIXinkHFfzRsRSb1RDUr5d1UXfuIMf6zSuuZYQvJ8qeGgLSy5jFocEKwe9AVcBRDA1yRcELYxj1Y5u1fz6l8Y3IKglW70S2Vk9XEuNlNwJizxtP/WN7fv67+0KETU6XMpByAQLgtVVXXo9L4MrKpPKw9PWxdgeAYftpHQG6KawenVHmYUsWB1nwsKGmGj8ER4As5H1pjHyPJexYMtvg5h380SrL0ruTmp8M5Gh0b95kPjfJayrVprU+nT0+1BgU5AIGwGBb4NXTQ/S2CEz8X7OOnGwQkqYokVJEV07ha2vg2lchrWXtAMg1y7YHxeQVHSECftPjnofKnyxlQufg5OCMF9xOj+YdzsfkvvCYOIJZ/vTnf840VXV09UelSFAcgEH5HdfWnoNiXkTvgjmAfP90gIC9lib6WDGvMNDi+TaVTVlKsHkHQoLTauI1OgC3+0bnIXtw6cCSRkwIOJW+hsTnZ9AtGa36qtVnXM2fOt1a1tWWjlr2oDkCgzM6amk8O5NQXPU/9SbCPn+4QkKBBcQRkHjbzC41v12AaoaRe5XaRACv+se+EoJtf0lRzc4MAEvi8g5lX/7Ask/keKt3YtAhCcQACk13sEdBfgrZ/iAuFeq3gmvycOgLyEh/sFYAjwEyD43NnnIBS5bhnKstTzNN/xe0iVb1U+EfR7GfiqSvg2Punj1rvdS/nPdtwoP1/4qjGlFTKr9TULEkZsxo5BB7FBZlWOI53QgEyyU3EoMH8AUp37nHkEpDkQklZb13S9Mp0vuvgNU7JSyd/c0R65AD6hI/jJuhC5Z9ltr5IbVGsi8tUPgSy7ESdt76hs3N/scoNo5wpfRa31tZWamMex4DWaswamBeGQiwzWgJB0OA89ApwAsHVbSH9gJJdUKK6ex0c5JWXy2zcBLJC5TVcoGfYzSD2llkjJ2B7dvQPQ2PzH0eRrnej31e2YTJL80ah+JQ6AIGCrXV15bNz5n4EQ3wRoyG/GeznpzsEJGhwDlp7lWUlyDTojl5haSKrEEqGwZNYf8D2TZzAeaj0xQmUYSJuFwmIZSUwVBw+sTc3NwjAku9h3dUX+01uaxjpesOkFOnj2SwJhWpqfj+XU08xYDBMM0dbNoMG8+ePumFweEAiv+W7LZtk6ZuFbn6JCZFleSN9scQMmnTuSACoTOPj1NCYGWfy4kjXzfc9z7Q2ZDL/Ovlioj0zNs/pjqqqW4xOfUEZ/wFkFyyNFguvHgYB6QWWRYikS5hBg1cnLMndzuZ89SFaipJ2OI4jBJKZ99qUB5tqNRt25fz94Tbtk+RQqPS70avjM1vfcDiW/mWM6dPa2+37A8+sOHDg55aqcVns2DgAgUSD2QU97zE8L0/ghcIliAMwDn3KTSdBg5JgaBbGiJni/erGldiw03AGZHhAupCj7D2WZFDXIeen2G0mKn/GeYy0nXTvSzf/adiKmxsEUB91wcN9yabx/XzIx84BCITevXTpjP7eCw8haHANAiuWBPv56RYBmRY2H9HhDBrMz67wBVQPugPEETiDlWB68RlmNSMr70kE/wxU9jPgtF0rO7iNICA2kGl8kvhJluPl5gYBzN9/Fw3R9aXTp3+rfu/efje0+kiL2D/NeJQ0EgvdZYxeCWPcB4EZUvaR/Zz5JjfirEvDA1LhcMuPgPQsy7xxiSrvRS3U56MCwnd5U02k11mIS/DeNDxdFWjlV+D7dFT48klrjG0LmbonXfzS4ueiPGNzsukXPFJG++ptGd+PW+KeYnO06tl+ta6uNuv7j+LF9iiHB4p9K8SnvI+CBrkE7GStIm3QAVROslysTCyQymm4Q6AV/C0lcRmyCqR8csufgGR3PNYnaXqFNDcXCATj+yqnv9J0sH2fCzqNp4OVj/3g8EDP+Sal/DVKe0vHU5K/20lAKiUJGpS0w9I65UYCURKQql4CMo8icU8PYjK4OUPgCBr9L+T6y1+yZf5+schb/1aVdQd8o580vn8vlyQu1m0Rr3LkJp2JaDNxBDjFLF62SYI0EnQ5GM2Pbv7s8G6UJKjvrI7oE2vD3JVNNs7fL5ZRrHcAAhC7Fi1aOFBaupJZBgMibn5eDhqEM8BuazdtHBet+qTiRzc/p/HFxSKFywGT5oyv/i2VUi2N6fRbhZdodwnOOACBGYIsg+jSWQvlbgn289MtAnLjMmjQLZvGRZtgNb5TmGHBBn9crFKYHBjf78bSpS8j3uWFZR0dvyysNHfOds4BGGqaHbW1t8Lbe4rJhYZSce87gwbds+lUaxSM70s0vzgA3NwgAEsOpuk913d++6rDh3vd0Kp4WjjtAASYJLlQmfIeNJ56AmsP3BDs56dbBGT2oGSkW4D/0ziV0C3jhqSN1PVM0xsS3OiK9TEb9k3p5m9Ip9/Ga4Ee3Ri2SIQDEOiO2QNl2d7ez6A76GnMHvidYD8/3SIgN3WQaVAcAm4kcCUBSdPbjYj+42jxR5lZ8Uq5+HcBBIw5g6QV35RleJd1dnYWUFJiTk2UAzDUqturqj5htLcGg3x/prUuH/obv7tDgMsTu2PLYmgyOL6PbH2nMI2P4/vFIBqDMrTaZ3zdas6f276iq6snBhJZI0JiHYDAQltraytTOfMQ0g0/hn1VwX5+ukVAbnQJGry+TKtrkNaWW3IISP+vpE6WNL0c33fG7pdX43M9W1+YFku8AxDAbR6yNLH21D0AQzYBHMc+JWhwQbmn5sAhoJEdM+4QdSRVzwl08csyvMzPPwSMzV+NOYvG2i7kffm6C6vxRW0Kvv9GscC22to69A8+goWIHoEfMHeUQ7jLAQKlSIE7Fz0ClViMCB/cHCEgyXq6ka2P+fkdMSjUMMbvQNKezcof2NR48OBJdzSLVhO+9q7CH7MHKkp0qh4ph5/Gkigfu8qh/MliAvIQBLMHrmF2IWstKfn5j17Asskyf99aLSj4UALI1vcOBuxaSjOZ1/AilqUtuBWRAB2APGFKTgHMLVmJHoHlgDYtz9N4mGUEpmP6YCWGBuaUciEiW0wn4/oyvn8aFT83JwhcwHv2276n1q3o6PiZExrFVAk6ABM0DHoFZpUgpwB6j5/GqVUTPJ2HW0IgWIhoAVIOl3EhothZjYF9sTNJwQIZpQ8rbTb7fWUbkrYoT8HwJlkAHYBJgmu+FDRojF6Jbqr7ABIrqXNzjYA8IJJTQByB67AgEbdoCUjFfwLz96XFz8C+aG1RrKvLojx4nbbeuHjRzjv37BkoVrksZ3wCdADGZzTuEQwaHBeREwdUyOwBOAJz8Z+uwNSaVDL2dSOavwuVfxZj/dzsJoBkbH1ae7uN8r+6PJP5P7u1sVd6OgBFtJ0EDZZp/ad4Pa3FGNZvF7FoFhUjAh+lHE4h5XCMBHNQFIn66kZr/wgq/xwz97hg4aOYxrex3PNeqG9v73ZBIZt1oAMQkvUYNBgS2BgVKw/PdRgeqCxPqZlce6ColpH0vMdQ6R/rzzFVb1HJRlNY0M3fO2fWrlVtbdlopOBVryRAB+BKIkX+m0GDRQYa0+KmXRoekORCjBmcvJHY4p88u7idiW7+fnTzv45F2L6+vKPjh3GTj/Kgn5oQpoZAM4MGpwZ0xFcpRe1fiSmE85FciCkF8jeGdO9L4p6LyXvyP49HxpCAMceMp7doz3u+qb39UAwlpEiXCNABiOBWYNBgBNCn+JLyYM2FI3A9hgckeJDb6ASCFv9RdvWPDsiivejmfxf9Xy+VZvu21R86dN4i0RMrKt9MEZq+ta6ufG4u92kGDUZohCm49ExOIxxBmRX/CCS27kB+NPVmKqVaGtPpt2xVIqly0wGIieUZNBgTQ4QohmQZXCBZBjGNMKkPHnr5B7v5j2dziOoPETaLDpUARmxOa21ewX38tcZM5kCoF2PhoRFI6nsoNKCFFsygwUIJxv/8wTgBWYQIzkAKKSWTsEnSHpnKJ6vzsd632uK/QOX/Ym//hc2rDh/utVoTCp/YhkjsTd/MoMHY26hQAT1U/vMQJyDJhcodjBOQiv4M5vPJVL7TMq+Pm60EfOWr73ueaV2WyXwPLiuNaaslr5A7Gc2PK5S27U8GDdpmsYnLK9MH58MRuNaBfAJS1x9HS78b3fzI4cPNVgLGnEHSnldTxqxv6Ozcb6salHtsAnQAxmYTu182Llw4fUZ5+TKj9ePwwT8eOwEpUMEEJLPg/NIUViP0rJpGKEn6zuZ8dTxr1Emk62UTseBbIbIC4LPtR4fUhrJp07bW7917LjJBeOHQCdABCB1xOBdg0GA4XONSqgwPzEJvwFzECszEIkRxfVB7EMkni/OcQMWfFS+Am60E2M1vq+UKkDuu75UCVErWqUOCBp+C5tXJ0j4Z2kqg4GzECsyGIyBDBFGGC0iP/rkBX51CP/9pfLKL3/J70Jiz6ObfpXOplqaD7fss14biT5AAHYAJAovr4c0MGoyraYoql1T+4gTIGgTXwiGogHOAf6Ft0qaXVr78ly7+M1is1WdLPzTeU1WwMX4HktEcpb4AAAu3SURBVPZsVv7ApsaDB09O1XV5nXgRCPHVES9FkyQNgwaTY21ZjHA6nIEZ8AymwTGQ2QQVWKt4MtMLJXjvAir5C2jmn8e0vV6p+PGdFb479xOy9b2D26OlNJN5rV4pycfELcEE6AA4bHxmGnTYuOOoJusQlKBrACMHKnXJIRj2sKOylwo/i3C9AVT0GMLHTC9uLhIwvjmnPLUzlUq1NrS373VRR+o0OQLD3gmTK4Jn2UCAQYM2WIkykkDxCKC1n/aM3lQ60L8ZuflPFK9kluQKAToArlgyTz1219XN7/f9z6PhtwqnVOV5Gg8jARKwgAA6coz21dvGMxs6kLSnmR07FlgtOhHpAETHPtIrNzNoMFL+vDgJFJnABazu/m2lzbNN6fRPi1w2i3OUAB0ARw07EbVeraurzfr+o1id5fPa0/Mmci6PJQESiI6AUfowKv3Nfl/Zhgc/2P9hdJLwyjYSoANgo9VCkjkIGkQw2FOYXHZ7SJdhsSRAAgUSCKL5Fy5e/M937tmDyZncSGDiBOgATJxZIs4IggbhCDRB4emJUJpKkkCMCRhj+rT2dnvKf64hk/lJjEWlaJYQoANgiaGiEjPINIhuxifhDNREJQevSwIJJnAE2fo2pUpKnm94//3jCeZA1YtMgA5AkYG6WlwzggZra2ruVr7/OFohfww9MbucGwmQQGgEjPoBHO/WGxYv/i67+UOjnOiC6QAk2vyTU/6VG5fc4JUNSNDgagYNTo4hzyKB0Qigm78fDvbryuS+1tTZ+b+jHcN9JFAsAnQAikUygeUEQYPG1yvRH/AHCURAlUmgOASMOWY8vUV73vNN7e2HilMoSyGBqxOgA3B1Pvw1TwIMGswTFA8jgSEEkLjnPSz2/GJptm8bsvWdH/ITv5JA6AToAISOOFkX2F1Tc13W6PvxYnsaScl+I1naU1sSyIuA7/vqzVRKtTSm02/ldQYPIoEQCNABCAEqi1SqeWimQd+/F7ECJeRCAokmYMwZpdU3U8asX9bZ2ZloFlQ+FgToAMTCDG4LcTlo0DeYQaDnu60ttSOB4QSM8Ts85W3uV/7Ghzo7Tw3/lX+RQHQE6ABExz5xV969dGlZtrf3MwwaTJzpE6lwkK2vNJN5rV6pXCIhUOlYE6ADEGvzuCvctsV1H1debhWSCzVCy2vc1ZSaJYlAkK3P99S6FR0dP0uS7tTVPgJ0AOyzmVMSXw4aNLknlfaWOqUclUkSgaPI1reR2fqSZHL7daUDYL8NndAAswb0zpqau4zRKw2DBp2waRKUQDd/G+JdW3vnzNq1qq0tmwSdqaM7BOgAuGNLZzTZtWjRQj9Vutx46gll1A3OKEZF3CBgTBa9Vd9F8quWpo6Od9xQilokkQAdgCRa3RKdGTRoiaGSIyYi+M3WlOc9t6yj45fJUZuaukqADoCrlnVMrx1VVbfkdOpxT5kGqMagQcfsG2919M+V8tdnjdmGaXwX4i0rpSOB/AnQAcifFY+MAYHtdXUzdc48gDiBJ5SnfysGIlEERwlwGp+jhqValwnQAbiMgl9sI4CgwU/6Rj/JoEHbLBdfeYPV+LTyn2vMZH4UX0kpGQkUToAOQOEMWULEBLYtXvwrnk6twMt7DXoFboxYHF7eRgJBml6O79toPco8SQJ0ACYJjqfFj8DQoEHMILgLNzfv7/iZKVYSoZs/rYxuNed7vrGiq6snVsJRGBIImQBfkCEDZvHRENhZVfXrvtZ/YXz1MBYimhGNFLxqXAkE8/dvXLxo55179gzEVU7KRQJhEqADECZdlh05gcFMg75+ENO3ViNT25LIBaIAkREwvhlAz9B3Ukp9jeP7kZmBF44RAToAMTIGRQmXwOWgQWXuw42PeoBbIggYcxaDQVtgc6n4DyRCZypJAnkQoAOQByQe4haBHb+6pMYvGVipjXkEYQJz3dKO2gwhcAS9Ppu8gYGWxoMHTw7Zz68kQAIgQAeAt0FiCbTW1ZXPzpn7tTJfAISbEwvCNcW1+jHWlGjh+L5rhqU+xSZAB6DYRFmelQQQNPh7vvHWIDjsswgaLLFSiWQLjZhP9S94oX21IZ3+72SjoPYkkB8BOgD5ceJRCSFwOacAFyKyw+IXF+Z5VeX0V5oOtu+zQ2hKSQLxIEAHIB52oBQxIxDkFPCVekorfXvMxEu8OIjoP6c99TIX5kn8rUAABRCgA1AAPJ6aDAI7amtv9X1/JUJmluOBmZYMreOpJSr+4yqlX/D7yjY8+MH+D+MpJaUiATsI0AGww06UMgYEttbWVqZ8tdJo85gy6oYYiJQYEYxSB5DL4bnevr6XVx0+3JsYxakoCYRIgA5AiHBZtJsEmpXyllRX3+P7WIiIKYdDNfJgxW/U+pMl3ktPtrf3hXoxFk4CCSNAByBhBqe6xSWwo6rqFqX1Wt+oB7TWZcUtPbmlSY5+8Pz7ntmzt61qa8smlwQ1J4HwCNABCI8tS04QgZ3V1QtyWHtA5cxqTCOclyDVi61qJ4Iunzk3Z9YWVvzFRsvySGA4AToAw3nwLxIoiMDGhQunX1NWsQIP1lquPZA/SmP8Dk+l/m5h1aLtXJwnf248kgQKIUAHoBB6PJcExiCAsWuNtQfuyuUwjdBT9+BB47M2OqvBFv/CxYteZsU/OiDuJYGwCPClFBZZlksClwjsWlz3sZxn1qKVez/jBC5CYYufjwcJRE+ADkD0NqAECSEQxAlgEaI16BBI5CJE6Bl5D7qvZ57+hNz0VDPWBOgAxNo8FM5FAoNxAhUVf46AwbXK03Uu6jhUJ1T6CIfQ/660ebYpnX576G/8TgIkEB0BOgDRseeVE06gGfkEamtq7tVG/yXqyE84iKPHRyhEifKfb8hkfuKgflSJBKwmQAfAavNReFcIbK+tvV3lcquN0vchTqDcar202meMebFc62316fRpq3Wh8CTgMAE6AA4bl6rZR2B3Xd387ID/sK/NSnSb11ikwSnt63/yPX/r8kzmBxbJTVFJILEE6AAk1vRUPM4EmmV4oLr6dvQGNChjPhfHoEG08vu0Mm9oz9vxoee9wVS9cb6jKBsJjCRAB2AkE+4hgVgR2HjrraXTT578Iy+nP2tS5u6IFyI6gpb+Gwjse7NsRsV/1O/dey5WsCgMCZBA3gToAOSNigeSQDwIbKuuvhk9A3ejEv6UMeo2T6k5IUp2BC+JHyKN0Tt+zvuvpgPt7+JvXJobCZCA7QToANhuQcqfaAKoifX26uolGDG4TWuzFDBuwvTCmy5NL6zIFw4cidPIWNihfP8XWqf2GeXv17nSHzcefD+dbxk8jgRIwC4CdADsshelJYG8CWypqpo1raRkbr/vz04pNWvEiVqfNFp3ZQcGjj/U2XlhxO/cQQIkQAIkQAIkQAIkQAIkQAIkQAIkQAIkQAIkQAIkQAIkQAIkQAIkQAIkQAIkQAIkQAIkQAIkQAIkQAIkQAIkQAIkQAIkQAIkQAIkQAIkQAIkQAIkQAIkQAIkQAIkQAIkQAIkQAIkQAIkQAIkQAIkQAIkQAIkQAIkQAIkQAIkQAIkQAIkQAIkQAIkQAIkQAIkQAIkQAIkQAIkQAIkQAIkQAIkQAIkQAIkQAIkQAIkQAIkQAIkQAIkQAIkQAIkQAIkQAIkQAIkQAIkQAIkQAIkQAIkQAIkQAIkQAIkQAIkQAIkQAIkQAIkQAIkQAIkQAIkQAIkQAIkQAIkQAIkQAIkQAIkQAIkQAIkQAIkQAIkQAIkQAIkQAIkQAIkQAIkQAIkQAIkQAIkQAIkQAIkQAIkQAIkQAIkQAIkQAIkQAIkQAIkQAIkQAIkQAIkQAIkQAIkQAIkQAIkQAIkQAIkQAIkQAIkQAIkQAIkQAIkQAIkQAIkQAIkQAIkQAIkQAIkQAIkQAIkQAIkQAIkQAIkQAIkQAIkQAIkQAIkQAIkQAIkQAIkQAIkQAIkQAIkQAIkQAIkQAIkQAIkQAIkQAIkQAIkQAIkQAIkQAIkQAIkQAIkQAIkQAIkEFcC/w+w3gp5uJoz6gAAAABJRU5ErkJggg==;" parent="1" vertex="1">
          <mxGeometry x="24.95" y="170" width="80" height="80" as="geometry" />
        </mxCell>
        <mxCell id="lbYwN2UF0Nlyc8jE-Wue-66" value="" style="endArrow=classic;startArrow=classic;html=1;rounded=0;entryX=0.25;entryY=0;entryDx=0;entryDy=0;" parent="1" target="lbYwN2UF0Nlyc8jE-Wue-11" edge="1">
          <mxGeometry width="50" height="50" relative="1" as="geometry">
            <mxPoint x="64" y="240" as="sourcePoint" />
            <mxPoint x="370" y="300" as="targetPoint" />
          </mxGeometry>
        </mxCell>
        <mxCell id="lbYwN2UF0Nlyc8jE-Wue-80" value="" style="edgeStyle=elbowEdgeStyle;elbow=vertical;endArrow=classic;html=1;curved=0;rounded=0;endSize=8;startSize=8;exitX=0.662;exitY=1.025;exitDx=0;exitDy=0;exitPerimeter=0;entryX=0.801;entryY=1.003;entryDx=0;entryDy=0;entryPerimeter=0;fillColor=#e51400;strokeColor=#B20000;strokeWidth=3;" parent="1" source="lbYwN2UF0Nlyc8jE-Wue-11" target="lbYwN2UF0Nlyc8jE-Wue-13" edge="1">
          <mxGeometry width="50" height="50" relative="1" as="geometry">
            <mxPoint x="390" y="570" as="sourcePoint" />
            <mxPoint x="570" y="390" as="targetPoint" />
            <Array as="points">
              <mxPoint x="360" y="610" />
            </Array>
          </mxGeometry>
        </mxCell>
        <mxCell id="lbYwN2UF0Nlyc8jE-Wue-81" value="" style="edgeStyle=elbowEdgeStyle;elbow=vertical;endArrow=classic;html=1;curved=0;rounded=0;endSize=8;startSize=8;exitX=0.75;exitY=1;exitDx=0;exitDy=0;entryX=0.79;entryY=1.014;entryDx=0;entryDy=0;entryPerimeter=0;strokeWidth=3;fillColor=#e51400;strokeColor=#B20000;" parent="1" source="lbYwN2UF0Nlyc8jE-Wue-12" target="lbYwN2UF0Nlyc8jE-Wue-11" edge="1">
          <mxGeometry width="50" height="50" relative="1" as="geometry">
            <mxPoint x="390" y="570" as="sourcePoint" />
            <mxPoint x="160" y="390" as="targetPoint" />
            <Array as="points">
              <mxPoint x="260" y="510" />
            </Array>
          </mxGeometry>
        </mxCell>
        <mxCell id="lbYwN2UF0Nlyc8jE-Wue-82" value="&lt;b&gt;&lt;font style=&quot;font-size: 14px;&quot;&gt;Kafka (Async)&lt;br&gt;Update Inventory Count&lt;/font&gt;&lt;/b&gt;" style="text;html=1;align=center;verticalAlign=middle;resizable=0;points=[];autosize=1;strokeColor=none;fillColor=none;" parent="1" vertex="1">
          <mxGeometry x="169" y="508" width="180" height="50" as="geometry" />
        </mxCell>
        <mxCell id="lbYwN2UF0Nlyc8jE-Wue-83" value="&lt;b&gt;&lt;font style=&quot;font-size: 14px;&quot;&gt;Kafka (Async)&lt;br&gt;Low Inventory - Send Email / SMS&lt;/font&gt;&lt;/b&gt;" style="text;html=1;align=center;verticalAlign=middle;resizable=0;points=[];autosize=1;strokeColor=none;fillColor=none;" parent="1" vertex="1">
          <mxGeometry x="311.75" y="560" width="250" height="50" as="geometry" />
        </mxCell>
        <mxCell id="lbYwN2UF0Nlyc8jE-Wue-85" value="&lt;b&gt;&lt;font style=&quot;font-size: 18px;&quot;&gt;REDIS&lt;/font&gt;&lt;/b&gt;" style="text;html=1;align=center;verticalAlign=middle;resizable=0;points=[];autosize=1;strokeColor=none;fillColor=none;" parent="1" vertex="1">
          <mxGeometry x="170" y="90" width="80" height="40" as="geometry" />
        </mxCell>
        <mxCell id="lbYwN2UF0Nlyc8jE-Wue-86" value="&lt;b&gt;&lt;font style=&quot;font-size: 18px;&quot;&gt;REDIS&lt;/font&gt;&lt;/b&gt;" style="text;html=1;align=center;verticalAlign=middle;resizable=0;points=[];autosize=1;strokeColor=none;fillColor=none;" parent="1" vertex="1">
          <mxGeometry x="24.95" y="140" width="80" height="40" as="geometry" />
        </mxCell>
        <mxCell id="Dqb7xu6qQYFDzsjbhqX_-1" value="" style="endArrow=classic;startArrow=classic;html=1;rounded=0;entryX=0;entryY=0;entryDx=0;entryDy=0;" edge="1" parent="1" target="yeW9yZxDuHKNDsHLT4yy-3">
          <mxGeometry width="50" height="50" relative="1" as="geometry">
            <mxPoint x="280" y="70" as="sourcePoint" />
            <mxPoint x="440" y="220" as="targetPoint" />
          </mxGeometry>
        </mxCell>
        <mxCell id="Dqb7xu6qQYFDzsjbhqX_-2" value="&lt;b style=&quot;&quot;&gt;&lt;font style=&quot;font-size: 18px;&quot;&gt;Service Discovery&lt;/font&gt;&lt;/b&gt;" style="rounded=0;whiteSpace=wrap;html=1;" vertex="1" parent="1">
          <mxGeometry x="170" y="10" width="120" height="60" as="geometry" />
        </mxCell>
        <mxCell id="Dqb7xu6qQYFDzsjbhqX_-3" value="&lt;b&gt;&lt;font style=&quot;font-size: 14px;&quot;&gt;Hashicorp &lt;br&gt;Consul&lt;/font&gt;&lt;/b&gt;" style="text;html=1;align=center;verticalAlign=middle;resizable=0;points=[];autosize=1;strokeColor=none;fillColor=none;" vertex="1" parent="1">
          <mxGeometry x="80" y="15" width="90" height="50" as="geometry" />
        </mxCell>
      </root>
    </mxGraphModel>
  </diagram>
</mxfile>
